<?xml version="1.0" encoding="UTF-8" standalone="no"?>
<!DOCTYPE svg PUBLIC "-//W3C//DTD SVG 1.1//EN"
 "http://www.w3.org/Graphics/SVG/1.1/DTD/svg11.dtd">
<!-- Generated by graphviz version 2.43.0 (0)
 -->
<!-- Title: EthercatSlave Pages: 1 -->
<svg width="541pt" height="95pt"
 viewBox="0.00 0.00 540.50 95.00" xmlns="http://www.w3.org/2000/svg" xmlns:xlink="http://www.w3.org/1999/xlink">
<g id="graph0" class="graph" transform="scale(1 1) rotate(0) translate(4 91)">
<title>EthercatSlave</title>
<!-- Node1 -->
<g id="node1" class="node">
<title>Node1</title>
<g id="a_node1"><a xlink:title=" ">
<polygon fill="#bfbfbf" stroke="black" points="235.5,-0.5 235.5,-19.5 319.5,-19.5 319.5,-0.5 235.5,-0.5"/>
<text text-anchor="middle" x="277.5" y="-7.5" font-family="Helvetica,sans-Serif" font-size="10.00">EthercatSlave</text>
</a>
</g>
</g>
<!-- Node2 -->
<g id="node2" class="node">
<title>Node2</title>
<g id="a_node2"><a xlink:href="structProfilePosParam.html" target="_top" xlink:title="Parameters that should be specified in position mode.">
<polygon fill="none" stroke="black" points="0,-67.5 0,-86.5 97,-86.5 97,-67.5 0,-67.5"/>
<text text-anchor="middle" x="48.5" y="-74.5" font-family="Helvetica,sans-Serif" font-size="10.00">ProfilePosParam</text>
</a>
</g>
</g>
<!-- Node2&#45;&gt;Node1 -->
<g id="edge1" class="edge">
<title>Node2&#45;&gt;Node1</title>
<path fill="none" stroke="#9a32cd" stroke-dasharray="5,2" d="M70.5,-62.05C84.35,-53.87 102.89,-43.99 120.5,-38 158.2,-25.17 203.17,-18.23 235.29,-14.62"/>
<polygon fill="#9a32cd" stroke="#9a32cd" points="68.46,-59.19 61.73,-67.38 72.09,-65.18 68.46,-59.19"/>
<text text-anchor="middle" x="163" y="-41" font-family="Helvetica,sans-Serif" font-size="10.00"> position_param_</text>
</g>
<!-- Node3 -->
<g id="node3" class="node">
<title>Node3</title>
<g id="a_node3"><a xlink:href="structReceivedData.html" target="_top" xlink:title="Received feedback data from slaves.">
<polygon fill="none" stroke="black" points="115,-67.5 115,-86.5 200,-86.5 200,-67.5 115,-67.5"/>
<text text-anchor="middle" x="157.5" y="-74.5" font-family="Helvetica,sans-Serif" font-size="10.00">ReceivedData</text>
</a>
</g>
</g>
<!-- Node3&#45;&gt;Node1 -->
<g id="edge2" class="edge">
<title>Node3&#45;&gt;Node1</title>
<path fill="none" stroke="#9a32cd" stroke-dasharray="5,2" d="M182.5,-62.46C206.29,-49.57 241.37,-30.57 261.57,-19.63"/>
<polygon fill="#9a32cd" stroke="#9a32cd" points="180.81,-59.39 173.68,-67.23 184.14,-65.55 180.81,-59.39"/>
<text text-anchor="middle" x="240" y="-41" font-family="Helvetica,sans-Serif" font-size="10.00"> data_</text>
</g>
<!-- Node4 -->
<g id="node4" class="node">
<title>Node4</title>
<g id="a_node4"><a xlink:href="structProfileVelocityParam.html" target="_top" xlink:title="Parameters that should be specified in velocity mode.">
<polygon fill="none" stroke="black" points="218,-67.5 218,-86.5 337,-86.5 337,-67.5 218,-67.5"/>
<text text-anchor="middle" x="277.5" y="-74.5" font-family="Helvetica,sans-Serif" font-size="10.00">ProfileVelocityParam</text>
</a>
</g>
</g>
<!-- Node4&#45;&gt;Node1 -->
<g id="edge3" class="edge">
<title>Node4&#45;&gt;Node1</title>
<path fill="none" stroke="#9a32cd" stroke-dasharray="5,2" d="M277.5,-57.04C277.5,-44.67 277.5,-29.12 277.5,-19.63"/>
<polygon fill="#9a32cd" stroke="#9a32cd" points="274,-57.23 277.5,-67.23 281,-57.23 274,-57.23"/>
<text text-anchor="middle" x="320" y="-41" font-family="Helvetica,sans-Serif" font-size="10.00"> velocity_param_</text>
</g>
<!-- Node5 -->
<g id="node5" class="node">
<title>Node5</title>
<g id="a_node5"><a xlink:href="structHomingParam.html" target="_top" xlink:title="Parameters that should be specified in homing mode.">
<polygon fill="none" stroke="black" points="355.5,-67.5 355.5,-86.5 441.5,-86.5 441.5,-67.5 355.5,-67.5"/>
<text text-anchor="middle" x="398.5" y="-74.5" font-family="Helvetica,sans-Serif" font-size="10.00">HomingParam</text>
</a>
</g>
</g>
<!-- Node5&#45;&gt;Node1 -->
<g id="edge4" class="edge">
<title>Node5&#45;&gt;Node1</title>
<path fill="none" stroke="#9a32cd" stroke-dasharray="5,2" d="M387.24,-58.6C381.76,-51.32 374.6,-43.34 366.5,-38 352.48,-28.76 335.16,-22.57 319.54,-18.48"/>
<polygon fill="#9a32cd" stroke="#9a32cd" points="384.64,-60.98 393.24,-67.18 390.38,-56.98 384.64,-60.98"/>
<text text-anchor="middle" x="419.5" y="-41" font-family="Helvetica,sans-Serif" font-size="10.00"> homing_param_</text>
</g>
<!-- Node6 -->
<g id="node6" class="node">
<title>Node6</title>
<g id="a_node6"><a xlink:href="structOffsetPDO.html" target="_top" xlink:title="offset for PDO entries to register PDOs.">
<polygon fill="none" stroke="black" points="464.5,-67.5 464.5,-86.5 532.5,-86.5 532.5,-67.5 464.5,-67.5"/>
<text text-anchor="middle" x="498.5" y="-74.5" font-family="Helvetica,sans-Serif" font-size="10.00">OffsetPDO</text>
</a>
</g>
</g>
<!-- Node6&#45;&gt;Node1 -->
<g id="edge5" class="edge">
<title>Node6&#45;&gt;Node1</title>
<path fill="none" stroke="#9a32cd" stroke-dasharray="5,2" d="M487.52,-59.06C481.63,-51.38 473.7,-42.93 464.5,-38 440.14,-24.94 366.84,-17.38 319.57,-13.73"/>
<polygon fill="#9a32cd" stroke="#9a32cd" points="484.82,-61.3 493.44,-67.46 490.54,-57.27 484.82,-61.3"/>
<text text-anchor="middle" x="497" y="-41" font-family="Helvetica,sans-Serif" font-size="10.00"> offset_</text>
</g>
</g>
</svg>
