<?xml version="1.0" encoding="UTF-8" standalone="no"?>
<!DOCTYPE svg PUBLIC "-//W3C//DTD SVG 1.1//EN"
 "http://www.w3.org/Graphics/SVG/1.1/DTD/svg11.dtd">
<!-- Generated by graphviz version 2.49.3 (20211027.1534)
 -->
<!-- Title: EndoscopeViewer Pages: 1 -->
<svg width="197pt" height="152pt"
 viewBox="0.00 0.00 197.00 152.00" xmlns="http://www.w3.org/2000/svg" xmlns:xlink="http://www.w3.org/1999/xlink">
<g id="graph0" class="graph" transform="scale(1 1) rotate(0) translate(4 148)">
<title>EndoscopeViewer</title>
<!-- Node1 -->
<g id="node1" class="node">
<title>Node1</title>
<g id="a_node1"><a xlink:title=" ">
<polygon fill="#bfbfbf" stroke="black" points="8.5,-0.5 8.5,-19.5 103.5,-19.5 103.5,-0.5 8.5,-0.5"/>
<text text-anchor="middle" x="56" y="-7.5" font-family="Helvetica,sans-Serif" font-size="10.00">EndoscopeViewer</text>
</a>
</g>
</g>
<!-- Node2 -->
<g id="node2" class="node">
<title>Node2</title>
<g id="a_node2"><a xlink:title=" ">
<polygon fill="none" stroke="#bfbfbf" points="0,-67.5 0,-86.5 80,-86.5 80,-67.5 0,-67.5"/>
<text text-anchor="middle" x="40" y="-74.5" font-family="Helvetica,sans-Serif" font-size="10.00">QMainWindow</text>
</a>
</g>
</g>
<!-- Node2&#45;&gt;Node1 -->
<g id="edge1" class="edge">
<title>Node2&#45;&gt;Node1</title>
<path fill="none" stroke="midnightblue" d="M44.57,-57.41C47.63,-44.99 51.52,-29.22 53.88,-19.63"/>
<polygon fill="midnightblue" stroke="midnightblue" points="41.15,-56.69 42.16,-67.23 47.95,-58.36 41.15,-56.69"/>
</g>
<!-- Node3 -->
<g id="node3" class="node">
<title>Node3</title>
<g id="a_node3"><a xlink:href="classVideoCapture.html" target="_top" xlink:title=" ">
<polygon fill="none" stroke="black" points="98.5,-67.5 98.5,-86.5 173.5,-86.5 173.5,-67.5 98.5,-67.5"/>
<text text-anchor="middle" x="136" y="-74.5" font-family="Helvetica,sans-Serif" font-size="10.00">VideoCapture</text>
</a>
</g>
</g>
<!-- Node3&#45;&gt;Node1 -->
<g id="edge2" class="edge">
<title>Node3&#45;&gt;Node1</title>
<path fill="none" stroke="#9a32cd" stroke-dasharray="5,2" d="M117.19,-60.71C101.42,-47.91 79.49,-30.09 66.62,-19.63"/>
<polygon fill="#9a32cd" stroke="#9a32cd" points="115.24,-63.64 125.21,-67.23 119.66,-58.21 115.24,-63.64"/>
<text text-anchor="middle" x="144.5" y="-41" font-family="Helvetica,sans-Serif" font-size="10.00"> opencv_video_cap_</text>
</g>
<!-- Node4 -->
<g id="node4" class="node">
<title>Node4</title>
<g id="a_node4"><a xlink:title=" ">
<polygon fill="none" stroke="#bfbfbf" points="109,-124.5 109,-143.5 163,-143.5 163,-124.5 109,-124.5"/>
<text text-anchor="middle" x="136" y="-131.5" font-family="Helvetica,sans-Serif" font-size="10.00">QThread</text>
</a>
</g>
</g>
<!-- Node4&#45;&gt;Node3 -->
<g id="edge3" class="edge">
<title>Node4&#45;&gt;Node3</title>
<path fill="none" stroke="midnightblue" d="M136,-114.12C136,-104.82 136,-94.06 136,-86.71"/>
<polygon fill="midnightblue" stroke="midnightblue" points="132.5,-114.41 136,-124.41 139.5,-114.41 132.5,-114.41"/>
</g>
</g>
</svg>
