<?xml version="1.0" encoding="UTF-8" standalone="no"?>
<!DOCTYPE svg PUBLIC "-//W3C//DTD SVG 1.1//EN"
 "http://www.w3.org/Graphics/SVG/1.1/DTD/svg11.dtd">
<!-- Generated by graphviz version 2.43.0 (0)
 -->
<!-- Title: EthercatCommunication::EthercatNode Pages: 1 -->
<svg width="541pt" height="173pt"
 viewBox="0.00 0.00 540.50 173.00" xmlns="http://www.w3.org/2000/svg" xmlns:xlink="http://www.w3.org/1999/xlink">
<g id="graph0" class="graph" transform="scale(1 1) rotate(0) translate(4 169)">
<title>EthercatCommunication::EthercatNode</title>
<!-- Node1 -->
<g id="node1" class="node">
<title>Node1</title>
<g id="a_node1"><a xlink:title=" ">
<polygon fill="#bfbfbf" stroke="black" points="210.5,-0.5 210.5,-30.5 344.5,-30.5 344.5,-0.5 210.5,-0.5"/>
<text text-anchor="start" x="218.5" y="-18.5" font-family="Helvetica,sans-Serif" font-size="10.00">EthercatCommunication</text>
<text text-anchor="middle" x="277.5" y="-7.5" font-family="Helvetica,sans-Serif" font-size="10.00">::EthercatNode</text>
</a>
</g>
</g>
<!-- Node2 -->
<g id="node2" class="node">
<title>Node2</title>
<g id="a_node2"><a xlink:href="classEthercatSlave.html" target="_top" xlink:title=" ">
<polygon fill="none" stroke="black" points="235.5,-78.5 235.5,-97.5 319.5,-97.5 319.5,-78.5 235.5,-78.5"/>
<text text-anchor="middle" x="277.5" y="-85.5" font-family="Helvetica,sans-Serif" font-size="10.00">EthercatSlave</text>
</a>
</g>
</g>
<!-- Node2&#45;&gt;Node1 -->
<g id="edge1" class="edge">
<title>Node2&#45;&gt;Node1</title>
<path fill="none" stroke="#9a32cd" stroke-dasharray="5,2" d="M277.5,-68.24C277.5,-56.41 277.5,-41.38 277.5,-30.58"/>
<polygon fill="#9a32cd" stroke="#9a32cd" points="274,-68.36 277.5,-78.36 281,-68.36 274,-68.36"/>
<text text-anchor="middle" x="297.5" y="-52" font-family="Helvetica,sans-Serif" font-size="10.00"> slaves_</text>
</g>
<!-- Node3 -->
<g id="node3" class="node">
<title>Node3</title>
<g id="a_node3"><a xlink:href="structProfilePosParam.html" target="_top" xlink:title="Parameters that should be specified in position mode.">
<polygon fill="none" stroke="black" points="0,-145.5 0,-164.5 97,-164.5 97,-145.5 0,-145.5"/>
<text text-anchor="middle" x="48.5" y="-152.5" font-family="Helvetica,sans-Serif" font-size="10.00">ProfilePosParam</text>
</a>
</g>
</g>
<!-- Node3&#45;&gt;Node2 -->
<g id="edge2" class="edge">
<title>Node3&#45;&gt;Node2</title>
<path fill="none" stroke="#9a32cd" stroke-dasharray="5,2" d="M70.5,-140.05C84.35,-131.87 102.89,-121.99 120.5,-116 158.2,-103.17 203.17,-96.23 235.29,-92.62"/>
<polygon fill="#9a32cd" stroke="#9a32cd" points="68.46,-137.19 61.73,-145.38 72.09,-143.18 68.46,-137.19"/>
<text text-anchor="middle" x="163" y="-119" font-family="Helvetica,sans-Serif" font-size="10.00"> position_param_</text>
</g>
<!-- Node4 -->
<g id="node4" class="node">
<title>Node4</title>
<g id="a_node4"><a xlink:href="structReceivedData.html" target="_top" xlink:title="Received feedback data from slaves.">
<polygon fill="none" stroke="black" points="115,-145.5 115,-164.5 200,-164.5 200,-145.5 115,-145.5"/>
<text text-anchor="middle" x="157.5" y="-152.5" font-family="Helvetica,sans-Serif" font-size="10.00">ReceivedData</text>
</a>
</g>
</g>
<!-- Node4&#45;&gt;Node2 -->
<g id="edge3" class="edge">
<title>Node4&#45;&gt;Node2</title>
<path fill="none" stroke="#9a32cd" stroke-dasharray="5,2" d="M182.5,-140.46C206.29,-127.57 241.37,-108.57 261.57,-97.63"/>
<polygon fill="#9a32cd" stroke="#9a32cd" points="180.81,-137.39 173.68,-145.23 184.14,-143.55 180.81,-137.39"/>
<text text-anchor="middle" x="240" y="-119" font-family="Helvetica,sans-Serif" font-size="10.00"> data_</text>
</g>
<!-- Node5 -->
<g id="node5" class="node">
<title>Node5</title>
<g id="a_node5"><a xlink:href="structProfileVelocityParam.html" target="_top" xlink:title="Parameters that should be specified in velocity mode.">
<polygon fill="none" stroke="black" points="218,-145.5 218,-164.5 337,-164.5 337,-145.5 218,-145.5"/>
<text text-anchor="middle" x="277.5" y="-152.5" font-family="Helvetica,sans-Serif" font-size="10.00">ProfileVelocityParam</text>
</a>
</g>
</g>
<!-- Node5&#45;&gt;Node2 -->
<g id="edge4" class="edge">
<title>Node5&#45;&gt;Node2</title>
<path fill="none" stroke="#9a32cd" stroke-dasharray="5,2" d="M277.5,-135.04C277.5,-122.67 277.5,-107.12 277.5,-97.63"/>
<polygon fill="#9a32cd" stroke="#9a32cd" points="274,-135.23 277.5,-145.23 281,-135.23 274,-135.23"/>
<text text-anchor="middle" x="320" y="-119" font-family="Helvetica,sans-Serif" font-size="10.00"> velocity_param_</text>
</g>
<!-- Node6 -->
<g id="node6" class="node">
<title>Node6</title>
<g id="a_node6"><a xlink:href="structHomingParam.html" target="_top" xlink:title="Parameters that should be specified in homing mode.">
<polygon fill="none" stroke="black" points="355.5,-145.5 355.5,-164.5 441.5,-164.5 441.5,-145.5 355.5,-145.5"/>
<text text-anchor="middle" x="398.5" y="-152.5" font-family="Helvetica,sans-Serif" font-size="10.00">HomingParam</text>
</a>
</g>
</g>
<!-- Node6&#45;&gt;Node2 -->
<g id="edge5" class="edge">
<title>Node6&#45;&gt;Node2</title>
<path fill="none" stroke="#9a32cd" stroke-dasharray="5,2" d="M387.24,-136.6C381.76,-129.32 374.6,-121.34 366.5,-116 352.48,-106.76 335.16,-100.57 319.54,-96.48"/>
<polygon fill="#9a32cd" stroke="#9a32cd" points="384.64,-138.98 393.24,-145.18 390.38,-134.98 384.64,-138.98"/>
<text text-anchor="middle" x="419.5" y="-119" font-family="Helvetica,sans-Serif" font-size="10.00"> homing_param_</text>
</g>
<!-- Node7 -->
<g id="node7" class="node">
<title>Node7</title>
<g id="a_node7"><a xlink:href="structOffsetPDO.html" target="_top" xlink:title="offset for PDO entries to register PDOs.">
<polygon fill="none" stroke="black" points="464.5,-145.5 464.5,-164.5 532.5,-164.5 532.5,-145.5 464.5,-145.5"/>
<text text-anchor="middle" x="498.5" y="-152.5" font-family="Helvetica,sans-Serif" font-size="10.00">OffsetPDO</text>
</a>
</g>
</g>
<!-- Node7&#45;&gt;Node2 -->
<g id="edge6" class="edge">
<title>Node7&#45;&gt;Node2</title>
<path fill="none" stroke="#9a32cd" stroke-dasharray="5,2" d="M487.52,-137.06C481.63,-129.38 473.7,-120.93 464.5,-116 440.14,-102.94 366.84,-95.38 319.57,-91.73"/>
<polygon fill="#9a32cd" stroke="#9a32cd" points="484.82,-139.3 493.44,-145.46 490.54,-135.27 484.82,-139.3"/>
<text text-anchor="middle" x="497" y="-119" font-family="Helvetica,sans-Serif" font-size="10.00"> offset_</text>
</g>
</g>
</svg>
