<?xml version="1.0" encoding="UTF-8" standalone="no"?>
<!DOCTYPE svg PUBLIC "-//W3C//DTD SVG 1.1//EN"
 "http://www.w3.org/Graphics/SVG/1.1/DTD/svg11.dtd">
<!-- Generated by graphviz version 2.49.3 (20211027.1534)
 -->
<!-- Title: EthercatSlave Pages: 1 -->
<svg width="497pt" height="95pt"
 viewBox="0.00 0.00 497.00 95.00" xmlns="http://www.w3.org/2000/svg" xmlns:xlink="http://www.w3.org/1999/xlink">
<g id="graph0" class="graph" transform="scale(1 1) rotate(0) translate(4 91)">
<title>EthercatSlave</title>
<!-- Node1 -->
<g id="node1" class="node">
<title>Node1</title>
<g id="a_node1"><a xlink:title=" ">
<polygon fill="#bfbfbf" stroke="black" points="192.5,-0.5 192.5,-19.5 269.5,-19.5 269.5,-0.5 192.5,-0.5"/>
<text text-anchor="middle" x="231" y="-7.5" font-family="Helvetica,sans-Serif" font-size="10.00">EthercatSlave</text>
</a>
</g>
</g>
<!-- Node2 -->
<g id="node2" class="node">
<title>Node2</title>
<g id="a_node2"><a xlink:href="structOffsetPDO.html" target="_top" xlink:title="offset for PDO entries to register PDOs.">
<polygon fill="none" stroke="black" points="0,-67.5 0,-86.5 64,-86.5 64,-67.5 0,-67.5"/>
<text text-anchor="middle" x="32" y="-74.5" font-family="Helvetica,sans-Serif" font-size="10.00">OffsetPDO</text>
</a>
</g>
</g>
<!-- Node2&#45;&gt;Node1 -->
<g id="edge1" class="edge">
<title>Node2&#45;&gt;Node1</title>
<path fill="none" stroke="#9a32cd" stroke-dasharray="5,2" d="M62.55,-63.68C82.45,-55.86 109.07,-45.78 133,-38 153.98,-31.18 177.84,-24.58 196.76,-19.62"/>
<polygon fill="#9a32cd" stroke="#9a32cd" points="61.09,-60.49 53.08,-67.43 63.67,-67 61.09,-60.49"/>
<text text-anchor="middle" x="149" y="-41" font-family="Helvetica,sans-Serif" font-size="10.00"> offset_</text>
</g>
<!-- Node3 -->
<g id="node3" class="node">
<title>Node3</title>
<g id="a_node3"><a xlink:href="structReceivedData.html" target="_top" xlink:title="Received feedback data from slaves.">
<polygon fill="none" stroke="black" points="82.5,-67.5 82.5,-86.5 159.5,-86.5 159.5,-67.5 82.5,-67.5"/>
<text text-anchor="middle" x="121" y="-74.5" font-family="Helvetica,sans-Serif" font-size="10.00">ReceivedData</text>
</a>
</g>
</g>
<!-- Node3&#45;&gt;Node1 -->
<g id="edge2" class="edge">
<title>Node3&#45;&gt;Node1</title>
<path fill="none" stroke="#9a32cd" stroke-dasharray="5,2" d="M144.5,-62.12C166.29,-49.24 198.04,-30.48 216.4,-19.63"/>
<polygon fill="#9a32cd" stroke="#9a32cd" points="142.66,-59.13 135.84,-67.23 146.22,-65.16 142.66,-59.13"/>
<text text-anchor="middle" x="195.5" y="-41" font-family="Helvetica,sans-Serif" font-size="10.00"> data_</text>
</g>
<!-- Node4 -->
<g id="node4" class="node">
<title>Node4</title>
<g id="a_node4"><a xlink:href="structProfileVelocityParam.html" target="_top" xlink:title="Parameters that should be specified in velocity mode.">
<polygon fill="none" stroke="black" points="177.5,-67.5 177.5,-86.5 284.5,-86.5 284.5,-67.5 177.5,-67.5"/>
<text text-anchor="middle" x="231" y="-74.5" font-family="Helvetica,sans-Serif" font-size="10.00">ProfileVelocityParam</text>
</a>
</g>
</g>
<!-- Node4&#45;&gt;Node1 -->
<g id="edge3" class="edge">
<title>Node4&#45;&gt;Node1</title>
<path fill="none" stroke="#9a32cd" stroke-dasharray="5,2" d="M231,-57.04C231,-44.67 231,-29.12 231,-19.63"/>
<polygon fill="#9a32cd" stroke="#9a32cd" points="227.5,-57.23 231,-67.23 234.5,-57.23 227.5,-57.23"/>
<text text-anchor="middle" x="267.5" y="-41" font-family="Helvetica,sans-Serif" font-size="10.00"> velocity_param_</text>
</g>
<!-- Node5 -->
<g id="node5" class="node">
<title>Node5</title>
<g id="a_node5"><a xlink:href="structProfilePosParam.html" target="_top" xlink:title="Parameters that should be specified in position mode.">
<polygon fill="none" stroke="black" points="302.5,-67.5 302.5,-86.5 391.5,-86.5 391.5,-67.5 302.5,-67.5"/>
<text text-anchor="middle" x="347" y="-74.5" font-family="Helvetica,sans-Serif" font-size="10.00">ProfilePosParam</text>
</a>
</g>
</g>
<!-- Node5&#45;&gt;Node1 -->
<g id="edge4" class="edge">
<title>Node5&#45;&gt;Node1</title>
<path fill="none" stroke="#9a32cd" stroke-dasharray="5,2" d="M333.4,-59.81C326.43,-52.34 317.44,-43.85 308,-38 295,-29.94 279.26,-23.88 265.41,-19.56"/>
<polygon fill="#9a32cd" stroke="#9a32cd" points="330.83,-62.18 340.08,-67.34 336.06,-57.54 330.83,-62.18"/>
<text text-anchor="middle" x="359" y="-41" font-family="Helvetica,sans-Serif" font-size="10.00"> position_param_</text>
</g>
<!-- Node6 -->
<g id="node6" class="node">
<title>Node6</title>
<g id="a_node6"><a xlink:href="structHomingParam.html" target="_top" xlink:title="Parameters that should be specified in homing mode.">
<polygon fill="none" stroke="black" points="409.5,-67.5 409.5,-86.5 488.5,-86.5 488.5,-67.5 409.5,-67.5"/>
<text text-anchor="middle" x="449" y="-74.5" font-family="Helvetica,sans-Serif" font-size="10.00">HomingParam</text>
</a>
</g>
</g>
<!-- Node6&#45;&gt;Node1 -->
<g id="edge5" class="edge">
<title>Node6&#45;&gt;Node1</title>
<path fill="none" stroke="#9a32cd" stroke-dasharray="5,2" d="M433.13,-60.35C424.13,-52.4 412.25,-43.31 400,-38 357.88,-19.74 305.05,-13.69 269.77,-11.76"/>
<polygon fill="#9a32cd" stroke="#9a32cd" points="430.79,-62.96 440.5,-67.2 435.56,-57.83 430.79,-62.96"/>
<text text-anchor="middle" x="453" y="-41" font-family="Helvetica,sans-Serif" font-size="10.00"> homing_param_</text>
</g>
</g>
</svg>
