<?xml version="1.0" encoding="UTF-8" standalone="no"?>
<!DOCTYPE svg PUBLIC "-//W3C//DTD SVG 1.1//EN"
 "http://www.w3.org/Graphics/SVG/1.1/DTD/svg11.dtd">
<!-- Generated by graphviz version 2.49.3 (20211027.1534)
 -->
<!-- Title: GUI::GuiNode Pages: 1 -->
<svg width="151pt" height="95pt"
 viewBox="0.00 0.00 150.50 95.00" xmlns="http://www.w3.org/2000/svg" xmlns:xlink="http://www.w3.org/1999/xlink">
<g id="graph0" class="graph" transform="scale(1 1) rotate(0) translate(4 91)">
<title>GUI::GuiNode</title>
<!-- Node1 -->
<g id="node1" class="node">
<title>Node1</title>
<g id="a_node1"><a xlink:title="This node will be responsible from all GUI interaction and visualization of feedback information acqu...">
<polygon fill="#bfbfbf" stroke="black" points="35,-0.5 35,-19.5 112,-19.5 112,-0.5 35,-0.5"/>
<text text-anchor="middle" x="73.5" y="-7.5" font-family="Helvetica,sans-Serif" font-size="10.00">GUI::GuiNode</text>
</a>
</g>
</g>
<!-- Node2 -->
<g id="node2" class="node">
<title>Node2</title>
<g id="a_node2"><a xlink:title=" ">
<polygon fill="none" stroke="#bfbfbf" points="0,-67.5 0,-86.5 71,-86.5 71,-67.5 0,-67.5"/>
<text text-anchor="middle" x="35.5" y="-74.5" font-family="Helvetica,sans-Serif" font-size="10.00">rclcpp::Node</text>
</a>
</g>
</g>
<!-- Node2&#45;&gt;Node1 -->
<g id="edge1" class="edge">
<title>Node2&#45;&gt;Node1</title>
<path fill="none" stroke="midnightblue" d="M45.71,-58.53C53.07,-45.95 62.68,-29.51 68.46,-19.63"/>
<polygon fill="midnightblue" stroke="midnightblue" points="42.65,-56.83 40.62,-67.23 48.69,-60.37 42.65,-56.83"/>
</g>
<!-- Node3 -->
<g id="node3" class="node">
<title>Node3</title>
<g id="a_node3"><a xlink:href="classTiming.html" target="_top" xlink:title=" ">
<polygon fill="none" stroke="black" points="89.5,-67.5 89.5,-86.5 135.5,-86.5 135.5,-67.5 89.5,-67.5"/>
<text text-anchor="middle" x="112.5" y="-74.5" font-family="Helvetica,sans-Serif" font-size="10.00">Timing</text>
</a>
</g>
</g>
<!-- Node3&#45;&gt;Node1 -->
<g id="edge2" class="edge">
<title>Node3&#45;&gt;Node1</title>
<path fill="none" stroke="#9a32cd" stroke-dasharray="5,2" d="M102.02,-58.53C94.47,-45.95 84.6,-29.51 78.68,-19.63"/>
<polygon fill="#9a32cd" stroke="#9a32cd" points="99.09,-60.46 107.24,-67.23 105.1,-56.86 99.09,-60.46"/>
<text text-anchor="middle" x="118.5" y="-41" font-family="Helvetica,sans-Serif" font-size="10.00"> time_info_</text>
</g>
</g>
</svg>
