<?xml version="1.0" encoding="UTF-8" standalone="no"?>
<!DOCTYPE svg PUBLIC "-//W3C//DTD SVG 1.1//EN"
 "http://www.w3.org/Graphics/SVG/1.1/DTD/svg11.dtd">
<!-- Generated by graphviz version 2.49.3 (20211027.1534)
 -->
<!-- Title: EthercatCommunication::EthercatNode Pages: 1 -->
<svg width="497pt" height="173pt"
 viewBox="0.00 0.00 497.00 173.00" xmlns="http://www.w3.org/2000/svg" xmlns:xlink="http://www.w3.org/1999/xlink">
<g id="graph0" class="graph" transform="scale(1 1) rotate(0) translate(4 169)">
<title>EthercatCommunication::EthercatNode</title>
<!-- Node1 -->
<g id="node1" class="node">
<title>Node1</title>
<g id="a_node1"><a xlink:title=" ">
<polygon fill="#bfbfbf" stroke="black" points="171,-0.5 171,-30.5 291,-30.5 291,-0.5 171,-0.5"/>
<text text-anchor="start" x="179" y="-18.5" font-family="Helvetica,sans-Serif" font-size="10.00">EthercatCommunication</text>
<text text-anchor="middle" x="231" y="-7.5" font-family="Helvetica,sans-Serif" font-size="10.00">::EthercatNode</text>
</a>
</g>
</g>
<!-- Node2 -->
<g id="node2" class="node">
<title>Node2</title>
<g id="a_node2"><a xlink:href="classEthercatSlave.html" target="_top" xlink:title=" ">
<polygon fill="none" stroke="black" points="192.5,-78.5 192.5,-97.5 269.5,-97.5 269.5,-78.5 192.5,-78.5"/>
<text text-anchor="middle" x="231" y="-85.5" font-family="Helvetica,sans-Serif" font-size="10.00">EthercatSlave</text>
</a>
</g>
</g>
<!-- Node2&#45;&gt;Node1 -->
<g id="edge1" class="edge">
<title>Node2&#45;&gt;Node1</title>
<path fill="none" stroke="#9a32cd" stroke-dasharray="5,2" d="M231,-68.24C231,-56.41 231,-41.38 231,-30.58"/>
<polygon fill="#9a32cd" stroke="#9a32cd" points="227.5,-68.36 231,-78.36 234.5,-68.36 227.5,-68.36"/>
<text text-anchor="middle" x="249.5" y="-52" font-family="Helvetica,sans-Serif" font-size="10.00"> slaves_</text>
</g>
<!-- Node3 -->
<g id="node3" class="node">
<title>Node3</title>
<g id="a_node3"><a xlink:href="structOffsetPDO.html" target="_top" xlink:title="offset for PDO entries to register PDOs.">
<polygon fill="none" stroke="black" points="0,-145.5 0,-164.5 64,-164.5 64,-145.5 0,-145.5"/>
<text text-anchor="middle" x="32" y="-152.5" font-family="Helvetica,sans-Serif" font-size="10.00">OffsetPDO</text>
</a>
</g>
</g>
<!-- Node3&#45;&gt;Node2 -->
<g id="edge2" class="edge">
<title>Node3&#45;&gt;Node2</title>
<path fill="none" stroke="#9a32cd" stroke-dasharray="5,2" d="M62.55,-141.68C82.45,-133.86 109.07,-123.78 133,-116 153.98,-109.18 177.84,-102.58 196.76,-97.62"/>
<polygon fill="#9a32cd" stroke="#9a32cd" points="61.09,-138.49 53.08,-145.43 63.67,-145 61.09,-138.49"/>
<text text-anchor="middle" x="149" y="-119" font-family="Helvetica,sans-Serif" font-size="10.00"> offset_</text>
</g>
<!-- Node4 -->
<g id="node4" class="node">
<title>Node4</title>
<g id="a_node4"><a xlink:href="structReceivedData.html" target="_top" xlink:title="Received feedback data from slaves.">
<polygon fill="none" stroke="black" points="82.5,-145.5 82.5,-164.5 159.5,-164.5 159.5,-145.5 82.5,-145.5"/>
<text text-anchor="middle" x="121" y="-152.5" font-family="Helvetica,sans-Serif" font-size="10.00">ReceivedData</text>
</a>
</g>
</g>
<!-- Node4&#45;&gt;Node2 -->
<g id="edge3" class="edge">
<title>Node4&#45;&gt;Node2</title>
<path fill="none" stroke="#9a32cd" stroke-dasharray="5,2" d="M144.5,-140.12C166.29,-127.24 198.04,-108.48 216.4,-97.63"/>
<polygon fill="#9a32cd" stroke="#9a32cd" points="142.66,-137.13 135.84,-145.23 146.22,-143.16 142.66,-137.13"/>
<text text-anchor="middle" x="195.5" y="-119" font-family="Helvetica,sans-Serif" font-size="10.00"> data_</text>
</g>
<!-- Node5 -->
<g id="node5" class="node">
<title>Node5</title>
<g id="a_node5"><a xlink:href="structProfileVelocityParam.html" target="_top" xlink:title="Parameters that should be specified in velocity mode.">
<polygon fill="none" stroke="black" points="177.5,-145.5 177.5,-164.5 284.5,-164.5 284.5,-145.5 177.5,-145.5"/>
<text text-anchor="middle" x="231" y="-152.5" font-family="Helvetica,sans-Serif" font-size="10.00">ProfileVelocityParam</text>
</a>
</g>
</g>
<!-- Node5&#45;&gt;Node2 -->
<g id="edge4" class="edge">
<title>Node5&#45;&gt;Node2</title>
<path fill="none" stroke="#9a32cd" stroke-dasharray="5,2" d="M231,-135.04C231,-122.67 231,-107.12 231,-97.63"/>
<polygon fill="#9a32cd" stroke="#9a32cd" points="227.5,-135.23 231,-145.23 234.5,-135.23 227.5,-135.23"/>
<text text-anchor="middle" x="267.5" y="-119" font-family="Helvetica,sans-Serif" font-size="10.00"> velocity_param_</text>
</g>
<!-- Node6 -->
<g id="node6" class="node">
<title>Node6</title>
<g id="a_node6"><a xlink:href="structProfilePosParam.html" target="_top" xlink:title="Parameters that should be specified in position mode.">
<polygon fill="none" stroke="black" points="302.5,-145.5 302.5,-164.5 391.5,-164.5 391.5,-145.5 302.5,-145.5"/>
<text text-anchor="middle" x="347" y="-152.5" font-family="Helvetica,sans-Serif" font-size="10.00">ProfilePosParam</text>
</a>
</g>
</g>
<!-- Node6&#45;&gt;Node2 -->
<g id="edge5" class="edge">
<title>Node6&#45;&gt;Node2</title>
<path fill="none" stroke="#9a32cd" stroke-dasharray="5,2" d="M333.4,-137.81C326.43,-130.34 317.44,-121.85 308,-116 295,-107.94 279.26,-101.88 265.41,-97.56"/>
<polygon fill="#9a32cd" stroke="#9a32cd" points="330.83,-140.18 340.08,-145.34 336.06,-135.54 330.83,-140.18"/>
<text text-anchor="middle" x="359" y="-119" font-family="Helvetica,sans-Serif" font-size="10.00"> position_param_</text>
</g>
<!-- Node7 -->
<g id="node7" class="node">
<title>Node7</title>
<g id="a_node7"><a xlink:href="structHomingParam.html" target="_top" xlink:title="Parameters that should be specified in homing mode.">
<polygon fill="none" stroke="black" points="409.5,-145.5 409.5,-164.5 488.5,-164.5 488.5,-145.5 409.5,-145.5"/>
<text text-anchor="middle" x="449" y="-152.5" font-family="Helvetica,sans-Serif" font-size="10.00">HomingParam</text>
</a>
</g>
</g>
<!-- Node7&#45;&gt;Node2 -->
<g id="edge6" class="edge">
<title>Node7&#45;&gt;Node2</title>
<path fill="none" stroke="#9a32cd" stroke-dasharray="5,2" d="M433.13,-138.35C424.13,-130.4 412.25,-121.31 400,-116 357.88,-97.74 305.05,-91.69 269.77,-89.76"/>
<polygon fill="#9a32cd" stroke="#9a32cd" points="430.79,-140.96 440.5,-145.2 435.56,-135.83 430.79,-140.96"/>
<text text-anchor="middle" x="453" y="-119" font-family="Helvetica,sans-Serif" font-size="10.00"> homing_param_</text>
</g>
</g>
</svg>
