<?xml version="1.0" encoding="UTF-8" standalone="no"?>
<!DOCTYPE svg PUBLIC "-//W3C//DTD SVG 1.1//EN"
 "http://www.w3.org/Graphics/SVG/1.1/DTD/svg11.dtd">
<!-- Generated by graphviz version 2.43.0 (0)
 -->
<!-- Title: src/gui_pkg/src/controlui.cpp Pages: 1 -->
<svg width="212pt" height="151pt"
 viewBox="0.00 0.00 211.50 151.00" xmlns="http://www.w3.org/2000/svg" xmlns:xlink="http://www.w3.org/1999/xlink">
<g id="graph0" class="graph" transform="scale(1 1) rotate(0) translate(4 147)">
<title>src/gui_pkg/src/controlui.cpp</title>
<!-- Node1 -->
<g id="node1" class="node">
<title>Node1</title>
<g id="a_node1"><a xlink:title=" ">
<polygon fill="#bfbfbf" stroke="black" points="28.5,-123.5 28.5,-142.5 183.5,-142.5 183.5,-123.5 28.5,-123.5"/>
<text text-anchor="middle" x="106" y="-130.5" font-family="Helvetica,sans-Serif" font-size="10.00">src/gui_pkg/src/controlui.cpp</text>
</a>
</g>
</g>
<!-- Node2 -->
<g id="node2" class="node">
<title>Node2</title>
<g id="a_node2"><a xlink:href="controlui_8hpp.html" target="_top" xlink:title=" ">
<polygon fill="none" stroke="black" points="0,-56.5 0,-86.5 102,-86.5 102,-56.5 0,-56.5"/>
<text text-anchor="start" x="8" y="-74.5" font-family="Helvetica,sans-Serif" font-size="10.00">../include/gui_pkg</text>
<text text-anchor="middle" x="51" y="-63.5" font-family="Helvetica,sans-Serif" font-size="10.00">/controlui.hpp</text>
</a>
</g>
</g>
<!-- Node1&#45;&gt;Node2 -->
<g id="edge1" class="edge">
<title>Node1&#45;&gt;Node2</title>
<path fill="none" stroke="midnightblue" d="M98.12,-123.48C91.02,-115.79 80.28,-104.17 70.84,-93.96"/>
<polygon fill="midnightblue" stroke="midnightblue" points="73.32,-91.49 63.96,-86.52 68.18,-96.24 73.32,-91.49"/>
</g>
<!-- Node4 -->
<g id="node4" class="node">
<title>Node4</title>
<g id="a_node4"><a xlink:title=" ">
<polygon fill="none" stroke="#bfbfbf" points="120.5,-62 120.5,-81 203.5,-81 203.5,-62 120.5,-62"/>
<text text-anchor="middle" x="162" y="-69" font-family="Helvetica,sans-Serif" font-size="10.00">ui_controlui.h</text>
</a>
</g>
</g>
<!-- Node1&#45;&gt;Node4 -->
<g id="edge3" class="edge">
<title>Node1&#45;&gt;Node4</title>
<path fill="none" stroke="midnightblue" d="M114.02,-123.48C122.59,-114.37 136.36,-99.74 146.96,-88.48"/>
<polygon fill="midnightblue" stroke="midnightblue" points="149.69,-90.69 153.99,-81.01 144.59,-85.89 149.69,-90.69"/>
</g>
<!-- Node3 -->
<g id="node3" class="node">
<title>Node3</title>
<g id="a_node3"><a xlink:title=" ">
<polygon fill="none" stroke="#bfbfbf" points="7.5,-0.5 7.5,-19.5 94.5,-19.5 94.5,-0.5 7.5,-0.5"/>
<text text-anchor="middle" x="51" y="-7.5" font-family="Helvetica,sans-Serif" font-size="10.00">QMainWindow</text>
</a>
</g>
</g>
<!-- Node2&#45;&gt;Node3 -->
<g id="edge2" class="edge">
<title>Node2&#45;&gt;Node3</title>
<path fill="none" stroke="midnightblue" d="M51,-56.4C51,-48.47 51,-38.46 51,-29.86"/>
<polygon fill="midnightblue" stroke="midnightblue" points="54.5,-29.66 51,-19.66 47.5,-29.66 54.5,-29.66"/>
</g>
</g>
</svg>
