<?xml version="1.0" encoding="UTF-8" standalone="no"?>
<!DOCTYPE svg PUBLIC "-//W3C//DTD SVG 1.1//EN"
 "http://www.w3.org/Graphics/SVG/1.1/DTD/svg11.dtd">
<!-- Generated by graphviz version 2.49.3 (20211027.1534)
 -->
<!-- Title: src Pages: 1 -->
<svg width="556pt" height="148pt"
 viewBox="0.00 0.00 556.00 148.00" xmlns="http://www.w3.org/2000/svg" xmlns:xlink="http://www.w3.org/1999/xlink">
<g id="graph0" class="graph" transform="scale(1 1) rotate(0) translate(4 144)">
<title>src</title>
<g id="clust1" class="cluster">
<title>clusterdir_68267d1309a1af8e8297ef4c3efbcdba</title>
<g id="a_clust1"><a xlink:href="dir_68267d1309a1af8e8297ef4c3efbcdba.html" target="_top">
<polygon fill="#eeeeff" stroke="black" points="8,-8 8,-132 540,-132 540,-8 8,-8"/>
</a>
</g>
</g>
<!-- dir_68267d1309a1af8e8297ef4c3efbcdba -->
<g id="node1" class="node">
<title>dir_68267d1309a1af8e8297ef4c3efbcdba</title>
<text text-anchor="middle" x="505" y="-103.5" font-family="Helvetica,sans-Serif" font-size="10.00">src</text>
</g>
<!-- dir_41ef5d8a90b9cc03a02949a5c062e6f0 -->
<g id="node2" class="node">
<title>dir_41ef5d8a90b9cc03a02949a5c062e6f0</title>
<g id="a_node2"><a xlink:href="dir_41ef5d8a90b9cc03a02949a5c062e6f0.html" target="_top" xlink:title="controller">
<polygon fill="white" stroke="red" points="460,-124 404,-124 404,-88 460,-88 460,-124"/>
<text text-anchor="middle" x="432" y="-103.5" font-family="Helvetica,sans-Serif" font-size="10.00">controller</text>
</a>
</g>
</g>
<!-- dir_620320258e45fc0c4377bdb2534829a3 -->
<g id="node3" class="node">
<title>dir_620320258e45fc0c4377bdb2534829a3</title>
<g id="a_node3"><a xlink:href="dir_620320258e45fc0c4377bdb2534829a3.html" target="_top" xlink:title="ecat_msgs">
<polygon fill="white" stroke="black" points="385.5,-124 320.5,-124 320.5,-88 385.5,-88 385.5,-124"/>
<text text-anchor="middle" x="353" y="-103.5" font-family="Helvetica,sans-Serif" font-size="10.00">ecat_msgs</text>
</a>
</g>
</g>
<!-- dir_6ed40f2d31a14c8f080c4f6acbbad9fa -->
<g id="node4" class="node">
<title>dir_6ed40f2d31a14c8f080c4f6acbbad9fa</title>
<g id="a_node4"><a xlink:href="dir_6ed40f2d31a14c8f080c4f6acbbad9fa.html" target="_top" xlink:title="ecat_pkg">
<polygon fill="white" stroke="red" points="189,-52 133,-52 133,-16 189,-16 189,-52"/>
<text text-anchor="middle" x="161" y="-31.5" font-family="Helvetica,sans-Serif" font-size="10.00">ecat_pkg</text>
</a>
</g>
</g>
<!-- dir_a8d7c3dfc6a2d1ab1ed6aadf73452078 -->
<g id="node5" class="node">
<title>dir_a8d7c3dfc6a2d1ab1ed6aadf73452078</title>
<g id="a_node5"><a xlink:href="dir_a8d7c3dfc6a2d1ab1ed6aadf73452078.html" target="_top" xlink:title="gui_pkg">
<polygon fill="white" stroke="red" points="302,-124 248,-124 248,-88 302,-88 302,-124"/>
<text text-anchor="middle" x="275" y="-103.5" font-family="Helvetica,sans-Serif" font-size="10.00">gui_pkg</text>
</a>
</g>
</g>
<!-- dir_a8d7c3dfc6a2d1ab1ed6aadf73452078&#45;&gt;dir_6ed40f2d31a14c8f080c4f6acbbad9fa -->
<g id="edge2" class="edge">
<title>dir_a8d7c3dfc6a2d1ab1ed6aadf73452078&#45;&gt;dir_6ed40f2d31a14c8f080c4f6acbbad9fa</title>
<path fill="none" stroke="black" d="M247.98,-88.41C232.98,-79.2 214.11,-67.61 197.78,-57.59"/>
<polygon fill="black" stroke="black" points="199.37,-54.45 189.01,-52.2 195.7,-60.42 199.37,-54.45"/>
<g id="a_edge2&#45;headlabel"><a xlink:href="dir_000006_000003.html" target="_top" xlink:title="1">
<text text-anchor="middle" x="203.92" y="-51.41" font-family="Helvetica,sans-Serif" font-size="10.00">1</text>
</a>
</g>
</g>
<!-- dir_86ae27c4297ac583bcdd036becb19fdf -->
<g id="node6" class="node">
<title>dir_86ae27c4297ac583bcdd036becb19fdf</title>
<g id="a_node6"><a xlink:href="dir_86ae27c4297ac583bcdd036becb19fdf.html" target="_top" xlink:title="input_pkg">
<polygon fill="white" stroke="red" points="229.5,-124 170.5,-124 170.5,-88 229.5,-88 229.5,-124"/>
<text text-anchor="middle" x="200" y="-103.5" font-family="Helvetica,sans-Serif" font-size="10.00">input_pkg</text>
</a>
</g>
</g>
<!-- dir_ecbc7ce0a02869f4b7cfd787b8a8cea7 -->
<g id="node7" class="node">
<title>dir_ecbc7ce0a02869f4b7cfd787b8a8cea7</title>
<g id="a_node7"><a xlink:href="dir_ecbc7ce0a02869f4b7cfd787b8a8cea7.html" target="_top" xlink:title="log_pkg">
<polygon fill="white" stroke="red" points="152,-124 98,-124 98,-88 152,-88 152,-124"/>
<text text-anchor="middle" x="125" y="-103.5" font-family="Helvetica,sans-Serif" font-size="10.00">log_pkg</text>
</a>
</g>
</g>
<!-- dir_2d5e762472730a416a9d6417e2041833 -->
<g id="node8" class="node">
<title>dir_2d5e762472730a416a9d6417e2041833</title>
<g id="a_node8"><a xlink:href="dir_2d5e762472730a416a9d6417e2041833.html" target="_top" xlink:title="safety_pkg">
<polygon fill="white" stroke="red" points="80,-124 16,-124 16,-88 80,-88 80,-124"/>
<text text-anchor="middle" x="48" y="-103.5" font-family="Helvetica,sans-Serif" font-size="10.00">safety_pkg</text>
</a>
</g>
</g>
<!-- dir_2d5e762472730a416a9d6417e2041833&#45;&gt;dir_6ed40f2d31a14c8f080c4f6acbbad9fa -->
<g id="edge1" class="edge">
<title>dir_2d5e762472730a416a9d6417e2041833&#45;&gt;dir_6ed40f2d31a14c8f080c4f6acbbad9fa</title>
<path fill="none" stroke="black" d="M75.64,-87.88C90.42,-78.72 108.79,-67.34 124.7,-57.48"/>
<polygon fill="black" stroke="black" points="126.59,-60.43 133.25,-52.19 122.91,-54.48 126.59,-60.43"/>
<g id="a_edge1&#45;headlabel"><a xlink:href="dir_000022_000003.html" target="_top" xlink:title="1">
<text text-anchor="middle" x="125.03" y="-62.24" font-family="Helvetica,sans-Serif" font-size="10.00">1</text>
</a>
</g>
</g>
</g>
</svg>
