<?xml version="1.0" encoding="UTF-8" standalone="no"?>
<!DOCTYPE svg PUBLIC "-//W3C//DTD SVG 1.1//EN"
 "http://www.w3.org/Graphics/SVG/1.1/DTD/svg11.dtd">
<!-- Generated by graphviz version 2.49.3 (20211027.1534)
 -->
<!-- Title: src/safety_pkg Pages: 1 -->
<svg width="192pt" height="247pt"
 viewBox="0.00 0.00 192.00 247.00" xmlns="http://www.w3.org/2000/svg" xmlns:xlink="http://www.w3.org/1999/xlink">
<g id="graph0" class="graph" transform="scale(1 1) rotate(0) translate(4 243)">
<title>src/safety_pkg</title>
<g id="clust1" class="cluster">
<title>clusterdir_68267d1309a1af8e8297ef4c3efbcdba</title>
<g id="a_clust1"><a xlink:href="dir_68267d1309a1af8e8297ef4c3efbcdba.html" target="_top" xlink:title="src">
<polygon fill="#ddddee" stroke="black" points="8,-8 8,-231 176,-231 176,-8 8,-8"/>
<text text-anchor="middle" x="92" y="-219" font-family="Helvetica,sans-Serif" font-size="10.00">src</text>
</a>
</g>
</g>
<g id="clust2" class="cluster">
<title>clusterdir_2d5e762472730a416a9d6417e2041833</title>
<g id="a_clust2"><a xlink:href="dir_2d5e762472730a416a9d6417e2041833.html" target="_top">
<polygon fill="#eeeeff" stroke="black" points="16,-80 16,-204 168,-204 168,-80 16,-80"/>
</a>
</g>
</g>
<!-- dir_6ed40f2d31a14c8f080c4f6acbbad9fa -->
<g id="node1" class="node">
<title>dir_6ed40f2d31a14c8f080c4f6acbbad9fa</title>
<g id="a_node1"><a xlink:href="dir_6ed40f2d31a14c8f080c4f6acbbad9fa.html" target="_top" xlink:title="ecat_pkg">
<polygon fill="none" stroke="red" points="79,-52 23,-52 23,-16 79,-16 79,-52"/>
<text text-anchor="middle" x="51" y="-31.5" font-family="Helvetica,sans-Serif" font-size="10.00">ecat_pkg</text>
</a>
</g>
</g>
<!-- dir_2d5e762472730a416a9d6417e2041833 -->
<g id="node2" class="node">
<title>dir_2d5e762472730a416a9d6417e2041833</title>
<text text-anchor="middle" x="128" y="-175.5" font-family="Helvetica,sans-Serif" font-size="10.00">safety_pkg</text>
</g>
<!-- dir_95e41177299382f82581ff6a0fdbe1b7 -->
<g id="node3" class="node">
<title>dir_95e41177299382f82581ff6a0fdbe1b7</title>
<g id="a_node3"><a xlink:href="dir_95e41177299382f82581ff6a0fdbe1b7.html" target="_top" xlink:title="include">
<polygon fill="white" stroke="red" points="78,-124 24,-124 24,-88 78,-88 78,-124"/>
<text text-anchor="middle" x="51" y="-103.5" font-family="Helvetica,sans-Serif" font-size="10.00">include</text>
</a>
</g>
</g>
<!-- dir_95e41177299382f82581ff6a0fdbe1b7&#45;&gt;dir_6ed40f2d31a14c8f080c4f6acbbad9fa -->
<g id="edge1" class="edge">
<title>dir_95e41177299382f82581ff6a0fdbe1b7&#45;&gt;dir_6ed40f2d31a14c8f080c4f6acbbad9fa</title>
<path fill="none" stroke="black" d="M51,-87.7C51,-79.98 51,-70.71 51,-62.11"/>
<polygon fill="black" stroke="black" points="54.5,-62.1 51,-52.1 47.5,-62.1 54.5,-62.1"/>
<g id="a_edge1&#45;headlabel"><a xlink:href="dir_000023_000003.html" target="_top" xlink:title="1">
<text text-anchor="middle" x="57.34" y="-63.2" font-family="Helvetica,sans-Serif" font-size="10.00">1</text>
</a>
</g>
</g>
<!-- dir_b3c8cf0a1583fdca019efa4931c113bd -->
<g id="node4" class="node">
<title>dir_b3c8cf0a1583fdca019efa4931c113bd</title>
<g id="a_node4"><a xlink:href="dir_b3c8cf0a1583fdca019efa4931c113bd.html" target="_top" xlink:title="src">
<polygon fill="white" stroke="black" points="78,-196 24,-196 24,-160 78,-160 78,-196"/>
<text text-anchor="middle" x="51" y="-175.5" font-family="Helvetica,sans-Serif" font-size="10.00">src</text>
</a>
</g>
</g>
<!-- dir_b3c8cf0a1583fdca019efa4931c113bd&#45;&gt;dir_95e41177299382f82581ff6a0fdbe1b7 -->
<g id="edge2" class="edge">
<title>dir_b3c8cf0a1583fdca019efa4931c113bd&#45;&gt;dir_95e41177299382f82581ff6a0fdbe1b7</title>
<path fill="none" stroke="black" d="M51,-159.7C51,-151.98 51,-142.71 51,-134.11"/>
<polygon fill="black" stroke="black" points="54.5,-134.1 51,-124.1 47.5,-134.1 54.5,-134.1"/>
<g id="a_edge2&#45;headlabel"><a xlink:href="dir_000025_000023.html" target="_top" xlink:title="1">
<text text-anchor="middle" x="57.34" y="-135.2" font-family="Helvetica,sans-Serif" font-size="10.00">1</text>
</a>
</g>
</g>
</g>
</svg>
