<?xml version="1.0" encoding="UTF-8" standalone="no"?>
<!DOCTYPE svg PUBLIC "-//W3C//DTD SVG 1.1//EN"
 "http://www.w3.org/Graphics/SVG/1.1/DTD/svg11.dtd">
<!-- Generated by graphviz version 2.49.3 (20211027.1534)
 -->
<!-- Title: src/gui_pkg/src Pages: 1 -->
<svg width="94pt" height="167pt"
 viewBox="0.00 0.00 94.00 167.00" xmlns="http://www.w3.org/2000/svg" xmlns:xlink="http://www.w3.org/1999/xlink">
<g id="graph0" class="graph" transform="scale(1 1) rotate(0) translate(4 163)">
<title>src/gui_pkg/src</title>
<g id="clust1" class="cluster">
<title>clusterdir_a8d7c3dfc6a2d1ab1ed6aadf73452078</title>
<g id="a_clust1"><a xlink:href="dir_a8d7c3dfc6a2d1ab1ed6aadf73452078.html" target="_top" xlink:title="gui_pkg">
<polygon fill="#ddddee" stroke="black" points="8,-8 8,-151 78,-151 78,-8 8,-8"/>
<text text-anchor="middle" x="43" y="-139" font-family="Helvetica,sans-Serif" font-size="10.00">gui_pkg</text>
</a>
</g>
</g>
<!-- dir_5f6a9ac372f08ad2f9f56fbda15f8efd -->
<g id="node1" class="node">
<title>dir_5f6a9ac372f08ad2f9f56fbda15f8efd</title>
<g id="a_node1"><a xlink:href="dir_5f6a9ac372f08ad2f9f56fbda15f8efd.html" target="_top" xlink:title="include">
<polygon fill="none" stroke="red" points="70,-52 16,-52 16,-16 70,-16 70,-52"/>
<text text-anchor="middle" x="43" y="-31.5" font-family="Helvetica,sans-Serif" font-size="10.00">include</text>
</a>
</g>
</g>
<!-- dir_578fcc4aa7bb58f0f856b2f7d84499c2 -->
<g id="node2" class="node">
<title>dir_578fcc4aa7bb58f0f856b2f7d84499c2</title>
<g id="a_node2"><a xlink:href="dir_578fcc4aa7bb58f0f856b2f7d84499c2.html" target="_top" xlink:title="src">
<polygon fill="#eeeeff" stroke="black" points="70,-124 16,-124 16,-88 70,-88 70,-124"/>
<text text-anchor="middle" x="43" y="-103.5" font-family="Helvetica,sans-Serif" font-size="10.00">src</text>
</a>
</g>
</g>
<!-- dir_578fcc4aa7bb58f0f856b2f7d84499c2&#45;&gt;dir_5f6a9ac372f08ad2f9f56fbda15f8efd -->
<g id="edge1" class="edge">
<title>dir_578fcc4aa7bb58f0f856b2f7d84499c2&#45;&gt;dir_5f6a9ac372f08ad2f9f56fbda15f8efd</title>
<path fill="none" stroke="black" d="M43,-87.7C43,-79.98 43,-70.71 43,-62.11"/>
<polygon fill="black" stroke="black" points="46.5,-62.1 43,-52.1 39.5,-62.1 46.5,-62.1"/>
<g id="a_edge1&#45;headlabel"><a xlink:href="dir_000012_000007.html" target="_top" xlink:title="8">
<text text-anchor="middle" x="49.34" y="-63.2" font-family="Helvetica,sans-Serif" font-size="10.00">8</text>
</a>
</g>
</g>
</g>
</svg>
