<?xml version="1.0" encoding="UTF-8" standalone="no"?>
<!DOCTYPE svg PUBLIC "-//W3C//DTD SVG 1.1//EN"
 "http://www.w3.org/Graphics/SVG/1.1/DTD/svg11.dtd">
<!-- Generated by graphviz version 2.49.3 (20211027.1534)
 -->
<!-- Title: src/ecat_pkg/src Pages: 1 -->
<svg width="94pt" height="167pt"
 viewBox="0.00 0.00 94.00 167.00" xmlns="http://www.w3.org/2000/svg" xmlns:xlink="http://www.w3.org/1999/xlink">
<g id="graph0" class="graph" transform="scale(1 1) rotate(0) translate(4 163)">
<title>src/ecat_pkg/src</title>
<g id="clust1" class="cluster">
<title>clusterdir_6ed40f2d31a14c8f080c4f6acbbad9fa</title>
<g id="a_clust1"><a xlink:href="dir_6ed40f2d31a14c8f080c4f6acbbad9fa.html" target="_top" xlink:title="ecat_pkg">
<polygon fill="#ddddee" stroke="black" points="8,-8 8,-151 78,-151 78,-8 8,-8"/>
<text text-anchor="middle" x="43" y="-139" font-family="Helvetica,sans-Serif" font-size="10.00">ecat_pkg</text>
</a>
</g>
</g>
<!-- dir_e13597078cf4e6075ccc1389ec844104 -->
<g id="node1" class="node">
<title>dir_e13597078cf4e6075ccc1389ec844104</title>
<g id="a_node1"><a xlink:href="dir_e13597078cf4e6075ccc1389ec844104.html" target="_top" xlink:title="include">
<polygon fill="none" stroke="red" points="70,-52 16,-52 16,-16 70,-16 70,-52"/>
<text text-anchor="middle" x="43" y="-31.5" font-family="Helvetica,sans-Serif" font-size="10.00">include</text>
</a>
</g>
</g>
<!-- dir_34a4b34f2cfbf09a1592a51ce47086eb -->
<g id="node2" class="node">
<title>dir_34a4b34f2cfbf09a1592a51ce47086eb</title>
<g id="a_node2"><a xlink:href="dir_34a4b34f2cfbf09a1592a51ce47086eb.html" target="_top" xlink:title="src">
<polygon fill="#eeeeff" stroke="black" points="70,-124 16,-124 16,-88 70,-88 70,-124"/>
<text text-anchor="middle" x="43" y="-103.5" font-family="Helvetica,sans-Serif" font-size="10.00">src</text>
</a>
</g>
</g>
<!-- dir_34a4b34f2cfbf09a1592a51ce47086eb&#45;&gt;dir_e13597078cf4e6075ccc1389ec844104 -->
<g id="edge1" class="edge">
<title>dir_34a4b34f2cfbf09a1592a51ce47086eb&#45;&gt;dir_e13597078cf4e6075ccc1389ec844104</title>
<path fill="none" stroke="black" d="M43,-87.7C43,-79.98 43,-70.71 43,-62.11"/>
<polygon fill="black" stroke="black" points="46.5,-62.1 43,-52.1 39.5,-62.1 46.5,-62.1"/>
<g id="a_edge1&#45;headlabel"><a xlink:href="dir_000011_000004.html" target="_top" xlink:title="5">
<text text-anchor="middle" x="49.34" y="-63.2" font-family="Helvetica,sans-Serif" font-size="10.00">5</text>
</a>
</g>
</g>
</g>
</svg>
