<?xml version="1.0" encoding="UTF-8" standalone="no"?>
<!DOCTYPE svg PUBLIC "-//W3C//DTD SVG 1.1//EN"
 "http://www.w3.org/Graphics/SVG/1.1/DTD/svg11.dtd">
<!-- Generated by graphviz version 2.49.3 (20211027.1534)
 -->
<!-- Title: src/ecat_pkg/include/ecat_pkg/ecat_globals.hpp Pages: 1 -->
<svg width="529pt" height="307pt"
 viewBox="0.00 0.00 528.50 307.00" xmlns="http://www.w3.org/2000/svg" xmlns:xlink="http://www.w3.org/1999/xlink">
<g id="graph0" class="graph" transform="scale(1 1) rotate(0) translate(4 303)">
<title>src/ecat_pkg/include/ecat_pkg/ecat_globals.hpp</title>
<!-- Node1 -->
<g id="node1" class="node">
<title>Node1</title>
<g id="a_node1"><a xlink:title=" ">
<polygon fill="#bfbfbf" stroke="black" points="229,-268.5 229,-298.5 364,-298.5 364,-268.5 229,-268.5"/>
<text text-anchor="start" x="237" y="-286.5" font-family="Helvetica,sans-Serif" font-size="10.00">src/ecat_pkg/include</text>
<text text-anchor="middle" x="296.5" y="-275.5" font-family="Helvetica,sans-Serif" font-size="10.00">/ecat_pkg/ecat_globals.hpp</text>
</a>
</g>
</g>
<!-- Node2 -->
<g id="node2" class="node">
<title>Node2</title>
<g id="a_node2"><a xlink:href="ecat__node_8hpp.html" target="_top" xlink:title=" ">
<polygon fill="none" stroke="black" points="132,-134.5 132,-164.5 257,-164.5 257,-134.5 132,-134.5"/>
<text text-anchor="start" x="140" y="-152.5" font-family="Helvetica,sans-Serif" font-size="10.00">src/ecat_pkg/include</text>
<text text-anchor="middle" x="194.5" y="-141.5" font-family="Helvetica,sans-Serif" font-size="10.00">/ecat_pkg/ecat_node.hpp</text>
</a>
</g>
</g>
<!-- Node1&#45;&gt;Node2 -->
<g id="edge1" class="edge">
<title>Node1&#45;&gt;Node2</title>
<path fill="none" stroke="midnightblue" d="M259.24,-263.1C246.47,-254.94 233.02,-244.42 223.5,-232 207.88,-211.61 200.19,-182.1 196.8,-164.75"/>
<polygon fill="midnightblue" stroke="midnightblue" points="257.56,-266.17 267.92,-268.38 261.19,-260.19 257.56,-266.17"/>
</g>
<!-- Node7 -->
<g id="node7" class="node">
<title>Node7</title>
<g id="a_node7"><a xlink:href="ecat__slave_8hpp.html" target="_top" xlink:title=" ">
<polygon fill="none" stroke="black" points="232.5,-201.5 232.5,-231.5 360.5,-231.5 360.5,-201.5 232.5,-201.5"/>
<text text-anchor="start" x="240.5" y="-219.5" font-family="Helvetica,sans-Serif" font-size="10.00">src/ecat_pkg/include</text>
<text text-anchor="middle" x="296.5" y="-208.5" font-family="Helvetica,sans-Serif" font-size="10.00">/ecat_pkg/ecat_slave.hpp</text>
</a>
</g>
</g>
<!-- Node1&#45;&gt;Node7 -->
<g id="edge7" class="edge">
<title>Node1&#45;&gt;Node7</title>
<path fill="none" stroke="midnightblue" d="M296.5,-258.11C296.5,-249.15 296.5,-239.32 296.5,-231.58"/>
<polygon fill="midnightblue" stroke="midnightblue" points="293,-258.4 296.5,-268.4 300,-258.4 293,-258.4"/>
</g>
<!-- Node9 -->
<g id="node9" class="node">
<title>Node9</title>
<g id="a_node9"><a xlink:href="safety__node_8hpp.html" target="_top" xlink:title=" ">
<polygon fill="none" stroke="black" points="380.5,-201.5 380.5,-231.5 520.5,-231.5 520.5,-201.5 380.5,-201.5"/>
<text text-anchor="start" x="388.5" y="-219.5" font-family="Helvetica,sans-Serif" font-size="10.00">src/safety_pkg/include</text>
<text text-anchor="middle" x="450.5" y="-208.5" font-family="Helvetica,sans-Serif" font-size="10.00">/safety_pkg/safety_node.hpp</text>
</a>
</g>
</g>
<!-- Node1&#45;&gt;Node9 -->
<g id="edge10" class="edge">
<title>Node1&#45;&gt;Node9</title>
<path fill="none" stroke="midnightblue" d="M339.37,-264.41C363.95,-254.03 394.36,-241.2 417.15,-231.58"/>
<polygon fill="midnightblue" stroke="midnightblue" points="337.77,-261.28 329.92,-268.4 340.49,-267.73 337.77,-261.28"/>
</g>
<!-- Node3 -->
<g id="node3" class="node">
<title>Node3</title>
<g id="a_node3"><a xlink:href="ecat__lifecycle_8hpp.html" target="_top" xlink:title=" ">
<polygon fill="none" stroke="black" points="26.5,-67.5 26.5,-97.5 166.5,-97.5 166.5,-67.5 26.5,-67.5"/>
<text text-anchor="start" x="34.5" y="-85.5" font-family="Helvetica,sans-Serif" font-size="10.00">src/ecat_pkg/include</text>
<text text-anchor="middle" x="96.5" y="-74.5" font-family="Helvetica,sans-Serif" font-size="10.00">/ecat_pkg/ecat_lifecycle.hpp</text>
</a>
</g>
</g>
<!-- Node2&#45;&gt;Node3 -->
<g id="edge2" class="edge">
<title>Node2&#45;&gt;Node3</title>
<path fill="none" stroke="midnightblue" d="M164.7,-128.73C149.53,-118.68 131.46,-106.68 117.72,-97.58"/>
<polygon fill="midnightblue" stroke="midnightblue" points="162.97,-131.79 173.24,-134.4 166.84,-125.95 162.97,-131.79"/>
</g>
<!-- Node5 -->
<g id="node5" class="node">
<title>Node5</title>
<g id="a_node5"><a xlink:href="ecat__pkg_2src_2main_8cpp.html" target="_top" xlink:title=" ">
<polygon fill="none" stroke="black" points="129,-6 129,-25 260,-25 260,-6 129,-6"/>
<text text-anchor="middle" x="194.5" y="-13" font-family="Helvetica,sans-Serif" font-size="10.00">src/ecat_pkg/src/main.cpp</text>
</a>
</g>
</g>
<!-- Node2&#45;&gt;Node5 -->
<g id="edge6" class="edge">
<title>Node2&#45;&gt;Node5</title>
<path fill="none" stroke="midnightblue" d="M194.5,-124.32C194.5,-94.38 194.5,-44.91 194.5,-25.1"/>
<polygon fill="midnightblue" stroke="midnightblue" points="191,-124.37 194.5,-134.37 198,-124.37 191,-124.37"/>
</g>
<!-- Node6 -->
<g id="node6" class="node">
<title>Node6</title>
<g id="a_node6"><a xlink:href="ecat__node_8cpp.html" target="_top" xlink:title=" ">
<polygon fill="none" stroke="black" points="223,-67.5 223,-97.5 334,-97.5 334,-67.5 223,-67.5"/>
<text text-anchor="start" x="231" y="-85.5" font-family="Helvetica,sans-Serif" font-size="10.00">src/ecat_pkg/src/ecat</text>
<text text-anchor="middle" x="278.5" y="-74.5" font-family="Helvetica,sans-Serif" font-size="10.00">_node.cpp</text>
</a>
</g>
</g>
<!-- Node2&#45;&gt;Node6 -->
<g id="edge5" class="edge">
<title>Node2&#45;&gt;Node6</title>
<path fill="none" stroke="midnightblue" d="M220.78,-128.17C233.62,-118.23 248.76,-106.51 260.31,-97.58"/>
<polygon fill="midnightblue" stroke="midnightblue" points="218.49,-125.51 212.73,-134.4 222.78,-131.04 218.49,-125.51"/>
</g>
<!-- Node4 -->
<g id="node4" class="node">
<title>Node4</title>
<g id="a_node4"><a xlink:href="ecat__lifecycle_8cpp.html" target="_top" xlink:title=" ">
<polygon fill="none" stroke="black" points="0,-0.5 0,-30.5 111,-30.5 111,-0.5 0,-0.5"/>
<text text-anchor="start" x="8" y="-18.5" font-family="Helvetica,sans-Serif" font-size="10.00">src/ecat_pkg/src/ecat</text>
<text text-anchor="middle" x="55.5" y="-7.5" font-family="Helvetica,sans-Serif" font-size="10.00">_lifecycle.cpp</text>
</a>
</g>
</g>
<!-- Node3&#45;&gt;Node4 -->
<g id="edge3" class="edge">
<title>Node3&#45;&gt;Node4</title>
<path fill="none" stroke="midnightblue" d="M82.22,-58.87C76.29,-49.46 69.59,-38.83 64.38,-30.58"/>
<polygon fill="midnightblue" stroke="midnightblue" points="79.31,-60.81 87.6,-67.4 85.23,-57.07 79.31,-60.81"/>
</g>
<!-- Node3&#45;&gt;Node5 -->
<g id="edge4" class="edge">
<title>Node3&#45;&gt;Node5</title>
<path fill="none" stroke="midnightblue" d="M126.19,-61.81C144.73,-49.51 167.66,-34.3 181.67,-25.01"/>
<polygon fill="midnightblue" stroke="midnightblue" points="124.16,-58.95 117.76,-67.4 128.03,-64.79 124.16,-58.95"/>
</g>
<!-- Node7&#45;&gt;Node2 -->
<g id="edge8" class="edge">
<title>Node7&#45;&gt;Node2</title>
<path fill="none" stroke="midnightblue" d="M265.92,-196.02C250.05,-185.9 231.02,-173.77 216.59,-164.58"/>
<polygon fill="midnightblue" stroke="midnightblue" points="264.05,-198.97 274.37,-201.4 267.82,-193.07 264.05,-198.97"/>
</g>
<!-- Node8 -->
<g id="node8" class="node">
<title>Node8</title>
<g id="a_node8"><a xlink:href="ecat__slave_8cpp.html" target="_top" xlink:title=" ">
<polygon fill="none" stroke="black" points="275,-134.5 275,-164.5 386,-164.5 386,-134.5 275,-134.5"/>
<text text-anchor="start" x="283" y="-152.5" font-family="Helvetica,sans-Serif" font-size="10.00">src/ecat_pkg/src/ecat</text>
<text text-anchor="middle" x="330.5" y="-141.5" font-family="Helvetica,sans-Serif" font-size="10.00">_slave.cpp</text>
</a>
</g>
</g>
<!-- Node7&#45;&gt;Node8 -->
<g id="edge9" class="edge">
<title>Node7&#45;&gt;Node8</title>
<path fill="none" stroke="midnightblue" d="M308.64,-192.28C313.49,-183.02 318.91,-172.66 323.14,-164.58"/>
<polygon fill="midnightblue" stroke="midnightblue" points="305.41,-190.91 303.88,-201.4 311.61,-194.16 305.41,-190.91"/>
</g>
<!-- Node10 -->
<g id="node10" class="node">
<title>Node10</title>
<g id="a_node10"><a xlink:href="safety__node_8cpp.html" target="_top" xlink:title=" ">
<polygon fill="none" stroke="black" points="404,-134.5 404,-164.5 501,-164.5 501,-134.5 404,-134.5"/>
<text text-anchor="start" x="412" y="-152.5" font-family="Helvetica,sans-Serif" font-size="10.00">src/safety_pkg/src</text>
<text text-anchor="middle" x="452.5" y="-141.5" font-family="Helvetica,sans-Serif" font-size="10.00">/safety_node.cpp</text>
</a>
</g>
</g>
<!-- Node9&#45;&gt;Node10 -->
<g id="edge11" class="edge">
<title>Node9&#45;&gt;Node10</title>
<path fill="none" stroke="midnightblue" d="M451.25,-191.11C451.53,-182.15 451.83,-172.32 452.07,-164.58"/>
<polygon fill="midnightblue" stroke="midnightblue" points="447.74,-191.29 450.93,-201.4 454.74,-191.51 447.74,-191.29"/>
</g>
</g>
</svg>
