<?xml version="1.0" encoding="UTF-8" standalone="no"?>
<!DOCTYPE svg PUBLIC "-//W3C//DTD SVG 1.1//EN"
 "http://www.w3.org/Graphics/SVG/1.1/DTD/svg11.dtd">
<!-- Generated by graphviz version 2.43.0 (0)
 -->
<!-- Title: src/ecat_pkg/src/main.cpp Pages: 1 -->
<!--zoomable 375 -->
<svg id="main" version="1.1" xmlns="http://www.w3.org/2000/svg" xmlns:xlink="http://www.w3.org/1999/xlink" xml:space="preserve" onload="init(evt)">
<style type="text/css"><![CDATA[
.edge:hover path { stroke: red; }
.edge:hover polygon { stroke: red; fill: red; }
]]></style>
<script type="text/javascript"><![CDATA[
var edges = document.getElementsByTagName('g');
if (edges && edges.length) {
  for (var i=0;i<edges.length;i++) {
    if (edges[i].id.substr(0,4)=='edge') {
      edges[i].setAttribute('class','edge');
    }
  }
}
]]></script>
        <defs>
                <circle id="rim" cx="0" cy="0" r="7"/>
                <circle id="rim2" cx="0" cy="0" r="3.5"/>
                <g id="zoomPlus">
                        <use xlink:href="#rim" fill="#404040">
                                <set attributeName="fill" to="#808080" begin="zoomplus.mouseover" end="zoomplus.mouseout"/>
                        </use>
                        <path d="M-4,0h8M0,-4v8" fill="none" stroke="white" stroke-width="1.5" pointer-events="none"/>
                </g>
                <g id="zoomMin">
                        <use xlink:href="#rim" fill="#404040">
                                <set attributeName="fill" to="#808080" begin="zoomminus.mouseover" end="zoomminus.mouseout"/>
                        </use>
                        <path d="M-4,0h8" fill="none" stroke="white" stroke-width="1.5" pointer-events="none"/>
                </g>
                <g id="dirArrow">
                        <path fill="none" stroke="white" stroke-width="1.5" d="M0,-3.0v7 M-2.5,-0.5L0,-3.0L2.5,-0.5"/>
                </g>
               <g id="resetDef">
                       <use xlink:href="#rim2" fill="#404040">
                               <set attributeName="fill" to="#808080" begin="reset.mouseover" end="reset.mouseout"/>
                       </use>
               </g>
        </defs>

<script type="text/javascript">
var viewWidth = 2400;
var viewHeight = 375;
var sectionId = 'dynsection-0';
</script>
<script xlink:href="svgpan.js"/>
<svg id="graph" class="graph">
<g id="viewport">
<title>src/ecat_pkg/src/main.cpp</title>
<!-- Node1 -->
<g id="node1" class="node">
<title>Node1</title>
<g id="a_node1"><a xlink:title=" ">
<polygon fill="#bfbfbf" stroke="black" points="943,-347.5 943,-366.5 1086,-366.5 1086,-347.5 943,-347.5"/>
<text text-anchor="middle" x="1014.5" y="-354.5" font-family="Helvetica,sans-Serif" font-size="10.00">src/ecat_pkg/src/main.cpp</text>
</a>
</g>
</g>
<!-- Node2 -->
<g id="node2" class="node">
<title>Node2</title>
<g id="a_node2"><a xlink:title=" ">
<polygon fill="none" stroke="#bfbfbf" points="816,-168.5 816,-187.5 915,-187.5 915,-168.5 816,-168.5"/>
<text text-anchor="middle" x="865.5" y="-175.5" font-family="Helvetica,sans-Serif" font-size="10.00">rclcpp/rclcpp.hpp</text>
</a>
</g>
</g>
<!-- Node1&#45;&gt;Node2 -->
<g id="edge1" class="edge">
<title>Node1&#45;&gt;Node2</title>
<path fill="none" stroke="midnightblue" d="M1007.31,-347.46C984.06,-319.85 910.61,-232.58 879.57,-195.71"/>
<polygon fill="midnightblue" stroke="midnightblue" points="882.08,-193.26 872.97,-187.87 876.73,-197.77 882.08,-193.26"/>
</g>
<!-- Node3 -->
<g id="node3" class="node">
<title>Node3</title>
<g id="a_node3"><a xlink:href="ecat__node_8hpp.html" target="_top" xlink:title=" ">
<polygon fill="none" stroke="black" points="970.5,-230 970.5,-249 1058.5,-249 1058.5,-230 970.5,-230"/>
<text text-anchor="middle" x="1014.5" y="-237" font-family="Helvetica,sans-Serif" font-size="10.00">ecat_node.hpp</text>
</a>
</g>
</g>
<!-- Node1&#45;&gt;Node3 -->
<g id="edge2" class="edge">
<title>Node1&#45;&gt;Node3</title>
<path fill="none" stroke="midnightblue" d="M1014.5,-347.32C1014.5,-328.76 1014.5,-284.84 1014.5,-259.47"/>
<polygon fill="midnightblue" stroke="midnightblue" points="1018,-259.28 1014.5,-249.28 1011,-259.28 1018,-259.28"/>
</g>
<!-- Node29 -->
<g id="node29" class="node">
<title>Node29</title>
<g id="a_node29"><a xlink:href="ecat__lifecycle_8hpp.html" target="_top" xlink:title=" ">
<polygon fill="none" stroke="black" points="1542,-291.5 1542,-310.5 1647,-310.5 1647,-291.5 1542,-291.5"/>
<text text-anchor="middle" x="1594.5" y="-298.5" font-family="Helvetica,sans-Serif" font-size="10.00">ecat_lifecycle.hpp</text>
</a>
</g>
</g>
<!-- Node1&#45;&gt;Node29 -->
<g id="edge30" class="edge">
<title>Node1&#45;&gt;Node29</title>
<path fill="none" stroke="midnightblue" d="M1086.2,-349.32C1200.71,-338.66 1423,-317.97 1531.65,-307.85"/>
<polygon fill="midnightblue" stroke="midnightblue" points="1532.17,-311.32 1541.81,-306.91 1531.53,-304.35 1532.17,-311.32"/>
</g>
<!-- Node3&#45;&gt;Node2 -->
<g id="edge28" class="edge">
<title>Node3&#45;&gt;Node2</title>
<path fill="none" stroke="midnightblue" d="M993.15,-229.98C967.81,-219.86 925.36,-202.9 896.43,-191.35"/>
<polygon fill="midnightblue" stroke="midnightblue" points="897.39,-187.97 886.81,-187.51 894.8,-194.47 897.39,-187.97"/>
</g>
<!-- Node4 -->
<g id="node4" class="node">
<title>Node4</title>
<g id="a_node4"><a xlink:href="ecat__globals_8hpp.html" target="_top" xlink:title=" ">
<polygon fill="none" stroke="black" points="929,-112.5 929,-131.5 1028,-131.5 1028,-112.5 929,-112.5"/>
<text text-anchor="middle" x="978.5" y="-119.5" font-family="Helvetica,sans-Serif" font-size="10.00">ecat_globals.hpp</text>
</a>
</g>
</g>
<!-- Node3&#45;&gt;Node4 -->
<g id="edge3" class="edge">
<title>Node3&#45;&gt;Node4</title>
<path fill="none" stroke="midnightblue" d="M1020.31,-229.9C1028.75,-216.26 1042.36,-189.05 1032.5,-168 1026.46,-155.09 1014.69,-144.6 1003.68,-137"/>
<polygon fill="midnightblue" stroke="midnightblue" points="1005.44,-133.97 995.13,-131.54 1001.67,-139.87 1005.44,-133.97"/>
</g>
<!-- Node27 -->
<g id="node27" class="node">
<title>Node27</title>
<g id="a_node27"><a xlink:href="ecat__slave_8hpp.html" target="_top" xlink:title=" ">
<polygon fill="none" stroke="black" points="933.5,-168.5 933.5,-187.5 1023.5,-187.5 1023.5,-168.5 933.5,-168.5"/>
<text text-anchor="middle" x="978.5" y="-175.5" font-family="Helvetica,sans-Serif" font-size="10.00">ecat_slave.hpp</text>
</a>
</g>
</g>
<!-- Node3&#45;&gt;Node27 -->
<g id="edge26" class="edge">
<title>Node3&#45;&gt;Node27</title>
<path fill="none" stroke="midnightblue" d="M1009.34,-229.98C1004.05,-221.23 995.66,-207.37 988.97,-196.31"/>
<polygon fill="midnightblue" stroke="midnightblue" points="991.82,-194.25 983.65,-187.51 985.83,-197.88 991.82,-194.25"/>
</g>
<!-- Node28 -->
<g id="node28" class="node">
<title>Node28</title>
<g id="a_node28"><a xlink:title=" ">
<polygon fill="none" stroke="#bfbfbf" points="1079.5,-168.5 1079.5,-187.5 1221.5,-187.5 1221.5,-168.5 1079.5,-168.5"/>
<text text-anchor="middle" x="1150.5" y="-175.5" font-family="Helvetica,sans-Serif" font-size="10.00">sensor_msgs/msg/joy.hpp</text>
</a>
</g>
</g>
<!-- Node3&#45;&gt;Node28 -->
<g id="edge29" class="edge">
<title>Node3&#45;&gt;Node28</title>
<path fill="none" stroke="midnightblue" d="M1033.99,-229.98C1056.91,-219.95 1095.19,-203.2 1121.58,-191.65"/>
<polygon fill="midnightblue" stroke="midnightblue" points="1123.29,-194.72 1131.05,-187.51 1120.49,-188.31 1123.29,-194.72"/>
</g>
<!-- Node5 -->
<g id="node5" class="node">
<title>Node5</title>
<g id="a_node5"><a xlink:href="ecat__definitions_8hpp.html" target="_top" xlink:title="Writes desired operational mode, to slave in specified index via SDO.">
<polygon fill="none" stroke="black" points="796.5,-56.5 796.5,-75.5 912.5,-75.5 912.5,-56.5 796.5,-56.5"/>
<text text-anchor="middle" x="854.5" y="-63.5" font-family="Helvetica,sans-Serif" font-size="10.00">ecat_definitions.hpp</text>
</a>
</g>
</g>
<!-- Node4&#45;&gt;Node5 -->
<g id="edge4" class="edge">
<title>Node4&#45;&gt;Node5</title>
<path fill="none" stroke="midnightblue" d="M958.85,-112.44C938.54,-103.6 906.6,-89.69 883.4,-79.59"/>
<polygon fill="midnightblue" stroke="midnightblue" points="884.62,-76.3 874.06,-75.52 881.83,-82.72 884.62,-76.3"/>
</g>
<!-- Node6 -->
<g id="node6" class="node">
<title>Node6</title>
<g id="a_node6"><a xlink:title=" ">
<polygon fill="none" stroke="#bfbfbf" points="1516.5,-0.5 1516.5,-19.5 1576.5,-19.5 1576.5,-0.5 1516.5,-0.5"/>
<text text-anchor="middle" x="1546.5" y="-7.5" font-family="Helvetica,sans-Serif" font-size="10.00">iostream</text>
</a>
</g>
</g>
<!-- Node5&#45;&gt;Node6 -->
<g id="edge5" class="edge">
<title>Node5&#45;&gt;Node6</title>
<path fill="none" stroke="midnightblue" d="M912.93,-64.06C1025.87,-61.58 1282.08,-52.69 1506.37,-19.93"/>
<polygon fill="midnightblue" stroke="midnightblue" points="1506.98,-23.38 1516.36,-18.45 1505.95,-16.45 1506.98,-23.38"/>
</g>
<!-- Node7 -->
<g id="node7" class="node">
<title>Node7</title>
<g id="a_node7"><a xlink:title=" ">
<polygon fill="none" stroke="#bfbfbf" points="1300.5,-0.5 1300.5,-19.5 1350.5,-19.5 1350.5,-0.5 1300.5,-0.5"/>
<text text-anchor="middle" x="1325.5" y="-7.5" font-family="Helvetica,sans-Serif" font-size="10.00">cstring</text>
</a>
</g>
</g>
<!-- Node5&#45;&gt;Node7 -->
<g id="edge6" class="edge">
<title>Node5&#45;&gt;Node7</title>
<path fill="none" stroke="midnightblue" d="M912.52,-61.92C994.64,-56.91 1149.54,-45.14 1290.24,-19.96"/>
<polygon fill="midnightblue" stroke="midnightblue" points="1291.13,-23.36 1300.35,-18.13 1289.88,-16.47 1291.13,-23.36"/>
</g>
<!-- Node8 -->
<g id="node8" class="node">
<title>Node8</title>
<g id="a_node8"><a xlink:title=" ">
<polygon fill="none" stroke="#bfbfbf" points="1369,-0.5 1369,-19.5 1422,-19.5 1422,-0.5 1369,-0.5"/>
<text text-anchor="middle" x="1395.5" y="-7.5" font-family="Helvetica,sans-Serif" font-size="10.00">limits.h</text>
</a>
</g>
</g>
<!-- Node5&#45;&gt;Node8 -->
<g id="edge7" class="edge">
<title>Node5&#45;&gt;Node8</title>
<path fill="none" stroke="midnightblue" d="M912.82,-62.76C1005.38,-58.56 1191.68,-47.46 1358.89,-19.82"/>
<polygon fill="midnightblue" stroke="midnightblue" points="1359.58,-23.26 1368.86,-18.15 1358.42,-16.35 1359.58,-23.26"/>
</g>
<!-- Node9 -->
<g id="node9" class="node">
<title>Node9</title>
<g id="a_node9"><a xlink:title=" ">
<polygon fill="none" stroke="#bfbfbf" points="0,-0.5 0,-19.5 53,-19.5 53,-0.5 0,-0.5"/>
<text text-anchor="middle" x="26.5" y="-7.5" font-family="Helvetica,sans-Serif" font-size="10.00">stdlib.h</text>
</a>
</g>
</g>
<!-- Node5&#45;&gt;Node9 -->
<g id="edge8" class="edge">
<title>Node5&#45;&gt;Node9</title>
<path fill="none" stroke="midnightblue" d="M796.38,-65.56C666.28,-65.99 341.74,-62.44 63.04,-19.95"/>
<polygon fill="midnightblue" stroke="midnightblue" points="63.56,-16.49 53.14,-18.42 62.49,-23.41 63.56,-16.49"/>
</g>
<!-- Node10 -->
<g id="node10" class="node">
<title>Node10</title>
<g id="a_node10"><a xlink:title=" ">
<polygon fill="none" stroke="#bfbfbf" points="71,-0.5 71,-19.5 134,-19.5 134,-0.5 71,-0.5"/>
<text text-anchor="middle" x="102.5" y="-7.5" font-family="Helvetica,sans-Serif" font-size="10.00">pthread.h</text>
</a>
</g>
</g>
<!-- Node5&#45;&gt;Node10 -->
<g id="edge9" class="edge">
<title>Node5&#45;&gt;Node10</title>
<path fill="none" stroke="midnightblue" d="M796.04,-64.43C675.65,-62.57 391.34,-54.72 144.53,-20.09"/>
<polygon fill="midnightblue" stroke="midnightblue" points="144.69,-16.57 134.29,-18.63 143.7,-23.5 144.69,-16.57"/>
</g>
<!-- Node11 -->
<g id="node11" class="node">
<title>Node11</title>
<g id="a_node11"><a xlink:title=" ">
<polygon fill="none" stroke="#bfbfbf" points="152,-0.5 152,-19.5 203,-19.5 203,-0.5 152,-0.5"/>
<text text-anchor="middle" x="177.5" y="-7.5" font-family="Helvetica,sans-Serif" font-size="10.00">errno.h</text>
</a>
</g>
</g>
<!-- Node5&#45;&gt;Node11 -->
<g id="edge10" class="edge">
<title>Node5&#45;&gt;Node11</title>
<path fill="none" stroke="midnightblue" d="M796.43,-64.6C684.88,-63.03 432.9,-55.65 213.12,-19.97"/>
<polygon fill="midnightblue" stroke="midnightblue" points="213.44,-16.48 203.01,-18.31 212.31,-23.38 213.44,-16.48"/>
</g>
<!-- Node12 -->
<g id="node12" class="node">
<title>Node12</title>
<g id="a_node12"><a xlink:title=" ">
<polygon fill="none" stroke="#bfbfbf" points="221,-0.5 221,-19.5 276,-19.5 276,-0.5 221,-0.5"/>
<text text-anchor="middle" x="248.5" y="-7.5" font-family="Helvetica,sans-Serif" font-size="10.00">signal.h</text>
</a>
</g>
</g>
<!-- Node5&#45;&gt;Node12 -->
<g id="edge11" class="edge">
<title>Node5&#45;&gt;Node12</title>
<path fill="none" stroke="midnightblue" d="M796.39,-63.46C694.79,-60.11 478.24,-50 286.27,-19.85"/>
<polygon fill="midnightblue" stroke="midnightblue" points="286.71,-16.38 276.28,-18.26 285.61,-23.29 286.71,-16.38"/>
</g>
<!-- Node13 -->
<g id="node13" class="node">
<title>Node13</title>
<g id="a_node13"><a xlink:title=" ">
<polygon fill="none" stroke="#bfbfbf" points="294.5,-0.5 294.5,-19.5 344.5,-19.5 344.5,-0.5 294.5,-0.5"/>
<text text-anchor="middle" x="319.5" y="-7.5" font-family="Helvetica,sans-Serif" font-size="10.00">stdio.h</text>
</a>
</g>
</g>
<!-- Node5&#45;&gt;Node13 -->
<g id="edge12" class="edge">
<title>Node5&#45;&gt;Node13</title>
<path fill="none" stroke="midnightblue" d="M796.22,-62.96C704.29,-59.05 519.94,-48.37 354.98,-19.97"/>
<polygon fill="midnightblue" stroke="midnightblue" points="355.1,-16.44 344.65,-18.16 353.89,-23.33 355.1,-16.44"/>
</g>
<!-- Node14 -->
<g id="node14" class="node">
<title>Node14</title>
<g id="a_node14"><a xlink:title=" ">
<polygon fill="none" stroke="#bfbfbf" points="363,-0.5 363,-19.5 416,-19.5 416,-0.5 363,-0.5"/>
<text text-anchor="middle" x="389.5" y="-7.5" font-family="Helvetica,sans-Serif" font-size="10.00">string.h</text>
</a>
</g>
</g>
<!-- Node5&#45;&gt;Node14 -->
<g id="edge13" class="edge">
<title>Node5&#45;&gt;Node14</title>
<path fill="none" stroke="midnightblue" d="M796.39,-61.65C715.34,-56.37 563.69,-44.3 426.05,-20.06"/>
<polygon fill="midnightblue" stroke="midnightblue" points="426.62,-16.6 416.16,-18.29 425.39,-23.49 426.62,-16.6"/>
</g>
<!-- Node15 -->
<g id="node15" class="node">
<title>Node15</title>
<g id="a_node15"><a xlink:title=" ">
<polygon fill="none" stroke="#bfbfbf" points="434,-0.5 434,-19.5 521,-19.5 521,-0.5 434,-0.5"/>
<text text-anchor="middle" x="477.5" y="-7.5" font-family="Helvetica,sans-Serif" font-size="10.00">sys/resource.h</text>
</a>
</g>
</g>
<!-- Node5&#45;&gt;Node15 -->
<g id="edge14" class="edge">
<title>Node5&#45;&gt;Node15</title>
<path fill="none" stroke="midnightblue" d="M796.48,-57.48C733.68,-49.22 630.32,-35.27 531.06,-20.05"/>
<polygon fill="midnightblue" stroke="midnightblue" points="531.57,-16.58 521.16,-18.52 530.51,-23.5 531.57,-16.58"/>
</g>
<!-- Node16 -->
<g id="node16" class="node">
<title>Node16</title>
<g id="a_node16"><a xlink:title=" ">
<polygon fill="none" stroke="#bfbfbf" points="539.5,-0.5 539.5,-19.5 607.5,-19.5 607.5,-0.5 539.5,-0.5"/>
<text text-anchor="middle" x="573.5" y="-7.5" font-family="Helvetica,sans-Serif" font-size="10.00">sys/time.h</text>
</a>
</g>
</g>
<!-- Node5&#45;&gt;Node16 -->
<g id="edge15" class="edge">
<title>Node5&#45;&gt;Node16</title>
<path fill="none" stroke="midnightblue" d="M807.93,-56.47C762.07,-48.01 689.76,-34.51 617.89,-20.25"/>
<polygon fill="midnightblue" stroke="midnightblue" points="618.25,-16.75 607.76,-18.23 616.88,-23.62 618.25,-16.75"/>
</g>
<!-- Node17 -->
<g id="node17" class="node">
<title>Node17</title>
<g id="a_node17"><a xlink:title=" ">
<polygon fill="none" stroke="#bfbfbf" points="625.5,-0.5 625.5,-19.5 697.5,-19.5 697.5,-0.5 625.5,-0.5"/>
<text text-anchor="middle" x="661.5" y="-7.5" font-family="Helvetica,sans-Serif" font-size="10.00">sys/types.h</text>
</a>
</g>
</g>
<!-- Node5&#45;&gt;Node17 -->
<g id="edge16" class="edge">
<title>Node5&#45;&gt;Node17</title>
<path fill="none" stroke="midnightblue" d="M823.92,-56.44C790.89,-47.2 738.11,-32.44 701.73,-22.26"/>
<polygon fill="midnightblue" stroke="midnightblue" points="702.51,-18.84 691.94,-19.52 700.63,-25.58 702.51,-18.84"/>
</g>
<!-- Node18 -->
<g id="node18" class="node">
<title>Node18</title>
<g id="a_node18"><a xlink:title=" ">
<polygon fill="none" stroke="#bfbfbf" points="715.5,-0.5 715.5,-19.5 771.5,-19.5 771.5,-0.5 715.5,-0.5"/>
<text text-anchor="middle" x="743.5" y="-7.5" font-family="Helvetica,sans-Serif" font-size="10.00">unistd.h</text>
</a>
</g>
</g>
<!-- Node5&#45;&gt;Node18 -->
<g id="edge17" class="edge">
<title>Node5&#45;&gt;Node18</title>
<path fill="none" stroke="midnightblue" d="M836.67,-56.32C818.78,-47.62 791.02,-34.12 770.45,-24.11"/>
<polygon fill="midnightblue" stroke="midnightblue" points="771.81,-20.88 761.29,-19.65 768.75,-27.18 771.81,-20.88"/>
</g>
<!-- Node19 -->
<g id="node19" class="node">
<title>Node19</title>
<g id="a_node19"><a xlink:title=" ">
<polygon fill="none" stroke="#bfbfbf" points="789.5,-0.5 789.5,-19.5 837.5,-19.5 837.5,-0.5 789.5,-0.5"/>
<text text-anchor="middle" x="813.5" y="-7.5" font-family="Helvetica,sans-Serif" font-size="10.00">time.h</text>
</a>
</g>
</g>
<!-- Node5&#45;&gt;Node19 -->
<g id="edge18" class="edge">
<title>Node5&#45;&gt;Node19</title>
<path fill="none" stroke="midnightblue" d="M847.73,-56.08C841.94,-48.46 833.44,-37.26 826.36,-27.94"/>
<polygon fill="midnightblue" stroke="midnightblue" points="828.98,-25.6 820.14,-19.75 823.4,-29.83 828.98,-25.6"/>
</g>
<!-- Node20 -->
<g id="node20" class="node">
<title>Node20</title>
<g id="a_node20"><a xlink:title=" ">
<polygon fill="none" stroke="#bfbfbf" points="856,-0.5 856,-19.5 933,-19.5 933,-0.5 856,-0.5"/>
<text text-anchor="middle" x="894.5" y="-7.5" font-family="Helvetica,sans-Serif" font-size="10.00">sys/mman.h</text>
</a>
</g>
</g>
<!-- Node5&#45;&gt;Node20 -->
<g id="edge19" class="edge">
<title>Node5&#45;&gt;Node20</title>
<path fill="none" stroke="midnightblue" d="M861.11,-56.08C866.76,-48.46 875.04,-37.26 881.95,-27.94"/>
<polygon fill="midnightblue" stroke="midnightblue" points="884.88,-29.87 888.02,-19.75 879.25,-25.7 884.88,-29.87"/>
</g>
<!-- Node21 -->
<g id="node21" class="node">
<title>Node21</title>
<g id="a_node21"><a xlink:title=" ">
<polygon fill="none" stroke="#bfbfbf" points="951,-0.5 951,-19.5 1010,-19.5 1010,-0.5 951,-0.5"/>
<text text-anchor="middle" x="980.5" y="-7.5" font-family="Helvetica,sans-Serif" font-size="10.00">malloc.h</text>
</a>
</g>
</g>
<!-- Node5&#45;&gt;Node21 -->
<g id="edge20" class="edge">
<title>Node5&#45;&gt;Node21</title>
<path fill="none" stroke="midnightblue" d="M874.47,-56.44C895.11,-47.6 927.56,-33.69 951.13,-23.59"/>
<polygon fill="midnightblue" stroke="midnightblue" points="952.82,-26.67 960.63,-19.52 950.06,-20.24 952.82,-26.67"/>
</g>
<!-- Node22 -->
<g id="node22" class="node">
<title>Node22</title>
<g id="a_node22"><a xlink:title=" ">
<polygon fill="none" stroke="#bfbfbf" points="1028.5,-0.5 1028.5,-19.5 1082.5,-19.5 1082.5,-0.5 1028.5,-0.5"/>
<text text-anchor="middle" x="1055.5" y="-7.5" font-family="Helvetica,sans-Serif" font-size="10.00">sched.h</text>
</a>
</g>
</g>
<!-- Node5&#45;&gt;Node22 -->
<g id="edge21" class="edge">
<title>Node5&#45;&gt;Node22</title>
<path fill="none" stroke="midnightblue" d="M886.35,-56.44C922.17,-46.82 980.27,-31.21 1018.19,-21.02"/>
<polygon fill="midnightblue" stroke="midnightblue" points="1019.56,-24.28 1028.31,-18.3 1017.75,-17.52 1019.56,-24.28"/>
</g>
<!-- Node23 -->
<g id="node23" class="node">
<title>Node23</title>
<g id="a_node23"><a xlink:title=" ">
<polygon fill="none" stroke="#bfbfbf" points="1594.5,-0.5 1594.5,-19.5 1644.5,-19.5 1644.5,-0.5 1594.5,-0.5"/>
<text text-anchor="middle" x="1619.5" y="-7.5" font-family="Helvetica,sans-Serif" font-size="10.00">chrono</text>
</a>
</g>
</g>
<!-- Node5&#45;&gt;Node23 -->
<g id="edge22" class="edge">
<title>Node5&#45;&gt;Node23</title>
<path fill="none" stroke="midnightblue" d="M912.73,-65.3C1035.48,-65.09 1329.7,-60.17 1584.19,-19.88"/>
<polygon fill="midnightblue" stroke="midnightblue" points="1585.05,-23.28 1594.37,-18.24 1583.94,-16.37 1585.05,-23.28"/>
</g>
<!-- Node24 -->
<g id="node24" class="node">
<title>Node24</title>
<g id="a_node24"><a xlink:title=" ">
<polygon fill="none" stroke="#bfbfbf" points="1440.5,-0.5 1440.5,-19.5 1498.5,-19.5 1498.5,-0.5 1440.5,-0.5"/>
<text text-anchor="middle" x="1469.5" y="-7.5" font-family="Helvetica,sans-Serif" font-size="10.00">memory</text>
</a>
</g>
</g>
<!-- Node5&#45;&gt;Node24 -->
<g id="edge23" class="edge">
<title>Node5&#45;&gt;Node24</title>
<path fill="none" stroke="midnightblue" d="M912.58,-63.44C1015.22,-60.04 1235.44,-49.83 1430.01,-20"/>
<polygon fill="midnightblue" stroke="midnightblue" points="1430.79,-23.42 1440.13,-18.43 1429.71,-16.51 1430.79,-23.42"/>
</g>
<!-- Node25 -->
<g id="node25" class="node">
<title>Node25</title>
<g id="a_node25"><a xlink:title=" ">
<polygon fill="none" stroke="#bfbfbf" points="1100.5,-0.5 1100.5,-19.5 1144.5,-19.5 1144.5,-0.5 1100.5,-0.5"/>
<text text-anchor="middle" x="1122.5" y="-7.5" font-family="Helvetica,sans-Serif" font-size="10.00">ecrt.h</text>
</a>
</g>
</g>
<!-- Node5&#45;&gt;Node25 -->
<g id="edge24" class="edge">
<title>Node5&#45;&gt;Node25</title>
<path fill="none" stroke="midnightblue" d="M907.05,-56.5C953.02,-48.72 1021.76,-36.31 1090.13,-20.15"/>
<polygon fill="midnightblue" stroke="midnightblue" points="1091.3,-23.47 1100.22,-17.74 1089.68,-16.66 1091.3,-23.47"/>
</g>
<!-- Node26 -->
<g id="node26" class="node">
<title>Node26</title>
<g id="a_node26"><a xlink:href="object__dictionary_8hpp.html" target="_top" xlink:title=" ">
<polygon fill="none" stroke="black" points="1162.5,-0.5 1162.5,-19.5 1282.5,-19.5 1282.5,-0.5 1162.5,-0.5"/>
<text text-anchor="middle" x="1222.5" y="-7.5" font-family="Helvetica,sans-Serif" font-size="10.00">object_dictionary.hpp</text>
</a>
</g>
</g>
<!-- Node5&#45;&gt;Node26 -->
<g id="edge25" class="edge">
<title>Node5&#45;&gt;Node26</title>
<path fill="none" stroke="midnightblue" d="M912.81,-56.44C978.49,-46.81 1085.09,-31.16 1154.5,-20.98"/>
<polygon fill="midnightblue" stroke="midnightblue" points="1155.08,-24.43 1164.46,-19.52 1154.06,-17.51 1155.08,-24.43"/>
</g>
<!-- Node27&#45;&gt;Node4 -->
<g id="edge27" class="edge">
<title>Node27&#45;&gt;Node4</title>
<path fill="none" stroke="midnightblue" d="M978.5,-168.08C978.5,-161.01 978.5,-150.86 978.5,-141.99"/>
<polygon fill="midnightblue" stroke="midnightblue" points="982,-141.75 978.5,-131.75 975,-141.75 982,-141.75"/>
</g>
<!-- Node29&#45;&gt;Node3 -->
<g id="edge31" class="edge">
<title>Node29&#45;&gt;Node3</title>
<path fill="none" stroke="midnightblue" d="M1541.73,-298.66C1446.36,-295.55 1239.27,-285.57 1067.5,-255 1062.41,-254.09 1057.09,-252.92 1051.88,-251.63"/>
<polygon fill="midnightblue" stroke="midnightblue" points="1052.63,-248.21 1042.07,-249.06 1050.85,-254.98 1052.63,-248.21"/>
</g>
<!-- Node30 -->
<g id="node30" class="node">
<title>Node30</title>
<g id="a_node30"><a xlink:href="ecat__pkg_2include_2ecat__pkg_2timing_8hpp.html" target="_top" xlink:title=" ">
<polygon fill="none" stroke="black" points="1726,-56.5 1726,-75.5 1795,-75.5 1795,-56.5 1726,-56.5"/>
<text text-anchor="middle" x="1760.5" y="-63.5" font-family="Helvetica,sans-Serif" font-size="10.00">timing.hpp</text>
</a>
</g>
</g>
<!-- Node29&#45;&gt;Node30 -->
<g id="edge32" class="edge">
<title>Node29&#45;&gt;Node30</title>
<path fill="none" stroke="midnightblue" d="M1600.6,-291.43C1624.9,-257.33 1715.02,-130.84 1748.16,-84.32"/>
<polygon fill="midnightblue" stroke="midnightblue" points="1751.21,-86.07 1754.16,-75.9 1745.51,-82.01 1751.21,-86.07"/>
</g>
<!-- Node38 -->
<g id="node38" class="node">
<title>Node38</title>
<g id="a_node38"><a xlink:title=" ">
<polygon fill="none" stroke="#bfbfbf" points="1661,-224.5 1661,-254.5 1798,-254.5 1798,-224.5 1661,-224.5"/>
<text text-anchor="start" x="1669" y="-242.5" font-family="Helvetica,sans-Serif" font-size="10.00">rclcpp_lifecycle/lifecycle</text>
<text text-anchor="middle" x="1729.5" y="-231.5" font-family="Helvetica,sans-Serif" font-size="10.00">_node.hpp</text>
</a>
</g>
</g>
<!-- Node29&#45;&gt;Node38 -->
<g id="edge43" class="edge">
<title>Node29&#45;&gt;Node38</title>
<path fill="none" stroke="midnightblue" d="M1613.84,-291.48C1633.24,-282.93 1663.7,-269.5 1688.49,-258.57"/>
<polygon fill="midnightblue" stroke="midnightblue" points="1689.94,-261.76 1697.68,-254.52 1687.12,-255.35 1689.94,-261.76"/>
</g>
<!-- Node39 -->
<g id="node39" class="node">
<title>Node39</title>
<g id="a_node39"><a xlink:title=" ">
<polygon fill="none" stroke="#bfbfbf" points="1816,-224.5 1816,-254.5 1953,-254.5 1953,-224.5 1816,-224.5"/>
<text text-anchor="start" x="1824" y="-242.5" font-family="Helvetica,sans-Serif" font-size="10.00">rclcpp_lifecycle/lifecycle</text>
<text text-anchor="middle" x="1884.5" y="-231.5" font-family="Helvetica,sans-Serif" font-size="10.00">_publisher.hpp</text>
</a>
</g>
</g>
<!-- Node29&#45;&gt;Node39 -->
<g id="edge44" class="edge">
<title>Node29&#45;&gt;Node39</title>
<path fill="none" stroke="midnightblue" d="M1636.05,-291.48C1680.28,-282.4 1751.31,-267.83 1806.12,-256.58"/>
<polygon fill="midnightblue" stroke="midnightblue" points="1807.06,-259.96 1816.15,-254.52 1805.65,-253.1 1807.06,-259.96"/>
</g>
<!-- Node40 -->
<g id="node40" class="node">
<title>Node40</title>
<g id="a_node40"><a xlink:title=" ">
<polygon fill="none" stroke="#bfbfbf" points="1971.5,-224.5 1971.5,-254.5 2119.5,-254.5 2119.5,-224.5 1971.5,-224.5"/>
<text text-anchor="start" x="1979.5" y="-242.5" font-family="Helvetica,sans-Serif" font-size="10.00">ecat_msgs/msg/gui_button</text>
<text text-anchor="middle" x="2045.5" y="-231.5" font-family="Helvetica,sans-Serif" font-size="10.00">_data.hpp</text>
</a>
</g>
</g>
<!-- Node29&#45;&gt;Node40 -->
<g id="edge45" class="edge">
<title>Node29&#45;&gt;Node40</title>
<path fill="none" stroke="midnightblue" d="M1647.02,-294.43C1716.57,-286.87 1843.28,-272.44 1961.38,-255.12"/>
<polygon fill="midnightblue" stroke="midnightblue" points="1961.94,-258.58 1971.32,-253.65 1960.91,-251.65 1961.94,-258.58"/>
</g>
<!-- Node41 -->
<g id="node41" class="node">
<title>Node41</title>
<g id="a_node41"><a xlink:title=" ">
<polygon fill="none" stroke="#bfbfbf" points="2137.5,-224.5 2137.5,-254.5 2255.5,-254.5 2255.5,-224.5 2137.5,-224.5"/>
<text text-anchor="start" x="2145.5" y="-242.5" font-family="Helvetica,sans-Serif" font-size="10.00">ecat_msgs/msg/data</text>
<text text-anchor="middle" x="2196.5" y="-231.5" font-family="Helvetica,sans-Serif" font-size="10.00">_received.hpp</text>
</a>
</g>
</g>
<!-- Node29&#45;&gt;Node41 -->
<g id="edge46" class="edge">
<title>Node29&#45;&gt;Node41</title>
<path fill="none" stroke="midnightblue" d="M1647.05,-297.77C1741.35,-293.29 1945.62,-281.41 2127.24,-255.06"/>
<polygon fill="midnightblue" stroke="midnightblue" points="2127.86,-258.51 2137.24,-253.6 2126.84,-251.59 2127.86,-258.51"/>
</g>
<!-- Node42 -->
<g id="node42" class="node">
<title>Node42</title>
<g id="a_node42"><a xlink:title=" ">
<polygon fill="none" stroke="#bfbfbf" points="2273.5,-224.5 2273.5,-254.5 2391.5,-254.5 2391.5,-224.5 2273.5,-224.5"/>
<text text-anchor="start" x="2281.5" y="-242.5" font-family="Helvetica,sans-Serif" font-size="10.00">ecat_msgs/msg/data</text>
<text text-anchor="middle" x="2332.5" y="-231.5" font-family="Helvetica,sans-Serif" font-size="10.00">_sent.hpp</text>
</a>
</g>
</g>
<!-- Node29&#45;&gt;Node42 -->
<g id="edge47" class="edge">
<title>Node29&#45;&gt;Node42</title>
<path fill="none" stroke="midnightblue" d="M1647.32,-299.02C1759.2,-296.38 2028.4,-287.11 2263.16,-255.05"/>
<polygon fill="midnightblue" stroke="midnightblue" points="2263.82,-258.49 2273.25,-253.66 2262.87,-251.56 2263.82,-258.49"/>
</g>
<!-- Node43 -->
<g id="node43" class="node">
<title>Node43</title>
<g id="a_node43"><a xlink:title=" ">
<polygon fill="none" stroke="#bfbfbf" points="1077,-224.5 1077,-254.5 1232,-254.5 1232,-224.5 1077,-224.5"/>
<text text-anchor="start" x="1085" y="-242.5" font-family="Helvetica,sans-Serif" font-size="10.00">rclcpp/strategies/message</text>
<text text-anchor="middle" x="1154.5" y="-231.5" font-family="Helvetica,sans-Serif" font-size="10.00">_pool_memory_strategy.hpp</text>
</a>
</g>
</g>
<!-- Node29&#45;&gt;Node43 -->
<g id="edge48" class="edge">
<title>Node29&#45;&gt;Node43</title>
<path fill="none" stroke="midnightblue" d="M1541.78,-293.92C1474.73,-286.04 1355.12,-271.52 1242.45,-255.1"/>
<polygon fill="midnightblue" stroke="midnightblue" points="1242.67,-251.6 1232.26,-253.61 1241.65,-258.52 1242.67,-251.6"/>
</g>
<!-- Node44 -->
<g id="node44" class="node">
<title>Node44</title>
<g id="a_node44"><a xlink:title=" ">
<polygon fill="none" stroke="#bfbfbf" points="1250,-224.5 1250,-254.5 1393,-254.5 1393,-224.5 1250,-224.5"/>
<text text-anchor="start" x="1258" y="-242.5" font-family="Helvetica,sans-Serif" font-size="10.00">rclcpp/strategies/allocator</text>
<text text-anchor="middle" x="1321.5" y="-231.5" font-family="Helvetica,sans-Serif" font-size="10.00">_memory_strategy.hpp</text>
</a>
</g>
</g>
<!-- Node29&#45;&gt;Node44 -->
<g id="edge49" class="edge">
<title>Node29&#45;&gt;Node44</title>
<path fill="none" stroke="midnightblue" d="M1555.39,-291.48C1513.92,-282.44 1447.43,-267.95 1395.93,-256.72"/>
<polygon fill="midnightblue" stroke="midnightblue" points="1396.36,-253.23 1385.84,-254.52 1394.87,-260.07 1396.36,-253.23"/>
</g>
<!-- Node45 -->
<g id="node45" class="node">
<title>Node45</title>
<g id="a_node45"><a xlink:title=" ">
<polygon fill="none" stroke="#bfbfbf" points="1411,-230 1411,-249 1492,-249 1492,-230 1411,-230"/>
<text text-anchor="middle" x="1451.5" y="-237" font-family="Helvetica,sans-Serif" font-size="10.00">rttest/rttest.h</text>
</a>
</g>
</g>
<!-- Node29&#45;&gt;Node45 -->
<g id="edge50" class="edge">
<title>Node29&#45;&gt;Node45</title>
<path fill="none" stroke="midnightblue" d="M1574.01,-291.48C1549.69,-281.36 1508.95,-264.4 1481.18,-252.85"/>
<polygon fill="midnightblue" stroke="midnightblue" points="1482.53,-249.62 1471.95,-249.01 1479.84,-256.08 1482.53,-249.62"/>
</g>
<!-- Node46 -->
<g id="node46" class="node">
<title>Node46</title>
<g id="a_node46"><a xlink:title=" ">
<polygon fill="none" stroke="#bfbfbf" points="1510.5,-230 1510.5,-249 1604.5,-249 1604.5,-230 1510.5,-230"/>
<text text-anchor="middle" x="1557.5" y="-237" font-family="Helvetica,sans-Serif" font-size="10.00">tlsf_cpp/tlsf.hpp</text>
</a>
</g>
</g>
<!-- Node29&#45;&gt;Node46 -->
<g id="edge51" class="edge">
<title>Node29&#45;&gt;Node46</title>
<path fill="none" stroke="midnightblue" d="M1589.2,-291.48C1583.76,-282.73 1575.14,-268.87 1568.26,-257.81"/>
<polygon fill="midnightblue" stroke="midnightblue" points="1571.04,-255.65 1562.79,-249.01 1565.1,-259.35 1571.04,-255.65"/>
</g>
<!-- Node30&#45;&gt;Node6 -->
<g id="edge42" class="edge">
<title>Node30&#45;&gt;Node6</title>
<path fill="none" stroke="midnightblue" d="M1726.59,-56.44C1688.56,-46.85 1626.94,-31.3 1586.57,-21.11"/>
<polygon fill="midnightblue" stroke="midnightblue" points="1587.34,-17.7 1576.79,-18.64 1585.63,-24.48 1587.34,-17.7"/>
</g>
<!-- Node30&#45;&gt;Node23 -->
<g id="edge34" class="edge">
<title>Node30&#45;&gt;Node23</title>
<path fill="none" stroke="midnightblue" d="M1738.16,-56.44C1714.75,-47.48 1677.76,-33.31 1651.31,-23.18"/>
<polygon fill="midnightblue" stroke="midnightblue" points="1652.33,-19.82 1641.74,-19.52 1649.82,-26.36 1652.33,-19.82"/>
</g>
<!-- Node30&#45;&gt;Node24 -->
<g id="edge35" class="edge">
<title>Node30&#45;&gt;Node24</title>
<path fill="none" stroke="midnightblue" d="M1725.6,-59.43C1678.55,-51.79 1591.96,-37.23 1508.42,-20.1"/>
<polygon fill="midnightblue" stroke="midnightblue" points="1509.01,-16.64 1498.51,-18.05 1507.59,-23.5 1509.01,-16.64"/>
</g>
<!-- Node31 -->
<g id="node31" class="node">
<title>Node31</title>
<g id="a_node31"><a xlink:title=" ">
<polygon fill="none" stroke="#bfbfbf" points="1663,-0.5 1663,-19.5 1710,-19.5 1710,-0.5 1663,-0.5"/>
<text text-anchor="middle" x="1686.5" y="-7.5" font-family="Helvetica,sans-Serif" font-size="10.00">vector</text>
</a>
</g>
</g>
<!-- Node30&#45;&gt;Node31 -->
<g id="edge33" class="edge">
<title>Node30&#45;&gt;Node31</title>
<path fill="none" stroke="midnightblue" d="M1748.61,-56.32C1737.35,-48.11 1720.21,-35.6 1706.79,-25.81"/>
<polygon fill="midnightblue" stroke="midnightblue" points="1708.75,-22.9 1698.61,-19.83 1704.62,-28.56 1708.75,-22.9"/>
</g>
<!-- Node32 -->
<g id="node32" class="node">
<title>Node32</title>
<g id="a_node32"><a xlink:title=" ">
<polygon fill="none" stroke="#bfbfbf" points="1728,-0.5 1728,-19.5 1793,-19.5 1793,-0.5 1728,-0.5"/>
<text text-anchor="middle" x="1760.5" y="-7.5" font-family="Helvetica,sans-Serif" font-size="10.00">functional</text>
</a>
</g>
</g>
<!-- Node30&#45;&gt;Node32 -->
<g id="edge36" class="edge">
<title>Node30&#45;&gt;Node32</title>
<path fill="none" stroke="midnightblue" d="M1760.5,-56.08C1760.5,-49.01 1760.5,-38.86 1760.5,-29.99"/>
<polygon fill="midnightblue" stroke="midnightblue" points="1764,-29.75 1760.5,-19.75 1757,-29.75 1764,-29.75"/>
</g>
<!-- Node33 -->
<g id="node33" class="node">
<title>Node33</title>
<g id="a_node33"><a xlink:title=" ">
<polygon fill="none" stroke="#bfbfbf" points="1811.5,-0.5 1811.5,-19.5 1855.5,-19.5 1855.5,-0.5 1811.5,-0.5"/>
<text text-anchor="middle" x="1833.5" y="-7.5" font-family="Helvetica,sans-Serif" font-size="10.00">string</text>
</a>
</g>
</g>
<!-- Node30&#45;&gt;Node33 -->
<g id="edge37" class="edge">
<title>Node30&#45;&gt;Node33</title>
<path fill="none" stroke="midnightblue" d="M1772.23,-56.32C1783.34,-48.11 1800.24,-35.6 1813.48,-25.81"/>
<polygon fill="midnightblue" stroke="midnightblue" points="1815.6,-28.59 1821.56,-19.83 1811.44,-22.97 1815.6,-28.59"/>
</g>
<!-- Node34 -->
<g id="node34" class="node">
<title>Node34</title>
<g id="a_node34"><a xlink:title=" ">
<polygon fill="none" stroke="#bfbfbf" points="1873.5,-0.5 1873.5,-19.5 1923.5,-19.5 1923.5,-0.5 1873.5,-0.5"/>
<text text-anchor="middle" x="1898.5" y="-7.5" font-family="Helvetica,sans-Serif" font-size="10.00">cstdint</text>
</a>
</g>
</g>
<!-- Node30&#45;&gt;Node34 -->
<g id="edge38" class="edge">
<title>Node30&#45;&gt;Node34</title>
<path fill="none" stroke="midnightblue" d="M1782.37,-56.44C1805.28,-47.48 1841.48,-33.31 1867.37,-23.18"/>
<polygon fill="midnightblue" stroke="midnightblue" points="1868.7,-26.42 1876.74,-19.52 1866.15,-19.9 1868.7,-26.42"/>
</g>
<!-- Node35 -->
<g id="node35" class="node">
<title>Node35</title>
<g id="a_node35"><a xlink:title=" ">
<polygon fill="none" stroke="#bfbfbf" points="1941.5,-0.5 1941.5,-19.5 1985.5,-19.5 1985.5,-0.5 1941.5,-0.5"/>
<text text-anchor="middle" x="1963.5" y="-7.5" font-family="Helvetica,sans-Serif" font-size="10.00">ctime</text>
</a>
</g>
</g>
<!-- Node30&#45;&gt;Node35 -->
<g id="edge39" class="edge">
<title>Node30&#45;&gt;Node35</title>
<path fill="none" stroke="midnightblue" d="M1794.19,-56.47C1826.88,-48.13 1878.14,-34.89 1931.24,-20.3"/>
<polygon fill="midnightblue" stroke="midnightblue" points="1932.46,-23.59 1941.17,-17.56 1930.6,-16.84 1932.46,-23.59"/>
</g>
<!-- Node36 -->
<g id="node36" class="node">
<title>Node36</title>
<g id="a_node36"><a xlink:title=" ">
<polygon fill="none" stroke="#bfbfbf" points="2004,-0.5 2004,-19.5 2043,-19.5 2043,-0.5 2004,-0.5"/>
<text text-anchor="middle" x="2023.5" y="-7.5" font-family="Helvetica,sans-Serif" font-size="10.00">ratio</text>
</a>
</g>
</g>
<!-- Node30&#45;&gt;Node36 -->
<g id="edge40" class="edge">
<title>Node30&#45;&gt;Node36</title>
<path fill="none" stroke="midnightblue" d="M1795.26,-59.56C1839.3,-52.38 1917.71,-38.72 1994.13,-19.85"/>
<polygon fill="midnightblue" stroke="midnightblue" points="1995.08,-23.22 2003.93,-17.4 1993.38,-16.43 1995.08,-23.22"/>
</g>
<!-- Node37 -->
<g id="node37" class="node">
<title>Node37</title>
<g id="a_node37"><a xlink:title=" ">
<polygon fill="none" stroke="#bfbfbf" points="2061,-0.5 2061,-19.5 2116,-19.5 2116,-0.5 2061,-0.5"/>
<text text-anchor="middle" x="2088.5" y="-7.5" font-family="Helvetica,sans-Serif" font-size="10.00">fstream</text>
</a>
</g>
</g>
<!-- Node30&#45;&gt;Node37 -->
<g id="edge41" class="edge">
<title>Node30&#45;&gt;Node37</title>
<path fill="none" stroke="midnightblue" d="M1795.29,-60.69C1848.39,-53.89 1952.99,-39.59 2050.62,-20.24"/>
<polygon fill="midnightblue" stroke="midnightblue" points="2051.53,-23.63 2060.65,-18.23 2050.16,-16.77 2051.53,-23.63"/>
</g>
</g>
</svg>
        <g id="navigator" transform="translate(0 0)" fill="#404254">
                <rect fill="#f2f5e9" fill-opacity="0.5" stroke="#606060" stroke-width=".5" x="0" y="0" width="60" height="60"/>
                <use id="zoomplus" xlink:href="#zoomPlus" x="17" y="9" onmousedown="handleZoom(evt,'in')"/>
                <use id="zoomminus" xlink:href="#zoomMin" x="42" y="9" onmousedown="handleZoom(evt,'out')"/>
                <use id="reset" xlink:href="#resetDef" x="30" y="36" onmousedown="handleReset()"/>
                <g id="arrowUp" xlink:href="#dirArrow" transform="translate(30 24)" onmousedown="handlePan(0,-1)">
                  <use xlink:href="#rim" fill="#404040">
                        <set attributeName="fill" to="#808080" begin="arrowUp.mouseover" end="arrowUp.mouseout"/>
                  </use>
                  <path fill="none" stroke="white" stroke-width="1.5" d="M0,-3.0v7 M-2.5,-0.5L0,-3.0L2.5,-0.5"/>
                </g>
                <g id="arrowRight" xlink:href="#dirArrow" transform="rotate(90) translate(36 -43)" onmousedown="handlePan(1,0)">
                  <use xlink:href="#rim" fill="#404040">
                        <set attributeName="fill" to="#808080" begin="arrowRight.mouseover" end="arrowRight.mouseout"/>
                  </use>
                  <path fill="none" stroke="white" stroke-width="1.5" d="M0,-3.0v7 M-2.5,-0.5L0,-3.0L2.5,-0.5"/>
                </g>
                <g id="arrowDown" xlink:href="#dirArrow" transform="rotate(180) translate(-30 -48)" onmousedown="handlePan(0,1)">
                  <use xlink:href="#rim" fill="#404040">
                        <set attributeName="fill" to="#808080" begin="arrowDown.mouseover" end="arrowDown.mouseout"/>
                  </use>
                  <path fill="none" stroke="white" stroke-width="1.5" d="M0,-3.0v7 M-2.5,-0.5L0,-3.0L2.5,-0.5"/>
                </g>
                <g id="arrowLeft" xlink:href="#dirArrow" transform="rotate(270) translate(-36 17)" onmousedown="handlePan(-1,0)">
                  <use xlink:href="#rim" fill="#404040">
                        <set attributeName="fill" to="#808080" begin="arrowLeft.mouseover" end="arrowLeft.mouseout"/>
                  </use>
                  <path fill="none" stroke="white" stroke-width="1.5" d="M0,-3.0v7 M-2.5,-0.5L0,-3.0L2.5,-0.5"/>
                </g>
        </g>
        <svg viewBox="0 0 15 15" width="100%" height="30px" preserveAspectRatio="xMaxYMin meet">
         <g id="arrow_out" transform="scale(0.3 0.3)">
          <a xlink:href="ecat__pkg_2src_2main_8cpp__incl_org.svg" target="_base">
           <rect id="button" ry="5" rx="5" y="6" x="6" height="38" width="38"
                fill="#f2f5e9" fill-opacity="0.5" stroke="#606060" stroke-width="1.0"/>
           <path id="arrow"
             d="M 11.500037,31.436501 C 11.940474,20.09759 22.043105,11.32322 32.158766,21.979434 L 37.068811,17.246167 C 37.068811,17.246167 37.088388,32 37.088388,32 L 22.160133,31.978069 C 22.160133,31.978069 26.997745,27.140456 26.997745,27.140456 C 18.528582,18.264221 13.291696,25.230495 11.500037,31.436501 z"
             style="fill:#404040;"/>
          </a>
         </g>
        </svg>
</svg>
