<?xml version="1.0" encoding="UTF-8" standalone="no"?>
<!DOCTYPE svg PUBLIC "-//W3C//DTD SVG 1.1//EN"
 "http://www.w3.org/Graphics/SVG/1.1/DTD/svg11.dtd">
<!-- Generated by graphviz version 2.43.0 (0)
 -->
<!-- Title: src/ecat_pkg/include/ecat_pkg/ecat_slave.hpp Pages: 1 -->
<svg width="423pt" height="240pt"
 viewBox="0.00 0.00 423.00 240.00" xmlns="http://www.w3.org/2000/svg" xmlns:xlink="http://www.w3.org/1999/xlink">
<g id="graph0" class="graph" transform="scale(1 1) rotate(0) translate(4 236)">
<title>src/ecat_pkg/include/ecat_pkg/ecat_slave.hpp</title>
<!-- Node1 -->
<g id="node1" class="node">
<title>Node1</title>
<g id="a_node1"><a xlink:title=" ">
<polygon fill="#bfbfbf" stroke="black" points="211.5,-201.5 211.5,-231.5 351.5,-231.5 351.5,-201.5 211.5,-201.5"/>
<text text-anchor="start" x="219.5" y="-219.5" font-family="Helvetica,sans-Serif" font-size="10.00">src/ecat_pkg/include</text>
<text text-anchor="middle" x="281.5" y="-208.5" font-family="Helvetica,sans-Serif" font-size="10.00">/ecat_pkg/ecat_slave.hpp</text>
</a>
</g>
</g>
<!-- Node2 -->
<g id="node2" class="node">
<title>Node2</title>
<g id="a_node2"><a xlink:href="ecat__node_8hpp.html" target="_top" xlink:title=" ">
<polygon fill="none" stroke="black" points="139.5,-134.5 139.5,-164.5 277.5,-164.5 277.5,-134.5 139.5,-134.5"/>
<text text-anchor="start" x="147.5" y="-152.5" font-family="Helvetica,sans-Serif" font-size="10.00">src/ecat_pkg/include</text>
<text text-anchor="middle" x="208.5" y="-141.5" font-family="Helvetica,sans-Serif" font-size="10.00">/ecat_pkg/ecat_node.hpp</text>
</a>
</g>
</g>
<!-- Node1&#45;&gt;Node2 -->
<g id="edge1" class="edge">
<title>Node1&#45;&gt;Node2</title>
<path fill="none" stroke="midnightblue" d="M258.03,-194.6C247,-184.78 234.16,-173.34 224.31,-164.58"/>
<polygon fill="midnightblue" stroke="midnightblue" points="255.86,-197.36 265.66,-201.4 260.52,-192.13 255.86,-197.36"/>
</g>
<!-- Node7 -->
<g id="node7" class="node">
<title>Node7</title>
<g id="a_node7"><a xlink:href="ecat__slave_8cpp.html" target="_top" xlink:title=" ">
<polygon fill="none" stroke="black" points="296,-134.5 296,-164.5 415,-164.5 415,-134.5 296,-134.5"/>
<text text-anchor="start" x="304" y="-152.5" font-family="Helvetica,sans-Serif" font-size="10.00">src/ecat_pkg/src/ecat</text>
<text text-anchor="middle" x="355.5" y="-141.5" font-family="Helvetica,sans-Serif" font-size="10.00">_slave.cpp</text>
</a>
</g>
</g>
<!-- Node1&#45;&gt;Node7 -->
<g id="edge7" class="edge">
<title>Node1&#45;&gt;Node7</title>
<path fill="none" stroke="midnightblue" d="M305.3,-194.6C316.47,-184.78 329.49,-173.34 339.47,-164.58"/>
<polygon fill="midnightblue" stroke="midnightblue" points="302.76,-192.17 297.56,-201.4 307.38,-197.43 302.76,-192.17"/>
</g>
<!-- Node3 -->
<g id="node3" class="node">
<title>Node3</title>
<g id="a_node3"><a xlink:href="ecat__lifecycle_8hpp.html" target="_top" xlink:title=" ">
<polygon fill="none" stroke="black" points="25,-67.5 25,-97.5 180,-97.5 180,-67.5 25,-67.5"/>
<text text-anchor="start" x="33" y="-85.5" font-family="Helvetica,sans-Serif" font-size="10.00">src/ecat_pkg/include</text>
<text text-anchor="middle" x="102.5" y="-74.5" font-family="Helvetica,sans-Serif" font-size="10.00">/ecat_pkg/ecat_lifecycle.hpp</text>
</a>
</g>
</g>
<!-- Node2&#45;&gt;Node3 -->
<g id="edge2" class="edge">
<title>Node2&#45;&gt;Node3</title>
<path fill="none" stroke="midnightblue" d="M176.72,-129.02C160.23,-118.9 140.45,-106.77 125.46,-97.58"/>
<polygon fill="midnightblue" stroke="midnightblue" points="175.15,-132.15 185.5,-134.4 178.8,-126.18 175.15,-132.15"/>
</g>
<!-- Node5 -->
<g id="node5" class="node">
<title>Node5</title>
<g id="a_node5"><a xlink:href="ecat__pkg_2src_2main_8cpp.html" target="_top" xlink:title=" ">
<polygon fill="none" stroke="black" points="137,-6 137,-25 280,-25 280,-6 137,-6"/>
<text text-anchor="middle" x="208.5" y="-13" font-family="Helvetica,sans-Serif" font-size="10.00">src/ecat_pkg/src/main.cpp</text>
</a>
</g>
</g>
<!-- Node2&#45;&gt;Node5 -->
<g id="edge6" class="edge">
<title>Node2&#45;&gt;Node5</title>
<path fill="none" stroke="midnightblue" d="M208.5,-124.32C208.5,-94.38 208.5,-44.91 208.5,-25.1"/>
<polygon fill="midnightblue" stroke="midnightblue" points="205,-124.37 208.5,-134.37 212,-124.37 205,-124.37"/>
</g>
<!-- Node6 -->
<g id="node6" class="node">
<title>Node6</title>
<g id="a_node6"><a xlink:href="ecat__node_8cpp.html" target="_top" xlink:title=" ">
<polygon fill="none" stroke="black" points="237,-67.5 237,-97.5 356,-97.5 356,-67.5 237,-67.5"/>
<text text-anchor="start" x="245" y="-85.5" font-family="Helvetica,sans-Serif" font-size="10.00">src/ecat_pkg/src/ecat</text>
<text text-anchor="middle" x="296.5" y="-74.5" font-family="Helvetica,sans-Serif" font-size="10.00">_node.cpp</text>
</a>
</g>
</g>
<!-- Node2&#45;&gt;Node6 -->
<g id="edge5" class="edge">
<title>Node2&#45;&gt;Node6</title>
<path fill="none" stroke="midnightblue" d="M235.64,-128.45C249.18,-118.45 265.23,-106.6 277.44,-97.58"/>
<polygon fill="midnightblue" stroke="midnightblue" points="233.56,-125.64 227.59,-134.4 237.72,-131.27 233.56,-125.64"/>
</g>
<!-- Node4 -->
<g id="node4" class="node">
<title>Node4</title>
<g id="a_node4"><a xlink:href="ecat__lifecycle_8cpp.html" target="_top" xlink:title=" ">
<polygon fill="none" stroke="black" points="0,-0.5 0,-30.5 119,-30.5 119,-0.5 0,-0.5"/>
<text text-anchor="start" x="8" y="-18.5" font-family="Helvetica,sans-Serif" font-size="10.00">src/ecat_pkg/src/ecat</text>
<text text-anchor="middle" x="59.5" y="-7.5" font-family="Helvetica,sans-Serif" font-size="10.00">_lifecycle.cpp</text>
</a>
</g>
</g>
<!-- Node3&#45;&gt;Node4 -->
<g id="edge3" class="edge">
<title>Node3&#45;&gt;Node4</title>
<path fill="none" stroke="midnightblue" d="M87.53,-58.87C81.3,-49.46 74.27,-38.83 68.81,-30.58"/>
<polygon fill="midnightblue" stroke="midnightblue" points="84.73,-60.99 93.17,-67.4 90.57,-57.12 84.73,-60.99"/>
</g>
<!-- Node3&#45;&gt;Node5 -->
<g id="edge4" class="edge">
<title>Node3&#45;&gt;Node5</title>
<path fill="none" stroke="midnightblue" d="M134.07,-62.14C154.22,-49.79 179.33,-34.39 194.63,-25.01"/>
<polygon fill="midnightblue" stroke="midnightblue" points="132.2,-59.18 125.5,-67.4 135.85,-65.15 132.2,-59.18"/>
</g>
</g>
</svg>
