<?xml version="1.0" encoding="UTF-8" standalone="no"?>
<!DOCTYPE svg PUBLIC "-//W3C//DTD SVG 1.1//EN"
 "http://www.w3.org/Graphics/SVG/1.1/DTD/svg11.dtd">
<!-- Generated by graphviz version 2.43.0 (0)
 -->
<!-- Title: src/ecat_pkg/include/ecat_pkg/ecat_definitions.hpp Pages: 1 -->
<svg width="1652pt" height="95pt"
 viewBox="0.00 0.00 1652.00 95.00" xmlns="http://www.w3.org/2000/svg" xmlns:xlink="http://www.w3.org/1999/xlink">
<g id="graph0" class="graph" transform="scale(1 1) rotate(0) translate(4 91)">
<title>src/ecat_pkg/include/ecat_pkg/ecat_definitions.hpp</title>
<!-- Node1 -->
<g id="node1" class="node">
<title>Node1</title>
<g id="a_node1"><a xlink:title="Writes desired operational mode, to slave in specified index via SDO.">
<polygon fill="#bfbfbf" stroke="black" points="708,-56.5 708,-86.5 874,-86.5 874,-56.5 708,-56.5"/>
<text text-anchor="start" x="716" y="-74.5" font-family="Helvetica,sans-Serif" font-size="10.00">src/ecat_pkg/include</text>
<text text-anchor="middle" x="791" y="-63.5" font-family="Helvetica,sans-Serif" font-size="10.00">/ecat_pkg/ecat_definitions.hpp</text>
</a>
</g>
</g>
<!-- Node2 -->
<g id="node2" class="node">
<title>Node2</title>
<g id="a_node2"><a xlink:title=" ">
<polygon fill="none" stroke="#bfbfbf" points="0,-0.5 0,-19.5 60,-19.5 60,-0.5 0,-0.5"/>
<text text-anchor="middle" x="30" y="-7.5" font-family="Helvetica,sans-Serif" font-size="10.00">iostream</text>
</a>
</g>
</g>
<!-- Node1&#45;&gt;Node2 -->
<g id="edge1" class="edge">
<title>Node1&#45;&gt;Node2</title>
<path fill="none" stroke="midnightblue" d="M707.98,-68.92C575.12,-65.46 306.5,-54.64 70.3,-19.96"/>
<polygon fill="midnightblue" stroke="midnightblue" points="70.55,-16.46 60.14,-18.45 69.52,-23.38 70.55,-16.46"/>
</g>
<!-- Node3 -->
<g id="node3" class="node">
<title>Node3</title>
<g id="a_node3"><a xlink:title=" ">
<polygon fill="none" stroke="#bfbfbf" points="78,-0.5 78,-19.5 128,-19.5 128,-0.5 78,-0.5"/>
<text text-anchor="middle" x="103" y="-7.5" font-family="Helvetica,sans-Serif" font-size="10.00">cstring</text>
</a>
</g>
</g>
<!-- Node1&#45;&gt;Node3 -->
<g id="edge2" class="edge">
<title>Node1&#45;&gt;Node3</title>
<path fill="none" stroke="midnightblue" d="M707.82,-68.91C584.96,-65.48 347.78,-54.79 138.1,-19.88"/>
<polygon fill="midnightblue" stroke="midnightblue" points="138.58,-16.41 128.14,-18.2 137.42,-23.31 138.58,-16.41"/>
</g>
<!-- Node4 -->
<g id="node4" class="node">
<title>Node4</title>
<g id="a_node4"><a xlink:title=" ">
<polygon fill="none" stroke="#bfbfbf" points="146.5,-0.5 146.5,-19.5 199.5,-19.5 199.5,-0.5 146.5,-0.5"/>
<text text-anchor="middle" x="173" y="-7.5" font-family="Helvetica,sans-Serif" font-size="10.00">limits.h</text>
</a>
</g>
</g>
<!-- Node1&#45;&gt;Node4 -->
<g id="edge3" class="edge">
<title>Node1&#45;&gt;Node4</title>
<path fill="none" stroke="midnightblue" d="M707.9,-67.62C596.37,-62.8 392.06,-50.58 209.7,-20.04"/>
<polygon fill="midnightblue" stroke="midnightblue" points="210.1,-16.56 199.66,-18.34 208.93,-23.46 210.1,-16.56"/>
</g>
<!-- Node5 -->
<g id="node5" class="node">
<title>Node5</title>
<g id="a_node5"><a xlink:title=" ">
<polygon fill="none" stroke="#bfbfbf" points="217.5,-0.5 217.5,-19.5 270.5,-19.5 270.5,-0.5 217.5,-0.5"/>
<text text-anchor="middle" x="244" y="-7.5" font-family="Helvetica,sans-Serif" font-size="10.00">stdlib.h</text>
</a>
</g>
</g>
<!-- Node1&#45;&gt;Node5 -->
<g id="edge4" class="edge">
<title>Node1&#45;&gt;Node5</title>
<path fill="none" stroke="midnightblue" d="M708,-66.24C608.47,-60.24 436.55,-47.1 280.89,-20.1"/>
<polygon fill="midnightblue" stroke="midnightblue" points="281.12,-16.59 270.66,-18.3 279.9,-23.48 281.12,-16.59"/>
</g>
<!-- Node6 -->
<g id="node6" class="node">
<title>Node6</title>
<g id="a_node6"><a xlink:title=" ">
<polygon fill="none" stroke="#bfbfbf" points="288.5,-0.5 288.5,-19.5 351.5,-19.5 351.5,-0.5 288.5,-0.5"/>
<text text-anchor="middle" x="320" y="-7.5" font-family="Helvetica,sans-Serif" font-size="10.00">pthread.h</text>
</a>
</g>
</g>
<!-- Node1&#45;&gt;Node6 -->
<g id="edge5" class="edge">
<title>Node1&#45;&gt;Node6</title>
<path fill="none" stroke="midnightblue" d="M707.6,-63.34C622.81,-55.46 487.49,-41.27 361.99,-20.2"/>
<polygon fill="midnightblue" stroke="midnightblue" points="362.26,-16.7 351.82,-18.47 361.09,-23.6 362.26,-16.7"/>
</g>
<!-- Node7 -->
<g id="node7" class="node">
<title>Node7</title>
<g id="a_node7"><a xlink:title=" ">
<polygon fill="none" stroke="#bfbfbf" points="369.5,-0.5 369.5,-19.5 420.5,-19.5 420.5,-0.5 369.5,-0.5"/>
<text text-anchor="middle" x="395" y="-7.5" font-family="Helvetica,sans-Serif" font-size="10.00">errno.h</text>
</a>
</g>
</g>
<!-- Node1&#45;&gt;Node7 -->
<g id="edge6" class="edge">
<title>Node1&#45;&gt;Node7</title>
<path fill="none" stroke="midnightblue" d="M707.85,-61.78C636.54,-53.64 530.94,-40.01 430.55,-20.12"/>
<polygon fill="midnightblue" stroke="midnightblue" points="431.04,-16.65 420.54,-18.11 429.66,-23.51 431.04,-16.65"/>
</g>
<!-- Node8 -->
<g id="node8" class="node">
<title>Node8</title>
<g id="a_node8"><a xlink:title=" ">
<polygon fill="none" stroke="#bfbfbf" points="438.5,-0.5 438.5,-19.5 493.5,-19.5 493.5,-0.5 438.5,-0.5"/>
<text text-anchor="middle" x="466" y="-7.5" font-family="Helvetica,sans-Serif" font-size="10.00">signal.h</text>
</a>
</g>
</g>
<!-- Node1&#45;&gt;Node8 -->
<g id="edge7" class="edge">
<title>Node1&#45;&gt;Node8</title>
<path fill="none" stroke="midnightblue" d="M707.86,-57.39C652.66,-48.35 578.4,-35.52 503.87,-20.07"/>
<polygon fill="midnightblue" stroke="midnightblue" points="504.34,-16.59 493.84,-17.98 502.91,-23.45 504.34,-16.59"/>
</g>
<!-- Node9 -->
<g id="node9" class="node">
<title>Node9</title>
<g id="a_node9"><a xlink:title=" ">
<polygon fill="none" stroke="#bfbfbf" points="512,-0.5 512,-19.5 562,-19.5 562,-0.5 512,-0.5"/>
<text text-anchor="middle" x="537" y="-7.5" font-family="Helvetica,sans-Serif" font-size="10.00">stdio.h</text>
</a>
</g>
</g>
<!-- Node1&#45;&gt;Node9 -->
<g id="edge8" class="edge">
<title>Node1&#45;&gt;Node9</title>
<path fill="none" stroke="midnightblue" d="M727.33,-56.47C685.73,-47.17 630,-34.45 572.26,-20.26"/>
<polygon fill="midnightblue" stroke="midnightblue" points="572.77,-16.78 562.23,-17.78 571.1,-23.57 572.77,-16.78"/>
</g>
<!-- Node10 -->
<g id="node10" class="node">
<title>Node10</title>
<g id="a_node10"><a xlink:title=" ">
<polygon fill="none" stroke="#bfbfbf" points="580.5,-0.5 580.5,-19.5 633.5,-19.5 633.5,-0.5 580.5,-0.5"/>
<text text-anchor="middle" x="607" y="-7.5" font-family="Helvetica,sans-Serif" font-size="10.00">string.h</text>
</a>
</g>
</g>
<!-- Node1&#45;&gt;Node10 -->
<g id="edge9" class="edge">
<title>Node1&#45;&gt;Node10</title>
<path fill="none" stroke="midnightblue" d="M747.39,-56.4C715.6,-46.12 673.03,-32.35 643.13,-22.68"/>
<polygon fill="midnightblue" stroke="midnightblue" points="644.1,-19.32 633.51,-19.57 641.94,-25.98 644.1,-19.32"/>
</g>
<!-- Node11 -->
<g id="node11" class="node">
<title>Node11</title>
<g id="a_node11"><a xlink:title=" ">
<polygon fill="none" stroke="#bfbfbf" points="651.5,-0.5 651.5,-19.5 738.5,-19.5 738.5,-0.5 651.5,-0.5"/>
<text text-anchor="middle" x="695" y="-7.5" font-family="Helvetica,sans-Serif" font-size="10.00">sys/resource.h</text>
</a>
</g>
</g>
<!-- Node1&#45;&gt;Node11 -->
<g id="edge10" class="edge">
<title>Node1&#45;&gt;Node11</title>
<path fill="none" stroke="midnightblue" d="M768.25,-56.4C753.01,-46.95 733.01,-34.56 717.76,-25.11"/>
<polygon fill="midnightblue" stroke="midnightblue" points="719.31,-21.95 708.97,-19.66 715.62,-27.9 719.31,-21.95"/>
</g>
<!-- Node12 -->
<g id="node12" class="node">
<title>Node12</title>
<g id="a_node12"><a xlink:title=" ">
<polygon fill="none" stroke="#bfbfbf" points="757,-0.5 757,-19.5 825,-19.5 825,-0.5 757,-0.5"/>
<text text-anchor="middle" x="791" y="-7.5" font-family="Helvetica,sans-Serif" font-size="10.00">sys/time.h</text>
</a>
</g>
</g>
<!-- Node1&#45;&gt;Node12 -->
<g id="edge11" class="edge">
<title>Node1&#45;&gt;Node12</title>
<path fill="none" stroke="midnightblue" d="M791,-56.4C791,-48.47 791,-38.46 791,-29.86"/>
<polygon fill="midnightblue" stroke="midnightblue" points="794.5,-29.66 791,-19.66 787.5,-29.66 794.5,-29.66"/>
</g>
<!-- Node13 -->
<g id="node13" class="node">
<title>Node13</title>
<g id="a_node13"><a xlink:title=" ">
<polygon fill="none" stroke="#bfbfbf" points="843,-0.5 843,-19.5 915,-19.5 915,-0.5 843,-0.5"/>
<text text-anchor="middle" x="879" y="-7.5" font-family="Helvetica,sans-Serif" font-size="10.00">sys/types.h</text>
</a>
</g>
</g>
<!-- Node1&#45;&gt;Node13 -->
<g id="edge12" class="edge">
<title>Node1&#45;&gt;Node13</title>
<path fill="none" stroke="midnightblue" d="M811.85,-56.4C825.7,-47.04 843.81,-34.79 857.74,-25.38"/>
<polygon fill="midnightblue" stroke="midnightblue" points="859.87,-28.16 866.2,-19.66 855.95,-22.36 859.87,-28.16"/>
</g>
<!-- Node14 -->
<g id="node14" class="node">
<title>Node14</title>
<g id="a_node14"><a xlink:title=" ">
<polygon fill="none" stroke="#bfbfbf" points="933,-0.5 933,-19.5 989,-19.5 989,-0.5 933,-0.5"/>
<text text-anchor="middle" x="961" y="-7.5" font-family="Helvetica,sans-Serif" font-size="10.00">unistd.h</text>
</a>
</g>
</g>
<!-- Node1&#45;&gt;Node14 -->
<g id="edge13" class="edge">
<title>Node1&#45;&gt;Node14</title>
<path fill="none" stroke="midnightblue" d="M831.29,-56.4C860.32,-46.24 899.08,-32.67 926.65,-23.02"/>
<polygon fill="midnightblue" stroke="midnightblue" points="927.98,-26.26 936.26,-19.66 925.67,-19.66 927.98,-26.26"/>
</g>
<!-- Node15 -->
<g id="node15" class="node">
<title>Node15</title>
<g id="a_node15"><a xlink:title=" ">
<polygon fill="none" stroke="#bfbfbf" points="1007,-0.5 1007,-19.5 1055,-19.5 1055,-0.5 1007,-0.5"/>
<text text-anchor="middle" x="1031" y="-7.5" font-family="Helvetica,sans-Serif" font-size="10.00">time.h</text>
</a>
</g>
</g>
<!-- Node1&#45;&gt;Node15 -->
<g id="edge14" class="edge">
<title>Node1&#45;&gt;Node15</title>
<path fill="none" stroke="midnightblue" d="M850.44,-56.45C889.53,-47.1 942.04,-34.36 996.95,-20.22"/>
<polygon fill="midnightblue" stroke="midnightblue" points="998.06,-23.55 1006.87,-17.66 996.31,-16.77 998.06,-23.55"/>
</g>
<!-- Node16 -->
<g id="node16" class="node">
<title>Node16</title>
<g id="a_node16"><a xlink:title=" ">
<polygon fill="none" stroke="#bfbfbf" points="1073.5,-0.5 1073.5,-19.5 1150.5,-19.5 1150.5,-0.5 1073.5,-0.5"/>
<text text-anchor="middle" x="1112" y="-7.5" font-family="Helvetica,sans-Serif" font-size="10.00">sys/mman.h</text>
</a>
</g>
</g>
<!-- Node1&#45;&gt;Node16 -->
<g id="edge15" class="edge">
<title>Node1&#45;&gt;Node16</title>
<path fill="none" stroke="midnightblue" d="M867.21,-56.45C919.5,-46.8 990.79,-33.62 1063.26,-20.13"/>
<polygon fill="midnightblue" stroke="midnightblue" points="1064.3,-23.5 1073.49,-18.23 1063.02,-16.62 1064.3,-23.5"/>
</g>
<!-- Node17 -->
<g id="node17" class="node">
<title>Node17</title>
<g id="a_node17"><a xlink:title=" ">
<polygon fill="none" stroke="#bfbfbf" points="1168.5,-0.5 1168.5,-19.5 1227.5,-19.5 1227.5,-0.5 1168.5,-0.5"/>
<text text-anchor="middle" x="1198" y="-7.5" font-family="Helvetica,sans-Serif" font-size="10.00">malloc.h</text>
</a>
</g>
</g>
<!-- Node1&#45;&gt;Node17 -->
<g id="edge16" class="edge">
<title>Node1&#45;&gt;Node17</title>
<path fill="none" stroke="midnightblue" d="M874.17,-61.44C946.85,-52.99 1055.39,-39.09 1158.25,-20.19"/>
<polygon fill="midnightblue" stroke="midnightblue" points="1158.99,-23.61 1168.19,-18.35 1157.72,-16.73 1158.99,-23.61"/>
</g>
<!-- Node18 -->
<g id="node18" class="node">
<title>Node18</title>
<g id="a_node18"><a xlink:title=" ">
<polygon fill="none" stroke="#bfbfbf" points="1246,-0.5 1246,-19.5 1300,-19.5 1300,-0.5 1246,-0.5"/>
<text text-anchor="middle" x="1273" y="-7.5" font-family="Helvetica,sans-Serif" font-size="10.00">sched.h</text>
</a>
</g>
</g>
<!-- Node1&#45;&gt;Node18 -->
<g id="edge17" class="edge">
<title>Node1&#45;&gt;Node18</title>
<path fill="none" stroke="midnightblue" d="M874.09,-64.4C961.83,-57.2 1104.27,-43.4 1236.08,-19.95"/>
<polygon fill="midnightblue" stroke="midnightblue" points="1236.74,-23.39 1245.96,-18.17 1235.49,-16.5 1236.74,-23.39"/>
</g>
<!-- Node19 -->
<g id="node19" class="node">
<title>Node19</title>
<g id="a_node19"><a xlink:title=" ">
<polygon fill="none" stroke="#bfbfbf" points="1318,-0.5 1318,-19.5 1368,-19.5 1368,-0.5 1318,-0.5"/>
<text text-anchor="middle" x="1343" y="-7.5" font-family="Helvetica,sans-Serif" font-size="10.00">chrono</text>
</a>
</g>
</g>
<!-- Node1&#45;&gt;Node19 -->
<g id="edge18" class="edge">
<title>Node1&#45;&gt;Node19</title>
<path fill="none" stroke="midnightblue" d="M874.1,-66.54C974.79,-60.82 1149.58,-47.9 1307.93,-19.92"/>
<polygon fill="midnightblue" stroke="midnightblue" points="1308.62,-23.35 1317.85,-18.14 1307.39,-16.46 1308.62,-23.35"/>
</g>
<!-- Node20 -->
<g id="node20" class="node">
<title>Node20</title>
<g id="a_node20"><a xlink:title=" ">
<polygon fill="none" stroke="#bfbfbf" points="1386,-0.5 1386,-19.5 1444,-19.5 1444,-0.5 1386,-0.5"/>
<text text-anchor="middle" x="1415" y="-7.5" font-family="Helvetica,sans-Serif" font-size="10.00">memory</text>
</a>
</g>
</g>
<!-- Node1&#45;&gt;Node20 -->
<g id="edge19" class="edge">
<title>Node1&#45;&gt;Node20</title>
<path fill="none" stroke="midnightblue" d="M874.44,-67.16C986.46,-61.82 1191.72,-49.02 1375.5,-20.02"/>
<polygon fill="midnightblue" stroke="midnightblue" points="1376.3,-23.44 1385.63,-18.41 1375.2,-16.53 1376.3,-23.44"/>
</g>
<!-- Node21 -->
<g id="node21" class="node">
<title>Node21</title>
<g id="a_node21"><a xlink:title=" ">
<polygon fill="none" stroke="#bfbfbf" points="1462,-0.5 1462,-19.5 1506,-19.5 1506,-0.5 1462,-0.5"/>
<text text-anchor="middle" x="1484" y="-7.5" font-family="Helvetica,sans-Serif" font-size="10.00">ecrt.h</text>
</a>
</g>
</g>
<!-- Node1&#45;&gt;Node21 -->
<g id="edge20" class="edge">
<title>Node1&#45;&gt;Node21</title>
<path fill="none" stroke="midnightblue" d="M874,-69.65C998.12,-67.16 1239.32,-57.65 1451.69,-19.87"/>
<polygon fill="midnightblue" stroke="midnightblue" points="1452.56,-23.27 1461.78,-18.05 1451.32,-16.38 1452.56,-23.27"/>
</g>
<!-- Node22 -->
<g id="node22" class="node">
<title>Node22</title>
<g id="a_node22"><a xlink:href="object__dictionary_8hpp.html" target="_top" xlink:title=" ">
<polygon fill="none" stroke="black" points="1524,-0.5 1524,-19.5 1644,-19.5 1644,-0.5 1524,-0.5"/>
<text text-anchor="middle" x="1584" y="-7.5" font-family="Helvetica,sans-Serif" font-size="10.00">object_dictionary.hpp</text>
</a>
</g>
</g>
<!-- Node1&#45;&gt;Node22 -->
<g id="edge21" class="edge">
<title>Node1&#45;&gt;Node22</title>
<path fill="none" stroke="midnightblue" d="M874.2,-66.32C1007.08,-59.3 1275.63,-43.62 1513.58,-20.09"/>
<polygon fill="midnightblue" stroke="midnightblue" points="1514.21,-23.54 1523.81,-19.07 1513.52,-16.57 1514.21,-23.54"/>
</g>
</g>
</svg>
