<?xml version="1.0" encoding="UTF-8" standalone="no"?>
<!DOCTYPE svg PUBLIC "-//W3C//DTD SVG 1.1//EN"
 "http://www.w3.org/Graphics/SVG/1.1/DTD/svg11.dtd">
<!-- Generated by graphviz version 2.43.0 (0)
 -->
<!-- Title: src/ecat_pkg/include/ecat_pkg/ecat_lifecycle.hpp Pages: 1 -->
<svg width="2894pt" height="330pt"
 viewBox="0.00 0.00 2893.50 330.00" xmlns="http://www.w3.org/2000/svg" xmlns:xlink="http://www.w3.org/1999/xlink">
<g id="graph0" class="graph" transform="scale(1 1) rotate(0) translate(4 326)">
<title>src/ecat_pkg/include/ecat_pkg/ecat_lifecycle.hpp</title>
<!-- Node1 -->
<g id="node1" class="node">
<title>Node1</title>
<g id="a_node1"><a xlink:title=" ">
<polygon fill="#bfbfbf" stroke="black" points="2067,-291.5 2067,-321.5 2222,-321.5 2222,-291.5 2067,-291.5"/>
<text text-anchor="start" x="2075" y="-309.5" font-family="Helvetica,sans-Serif" font-size="10.00">src/ecat_pkg/include</text>
<text text-anchor="middle" x="2144.5" y="-298.5" font-family="Helvetica,sans-Serif" font-size="10.00">/ecat_pkg/ecat_lifecycle.hpp</text>
</a>
</g>
</g>
<!-- Node2 -->
<g id="node2" class="node">
<title>Node2</title>
<g id="a_node2"><a xlink:href="ecat__node_8hpp.html" target="_top" xlink:title=" ">
<polygon fill="none" stroke="black" points="1201.5,-230 1201.5,-249 1289.5,-249 1289.5,-230 1201.5,-230"/>
<text text-anchor="middle" x="1245.5" y="-237" font-family="Helvetica,sans-Serif" font-size="10.00">ecat_node.hpp</text>
</a>
</g>
</g>
<!-- Node1&#45;&gt;Node2 -->
<g id="edge1" class="edge">
<title>Node1&#45;&gt;Node2</title>
<path fill="none" stroke="midnightblue" d="M2066.68,-299.87C1888.22,-286.97 1453.08,-255.51 1299.92,-244.43"/>
<polygon fill="midnightblue" stroke="midnightblue" points="1300.04,-240.93 1289.82,-243.7 1299.54,-247.92 1300.04,-240.93"/>
</g>
<!-- Node29 -->
<g id="node29" class="node">
<title>Node29</title>
<g id="a_node29"><a xlink:href="ecat__pkg_2include_2ecat__pkg_2timing_8hpp.html" target="_top" xlink:title=" ">
<polygon fill="none" stroke="black" points="1726,-56.5 1726,-75.5 1795,-75.5 1795,-56.5 1726,-56.5"/>
<text text-anchor="middle" x="1760.5" y="-63.5" font-family="Helvetica,sans-Serif" font-size="10.00">timing.hpp</text>
</a>
</g>
</g>
<!-- Node1&#45;&gt;Node29 -->
<g id="edge29" class="edge">
<title>Node1&#45;&gt;Node29</title>
<path fill="none" stroke="midnightblue" d="M2066.92,-303.96C1924.11,-300.32 1631.29,-288.78 1600.5,-255 1542.38,-191.24 1674.59,-111.51 1733.74,-80.35"/>
<polygon fill="midnightblue" stroke="midnightblue" points="1735.63,-83.32 1742.9,-75.61 1732.41,-77.1 1735.63,-83.32"/>
</g>
<!-- Node37 -->
<g id="node37" class="node">
<title>Node37</title>
<g id="a_node37"><a xlink:title=" ">
<polygon fill="none" stroke="#bfbfbf" points="1609,-224.5 1609,-254.5 1746,-254.5 1746,-224.5 1609,-224.5"/>
<text text-anchor="start" x="1617" y="-242.5" font-family="Helvetica,sans-Serif" font-size="10.00">rclcpp_lifecycle/lifecycle</text>
<text text-anchor="middle" x="1677.5" y="-231.5" font-family="Helvetica,sans-Serif" font-size="10.00">_node.hpp</text>
</a>
</g>
</g>
<!-- Node1&#45;&gt;Node37 -->
<g id="edge40" class="edge">
<title>Node1&#45;&gt;Node37</title>
<path fill="none" stroke="midnightblue" d="M2066.83,-296.68C1990.4,-287.72 1870.18,-272.85 1756.31,-255.08"/>
<polygon fill="midnightblue" stroke="midnightblue" points="1756.79,-251.61 1746.37,-253.51 1755.7,-258.52 1756.79,-251.61"/>
</g>
<!-- Node38 -->
<g id="node38" class="node">
<title>Node38</title>
<g id="a_node38"><a xlink:title=" ">
<polygon fill="none" stroke="#bfbfbf" points="1764,-224.5 1764,-254.5 1901,-254.5 1901,-224.5 1764,-224.5"/>
<text text-anchor="start" x="1772" y="-242.5" font-family="Helvetica,sans-Serif" font-size="10.00">rclcpp_lifecycle/lifecycle</text>
<text text-anchor="middle" x="1832.5" y="-231.5" font-family="Helvetica,sans-Serif" font-size="10.00">_publisher.hpp</text>
</a>
</g>
</g>
<!-- Node1&#45;&gt;Node38 -->
<g id="edge41" class="edge">
<title>Node1&#45;&gt;Node38</title>
<path fill="none" stroke="midnightblue" d="M2077.18,-291.48C2028.06,-281.24 1961.37,-267.35 1910.02,-256.65"/>
<polygon fill="midnightblue" stroke="midnightblue" points="1910.47,-253.17 1899.96,-254.55 1909.04,-260.02 1910.47,-253.17"/>
</g>
<!-- Node39 -->
<g id="node39" class="node">
<title>Node39</title>
<g id="a_node39"><a xlink:title=" ">
<polygon fill="none" stroke="#bfbfbf" points="1919.5,-224.5 1919.5,-254.5 2067.5,-254.5 2067.5,-224.5 1919.5,-224.5"/>
<text text-anchor="start" x="1927.5" y="-242.5" font-family="Helvetica,sans-Serif" font-size="10.00">ecat_msgs/msg/gui_button</text>
<text text-anchor="middle" x="1993.5" y="-231.5" font-family="Helvetica,sans-Serif" font-size="10.00">_data.hpp</text>
</a>
</g>
</g>
<!-- Node1&#45;&gt;Node39 -->
<g id="edge42" class="edge">
<title>Node1&#45;&gt;Node39</title>
<path fill="none" stroke="midnightblue" d="M2111.74,-291.4C2089.38,-281.77 2059.56,-268.94 2035.46,-258.56"/>
<polygon fill="midnightblue" stroke="midnightblue" points="2036.77,-255.32 2026.2,-254.58 2034,-261.75 2036.77,-255.32"/>
</g>
<!-- Node40 -->
<g id="node40" class="node">
<title>Node40</title>
<g id="a_node40"><a xlink:title=" ">
<polygon fill="none" stroke="#bfbfbf" points="2085.5,-224.5 2085.5,-254.5 2203.5,-254.5 2203.5,-224.5 2085.5,-224.5"/>
<text text-anchor="start" x="2093.5" y="-242.5" font-family="Helvetica,sans-Serif" font-size="10.00">ecat_msgs/msg/data</text>
<text text-anchor="middle" x="2144.5" y="-231.5" font-family="Helvetica,sans-Serif" font-size="10.00">_received.hpp</text>
</a>
</g>
</g>
<!-- Node1&#45;&gt;Node40 -->
<g id="edge43" class="edge">
<title>Node1&#45;&gt;Node40</title>
<path fill="none" stroke="midnightblue" d="M2144.5,-291.4C2144.5,-283.64 2144.5,-273.81 2144.5,-264.86"/>
<polygon fill="midnightblue" stroke="midnightblue" points="2148,-264.58 2144.5,-254.58 2141,-264.58 2148,-264.58"/>
</g>
<!-- Node41 -->
<g id="node41" class="node">
<title>Node41</title>
<g id="a_node41"><a xlink:title=" ">
<polygon fill="none" stroke="#bfbfbf" points="2221.5,-224.5 2221.5,-254.5 2339.5,-254.5 2339.5,-224.5 2221.5,-224.5"/>
<text text-anchor="start" x="2229.5" y="-242.5" font-family="Helvetica,sans-Serif" font-size="10.00">ecat_msgs/msg/data</text>
<text text-anchor="middle" x="2280.5" y="-231.5" font-family="Helvetica,sans-Serif" font-size="10.00">_sent.hpp</text>
</a>
</g>
</g>
<!-- Node1&#45;&gt;Node41 -->
<g id="edge44" class="edge">
<title>Node1&#45;&gt;Node41</title>
<path fill="none" stroke="midnightblue" d="M2174.01,-291.4C2193.88,-281.9 2220.29,-269.28 2241.84,-258.98"/>
<polygon fill="midnightblue" stroke="midnightblue" points="2243.53,-262.05 2251.05,-254.58 2240.52,-255.73 2243.53,-262.05"/>
</g>
<!-- Node42 -->
<g id="node42" class="node">
<title>Node42</title>
<g id="a_node42"><a xlink:title=" ">
<polygon fill="none" stroke="#bfbfbf" points="2358,-224.5 2358,-254.5 2513,-254.5 2513,-224.5 2358,-224.5"/>
<text text-anchor="start" x="2366" y="-242.5" font-family="Helvetica,sans-Serif" font-size="10.00">rclcpp/strategies/message</text>
<text text-anchor="middle" x="2435.5" y="-231.5" font-family="Helvetica,sans-Serif" font-size="10.00">_pool_memory_strategy.hpp</text>
</a>
</g>
</g>
<!-- Node1&#45;&gt;Node42 -->
<g id="edge45" class="edge">
<title>Node1&#45;&gt;Node42</title>
<path fill="none" stroke="midnightblue" d="M2207.28,-291.48C2252.91,-281.28 2314.79,-267.46 2362.6,-256.78"/>
<polygon fill="midnightblue" stroke="midnightblue" points="2363.58,-260.15 2372.58,-254.55 2362.05,-253.32 2363.58,-260.15"/>
</g>
<!-- Node43 -->
<g id="node43" class="node">
<title>Node43</title>
<g id="a_node43"><a xlink:title=" ">
<polygon fill="none" stroke="#bfbfbf" points="2531,-224.5 2531,-254.5 2674,-254.5 2674,-224.5 2531,-224.5"/>
<text text-anchor="start" x="2539" y="-242.5" font-family="Helvetica,sans-Serif" font-size="10.00">rclcpp/strategies/allocator</text>
<text text-anchor="middle" x="2602.5" y="-231.5" font-family="Helvetica,sans-Serif" font-size="10.00">_memory_strategy.hpp</text>
</a>
</g>
</g>
<!-- Node1&#45;&gt;Node43 -->
<g id="edge46" class="edge">
<title>Node1&#45;&gt;Node43</title>
<path fill="none" stroke="midnightblue" d="M2222.11,-296.2C2296.32,-287.07 2411.6,-272.24 2520.79,-255.23"/>
<polygon fill="midnightblue" stroke="midnightblue" points="2521.66,-258.64 2531,-253.63 2520.58,-251.72 2521.66,-258.64"/>
</g>
<!-- Node44 -->
<g id="node44" class="node">
<title>Node44</title>
<g id="a_node44"><a xlink:title=" ">
<polygon fill="none" stroke="#bfbfbf" points="2692,-230 2692,-249 2773,-249 2773,-230 2692,-230"/>
<text text-anchor="middle" x="2732.5" y="-237" font-family="Helvetica,sans-Serif" font-size="10.00">rttest/rttest.h</text>
</a>
</g>
</g>
<!-- Node1&#45;&gt;Node44 -->
<g id="edge47" class="edge">
<title>Node1&#45;&gt;Node44</title>
<path fill="none" stroke="midnightblue" d="M2222.38,-302.95C2327.78,-298.42 2521.31,-286.29 2683.5,-255 2687.98,-254.14 2692.64,-253.03 2697.23,-251.82"/>
<polygon fill="midnightblue" stroke="midnightblue" points="2698.37,-255.14 2707.05,-249.05 2696.47,-248.4 2698.37,-255.14"/>
</g>
<!-- Node45 -->
<g id="node45" class="node">
<title>Node45</title>
<g id="a_node45"><a xlink:title=" ">
<polygon fill="none" stroke="#bfbfbf" points="2791.5,-230 2791.5,-249 2885.5,-249 2885.5,-230 2791.5,-230"/>
<text text-anchor="middle" x="2838.5" y="-237" font-family="Helvetica,sans-Serif" font-size="10.00">tlsf_cpp/tlsf.hpp</text>
</a>
</g>
</g>
<!-- Node1&#45;&gt;Node45 -->
<g id="edge48" class="edge">
<title>Node1&#45;&gt;Node45</title>
<path fill="none" stroke="midnightblue" d="M2222.12,-303.71C2342.77,-299.96 2582.24,-288.59 2782.5,-255 2788.01,-254.08 2793.77,-252.87 2799.41,-251.55"/>
<polygon fill="midnightblue" stroke="midnightblue" points="2800.49,-254.88 2809.35,-249.07 2798.8,-248.09 2800.49,-254.88"/>
</g>
<!-- Node3 -->
<g id="node3" class="node">
<title>Node3</title>
<g id="a_node3"><a xlink:href="ecat__globals_8hpp.html" target="_top" xlink:title=" ">
<polygon fill="none" stroke="black" points="1123,-112.5 1123,-131.5 1222,-131.5 1222,-112.5 1123,-112.5"/>
<text text-anchor="middle" x="1172.5" y="-119.5" font-family="Helvetica,sans-Serif" font-size="10.00">ecat_globals.hpp</text>
</a>
</g>
</g>
<!-- Node2&#45;&gt;Node3 -->
<g id="edge2" class="edge">
<title>Node2&#45;&gt;Node3</title>
<path fill="none" stroke="midnightblue" d="M1244.82,-229.57C1243.39,-215.47 1239.08,-187.64 1226.5,-168 1218.61,-155.67 1206.26,-145.02 1195.36,-137.18"/>
<polygon fill="midnightblue" stroke="midnightblue" points="1197.28,-134.25 1187.04,-131.51 1193.34,-140.04 1197.28,-134.25"/>
</g>
<!-- Node26 -->
<g id="node26" class="node">
<title>Node26</title>
<g id="a_node26"><a xlink:href="ecat__slave_8hpp.html" target="_top" xlink:title=" ">
<polygon fill="none" stroke="black" points="1127.5,-168.5 1127.5,-187.5 1217.5,-187.5 1217.5,-168.5 1127.5,-168.5"/>
<text text-anchor="middle" x="1172.5" y="-175.5" font-family="Helvetica,sans-Serif" font-size="10.00">ecat_slave.hpp</text>
</a>
</g>
</g>
<!-- Node2&#45;&gt;Node26 -->
<g id="edge25" class="edge">
<title>Node2&#45;&gt;Node26</title>
<path fill="none" stroke="midnightblue" d="M1235.04,-229.98C1223.55,-220.61 1204.87,-205.38 1190.91,-194.01"/>
<polygon fill="midnightblue" stroke="midnightblue" points="1192.9,-191.11 1182.94,-187.51 1188.48,-196.54 1192.9,-191.11"/>
</g>
<!-- Node27 -->
<g id="node27" class="node">
<title>Node27</title>
<g id="a_node27"><a xlink:title=" ">
<polygon fill="none" stroke="#bfbfbf" points="1274,-168.5 1274,-187.5 1373,-187.5 1373,-168.5 1274,-168.5"/>
<text text-anchor="middle" x="1323.5" y="-175.5" font-family="Helvetica,sans-Serif" font-size="10.00">rclcpp/rclcpp.hpp</text>
</a>
</g>
</g>
<!-- Node2&#45;&gt;Node27 -->
<g id="edge27" class="edge">
<title>Node2&#45;&gt;Node27</title>
<path fill="none" stroke="midnightblue" d="M1256.68,-229.98C1269.07,-220.52 1289.29,-205.1 1304.25,-193.69"/>
<polygon fill="midnightblue" stroke="midnightblue" points="1306.52,-196.36 1312.35,-187.51 1302.27,-190.79 1306.52,-196.36"/>
</g>
<!-- Node28 -->
<g id="node28" class="node">
<title>Node28</title>
<g id="a_node28"><a xlink:title=" ">
<polygon fill="none" stroke="#bfbfbf" points="967.5,-168.5 967.5,-187.5 1109.5,-187.5 1109.5,-168.5 967.5,-168.5"/>
<text text-anchor="middle" x="1038.5" y="-175.5" font-family="Helvetica,sans-Serif" font-size="10.00">sensor_msgs/msg/joy.hpp</text>
</a>
</g>
</g>
<!-- Node2&#45;&gt;Node28 -->
<g id="edge28" class="edge">
<title>Node2&#45;&gt;Node28</title>
<path fill="none" stroke="midnightblue" d="M1215.84,-229.98C1179.57,-219.55 1118.04,-201.86 1077.84,-190.31"/>
<polygon fill="midnightblue" stroke="midnightblue" points="1078.68,-186.91 1068.1,-187.51 1076.75,-193.64 1078.68,-186.91"/>
</g>
<!-- Node4 -->
<g id="node4" class="node">
<title>Node4</title>
<g id="a_node4"><a xlink:href="ecat__definitions_8hpp.html" target="_top" xlink:title="Writes desired operational mode, to slave in specified index via SDO.">
<polygon fill="none" stroke="black" points="796.5,-56.5 796.5,-75.5 912.5,-75.5 912.5,-56.5 796.5,-56.5"/>
<text text-anchor="middle" x="854.5" y="-63.5" font-family="Helvetica,sans-Serif" font-size="10.00">ecat_definitions.hpp</text>
</a>
</g>
</g>
<!-- Node3&#45;&gt;Node4 -->
<g id="edge3" class="edge">
<title>Node3&#45;&gt;Node4</title>
<path fill="none" stroke="midnightblue" d="M1122.81,-112.56C1066.59,-103.01 975.01,-87.46 914.76,-77.23"/>
<polygon fill="midnightblue" stroke="midnightblue" points="915.07,-73.74 904.62,-75.51 913.9,-80.64 915.07,-73.74"/>
</g>
<!-- Node5 -->
<g id="node5" class="node">
<title>Node5</title>
<g id="a_node5"><a xlink:title=" ">
<polygon fill="none" stroke="#bfbfbf" points="1516.5,-0.5 1516.5,-19.5 1576.5,-19.5 1576.5,-0.5 1516.5,-0.5"/>
<text text-anchor="middle" x="1546.5" y="-7.5" font-family="Helvetica,sans-Serif" font-size="10.00">iostream</text>
</a>
</g>
</g>
<!-- Node4&#45;&gt;Node5 -->
<g id="edge4" class="edge">
<title>Node4&#45;&gt;Node5</title>
<path fill="none" stroke="midnightblue" d="M912.93,-64.06C1025.87,-61.58 1282.08,-52.69 1506.37,-19.93"/>
<polygon fill="midnightblue" stroke="midnightblue" points="1506.98,-23.38 1516.36,-18.45 1505.95,-16.45 1506.98,-23.38"/>
</g>
<!-- Node6 -->
<g id="node6" class="node">
<title>Node6</title>
<g id="a_node6"><a xlink:title=" ">
<polygon fill="none" stroke="#bfbfbf" points="1300.5,-0.5 1300.5,-19.5 1350.5,-19.5 1350.5,-0.5 1300.5,-0.5"/>
<text text-anchor="middle" x="1325.5" y="-7.5" font-family="Helvetica,sans-Serif" font-size="10.00">cstring</text>
</a>
</g>
</g>
<!-- Node4&#45;&gt;Node6 -->
<g id="edge5" class="edge">
<title>Node4&#45;&gt;Node6</title>
<path fill="none" stroke="midnightblue" d="M912.52,-61.92C994.64,-56.91 1149.54,-45.14 1290.24,-19.96"/>
<polygon fill="midnightblue" stroke="midnightblue" points="1291.13,-23.36 1300.35,-18.13 1289.88,-16.47 1291.13,-23.36"/>
</g>
<!-- Node7 -->
<g id="node7" class="node">
<title>Node7</title>
<g id="a_node7"><a xlink:title=" ">
<polygon fill="none" stroke="#bfbfbf" points="1369,-0.5 1369,-19.5 1422,-19.5 1422,-0.5 1369,-0.5"/>
<text text-anchor="middle" x="1395.5" y="-7.5" font-family="Helvetica,sans-Serif" font-size="10.00">limits.h</text>
</a>
</g>
</g>
<!-- Node4&#45;&gt;Node7 -->
<g id="edge6" class="edge">
<title>Node4&#45;&gt;Node7</title>
<path fill="none" stroke="midnightblue" d="M912.82,-62.76C1005.38,-58.56 1191.68,-47.46 1358.89,-19.82"/>
<polygon fill="midnightblue" stroke="midnightblue" points="1359.58,-23.26 1368.86,-18.15 1358.42,-16.35 1359.58,-23.26"/>
</g>
<!-- Node8 -->
<g id="node8" class="node">
<title>Node8</title>
<g id="a_node8"><a xlink:title=" ">
<polygon fill="none" stroke="#bfbfbf" points="0,-0.5 0,-19.5 53,-19.5 53,-0.5 0,-0.5"/>
<text text-anchor="middle" x="26.5" y="-7.5" font-family="Helvetica,sans-Serif" font-size="10.00">stdlib.h</text>
</a>
</g>
</g>
<!-- Node4&#45;&gt;Node8 -->
<g id="edge7" class="edge">
<title>Node4&#45;&gt;Node8</title>
<path fill="none" stroke="midnightblue" d="M796.38,-65.56C666.28,-65.99 341.74,-62.44 63.04,-19.95"/>
<polygon fill="midnightblue" stroke="midnightblue" points="63.56,-16.49 53.14,-18.42 62.49,-23.41 63.56,-16.49"/>
</g>
<!-- Node9 -->
<g id="node9" class="node">
<title>Node9</title>
<g id="a_node9"><a xlink:title=" ">
<polygon fill="none" stroke="#bfbfbf" points="71,-0.5 71,-19.5 134,-19.5 134,-0.5 71,-0.5"/>
<text text-anchor="middle" x="102.5" y="-7.5" font-family="Helvetica,sans-Serif" font-size="10.00">pthread.h</text>
</a>
</g>
</g>
<!-- Node4&#45;&gt;Node9 -->
<g id="edge8" class="edge">
<title>Node4&#45;&gt;Node9</title>
<path fill="none" stroke="midnightblue" d="M796.04,-64.43C675.65,-62.57 391.34,-54.72 144.53,-20.09"/>
<polygon fill="midnightblue" stroke="midnightblue" points="144.69,-16.57 134.29,-18.63 143.7,-23.5 144.69,-16.57"/>
</g>
<!-- Node10 -->
<g id="node10" class="node">
<title>Node10</title>
<g id="a_node10"><a xlink:title=" ">
<polygon fill="none" stroke="#bfbfbf" points="152,-0.5 152,-19.5 203,-19.5 203,-0.5 152,-0.5"/>
<text text-anchor="middle" x="177.5" y="-7.5" font-family="Helvetica,sans-Serif" font-size="10.00">errno.h</text>
</a>
</g>
</g>
<!-- Node4&#45;&gt;Node10 -->
<g id="edge9" class="edge">
<title>Node4&#45;&gt;Node10</title>
<path fill="none" stroke="midnightblue" d="M796.43,-64.6C684.88,-63.03 432.9,-55.65 213.12,-19.97"/>
<polygon fill="midnightblue" stroke="midnightblue" points="213.44,-16.48 203.01,-18.31 212.31,-23.38 213.44,-16.48"/>
</g>
<!-- Node11 -->
<g id="node11" class="node">
<title>Node11</title>
<g id="a_node11"><a xlink:title=" ">
<polygon fill="none" stroke="#bfbfbf" points="221,-0.5 221,-19.5 276,-19.5 276,-0.5 221,-0.5"/>
<text text-anchor="middle" x="248.5" y="-7.5" font-family="Helvetica,sans-Serif" font-size="10.00">signal.h</text>
</a>
</g>
</g>
<!-- Node4&#45;&gt;Node11 -->
<g id="edge10" class="edge">
<title>Node4&#45;&gt;Node11</title>
<path fill="none" stroke="midnightblue" d="M796.39,-63.46C694.79,-60.11 478.24,-50 286.27,-19.85"/>
<polygon fill="midnightblue" stroke="midnightblue" points="286.71,-16.38 276.28,-18.26 285.61,-23.29 286.71,-16.38"/>
</g>
<!-- Node12 -->
<g id="node12" class="node">
<title>Node12</title>
<g id="a_node12"><a xlink:title=" ">
<polygon fill="none" stroke="#bfbfbf" points="294.5,-0.5 294.5,-19.5 344.5,-19.5 344.5,-0.5 294.5,-0.5"/>
<text text-anchor="middle" x="319.5" y="-7.5" font-family="Helvetica,sans-Serif" font-size="10.00">stdio.h</text>
</a>
</g>
</g>
<!-- Node4&#45;&gt;Node12 -->
<g id="edge11" class="edge">
<title>Node4&#45;&gt;Node12</title>
<path fill="none" stroke="midnightblue" d="M796.22,-62.96C704.29,-59.05 519.94,-48.37 354.98,-19.97"/>
<polygon fill="midnightblue" stroke="midnightblue" points="355.1,-16.44 344.65,-18.16 353.89,-23.33 355.1,-16.44"/>
</g>
<!-- Node13 -->
<g id="node13" class="node">
<title>Node13</title>
<g id="a_node13"><a xlink:title=" ">
<polygon fill="none" stroke="#bfbfbf" points="363,-0.5 363,-19.5 416,-19.5 416,-0.5 363,-0.5"/>
<text text-anchor="middle" x="389.5" y="-7.5" font-family="Helvetica,sans-Serif" font-size="10.00">string.h</text>
</a>
</g>
</g>
<!-- Node4&#45;&gt;Node13 -->
<g id="edge12" class="edge">
<title>Node4&#45;&gt;Node13</title>
<path fill="none" stroke="midnightblue" d="M796.39,-61.65C715.34,-56.37 563.69,-44.3 426.05,-20.06"/>
<polygon fill="midnightblue" stroke="midnightblue" points="426.62,-16.6 416.16,-18.29 425.39,-23.49 426.62,-16.6"/>
</g>
<!-- Node14 -->
<g id="node14" class="node">
<title>Node14</title>
<g id="a_node14"><a xlink:title=" ">
<polygon fill="none" stroke="#bfbfbf" points="434,-0.5 434,-19.5 521,-19.5 521,-0.5 434,-0.5"/>
<text text-anchor="middle" x="477.5" y="-7.5" font-family="Helvetica,sans-Serif" font-size="10.00">sys/resource.h</text>
</a>
</g>
</g>
<!-- Node4&#45;&gt;Node14 -->
<g id="edge13" class="edge">
<title>Node4&#45;&gt;Node14</title>
<path fill="none" stroke="midnightblue" d="M796.48,-57.48C733.68,-49.22 630.32,-35.27 531.06,-20.05"/>
<polygon fill="midnightblue" stroke="midnightblue" points="531.57,-16.58 521.16,-18.52 530.51,-23.5 531.57,-16.58"/>
</g>
<!-- Node15 -->
<g id="node15" class="node">
<title>Node15</title>
<g id="a_node15"><a xlink:title=" ">
<polygon fill="none" stroke="#bfbfbf" points="539.5,-0.5 539.5,-19.5 607.5,-19.5 607.5,-0.5 539.5,-0.5"/>
<text text-anchor="middle" x="573.5" y="-7.5" font-family="Helvetica,sans-Serif" font-size="10.00">sys/time.h</text>
</a>
</g>
</g>
<!-- Node4&#45;&gt;Node15 -->
<g id="edge14" class="edge">
<title>Node4&#45;&gt;Node15</title>
<path fill="none" stroke="midnightblue" d="M807.93,-56.47C762.07,-48.01 689.76,-34.51 617.89,-20.25"/>
<polygon fill="midnightblue" stroke="midnightblue" points="618.25,-16.75 607.76,-18.23 616.88,-23.62 618.25,-16.75"/>
</g>
<!-- Node16 -->
<g id="node16" class="node">
<title>Node16</title>
<g id="a_node16"><a xlink:title=" ">
<polygon fill="none" stroke="#bfbfbf" points="625.5,-0.5 625.5,-19.5 697.5,-19.5 697.5,-0.5 625.5,-0.5"/>
<text text-anchor="middle" x="661.5" y="-7.5" font-family="Helvetica,sans-Serif" font-size="10.00">sys/types.h</text>
</a>
</g>
</g>
<!-- Node4&#45;&gt;Node16 -->
<g id="edge15" class="edge">
<title>Node4&#45;&gt;Node16</title>
<path fill="none" stroke="midnightblue" d="M823.92,-56.44C790.89,-47.2 738.11,-32.44 701.73,-22.26"/>
<polygon fill="midnightblue" stroke="midnightblue" points="702.51,-18.84 691.94,-19.52 700.63,-25.58 702.51,-18.84"/>
</g>
<!-- Node17 -->
<g id="node17" class="node">
<title>Node17</title>
<g id="a_node17"><a xlink:title=" ">
<polygon fill="none" stroke="#bfbfbf" points="715.5,-0.5 715.5,-19.5 771.5,-19.5 771.5,-0.5 715.5,-0.5"/>
<text text-anchor="middle" x="743.5" y="-7.5" font-family="Helvetica,sans-Serif" font-size="10.00">unistd.h</text>
</a>
</g>
</g>
<!-- Node4&#45;&gt;Node17 -->
<g id="edge16" class="edge">
<title>Node4&#45;&gt;Node17</title>
<path fill="none" stroke="midnightblue" d="M836.67,-56.32C818.78,-47.62 791.02,-34.12 770.45,-24.11"/>
<polygon fill="midnightblue" stroke="midnightblue" points="771.81,-20.88 761.29,-19.65 768.75,-27.18 771.81,-20.88"/>
</g>
<!-- Node18 -->
<g id="node18" class="node">
<title>Node18</title>
<g id="a_node18"><a xlink:title=" ">
<polygon fill="none" stroke="#bfbfbf" points="789.5,-0.5 789.5,-19.5 837.5,-19.5 837.5,-0.5 789.5,-0.5"/>
<text text-anchor="middle" x="813.5" y="-7.5" font-family="Helvetica,sans-Serif" font-size="10.00">time.h</text>
</a>
</g>
</g>
<!-- Node4&#45;&gt;Node18 -->
<g id="edge17" class="edge">
<title>Node4&#45;&gt;Node18</title>
<path fill="none" stroke="midnightblue" d="M847.73,-56.08C841.94,-48.46 833.44,-37.26 826.36,-27.94"/>
<polygon fill="midnightblue" stroke="midnightblue" points="828.98,-25.6 820.14,-19.75 823.4,-29.83 828.98,-25.6"/>
</g>
<!-- Node19 -->
<g id="node19" class="node">
<title>Node19</title>
<g id="a_node19"><a xlink:title=" ">
<polygon fill="none" stroke="#bfbfbf" points="856,-0.5 856,-19.5 933,-19.5 933,-0.5 856,-0.5"/>
<text text-anchor="middle" x="894.5" y="-7.5" font-family="Helvetica,sans-Serif" font-size="10.00">sys/mman.h</text>
</a>
</g>
</g>
<!-- Node4&#45;&gt;Node19 -->
<g id="edge18" class="edge">
<title>Node4&#45;&gt;Node19</title>
<path fill="none" stroke="midnightblue" d="M861.11,-56.08C866.76,-48.46 875.04,-37.26 881.95,-27.94"/>
<polygon fill="midnightblue" stroke="midnightblue" points="884.88,-29.87 888.02,-19.75 879.25,-25.7 884.88,-29.87"/>
</g>
<!-- Node20 -->
<g id="node20" class="node">
<title>Node20</title>
<g id="a_node20"><a xlink:title=" ">
<polygon fill="none" stroke="#bfbfbf" points="951,-0.5 951,-19.5 1010,-19.5 1010,-0.5 951,-0.5"/>
<text text-anchor="middle" x="980.5" y="-7.5" font-family="Helvetica,sans-Serif" font-size="10.00">malloc.h</text>
</a>
</g>
</g>
<!-- Node4&#45;&gt;Node20 -->
<g id="edge19" class="edge">
<title>Node4&#45;&gt;Node20</title>
<path fill="none" stroke="midnightblue" d="M874.47,-56.44C895.11,-47.6 927.56,-33.69 951.13,-23.59"/>
<polygon fill="midnightblue" stroke="midnightblue" points="952.82,-26.67 960.63,-19.52 950.06,-20.24 952.82,-26.67"/>
</g>
<!-- Node21 -->
<g id="node21" class="node">
<title>Node21</title>
<g id="a_node21"><a xlink:title=" ">
<polygon fill="none" stroke="#bfbfbf" points="1028.5,-0.5 1028.5,-19.5 1082.5,-19.5 1082.5,-0.5 1028.5,-0.5"/>
<text text-anchor="middle" x="1055.5" y="-7.5" font-family="Helvetica,sans-Serif" font-size="10.00">sched.h</text>
</a>
</g>
</g>
<!-- Node4&#45;&gt;Node21 -->
<g id="edge20" class="edge">
<title>Node4&#45;&gt;Node21</title>
<path fill="none" stroke="midnightblue" d="M886.35,-56.44C922.17,-46.82 980.27,-31.21 1018.19,-21.02"/>
<polygon fill="midnightblue" stroke="midnightblue" points="1019.56,-24.28 1028.31,-18.3 1017.75,-17.52 1019.56,-24.28"/>
</g>
<!-- Node22 -->
<g id="node22" class="node">
<title>Node22</title>
<g id="a_node22"><a xlink:title=" ">
<polygon fill="none" stroke="#bfbfbf" points="1594.5,-0.5 1594.5,-19.5 1644.5,-19.5 1644.5,-0.5 1594.5,-0.5"/>
<text text-anchor="middle" x="1619.5" y="-7.5" font-family="Helvetica,sans-Serif" font-size="10.00">chrono</text>
</a>
</g>
</g>
<!-- Node4&#45;&gt;Node22 -->
<g id="edge21" class="edge">
<title>Node4&#45;&gt;Node22</title>
<path fill="none" stroke="midnightblue" d="M912.73,-65.3C1035.48,-65.09 1329.7,-60.17 1584.19,-19.88"/>
<polygon fill="midnightblue" stroke="midnightblue" points="1585.05,-23.28 1594.37,-18.24 1583.94,-16.37 1585.05,-23.28"/>
</g>
<!-- Node23 -->
<g id="node23" class="node">
<title>Node23</title>
<g id="a_node23"><a xlink:title=" ">
<polygon fill="none" stroke="#bfbfbf" points="1440.5,-0.5 1440.5,-19.5 1498.5,-19.5 1498.5,-0.5 1440.5,-0.5"/>
<text text-anchor="middle" x="1469.5" y="-7.5" font-family="Helvetica,sans-Serif" font-size="10.00">memory</text>
</a>
</g>
</g>
<!-- Node4&#45;&gt;Node23 -->
<g id="edge22" class="edge">
<title>Node4&#45;&gt;Node23</title>
<path fill="none" stroke="midnightblue" d="M912.58,-63.44C1015.22,-60.04 1235.44,-49.83 1430.01,-20"/>
<polygon fill="midnightblue" stroke="midnightblue" points="1430.79,-23.42 1440.13,-18.43 1429.71,-16.51 1430.79,-23.42"/>
</g>
<!-- Node24 -->
<g id="node24" class="node">
<title>Node24</title>
<g id="a_node24"><a xlink:title=" ">
<polygon fill="none" stroke="#bfbfbf" points="1100.5,-0.5 1100.5,-19.5 1144.5,-19.5 1144.5,-0.5 1100.5,-0.5"/>
<text text-anchor="middle" x="1122.5" y="-7.5" font-family="Helvetica,sans-Serif" font-size="10.00">ecrt.h</text>
</a>
</g>
</g>
<!-- Node4&#45;&gt;Node24 -->
<g id="edge23" class="edge">
<title>Node4&#45;&gt;Node24</title>
<path fill="none" stroke="midnightblue" d="M907.05,-56.5C953.02,-48.72 1021.76,-36.31 1090.13,-20.15"/>
<polygon fill="midnightblue" stroke="midnightblue" points="1091.3,-23.47 1100.22,-17.74 1089.68,-16.66 1091.3,-23.47"/>
</g>
<!-- Node25 -->
<g id="node25" class="node">
<title>Node25</title>
<g id="a_node25"><a xlink:href="object__dictionary_8hpp.html" target="_top" xlink:title=" ">
<polygon fill="none" stroke="black" points="1162.5,-0.5 1162.5,-19.5 1282.5,-19.5 1282.5,-0.5 1162.5,-0.5"/>
<text text-anchor="middle" x="1222.5" y="-7.5" font-family="Helvetica,sans-Serif" font-size="10.00">object_dictionary.hpp</text>
</a>
</g>
</g>
<!-- Node4&#45;&gt;Node25 -->
<g id="edge24" class="edge">
<title>Node4&#45;&gt;Node25</title>
<path fill="none" stroke="midnightblue" d="M912.81,-56.44C978.49,-46.81 1085.09,-31.16 1154.5,-20.98"/>
<polygon fill="midnightblue" stroke="midnightblue" points="1155.08,-24.43 1164.46,-19.52 1154.06,-17.51 1155.08,-24.43"/>
</g>
<!-- Node26&#45;&gt;Node3 -->
<g id="edge26" class="edge">
<title>Node26&#45;&gt;Node3</title>
<path fill="none" stroke="midnightblue" d="M1172.5,-168.08C1172.5,-161.01 1172.5,-150.86 1172.5,-141.99"/>
<polygon fill="midnightblue" stroke="midnightblue" points="1176,-141.75 1172.5,-131.75 1169,-141.75 1176,-141.75"/>
</g>
<!-- Node29&#45;&gt;Node5 -->
<g id="edge39" class="edge">
<title>Node29&#45;&gt;Node5</title>
<path fill="none" stroke="midnightblue" d="M1726.59,-56.44C1688.56,-46.85 1626.94,-31.3 1586.57,-21.11"/>
<polygon fill="midnightblue" stroke="midnightblue" points="1587.34,-17.7 1576.79,-18.64 1585.63,-24.48 1587.34,-17.7"/>
</g>
<!-- Node29&#45;&gt;Node22 -->
<g id="edge31" class="edge">
<title>Node29&#45;&gt;Node22</title>
<path fill="none" stroke="midnightblue" d="M1738.16,-56.44C1714.75,-47.48 1677.76,-33.31 1651.31,-23.18"/>
<polygon fill="midnightblue" stroke="midnightblue" points="1652.33,-19.82 1641.74,-19.52 1649.82,-26.36 1652.33,-19.82"/>
</g>
<!-- Node29&#45;&gt;Node23 -->
<g id="edge32" class="edge">
<title>Node29&#45;&gt;Node23</title>
<path fill="none" stroke="midnightblue" d="M1725.6,-59.43C1678.55,-51.79 1591.96,-37.23 1508.42,-20.1"/>
<polygon fill="midnightblue" stroke="midnightblue" points="1509.01,-16.64 1498.51,-18.05 1507.59,-23.5 1509.01,-16.64"/>
</g>
<!-- Node30 -->
<g id="node30" class="node">
<title>Node30</title>
<g id="a_node30"><a xlink:title=" ">
<polygon fill="none" stroke="#bfbfbf" points="1663,-0.5 1663,-19.5 1710,-19.5 1710,-0.5 1663,-0.5"/>
<text text-anchor="middle" x="1686.5" y="-7.5" font-family="Helvetica,sans-Serif" font-size="10.00">vector</text>
</a>
</g>
</g>
<!-- Node29&#45;&gt;Node30 -->
<g id="edge30" class="edge">
<title>Node29&#45;&gt;Node30</title>
<path fill="none" stroke="midnightblue" d="M1748.61,-56.32C1737.35,-48.11 1720.21,-35.6 1706.79,-25.81"/>
<polygon fill="midnightblue" stroke="midnightblue" points="1708.75,-22.9 1698.61,-19.83 1704.62,-28.56 1708.75,-22.9"/>
</g>
<!-- Node31 -->
<g id="node31" class="node">
<title>Node31</title>
<g id="a_node31"><a xlink:title=" ">
<polygon fill="none" stroke="#bfbfbf" points="1728,-0.5 1728,-19.5 1793,-19.5 1793,-0.5 1728,-0.5"/>
<text text-anchor="middle" x="1760.5" y="-7.5" font-family="Helvetica,sans-Serif" font-size="10.00">functional</text>
</a>
</g>
</g>
<!-- Node29&#45;&gt;Node31 -->
<g id="edge33" class="edge">
<title>Node29&#45;&gt;Node31</title>
<path fill="none" stroke="midnightblue" d="M1760.5,-56.08C1760.5,-49.01 1760.5,-38.86 1760.5,-29.99"/>
<polygon fill="midnightblue" stroke="midnightblue" points="1764,-29.75 1760.5,-19.75 1757,-29.75 1764,-29.75"/>
</g>
<!-- Node32 -->
<g id="node32" class="node">
<title>Node32</title>
<g id="a_node32"><a xlink:title=" ">
<polygon fill="none" stroke="#bfbfbf" points="1811.5,-0.5 1811.5,-19.5 1855.5,-19.5 1855.5,-0.5 1811.5,-0.5"/>
<text text-anchor="middle" x="1833.5" y="-7.5" font-family="Helvetica,sans-Serif" font-size="10.00">string</text>
</a>
</g>
</g>
<!-- Node29&#45;&gt;Node32 -->
<g id="edge34" class="edge">
<title>Node29&#45;&gt;Node32</title>
<path fill="none" stroke="midnightblue" d="M1772.23,-56.32C1783.34,-48.11 1800.24,-35.6 1813.48,-25.81"/>
<polygon fill="midnightblue" stroke="midnightblue" points="1815.6,-28.59 1821.56,-19.83 1811.44,-22.97 1815.6,-28.59"/>
</g>
<!-- Node33 -->
<g id="node33" class="node">
<title>Node33</title>
<g id="a_node33"><a xlink:title=" ">
<polygon fill="none" stroke="#bfbfbf" points="1873.5,-0.5 1873.5,-19.5 1923.5,-19.5 1923.5,-0.5 1873.5,-0.5"/>
<text text-anchor="middle" x="1898.5" y="-7.5" font-family="Helvetica,sans-Serif" font-size="10.00">cstdint</text>
</a>
</g>
</g>
<!-- Node29&#45;&gt;Node33 -->
<g id="edge35" class="edge">
<title>Node29&#45;&gt;Node33</title>
<path fill="none" stroke="midnightblue" d="M1782.37,-56.44C1805.28,-47.48 1841.48,-33.31 1867.37,-23.18"/>
<polygon fill="midnightblue" stroke="midnightblue" points="1868.7,-26.42 1876.74,-19.52 1866.15,-19.9 1868.7,-26.42"/>
</g>
<!-- Node34 -->
<g id="node34" class="node">
<title>Node34</title>
<g id="a_node34"><a xlink:title=" ">
<polygon fill="none" stroke="#bfbfbf" points="1941.5,-0.5 1941.5,-19.5 1985.5,-19.5 1985.5,-0.5 1941.5,-0.5"/>
<text text-anchor="middle" x="1963.5" y="-7.5" font-family="Helvetica,sans-Serif" font-size="10.00">ctime</text>
</a>
</g>
</g>
<!-- Node29&#45;&gt;Node34 -->
<g id="edge36" class="edge">
<title>Node29&#45;&gt;Node34</title>
<path fill="none" stroke="midnightblue" d="M1794.19,-56.47C1826.88,-48.13 1878.14,-34.89 1931.24,-20.3"/>
<polygon fill="midnightblue" stroke="midnightblue" points="1932.46,-23.59 1941.17,-17.56 1930.6,-16.84 1932.46,-23.59"/>
</g>
<!-- Node35 -->
<g id="node35" class="node">
<title>Node35</title>
<g id="a_node35"><a xlink:title=" ">
<polygon fill="none" stroke="#bfbfbf" points="2004,-0.5 2004,-19.5 2043,-19.5 2043,-0.5 2004,-0.5"/>
<text text-anchor="middle" x="2023.5" y="-7.5" font-family="Helvetica,sans-Serif" font-size="10.00">ratio</text>
</a>
</g>
</g>
<!-- Node29&#45;&gt;Node35 -->
<g id="edge37" class="edge">
<title>Node29&#45;&gt;Node35</title>
<path fill="none" stroke="midnightblue" d="M1795.26,-59.56C1839.3,-52.38 1917.71,-38.72 1994.13,-19.85"/>
<polygon fill="midnightblue" stroke="midnightblue" points="1995.08,-23.22 2003.93,-17.4 1993.38,-16.43 1995.08,-23.22"/>
</g>
<!-- Node36 -->
<g id="node36" class="node">
<title>Node36</title>
<g id="a_node36"><a xlink:title=" ">
<polygon fill="none" stroke="#bfbfbf" points="2061,-0.5 2061,-19.5 2116,-19.5 2116,-0.5 2061,-0.5"/>
<text text-anchor="middle" x="2088.5" y="-7.5" font-family="Helvetica,sans-Serif" font-size="10.00">fstream</text>
</a>
</g>
</g>
<!-- Node29&#45;&gt;Node36 -->
<g id="edge38" class="edge">
<title>Node29&#45;&gt;Node36</title>
<path fill="none" stroke="midnightblue" d="M1795.29,-60.69C1848.39,-53.89 1952.99,-39.59 2050.62,-20.24"/>
<polygon fill="midnightblue" stroke="midnightblue" points="2051.53,-23.63 2060.65,-18.23 2050.16,-16.77 2051.53,-23.63"/>
</g>
</g>
</svg>
