<?xml version="1.0" encoding="UTF-8" standalone="no"?>
<!DOCTYPE svg PUBLIC "-//W3C//DTD SVG 1.1//EN"
 "http://www.w3.org/Graphics/SVG/1.1/DTD/svg11.dtd">
<!-- Generated by graphviz version 2.49.3 (20211027.1534)
 -->
<!-- Title: src/gui_pkg/include/gui_pkg/gui_node.hpp Pages: 1 -->
<svg width="1326pt" height="162pt"
 viewBox="0.00 0.00 1325.50 162.00" xmlns="http://www.w3.org/2000/svg" xmlns:xlink="http://www.w3.org/1999/xlink">
<g id="graph0" class="graph" transform="scale(1 1) rotate(0) translate(4 158)">
<title>src/gui_pkg/include/gui_pkg/gui_node.hpp</title>
<!-- Node1 -->
<g id="node1" class="node">
<title>Node1</title>
<g id="a_node1"><a xlink:title=" ">
<polygon fill="#bfbfbf" stroke="black" points="841.5,-123.5 841.5,-153.5 954.5,-153.5 954.5,-123.5 841.5,-123.5"/>
<text text-anchor="start" x="849.5" y="-141.5" font-family="Helvetica,sans-Serif" font-size="10.00">src/gui_pkg/include</text>
<text text-anchor="middle" x="898" y="-130.5" font-family="Helvetica,sans-Serif" font-size="10.00">/gui_pkg/gui_node.hpp</text>
</a>
</g>
</g>
<!-- Node2 -->
<g id="node2" class="node">
<title>Node2</title>
<g id="a_node2"><a xlink:title=" ">
<polygon fill="none" stroke="#bfbfbf" points="0,-62 0,-81 90,-81 90,-62 0,-62"/>
<text text-anchor="middle" x="45" y="-69" font-family="Helvetica,sans-Serif" font-size="10.00">rclcpp/rclcpp.hpp</text>
</a>
</g>
</g>
<!-- Node1&#45;&gt;Node2 -->
<g id="edge1" class="edge">
<title>Node1&#45;&gt;Node2</title>
<path fill="none" stroke="midnightblue" d="M841.38,-137.78C710.02,-137.58 374.68,-132.26 99,-87 93.55,-86.11 87.86,-84.89 82.3,-83.55"/>
<polygon fill="midnightblue" stroke="midnightblue" points="83.08,-80.13 72.52,-81.02 81.33,-86.91 83.08,-80.13"/>
</g>
<!-- Node3 -->
<g id="node3" class="node">
<title>Node3</title>
<g id="a_node3"><a xlink:title=" ">
<polygon fill="none" stroke="#bfbfbf" points="108,-62 108,-81 238,-81 238,-62 108,-62"/>
<text text-anchor="middle" x="173" y="-69" font-family="Helvetica,sans-Serif" font-size="10.00">sensor_msgs/msg/joy.hpp</text>
</a>
</g>
</g>
<!-- Node1&#45;&gt;Node3 -->
<g id="edge2" class="edge">
<title>Node1&#45;&gt;Node3</title>
<path fill="none" stroke="midnightblue" d="M841.16,-135.31C727.75,-130.46 465.47,-116.77 247,-87 238.88,-85.89 230.32,-84.46 222,-82.93"/>
<polygon fill="midnightblue" stroke="midnightblue" points="222.51,-79.46 212.03,-81.03 221.2,-86.34 222.51,-79.46"/>
</g>
<!-- Node4 -->
<g id="node4" class="node">
<title>Node4</title>
<g id="a_node4"><a xlink:title=" ">
<polygon fill="none" stroke="#bfbfbf" points="256,-56.5 256,-86.5 364,-86.5 364,-56.5 256,-56.5"/>
<text text-anchor="start" x="264" y="-74.5" font-family="Helvetica,sans-Serif" font-size="10.00">ecat_msgs/msg/data</text>
<text text-anchor="middle" x="310" y="-63.5" font-family="Helvetica,sans-Serif" font-size="10.00">_received.hpp</text>
</a>
</g>
</g>
<!-- Node1&#45;&gt;Node4 -->
<g id="edge3" class="edge">
<title>Node1&#45;&gt;Node4</title>
<path fill="none" stroke="midnightblue" d="M841.36,-134.48C746.57,-128.89 549.72,-115.02 374.14,-87.05"/>
<polygon fill="midnightblue" stroke="midnightblue" points="374.64,-83.58 364.21,-85.45 373.52,-90.5 374.64,-83.58"/>
</g>
<!-- Node5 -->
<g id="node5" class="node">
<title>Node5</title>
<g id="a_node5"><a xlink:title=" ">
<polygon fill="none" stroke="#bfbfbf" points="382,-56.5 382,-86.5 490,-86.5 490,-56.5 382,-56.5"/>
<text text-anchor="start" x="390" y="-74.5" font-family="Helvetica,sans-Serif" font-size="10.00">ecat_msgs/msg/data</text>
<text text-anchor="middle" x="436" y="-63.5" font-family="Helvetica,sans-Serif" font-size="10.00">_sent.hpp</text>
</a>
</g>
</g>
<!-- Node1&#45;&gt;Node5 -->
<g id="edge4" class="edge">
<title>Node1&#45;&gt;Node5</title>
<path fill="none" stroke="midnightblue" d="M841.24,-132.13C765.59,-124.56 627.4,-109.35 500.15,-87.1"/>
<polygon fill="midnightblue" stroke="midnightblue" points="500.68,-83.64 490.23,-85.34 499.46,-90.53 500.68,-83.64"/>
</g>
<!-- Node6 -->
<g id="node6" class="node">
<title>Node6</title>
<g id="a_node6"><a xlink:title=" ">
<polygon fill="none" stroke="#bfbfbf" points="508,-56.5 508,-86.5 642,-86.5 642,-56.5 508,-56.5"/>
<text text-anchor="start" x="516" y="-74.5" font-family="Helvetica,sans-Serif" font-size="10.00">ecat_msgs/msg/gui_button</text>
<text text-anchor="middle" x="575" y="-63.5" font-family="Helvetica,sans-Serif" font-size="10.00">_data.hpp</text>
</a>
</g>
</g>
<!-- Node1&#45;&gt;Node6 -->
<g id="edge5" class="edge">
<title>Node1&#45;&gt;Node6</title>
<path fill="none" stroke="midnightblue" d="M841.37,-126.1C788.86,-115.54 710.3,-99.73 652.09,-88.01"/>
<polygon fill="midnightblue" stroke="midnightblue" points="652.69,-84.56 642.2,-86.02 651.31,-91.43 652.69,-84.56"/>
</g>
<!-- Node7 -->
<g id="node7" class="node">
<title>Node7</title>
<g id="a_node7"><a xlink:title=" ">
<polygon fill="none" stroke="#bfbfbf" points="660,-62 660,-81 794,-81 794,-62 660,-62"/>
<text text-anchor="middle" x="727" y="-69" font-family="Helvetica,sans-Serif" font-size="10.00">std_msgs/msg/u_int16.hpp</text>
</a>
</g>
</g>
<!-- Node1&#45;&gt;Node7 -->
<g id="edge6" class="edge">
<title>Node1&#45;&gt;Node7</title>
<path fill="none" stroke="midnightblue" d="M860.9,-123.4C830.49,-111.84 787.92,-95.66 759,-84.66"/>
<polygon fill="midnightblue" stroke="midnightblue" points="759.97,-81.29 749.38,-81.01 757.48,-87.83 759.97,-81.29"/>
</g>
<!-- Node8 -->
<g id="node8" class="node">
<title>Node8</title>
<g id="a_node8"><a xlink:title=" ">
<polygon fill="none" stroke="#bfbfbf" points="681,-0.5 681,-19.5 725,-19.5 725,-0.5 681,-0.5"/>
<text text-anchor="middle" x="703" y="-7.5" font-family="Helvetica,sans-Serif" font-size="10.00">vector</text>
</a>
</g>
</g>
<!-- Node1&#45;&gt;Node8 -->
<g id="edge7" class="edge">
<title>Node1&#45;&gt;Node8</title>
<path fill="none" stroke="midnightblue" d="M880.09,-123.46C867.55,-113.5 850.52,-99.71 836,-87 820.86,-73.75 819.74,-67.17 803,-56 781.63,-41.74 755.01,-30.01 734.61,-22.11"/>
<polygon fill="midnightblue" stroke="midnightblue" points="735.74,-18.79 725.14,-18.54 733.27,-25.34 735.74,-18.79"/>
</g>
<!-- Node9 -->
<g id="node9" class="node">
<title>Node9</title>
<g id="a_node9"><a xlink:title=" ">
<polygon fill="none" stroke="#bfbfbf" points="743,-0.5 743,-19.5 789,-19.5 789,-0.5 743,-0.5"/>
<text text-anchor="middle" x="766" y="-7.5" font-family="Helvetica,sans-Serif" font-size="10.00">chrono</text>
</a>
</g>
</g>
<!-- Node1&#45;&gt;Node9 -->
<g id="edge8" class="edge">
<title>Node1&#45;&gt;Node9</title>
<path fill="none" stroke="midnightblue" d="M889.42,-123.34C878.49,-106.06 858.33,-76.63 836,-56 822.72,-43.73 805.7,-32.71 791.77,-24.64"/>
<polygon fill="midnightblue" stroke="midnightblue" points="793.13,-21.39 782.7,-19.55 789.71,-27.5 793.13,-21.39"/>
</g>
<!-- Node10 -->
<g id="node10" class="node">
<title>Node10</title>
<g id="a_node10"><a xlink:title=" ">
<polygon fill="none" stroke="#bfbfbf" points="807.5,-0.5 807.5,-19.5 858.5,-19.5 858.5,-0.5 807.5,-0.5"/>
<text text-anchor="middle" x="833" y="-7.5" font-family="Helvetica,sans-Serif" font-size="10.00">memory</text>
</a>
</g>
</g>
<!-- Node1&#45;&gt;Node10 -->
<g id="edge9" class="edge">
<title>Node1&#45;&gt;Node10</title>
<path fill="none" stroke="midnightblue" d="M895.86,-123.48C892.85,-106.62 886.3,-77.85 874,-56 867.87,-45.11 858.66,-34.68 850.52,-26.61"/>
<polygon fill="midnightblue" stroke="midnightblue" points="852.85,-23.99 843.18,-19.66 848.03,-29.08 852.85,-23.99"/>
</g>
<!-- Node11 -->
<g id="node11" class="node">
<title>Node11</title>
<g id="a_node11"><a xlink:title=" ">
<polygon fill="none" stroke="#bfbfbf" points="876.5,-0.5 876.5,-19.5 935.5,-19.5 935.5,-0.5 876.5,-0.5"/>
<text text-anchor="middle" x="906" y="-7.5" font-family="Helvetica,sans-Serif" font-size="10.00">functional</text>
</a>
</g>
</g>
<!-- Node1&#45;&gt;Node11 -->
<g id="edge10" class="edge">
<title>Node1&#45;&gt;Node11</title>
<path fill="none" stroke="midnightblue" d="M903.1,-123.13C906.37,-113.14 910.31,-99.44 912,-87 913.86,-73.35 912.91,-69.75 912,-56 911.43,-47.34 910.23,-37.81 909.06,-29.75"/>
<polygon fill="midnightblue" stroke="midnightblue" points="912.48,-28.94 907.49,-19.59 905.56,-30.01 912.48,-28.94"/>
</g>
<!-- Node12 -->
<g id="node12" class="node">
<title>Node12</title>
<g id="a_node12"><a xlink:title=" ">
<polygon fill="none" stroke="#bfbfbf" points="953.5,-0.5 953.5,-19.5 994.5,-19.5 994.5,-0.5 953.5,-0.5"/>
<text text-anchor="middle" x="974" y="-7.5" font-family="Helvetica,sans-Serif" font-size="10.00">string</text>
</a>
</g>
</g>
<!-- Node1&#45;&gt;Node12 -->
<g id="edge11" class="edge">
<title>Node1&#45;&gt;Node12</title>
<path fill="none" stroke="midnightblue" d="M906.42,-123.48C920.34,-100.31 948.12,-54.07 963.37,-28.69"/>
<polygon fill="midnightblue" stroke="midnightblue" points="966.57,-30.16 968.72,-19.79 960.57,-26.56 966.57,-30.16"/>
</g>
<!-- Node13 -->
<g id="node13" class="node">
<title>Node13</title>
<g id="a_node13"><a xlink:title=" ">
<polygon fill="none" stroke="#bfbfbf" points="1085,-0.5 1085,-19.5 1131,-19.5 1131,-0.5 1085,-0.5"/>
<text text-anchor="middle" x="1108" y="-7.5" font-family="Helvetica,sans-Serif" font-size="10.00">cstdint</text>
</a>
</g>
</g>
<!-- Node1&#45;&gt;Node13 -->
<g id="edge12" class="edge">
<title>Node1&#45;&gt;Node13</title>
<path fill="none" stroke="midnightblue" d="M954.57,-133.02C991.67,-127.44 1039.19,-114.94 1072,-87 1089.42,-72.17 1099,-47.02 1103.81,-29.74"/>
<polygon fill="midnightblue" stroke="midnightblue" points="1107.29,-30.26 1106.32,-19.71 1100.5,-28.57 1107.29,-30.26"/>
</g>
<!-- Node14 -->
<g id="node14" class="node">
<title>Node14</title>
<g id="a_node14"><a xlink:title=" ">
<polygon fill="none" stroke="#bfbfbf" points="1149.5,-0.5 1149.5,-19.5 1190.5,-19.5 1190.5,-0.5 1149.5,-0.5"/>
<text text-anchor="middle" x="1170" y="-7.5" font-family="Helvetica,sans-Serif" font-size="10.00">ctime</text>
</a>
</g>
</g>
<!-- Node1&#45;&gt;Node14 -->
<g id="edge13" class="edge">
<title>Node1&#45;&gt;Node14</title>
<path fill="none" stroke="midnightblue" d="M954.78,-131.59C996.41,-125.3 1053.1,-112.55 1097,-87 1122.85,-71.95 1145.46,-45.13 1158.42,-27.7"/>
<polygon fill="midnightblue" stroke="midnightblue" points="1161.28,-29.72 1164.29,-19.56 1155.6,-25.63 1161.28,-29.72"/>
</g>
<!-- Node15 -->
<g id="node15" class="node">
<title>Node15</title>
<g id="a_node15"><a xlink:title=" ">
<polygon fill="none" stroke="#bfbfbf" points="1208.5,-0.5 1208.5,-19.5 1243.5,-19.5 1243.5,-0.5 1208.5,-0.5"/>
<text text-anchor="middle" x="1226" y="-7.5" font-family="Helvetica,sans-Serif" font-size="10.00">ratio</text>
</a>
</g>
</g>
<!-- Node1&#45;&gt;Node15 -->
<g id="edge14" class="edge">
<title>Node1&#45;&gt;Node15</title>
<path fill="none" stroke="midnightblue" d="M954.68,-132.42C1003.13,-126.41 1073.74,-113.62 1130,-87 1161.99,-71.86 1192.98,-44.27 1210.73,-26.82"/>
<polygon fill="midnightblue" stroke="midnightblue" points="1213.35,-29.16 1217.92,-19.6 1208.38,-24.22 1213.35,-29.16"/>
</g>
<!-- Node16 -->
<g id="node16" class="node">
<title>Node16</title>
<g id="a_node16"><a xlink:title=" ">
<polygon fill="none" stroke="#bfbfbf" points="1262,-0.5 1262,-19.5 1312,-19.5 1312,-0.5 1262,-0.5"/>
<text text-anchor="middle" x="1287" y="-7.5" font-family="Helvetica,sans-Serif" font-size="10.00">fstream</text>
</a>
</g>
</g>
<!-- Node1&#45;&gt;Node16 -->
<g id="edge15" class="edge">
<title>Node1&#45;&gt;Node16</title>
<path fill="none" stroke="midnightblue" d="M954.58,-133.14C1010.23,-127.42 1096.81,-114.63 1167,-87 1205.89,-71.69 1245.89,-43.33 1268.48,-25.92"/>
<polygon fill="midnightblue" stroke="midnightblue" points="1270.8,-28.55 1276.51,-19.62 1266.48,-23.04 1270.8,-28.55"/>
</g>
<!-- Node17 -->
<g id="node17" class="node">
<title>Node17</title>
<g id="a_node17"><a xlink:href="gui__pkg_2include_2gui__pkg_2timing_8hpp.html" target="_top" xlink:title=" ">
<polygon fill="none" stroke="black" points="1002.5,-62 1002.5,-81 1063.5,-81 1063.5,-62 1002.5,-62"/>
<text text-anchor="middle" x="1033" y="-69" font-family="Helvetica,sans-Serif" font-size="10.00">timing.hpp</text>
</a>
</g>
</g>
<!-- Node1&#45;&gt;Node17 -->
<g id="edge16" class="edge">
<title>Node1&#45;&gt;Node17</title>
<path fill="none" stroke="midnightblue" d="M927.29,-123.4C950.77,-112.09 983.44,-96.36 1006.23,-85.39"/>
<polygon fill="midnightblue" stroke="midnightblue" points="1007.84,-88.5 1015.33,-81.01 1004.8,-82.19 1007.84,-88.5"/>
</g>
<!-- Node19 -->
<g id="node19" class="node">
<title>Node19</title>
<g id="a_node19"><a xlink:href="gui__globals_8hpp.html" target="_top" xlink:title=" ">
<polygon fill="none" stroke="black" points="1234.5,-62 1234.5,-81 1317.5,-81 1317.5,-62 1234.5,-62"/>
<text text-anchor="middle" x="1276" y="-69" font-family="Helvetica,sans-Serif" font-size="10.00">gui_globals.hpp</text>
</a>
</g>
</g>
<!-- Node1&#45;&gt;Node19 -->
<g id="edge27" class="edge">
<title>Node1&#45;&gt;Node19</title>
<path fill="none" stroke="midnightblue" d="M954.72,-130.31C1019.29,-121.74 1127.75,-106.13 1220,-87 1225.03,-85.96 1230.29,-84.75 1235.49,-83.49"/>
<polygon fill="midnightblue" stroke="midnightblue" points="1236.47,-86.85 1245.32,-81.02 1234.77,-80.06 1236.47,-86.85"/>
</g>
<!-- Node17&#45;&gt;Node8 -->
<g id="edge17" class="edge">
<title>Node17&#45;&gt;Node8</title>
<path fill="none" stroke="midnightblue" d="M1002.21,-66.49C949.44,-59.37 838.23,-43.24 735.21,-20.06"/>
<polygon fill="midnightblue" stroke="midnightblue" points="735.8,-16.61 725.27,-17.8 734.24,-23.43 735.8,-16.61"/>
</g>
<!-- Node17&#45;&gt;Node9 -->
<g id="edge18" class="edge">
<title>Node17&#45;&gt;Node9</title>
<path fill="none" stroke="midnightblue" d="M1002.44,-64.57C959.31,-56.06 877.94,-39.5 799.12,-20.16"/>
<polygon fill="midnightblue" stroke="midnightblue" points="799.57,-16.66 789.03,-17.66 797.89,-23.46 799.57,-16.66"/>
</g>
<!-- Node17&#45;&gt;Node10 -->
<g id="edge19" class="edge">
<title>Node17&#45;&gt;Node10</title>
<path fill="none" stroke="midnightblue" d="M1004.34,-61.98C968.55,-51.33 907.31,-33.11 868.56,-21.58"/>
<polygon fill="midnightblue" stroke="midnightblue" points="869.33,-18.16 858.75,-18.66 867.33,-24.87 869.33,-18.16"/>
</g>
<!-- Node17&#45;&gt;Node11 -->
<g id="edge20" class="edge">
<title>Node17&#45;&gt;Node11</title>
<path fill="none" stroke="midnightblue" d="M1014.8,-61.98C993.49,-51.99 957.97,-35.35 933.34,-23.81"/>
<polygon fill="midnightblue" stroke="midnightblue" points="934.7,-20.58 924.16,-19.51 931.73,-26.92 934.7,-20.58"/>
</g>
<!-- Node17&#45;&gt;Node12 -->
<g id="edge21" class="edge">
<title>Node17&#45;&gt;Node12</title>
<path fill="none" stroke="midnightblue" d="M1024.55,-61.98C1015.43,-52.78 1000.73,-37.96 989.52,-26.66"/>
<polygon fill="midnightblue" stroke="midnightblue" points="991.96,-24.15 982.44,-19.51 986.99,-29.07 991.96,-24.15"/>
</g>
<!-- Node17&#45;&gt;Node13 -->
<g id="edge22" class="edge">
<title>Node17&#45;&gt;Node13</title>
<path fill="none" stroke="midnightblue" d="M1043.75,-61.98C1055.55,-52.61 1074.74,-37.38 1089.08,-26.01"/>
<polygon fill="midnightblue" stroke="midnightblue" points="1091.62,-28.47 1097.27,-19.51 1087.26,-22.98 1091.62,-28.47"/>
</g>
<!-- Node17&#45;&gt;Node14 -->
<g id="edge23" class="edge">
<title>Node17&#45;&gt;Node14</title>
<path fill="none" stroke="midnightblue" d="M1052.63,-61.98C1075.82,-51.9 1114.62,-35.05 1141.21,-23.5"/>
<polygon fill="midnightblue" stroke="midnightblue" points="1142.63,-26.7 1150.41,-19.51 1139.84,-20.28 1142.63,-26.7"/>
</g>
<!-- Node17&#45;&gt;Node15 -->
<g id="edge24" class="edge">
<title>Node17&#45;&gt;Node15</title>
<path fill="none" stroke="midnightblue" d="M1062.67,-61.91C1094.25,-52.69 1145.9,-37.37 1198.86,-20.29"/>
<polygon fill="midnightblue" stroke="midnightblue" points="1199.98,-23.61 1208.41,-17.19 1197.82,-16.95 1199.98,-23.61"/>
</g>
<!-- Node17&#45;&gt;Node16 -->
<g id="edge25" class="edge">
<title>Node17&#45;&gt;Node16</title>
<path fill="none" stroke="midnightblue" d="M1063.68,-63.79C1104.44,-54.81 1178.91,-38.15 1251.95,-20.2"/>
<polygon fill="midnightblue" stroke="midnightblue" points="1252.9,-23.57 1261.77,-17.78 1251.23,-16.77 1252.9,-23.57"/>
</g>
<!-- Node18 -->
<g id="node18" class="node">
<title>Node18</title>
<g id="a_node18"><a xlink:title=" ">
<polygon fill="none" stroke="#bfbfbf" points="1013,-0.5 1013,-19.5 1067,-19.5 1067,-0.5 1013,-0.5"/>
<text text-anchor="middle" x="1040" y="-7.5" font-family="Helvetica,sans-Serif" font-size="10.00">iostream</text>
</a>
</g>
</g>
<!-- Node17&#45;&gt;Node18 -->
<g id="edge26" class="edge">
<title>Node17&#45;&gt;Node18</title>
<path fill="none" stroke="midnightblue" d="M1034,-61.98C1034.99,-53.58 1036.53,-40.48 1037.8,-29.66"/>
<polygon fill="midnightblue" stroke="midnightblue" points="1041.31,-29.85 1039,-19.51 1034.35,-29.03 1041.31,-29.85"/>
</g>
</g>
</svg>
