<?xml version="1.0" encoding="UTF-8" standalone="no"?>
<!DOCTYPE svg PUBLIC "-//W3C//DTD SVG 1.1//EN"
 "http://www.w3.org/Graphics/SVG/1.1/DTD/svg11.dtd">
<!-- Generated by graphviz version 2.49.3 (20211027.1534)
 -->
<!-- Title: src/gui_pkg/src/main.cpp Pages: 1 -->
<svg width="2569pt" height="330pt"
 viewBox="0.00 0.00 2569.06 330.00" xmlns="http://www.w3.org/2000/svg" xmlns:xlink="http://www.w3.org/1999/xlink">
<g id="graph0" class="graph" transform="scale(1 1) rotate(0) translate(4 326)">
<title>src/gui_pkg/src/main.cpp</title>
<!-- Node1 -->
<g id="node1" class="node">
<title>Node1</title>
<g id="a_node1"><a xlink:title=" ">
<polygon fill="#bfbfbf" stroke="black" points="178.5,-302.5 178.5,-321.5 303.5,-321.5 303.5,-302.5 178.5,-302.5"/>
<text text-anchor="middle" x="241" y="-309.5" font-family="Helvetica,sans-Serif" font-size="10.00">src/gui_pkg/src/main.cpp</text>
</a>
</g>
</g>
<!-- Node2 -->
<g id="node2" class="node">
<title>Node2</title>
<g id="a_node2"><a xlink:title=" ">
<polygon fill="none" stroke="#bfbfbf" points="0,-179.5 0,-198.5 72,-198.5 72,-179.5 0,-179.5"/>
<text text-anchor="middle" x="36" y="-186.5" font-family="Helvetica,sans-Serif" font-size="10.00">QApplication</text>
</a>
</g>
</g>
<!-- Node1&#45;&gt;Node2 -->
<g id="edge1" class="edge">
<title>Node1&#45;&gt;Node2</title>
<path fill="none" stroke="midnightblue" d="M226.58,-302.49C191.68,-281.89 102.33,-229.15 59.54,-203.89"/>
<polygon fill="midnightblue" stroke="midnightblue" points="61.06,-200.73 50.67,-198.66 57.51,-206.76 61.06,-200.73"/>
</g>
<!-- Node3 -->
<g id="node3" class="node">
<title>Node3</title>
<g id="a_node3"><a xlink:href="main__window_8hpp.html" target="_top" xlink:title=" ">
<polygon fill="none" stroke="black" points="839.5,-235.5 839.5,-265.5 936.5,-265.5 936.5,-235.5 839.5,-235.5"/>
<text text-anchor="start" x="847.5" y="-253.5" font-family="Helvetica,sans-Serif" font-size="10.00">../include/gui_pkg</text>
<text text-anchor="middle" x="888" y="-242.5" font-family="Helvetica,sans-Serif" font-size="10.00">/main_window.hpp</text>
</a>
</g>
</g>
<!-- Node1&#45;&gt;Node3 -->
<g id="edge2" class="edge">
<title>Node1&#45;&gt;Node3</title>
<path fill="none" stroke="midnightblue" d="M303.62,-305.24C428.58,-293.75 707.3,-268.12 829.11,-256.92"/>
<polygon fill="midnightblue" stroke="midnightblue" points="829.72,-260.37 839.36,-255.97 829.08,-253.4 829.72,-260.37"/>
</g>
<!-- Node59 -->
<g id="node48" class="node">
<title>Node59</title>
<g id="a_node48"><a xlink:href="endoscope__viewer_8hpp.html" target="_top" xlink:title=" ">
<polygon fill="none" stroke="black" points="181.5,-235.5 181.5,-265.5 300.5,-265.5 300.5,-235.5 181.5,-235.5"/>
<text text-anchor="start" x="189.5" y="-253.5" font-family="Helvetica,sans-Serif" font-size="10.00">../include/gui_pkg</text>
<text text-anchor="middle" x="241" y="-242.5" font-family="Helvetica,sans-Serif" font-size="10.00">/endoscope_viewer.hpp</text>
</a>
</g>
</g>
<!-- Node1&#45;&gt;Node59 -->
<g id="edge66" class="edge">
<title>Node1&#45;&gt;Node59</title>
<path fill="none" stroke="midnightblue" d="M241,-302.48C241,-295.47 241,-285.19 241,-275.7"/>
<polygon fill="midnightblue" stroke="midnightblue" points="244.5,-275.52 241,-265.52 237.5,-275.52 244.5,-275.52"/>
</g>
<!-- Node3&#45;&gt;Node2 -->
<g id="edge59" class="edge">
<title>Node3&#45;&gt;Node2</title>
<path fill="none" stroke="midnightblue" d="M839.11,-248.73C714.44,-246.29 374.45,-236.56 82.22,-198.98"/>
<polygon fill="midnightblue" stroke="midnightblue" points="82.65,-195.51 72.28,-197.69 81.75,-202.45 82.65,-195.51"/>
</g>
<!-- Node4 -->
<g id="node4" class="node">
<title>Node4</title>
<g id="a_node4"><a xlink:title=" ">
<polygon fill="none" stroke="#bfbfbf" points="1409,-0.5 1409,-19.5 1455,-19.5 1455,-0.5 1409,-0.5"/>
<text text-anchor="middle" x="1432" y="-7.5" font-family="Helvetica,sans-Serif" font-size="10.00">chrono</text>
</a>
</g>
</g>
<!-- Node3&#45;&gt;Node4 -->
<g id="edge3" class="edge">
<title>Node3&#45;&gt;Node4</title>
<path fill="none" stroke="midnightblue" d="M936.7,-245.91C1011.06,-239.68 1148.64,-224.97 1190,-199 1255.89,-157.62 1228.24,-101.99 1291,-56 1299.89,-49.48 1360.26,-31.47 1399.07,-20.31"/>
<polygon fill="midnightblue" stroke="midnightblue" points="1400.25,-23.61 1408.9,-17.5 1398.33,-16.88 1400.25,-23.61"/>
</g>
<!-- Node5 -->
<g id="node5" class="node">
<title>Node5</title>
<g id="a_node5"><a xlink:title=" ">
<polygon fill="none" stroke="#bfbfbf" points="1335.5,-0.5 1335.5,-19.5 1386.5,-19.5 1386.5,-0.5 1335.5,-0.5"/>
<text text-anchor="middle" x="1361" y="-7.5" font-family="Helvetica,sans-Serif" font-size="10.00">memory</text>
</a>
</g>
</g>
<!-- Node3&#45;&gt;Node5 -->
<g id="edge4" class="edge">
<title>Node3&#45;&gt;Node5</title>
<path fill="none" stroke="midnightblue" d="M936.67,-244.87C1005.39,-237.63 1126.68,-222.01 1164,-199 1231.8,-157.2 1210.88,-107.07 1272,-56 1288.48,-42.23 1309.88,-31.24 1327.57,-23.57"/>
<polygon fill="midnightblue" stroke="midnightblue" points="1329.08,-26.73 1336.96,-19.65 1326.38,-20.27 1329.08,-26.73"/>
</g>
<!-- Node6 -->
<g id="node6" class="node">
<title>Node6</title>
<g id="a_node6"><a xlink:title=" ">
<polygon fill="none" stroke="#bfbfbf" points="2144,-0.5 2144,-19.5 2198,-19.5 2198,-0.5 2144,-0.5"/>
<text text-anchor="middle" x="2171" y="-7.5" font-family="Helvetica,sans-Serif" font-size="10.00">iostream</text>
</a>
</g>
</g>
<!-- Node3&#45;&gt;Node6 -->
<g id="edge5" class="edge">
<title>Node3&#45;&gt;Node6</title>
<path fill="none" stroke="midnightblue" d="M936.64,-248.28C1204.36,-241.31 2488.27,-204.74 2543,-143 2639.44,-34.2 2320.54,-15.07 2208.48,-11.72"/>
<polygon fill="midnightblue" stroke="midnightblue" points="2208.4,-8.21 2198.3,-11.44 2208.21,-15.21 2208.4,-8.21"/>
</g>
<!-- Node7 -->
<g id="node7" class="node">
<title>Node7</title>
<g id="a_node7"><a xlink:title=" ">
<polygon fill="none" stroke="#bfbfbf" points="2444,-118 2444,-137 2534,-137 2534,-118 2444,-118"/>
<text text-anchor="middle" x="2489" y="-125" font-family="Helvetica,sans-Serif" font-size="10.00">rclcpp/rclcpp.hpp</text>
</a>
</g>
</g>
<!-- Node3&#45;&gt;Node7 -->
<g id="edge6" class="edge">
<title>Node3&#45;&gt;Node7</title>
<path fill="none" stroke="midnightblue" d="M936.7,-248.26C1086.26,-244.22 1552.15,-229.87 1937,-199 2159.02,-181.19 2216.16,-184.44 2435,-143 2440.06,-142.04 2445.33,-140.86 2450.53,-139.59"/>
<polygon fill="midnightblue" stroke="midnightblue" points="2451.51,-142.95 2460.32,-137.06 2449.76,-136.17 2451.51,-142.95"/>
</g>
<!-- Node8 -->
<g id="node8" class="node">
<title>Node8</title>
<g id="a_node8"><a xlink:href="gui__node_8hpp.html" target="_top" xlink:title=" ">
<polygon fill="none" stroke="black" points="1854,-179.5 1854,-198.5 1928,-198.5 1928,-179.5 1854,-179.5"/>
<text text-anchor="middle" x="1891" y="-186.5" font-family="Helvetica,sans-Serif" font-size="10.00">gui_node.hpp</text>
</a>
</g>
</g>
<!-- Node3&#45;&gt;Node8 -->
<g id="edge7" class="edge">
<title>Node3&#45;&gt;Node8</title>
<path fill="none" stroke="midnightblue" d="M936.72,-246.61C1107.23,-236.49 1675.97,-202.76 1843.92,-192.79"/>
<polygon fill="midnightblue" stroke="midnightblue" points="1844.16,-196.29 1853.93,-192.2 1843.74,-189.3 1844.16,-196.29"/>
</g>
<!-- Node42 -->
<g id="node31" class="node">
<title>Node42</title>
<g id="a_node31"><a xlink:href="gui__globals_8hpp.html" target="_top" xlink:title=" ">
<polygon fill="none" stroke="black" points="837.5,-118 837.5,-137 920.5,-137 920.5,-118 837.5,-118"/>
<text text-anchor="middle" x="879" y="-125" font-family="Helvetica,sans-Serif" font-size="10.00">gui_globals.hpp</text>
</a>
</g>
</g>
<!-- Node3&#45;&gt;Node42 -->
<g id="edge56" class="edge">
<title>Node3&#45;&gt;Node42</title>
<path fill="none" stroke="midnightblue" d="M839.37,-250.43C748.29,-251.03 557.43,-246.43 516,-199 510.15,-192.31 510.08,-185.63 516,-179 562.59,-126.74 760.36,-156.8 829,-143 833.51,-142.09 838.2,-140.98 842.82,-139.76"/>
<polygon fill="midnightblue" stroke="midnightblue" points="844.04,-143.06 852.74,-137.01 842.17,-136.31 844.04,-143.06"/>
</g>
<!-- Node43 -->
<g id="node32" class="node">
<title>Node43</title>
<g id="a_node32"><a xlink:href="video__capture_8hpp.html" target="_top" xlink:title=" ">
<polygon fill="none" stroke="black" points="372.5,-179.5 372.5,-198.5 467.5,-198.5 467.5,-179.5 372.5,-179.5"/>
<text text-anchor="middle" x="420" y="-186.5" font-family="Helvetica,sans-Serif" font-size="10.00">video_capture.hpp</text>
</a>
</g>
</g>
<!-- Node3&#45;&gt;Node43 -->
<g id="edge47" class="edge">
<title>Node3&#45;&gt;Node43</title>
<path fill="none" stroke="midnightblue" d="M839.21,-243.76C762.93,-234.71 610.82,-216.36 482,-199 480.7,-198.82 479.38,-198.65 478.05,-198.46"/>
<polygon fill="midnightblue" stroke="midnightblue" points="478.1,-194.94 467.71,-197.03 477.14,-201.87 478.1,-194.94"/>
</g>
<!-- Node51 -->
<g id="node40" class="node">
<title>Node51</title>
<g id="a_node40"><a xlink:title=" ">
<polygon fill="none" stroke="#bfbfbf" points="524.5,-179.5 524.5,-198.5 615.5,-198.5 615.5,-179.5 524.5,-179.5"/>
<text text-anchor="middle" x="570" y="-186.5" font-family="Helvetica,sans-Serif" font-size="10.00">ui_mainwindow.h</text>
</a>
</g>
</g>
<!-- Node3&#45;&gt;Node51 -->
<g id="edge57" class="edge">
<title>Node3&#45;&gt;Node51</title>
<path fill="none" stroke="midnightblue" d="M839.36,-240.4C781.79,-229.63 686.14,-211.73 625.67,-200.42"/>
<polygon fill="midnightblue" stroke="midnightblue" points="626.02,-196.92 615.54,-198.52 624.73,-203.8 626.02,-196.92"/>
</g>
<!-- Node52 -->
<g id="node41" class="node">
<title>Node52</title>
<g id="a_node41"><a xlink:title=" ">
<polygon fill="none" stroke="#bfbfbf" points="274,-179.5 274,-198.5 354,-198.5 354,-179.5 274,-179.5"/>
<text text-anchor="middle" x="314" y="-186.5" font-family="Helvetica,sans-Serif" font-size="10.00">QMainWindow</text>
</a>
</g>
</g>
<!-- Node3&#45;&gt;Node52 -->
<g id="edge58" class="edge">
<title>Node3&#45;&gt;Node52</title>
<path fill="none" stroke="midnightblue" d="M839.44,-246.16C746.75,-239.48 538.28,-223.04 364,-199 363.9,-198.99 363.8,-198.97 363.7,-198.96"/>
<polygon fill="midnightblue" stroke="midnightblue" points="364.48,-195.54 354.07,-197.51 363.44,-202.46 364.48,-195.54"/>
</g>
<!-- Node53 -->
<g id="node42" class="node">
<title>Node53</title>
<g id="a_node42"><a xlink:title=" ">
<polygon fill="none" stroke="#bfbfbf" points="633.5,-179.5 633.5,-198.5 742.5,-198.5 742.5,-179.5 633.5,-179.5"/>
<text text-anchor="middle" x="688" y="-186.5" font-family="Helvetica,sans-Serif" font-size="10.00">QStandardItemModel</text>
</a>
</g>
</g>
<!-- Node3&#45;&gt;Node53 -->
<g id="edge60" class="edge">
<title>Node3&#45;&gt;Node53</title>
<path fill="none" stroke="midnightblue" d="M840.86,-235.47C805.9,-225.08 758.85,-211.08 726.23,-201.37"/>
<polygon fill="midnightblue" stroke="midnightblue" points="727.18,-198 716.59,-198.51 725.18,-204.71 727.18,-198"/>
</g>
<!-- Node54 -->
<g id="node43" class="node">
<title>Node54</title>
<g id="a_node43"><a xlink:title=" ">
<polygon fill="none" stroke="#bfbfbf" points="761,-179.5 761,-198.5 831,-198.5 831,-179.5 761,-179.5"/>
<text text-anchor="middle" x="796" y="-186.5" font-family="Helvetica,sans-Serif" font-size="10.00">QTableView</text>
</a>
</g>
</g>
<!-- Node3&#45;&gt;Node54 -->
<g id="edge61" class="edge">
<title>Node3&#45;&gt;Node54</title>
<path fill="none" stroke="midnightblue" d="M866.2,-235.4C851.59,-225.95 832.43,-213.56 817.82,-204.11"/>
<polygon fill="midnightblue" stroke="midnightblue" points="819.68,-201.15 809.39,-198.66 815.88,-207.03 819.68,-201.15"/>
</g>
<!-- Node55 -->
<g id="node44" class="node">
<title>Node55</title>
<g id="a_node44"><a xlink:title=" ">
<polygon fill="none" stroke="#bfbfbf" points="849.5,-179.5 849.5,-198.5 926.5,-198.5 926.5,-179.5 849.5,-179.5"/>
<text text-anchor="middle" x="888" y="-186.5" font-family="Helvetica,sans-Serif" font-size="10.00">QHeaderView</text>
</a>
</g>
</g>
<!-- Node3&#45;&gt;Node55 -->
<g id="edge62" class="edge">
<title>Node3&#45;&gt;Node55</title>
<path fill="none" stroke="midnightblue" d="M888,-235.4C888,-227.47 888,-217.46 888,-208.86"/>
<polygon fill="midnightblue" stroke="midnightblue" points="891.5,-208.66 888,-198.66 884.5,-208.66 891.5,-208.66"/>
</g>
<!-- Node56 -->
<g id="node45" class="node">
<title>Node56</title>
<g id="a_node45"><a xlink:title=" ">
<polygon fill="none" stroke="#bfbfbf" points="945,-179.5 945,-198.5 995,-198.5 995,-179.5 945,-179.5"/>
<text text-anchor="middle" x="970" y="-186.5" font-family="Helvetica,sans-Serif" font-size="10.00">QString</text>
</a>
</g>
</g>
<!-- Node3&#45;&gt;Node56 -->
<g id="edge63" class="edge">
<title>Node3&#45;&gt;Node56</title>
<path fill="none" stroke="midnightblue" d="M907.43,-235.4C920.21,-226.13 936.89,-214.03 949.81,-204.65"/>
<polygon fill="midnightblue" stroke="midnightblue" points="952.03,-207.36 958.07,-198.66 947.92,-201.7 952.03,-207.36"/>
</g>
<!-- Node57 -->
<g id="node46" class="node">
<title>Node57</title>
<g id="a_node46"><a xlink:title=" ">
<polygon fill="none" stroke="#bfbfbf" points="1013,-179.5 1013,-198.5 1087,-198.5 1087,-179.5 1013,-179.5"/>
<text text-anchor="middle" x="1050" y="-186.5" font-family="Helvetica,sans-Serif" font-size="10.00">QTextStream</text>
</a>
</g>
</g>
<!-- Node3&#45;&gt;Node57 -->
<g id="edge64" class="edge">
<title>Node3&#45;&gt;Node57</title>
<path fill="none" stroke="midnightblue" d="M926.39,-235.4C953.94,-225.28 990.67,-211.79 1016.92,-202.15"/>
<polygon fill="midnightblue" stroke="midnightblue" points="1018.25,-205.39 1026.43,-198.66 1015.83,-198.82 1018.25,-205.39"/>
</g>
<!-- Node58 -->
<g id="node47" class="node">
<title>Node58</title>
<g id="a_node47"><a xlink:title=" ">
<polygon fill="none" stroke="#bfbfbf" points="1105.5,-179.5 1105.5,-198.5 1154.5,-198.5 1154.5,-179.5 1105.5,-179.5"/>
<text text-anchor="middle" x="1130" y="-186.5" font-family="Helvetica,sans-Serif" font-size="10.00">QTimer</text>
</a>
</g>
</g>
<!-- Node3&#45;&gt;Node58 -->
<g id="edge65" class="edge">
<title>Node3&#45;&gt;Node58</title>
<path fill="none" stroke="midnightblue" d="M936.82,-237.95C976.79,-228.42 1035.07,-214.38 1095.09,-199.19"/>
<polygon fill="midnightblue" stroke="midnightblue" points="1096.3,-202.5 1105.13,-196.65 1094.58,-195.71 1096.3,-202.5"/>
</g>
<!-- Node8&#45;&gt;Node4 -->
<g id="edge27" class="edge">
<title>Node8&#45;&gt;Node4</title>
<path fill="none" stroke="midnightblue" d="M1853.65,-188.14C1726.66,-188.23 1317.23,-185.21 1278,-143 1232,-93.5 1341.5,-44.04 1399.22,-22.37"/>
<polygon fill="midnightblue" stroke="midnightblue" points="1400.49,-25.63 1408.67,-18.9 1398.08,-19.06 1400.49,-25.63"/>
</g>
<!-- Node8&#45;&gt;Node5 -->
<g id="edge28" class="edge">
<title>Node8&#45;&gt;Node5</title>
<path fill="none" stroke="midnightblue" d="M1853.64,-188.21C1724.59,-188.55 1303.31,-186.3 1263,-143 1240.11,-118.42 1288.27,-59.04 1291,-56 1302.68,-42.98 1318.97,-32.22 1332.9,-24.48"/>
<polygon fill="midnightblue" stroke="midnightblue" points="1334.87,-27.39 1342.07,-19.62 1331.6,-21.21 1334.87,-27.39"/>
</g>
<!-- Node8&#45;&gt;Node7 -->
<g id="edge8" class="edge">
<title>Node8&#45;&gt;Node7</title>
<path fill="none" stroke="midnightblue" d="M1928.23,-187.22C2016.73,-184.87 2246.41,-175.85 2435,-143 2440.19,-142.1 2445.6,-140.93 2450.91,-139.64"/>
<polygon fill="midnightblue" stroke="midnightblue" points="2452.09,-142.95 2460.91,-137.07 2450.35,-136.17 2452.09,-142.95"/>
</g>
<!-- Node9 -->
<g id="node9" class="node">
<title>Node9</title>
<g id="a_node9"><a xlink:title=" ">
<polygon fill="none" stroke="#bfbfbf" points="2296,-118 2296,-137 2426,-137 2426,-118 2296,-118"/>
<text text-anchor="middle" x="2361" y="-125" font-family="Helvetica,sans-Serif" font-size="10.00">sensor_msgs/msg/joy.hpp</text>
</a>
</g>
</g>
<!-- Node8&#45;&gt;Node9 -->
<g id="edge9" class="edge">
<title>Node8&#45;&gt;Node9</title>
<path fill="none" stroke="midnightblue" d="M1928.04,-184.57C1997.59,-177.95 2152.41,-162.33 2282,-143 2290.33,-141.76 2299.12,-140.3 2307.7,-138.79"/>
<polygon fill="midnightblue" stroke="midnightblue" points="2308.4,-142.21 2317.62,-137 2307.16,-135.33 2308.4,-142.21"/>
</g>
<!-- Node10 -->
<g id="node10" class="node">
<title>Node10</title>
<g id="a_node10"><a xlink:title=" ">
<polygon fill="none" stroke="#bfbfbf" points="1287,-112.5 1287,-142.5 1395,-142.5 1395,-112.5 1287,-112.5"/>
<text text-anchor="start" x="1295" y="-130.5" font-family="Helvetica,sans-Serif" font-size="10.00">ecat_msgs/msg/data</text>
<text text-anchor="middle" x="1341" y="-119.5" font-family="Helvetica,sans-Serif" font-size="10.00">_received.hpp</text>
</a>
</g>
</g>
<!-- Node8&#45;&gt;Node10 -->
<g id="edge10" class="edge">
<title>Node8&#45;&gt;Node10</title>
<path fill="none" stroke="midnightblue" d="M1853.83,-186.27C1773.62,-182.17 1578.25,-170.22 1405.25,-143.06"/>
<polygon fill="midnightblue" stroke="midnightblue" points="1405.63,-139.58 1395.21,-141.46 1404.53,-146.49 1405.63,-139.58"/>
</g>
<!-- Node11 -->
<g id="node11" class="node">
<title>Node11</title>
<g id="a_node11"><a xlink:title=" ">
<polygon fill="none" stroke="#bfbfbf" points="1413,-112.5 1413,-142.5 1521,-142.5 1521,-112.5 1413,-112.5"/>
<text text-anchor="start" x="1421" y="-130.5" font-family="Helvetica,sans-Serif" font-size="10.00">ecat_msgs/msg/data</text>
<text text-anchor="middle" x="1467" y="-119.5" font-family="Helvetica,sans-Serif" font-size="10.00">_sent.hpp</text>
</a>
</g>
</g>
<!-- Node8&#45;&gt;Node11 -->
<g id="edge11" class="edge">
<title>Node8&#45;&gt;Node11</title>
<path fill="none" stroke="midnightblue" d="M1853.92,-184.64C1790.02,-178.58 1654.91,-164.56 1531.24,-143.11"/>
<polygon fill="midnightblue" stroke="midnightblue" points="1531.68,-139.63 1521.22,-141.35 1530.47,-146.53 1531.68,-139.63"/>
</g>
<!-- Node12 -->
<g id="node12" class="node">
<title>Node12</title>
<g id="a_node12"><a xlink:title=" ">
<polygon fill="none" stroke="#bfbfbf" points="1539,-112.5 1539,-142.5 1673,-142.5 1673,-112.5 1539,-112.5"/>
<text text-anchor="start" x="1547" y="-130.5" font-family="Helvetica,sans-Serif" font-size="10.00">ecat_msgs/msg/gui_button</text>
<text text-anchor="middle" x="1606" y="-119.5" font-family="Helvetica,sans-Serif" font-size="10.00">_data.hpp</text>
</a>
</g>
</g>
<!-- Node8&#45;&gt;Node12 -->
<g id="edge12" class="edge">
<title>Node8&#45;&gt;Node12</title>
<path fill="none" stroke="midnightblue" d="M1853.74,-180.22C1810.63,-171.22 1738.49,-156.16 1683.14,-144.6"/>
<polygon fill="midnightblue" stroke="midnightblue" points="1683.51,-141.11 1673.01,-142.49 1682.08,-147.96 1683.51,-141.11"/>
</g>
<!-- Node13 -->
<g id="node13" class="node">
<title>Node13</title>
<g id="a_node13"><a xlink:title=" ">
<polygon fill="none" stroke="#bfbfbf" points="1691,-118 1691,-137 1825,-137 1825,-118 1691,-118"/>
<text text-anchor="middle" x="1758" y="-125" font-family="Helvetica,sans-Serif" font-size="10.00">std_msgs/msg/u_int16.hpp</text>
</a>
</g>
</g>
<!-- Node8&#45;&gt;Node13 -->
<g id="edge13" class="edge">
<title>Node8&#45;&gt;Node13</title>
<path fill="none" stroke="midnightblue" d="M1871.94,-179.48C1849.53,-169.45 1812.09,-152.7 1786.29,-141.15"/>
<polygon fill="midnightblue" stroke="midnightblue" points="1787.58,-137.9 1777.02,-137.01 1784.72,-144.29 1787.58,-137.9"/>
</g>
<!-- Node14 -->
<g id="node14" class="node">
<title>Node14</title>
<g id="a_node14"><a xlink:href="ecat__globals_8hpp.html" target="_top" xlink:title=" ">
<polygon fill="none" stroke="black" points="1919.5,-118 1919.5,-137 2008.5,-137 2008.5,-118 1919.5,-118"/>
<text text-anchor="middle" x="1964" y="-125" font-family="Helvetica,sans-Serif" font-size="10.00">ecat_globals.hpp</text>
</a>
</g>
</g>
<!-- Node8&#45;&gt;Node14 -->
<g id="edge14" class="edge">
<title>Node8&#45;&gt;Node14</title>
<path fill="none" stroke="midnightblue" d="M1901.46,-179.48C1912.95,-170.11 1931.63,-154.88 1945.59,-143.51"/>
<polygon fill="midnightblue" stroke="midnightblue" points="1948.02,-146.04 1953.56,-137.01 1943.6,-140.61 1948.02,-146.04"/>
</g>
<!-- Node34 -->
<g id="node23" class="node">
<title>Node34</title>
<g id="a_node23"><a xlink:title=" ">
<polygon fill="none" stroke="#bfbfbf" points="1673,-56.5 1673,-75.5 1717,-75.5 1717,-56.5 1673,-56.5"/>
<text text-anchor="middle" x="1695" y="-63.5" font-family="Helvetica,sans-Serif" font-size="10.00">vector</text>
</a>
</g>
</g>
<!-- Node8&#45;&gt;Node34 -->
<g id="edge26" class="edge">
<title>Node8&#45;&gt;Node34</title>
<path fill="none" stroke="midnightblue" d="M1886.8,-179.33C1878.75,-163.6 1859.64,-130.31 1834,-112 1825.09,-105.64 1765.03,-87.4 1726.82,-76.2"/>
<polygon fill="midnightblue" stroke="midnightblue" points="1727.74,-72.82 1717.16,-73.37 1725.78,-79.54 1727.74,-72.82"/>
</g>
<!-- Node35 -->
<g id="node24" class="node">
<title>Node35</title>
<g id="a_node24"><a xlink:title=" ">
<polygon fill="none" stroke="#bfbfbf" points="1735.5,-56.5 1735.5,-75.5 1794.5,-75.5 1794.5,-56.5 1735.5,-56.5"/>
<text text-anchor="middle" x="1765" y="-63.5" font-family="Helvetica,sans-Serif" font-size="10.00">functional</text>
</a>
</g>
</g>
<!-- Node8&#45;&gt;Node35 -->
<g id="edge29" class="edge">
<title>Node8&#45;&gt;Node35</title>
<path fill="none" stroke="midnightblue" d="M1890.54,-179.35C1889.27,-163.96 1884.54,-131.58 1867,-112 1850.72,-93.83 1825.75,-82.64 1804.59,-75.97"/>
<polygon fill="midnightblue" stroke="midnightblue" points="1805.45,-72.58 1794.87,-73.13 1803.48,-79.29 1805.45,-72.58"/>
</g>
<!-- Node36 -->
<g id="node25" class="node">
<title>Node36</title>
<g id="a_node25"><a xlink:title=" ">
<polygon fill="none" stroke="#bfbfbf" points="2047.5,-56.5 2047.5,-75.5 2088.5,-75.5 2088.5,-56.5 2047.5,-56.5"/>
<text text-anchor="middle" x="2068" y="-63.5" font-family="Helvetica,sans-Serif" font-size="10.00">string</text>
</a>
</g>
</g>
<!-- Node8&#45;&gt;Node36 -->
<g id="edge30" class="edge">
<title>Node8&#45;&gt;Node36</title>
<path fill="none" stroke="midnightblue" d="M1928.33,-185.32C1981.85,-180.62 2076.22,-168.81 2097,-143 2111.18,-125.39 2096.28,-100.08 2083.13,-83.59"/>
<polygon fill="midnightblue" stroke="midnightblue" points="2085.71,-81.23 2076.58,-75.86 2080.37,-85.75 2085.71,-81.23"/>
</g>
<!-- Node37 -->
<g id="node26" class="node">
<title>Node37</title>
<g id="a_node26"><a xlink:title=" ">
<polygon fill="none" stroke="#bfbfbf" points="2107,-56.5 2107,-75.5 2153,-75.5 2153,-56.5 2107,-56.5"/>
<text text-anchor="middle" x="2130" y="-63.5" font-family="Helvetica,sans-Serif" font-size="10.00">cstdint</text>
</a>
</g>
</g>
<!-- Node8&#45;&gt;Node37 -->
<g id="edge31" class="edge">
<title>Node8&#45;&gt;Node37</title>
<path fill="none" stroke="midnightblue" d="M1928.13,-185.29C1984.34,-180.43 2087.23,-168.26 2113,-143 2128.13,-128.17 2131.11,-103.03 2131.14,-85.75"/>
<polygon fill="midnightblue" stroke="midnightblue" points="2134.64,-85.6 2130.84,-75.71 2127.64,-85.82 2134.64,-85.6"/>
</g>
<!-- Node38 -->
<g id="node27" class="node">
<title>Node38</title>
<g id="a_node27"><a xlink:title=" ">
<polygon fill="none" stroke="#bfbfbf" points="2171.5,-56.5 2171.5,-75.5 2212.5,-75.5 2212.5,-56.5 2171.5,-56.5"/>
<text text-anchor="middle" x="2192" y="-63.5" font-family="Helvetica,sans-Serif" font-size="10.00">ctime</text>
</a>
</g>
</g>
<!-- Node8&#45;&gt;Node38 -->
<g id="edge32" class="edge">
<title>Node8&#45;&gt;Node38</title>
<path fill="none" stroke="midnightblue" d="M1928.42,-184.38C1987.74,-178.1 2100.1,-163.83 2134,-143 2156.7,-129.05 2173.73,-102.72 2183.28,-85.02"/>
<polygon fill="midnightblue" stroke="midnightblue" points="2186.59,-86.24 2188.03,-75.75 2180.36,-83.05 2186.59,-86.24"/>
</g>
<!-- Node39 -->
<g id="node28" class="node">
<title>Node39</title>
<g id="a_node28"><a xlink:title=" ">
<polygon fill="none" stroke="#bfbfbf" points="2230.5,-56.5 2230.5,-75.5 2265.5,-75.5 2265.5,-56.5 2230.5,-56.5"/>
<text text-anchor="middle" x="2248" y="-63.5" font-family="Helvetica,sans-Serif" font-size="10.00">ratio</text>
</a>
</g>
</g>
<!-- Node8&#45;&gt;Node39 -->
<g id="edge33" class="edge">
<title>Node8&#45;&gt;Node39</title>
<path fill="none" stroke="midnightblue" d="M1928.14,-188.3C1982.39,-187.35 2085.3,-180.22 2163,-143 2192.46,-128.89 2219.25,-101.4 2234.58,-83.63"/>
<polygon fill="midnightblue" stroke="midnightblue" points="2237.41,-85.71 2241.15,-75.8 2232.04,-81.21 2237.41,-85.71"/>
</g>
<!-- Node40 -->
<g id="node29" class="node">
<title>Node40</title>
<g id="a_node29"><a xlink:title=" ">
<polygon fill="none" stroke="#bfbfbf" points="2284,-56.5 2284,-75.5 2334,-75.5 2334,-56.5 2284,-56.5"/>
<text text-anchor="middle" x="2309" y="-63.5" font-family="Helvetica,sans-Serif" font-size="10.00">fstream</text>
</a>
</g>
</g>
<!-- Node8&#45;&gt;Node40 -->
<g id="edge34" class="edge">
<title>Node8&#45;&gt;Node40</title>
<path fill="none" stroke="midnightblue" d="M1928.29,-187.89C1987.48,-186.56 2105.7,-179.12 2198,-143 2234.89,-128.56 2271.63,-99.89 2292.22,-82.19"/>
<polygon fill="midnightblue" stroke="midnightblue" points="2294.56,-84.79 2299.77,-75.56 2289.94,-79.53 2294.56,-84.79"/>
</g>
<!-- Node41 -->
<g id="node30" class="node">
<title>Node41</title>
<g id="a_node30"><a xlink:href="gui__pkg_2include_2gui__pkg_2timing_8hpp.html" target="_top" xlink:title=" ">
<polygon fill="none" stroke="black" points="2026.5,-118 2026.5,-137 2087.5,-137 2087.5,-118 2026.5,-118"/>
<text text-anchor="middle" x="2057" y="-125" font-family="Helvetica,sans-Serif" font-size="10.00">timing.hpp</text>
</a>
</g>
</g>
<!-- Node8&#45;&gt;Node41 -->
<g id="edge35" class="edge">
<title>Node8&#45;&gt;Node41</title>
<path fill="none" stroke="midnightblue" d="M1915.39,-179.48C1940.98,-170.52 1982.38,-155.93 2018,-143 2020.1,-142.24 2022.25,-141.45 2024.43,-140.65"/>
<polygon fill="midnightblue" stroke="midnightblue" points="2025.76,-143.89 2033.92,-137.15 2023.33,-137.33 2025.76,-143.89"/>
</g>
<!-- Node8&#45;&gt;Node42 -->
<g id="edge46" class="edge">
<title>Node8&#45;&gt;Node42</title>
<path fill="none" stroke="midnightblue" d="M1853.78,-185.81C1699.51,-176.74 1109.96,-142.08 930.89,-131.55"/>
<polygon fill="midnightblue" stroke="midnightblue" points="930.87,-128.04 920.68,-130.95 930.46,-135.03 930.87,-128.04"/>
</g>
<!-- Node15 -->
<g id="node15" class="node">
<title>Node15</title>
<g id="a_node15"><a xlink:href="ecat__definitions_8hpp.html" target="_top" xlink:title="Writes desired operational mode, to slave in specified index via SDO.">
<polygon fill="none" stroke="red" points="1889,-56.5 1889,-75.5 1991,-75.5 1991,-56.5 1889,-56.5"/>
<text text-anchor="middle" x="1940" y="-63.5" font-family="Helvetica,sans-Serif" font-size="10.00">ecat_definitions.hpp</text>
</a>
</g>
</g>
<!-- Node14&#45;&gt;Node15 -->
<g id="edge15" class="edge">
<title>Node14&#45;&gt;Node15</title>
<path fill="none" stroke="midnightblue" d="M1960.56,-117.98C1957.1,-109.4 1951.67,-95.93 1947.25,-84.98"/>
<polygon fill="midnightblue" stroke="midnightblue" points="1950.42,-83.47 1943.43,-75.51 1943.93,-86.09 1950.42,-83.47"/>
</g>
<!-- Node15&#45;&gt;Node4 -->
<g id="edge24" class="edge">
<title>Node15&#45;&gt;Node4</title>
<path fill="none" stroke="midnightblue" d="M1888.93,-57.75C1884.22,-57.14 1879.52,-56.54 1875,-56 1722.1,-37.66 1538.92,-20.61 1465.16,-13.95"/>
<polygon fill="midnightblue" stroke="midnightblue" points="1465.37,-10.46 1455.09,-13.05 1464.74,-17.43 1465.37,-10.46"/>
</g>
<!-- Node15&#45;&gt;Node5 -->
<g id="edge25" class="edge">
<title>Node15&#45;&gt;Node5</title>
<path fill="none" stroke="midnightblue" d="M1888.92,-60.49C1872.36,-59.04 1853.9,-57.43 1837,-56 1642.82,-39.52 1592.56,-49.99 1400,-20 1398.94,-19.83 1397.86,-19.66 1396.77,-19.47"/>
<polygon fill="midnightblue" stroke="midnightblue" points="1397.4,-16.02 1386.91,-17.53 1396.05,-22.89 1397.4,-16.02"/>
</g>
<!-- Node15&#45;&gt;Node6 -->
<g id="edge16" class="edge">
<title>Node15&#45;&gt;Node6</title>
<path fill="none" stroke="midnightblue" d="M1977.79,-56.49C2015.04,-48.06 2073.83,-34.63 2133.85,-20.24"/>
<polygon fill="midnightblue" stroke="midnightblue" points="2134.98,-23.57 2143.89,-17.83 2133.35,-16.77 2134.98,-23.57"/>
</g>
<!-- Node16 -->
<g id="node16" class="node">
<title>Node16</title>
<g id="a_node16"><a xlink:title=" ">
<polygon fill="none" stroke="#bfbfbf" points="2080,-0.5 2080,-19.5 2126,-19.5 2126,-0.5 2080,-0.5"/>
<text text-anchor="middle" x="2103" y="-7.5" font-family="Helvetica,sans-Serif" font-size="10.00">cstring</text>
</a>
</g>
</g>
<!-- Node15&#45;&gt;Node16 -->
<g id="edge17" class="edge">
<title>Node15&#45;&gt;Node16</title>
<path fill="none" stroke="midnightblue" d="M1965.83,-56.44C1994.06,-47.09 2039.35,-32.09 2070.1,-21.9"/>
<polygon fill="midnightblue" stroke="midnightblue" points="2071.54,-25.11 2079.93,-18.64 2069.34,-18.47 2071.54,-25.11"/>
</g>
<!-- Node17 -->
<g id="node17" class="node">
<title>Node17</title>
<g id="a_node17"><a xlink:title=" ">
<polygon fill="none" stroke="#bfbfbf" points="1679.5,-0.5 1679.5,-19.5 1726.5,-19.5 1726.5,-0.5 1679.5,-0.5"/>
<text text-anchor="middle" x="1703" y="-7.5" font-family="Helvetica,sans-Serif" font-size="10.00">limits.h</text>
</a>
</g>
</g>
<!-- Node15&#45;&gt;Node17 -->
<g id="edge18" class="edge">
<title>Node15&#45;&gt;Node17</title>
<path fill="none" stroke="midnightblue" d="M1898.45,-56.46C1859.22,-48.26 1798.54,-35.21 1736.69,-20.08"/>
<polygon fill="midnightblue" stroke="midnightblue" points="1737.3,-16.62 1726.76,-17.63 1735.63,-23.42 1737.3,-16.62"/>
</g>
<!-- Node18 -->
<g id="node18" class="node">
<title>Node18</title>
<g id="a_node18"><a xlink:title=" ">
<polygon fill="none" stroke="#bfbfbf" points="1744.5,-0.5 1744.5,-19.5 1791.5,-19.5 1791.5,-0.5 1744.5,-0.5"/>
<text text-anchor="middle" x="1768" y="-7.5" font-family="Helvetica,sans-Serif" font-size="10.00">stdlib.h</text>
</a>
</g>
</g>
<!-- Node15&#45;&gt;Node18 -->
<g id="edge19" class="edge">
<title>Node15&#45;&gt;Node18</title>
<path fill="none" stroke="midnightblue" d="M1912.75,-56.44C1882.57,-46.97 1833.92,-31.7 1801.46,-21.5"/>
<polygon fill="midnightblue" stroke="midnightblue" points="1802.12,-18.04 1791.53,-18.39 1800.03,-24.72 1802.12,-18.04"/>
</g>
<!-- Node19 -->
<g id="node19" class="node">
<title>Node19</title>
<g id="a_node19"><a xlink:title=" ">
<polygon fill="none" stroke="#bfbfbf" points="1810,-0.5 1810,-19.5 1866,-19.5 1866,-0.5 1810,-0.5"/>
<text text-anchor="middle" x="1838" y="-7.5" font-family="Helvetica,sans-Serif" font-size="10.00">pthread.h</text>
</a>
</g>
</g>
<!-- Node15&#45;&gt;Node19 -->
<g id="edge20" class="edge">
<title>Node15&#45;&gt;Node19</title>
<path fill="none" stroke="midnightblue" d="M1923.61,-56.32C1907.33,-47.7 1882.13,-34.36 1863.28,-24.39"/>
<polygon fill="midnightblue" stroke="midnightblue" points="1864.82,-21.24 1854.35,-19.65 1861.55,-27.43 1864.82,-21.24"/>
</g>
<!-- Node20 -->
<g id="node20" class="node">
<title>Node20</title>
<g id="a_node20"><a xlink:title=" ">
<polygon fill="none" stroke="#bfbfbf" points="1884,-0.5 1884,-19.5 1930,-19.5 1930,-0.5 1884,-0.5"/>
<text text-anchor="middle" x="1907" y="-7.5" font-family="Helvetica,sans-Serif" font-size="10.00">errno.h</text>
</a>
</g>
</g>
<!-- Node15&#45;&gt;Node20 -->
<g id="edge21" class="edge">
<title>Node15&#45;&gt;Node20</title>
<path fill="none" stroke="midnightblue" d="M1934.55,-56.08C1929.99,-48.61 1923.33,-37.72 1917.71,-28.52"/>
<polygon fill="midnightblue" stroke="midnightblue" points="1920.55,-26.46 1912.35,-19.75 1914.58,-30.11 1920.55,-26.46"/>
</g>
<!-- Node21 -->
<g id="node21" class="node">
<title>Node21</title>
<g id="a_node21"><a xlink:title=" ">
<polygon fill="none" stroke="#bfbfbf" points="1948,-0.5 1948,-19.5 1998,-19.5 1998,-0.5 1948,-0.5"/>
<text text-anchor="middle" x="1973" y="-7.5" font-family="Helvetica,sans-Serif" font-size="10.00">signal.h</text>
</a>
</g>
</g>
<!-- Node15&#45;&gt;Node21 -->
<g id="edge22" class="edge">
<title>Node15&#45;&gt;Node21</title>
<path fill="none" stroke="midnightblue" d="M1945.45,-56.08C1950.01,-48.61 1956.67,-37.72 1962.29,-28.52"/>
<polygon fill="midnightblue" stroke="midnightblue" points="1965.42,-30.11 1967.65,-19.75 1959.45,-26.46 1965.42,-30.11"/>
</g>
<!-- Node22 -->
<g id="node22" class="node">
<title>Node22</title>
<g id="a_node22"><a xlink:title=" ">
<polygon fill="none" stroke="#bfbfbf" points="2016.5,-0.5 2016.5,-19.5 2061.5,-19.5 2061.5,-0.5 2016.5,-0.5"/>
<text text-anchor="middle" x="2039" y="-7.5" font-family="Helvetica,sans-Serif" font-size="10.00">stdio.h</text>
</a>
</g>
</g>
<!-- Node15&#45;&gt;Node22 -->
<g id="edge23" class="edge">
<title>Node15&#45;&gt;Node22</title>
<path fill="none" stroke="midnightblue" d="M1955.91,-56.32C1971.64,-47.74 1995.94,-34.49 2014.21,-24.52"/>
<polygon fill="midnightblue" stroke="midnightblue" points="2016.03,-27.52 2023.13,-19.65 2012.68,-21.37 2016.03,-27.52"/>
</g>
<!-- Node41&#45;&gt;Node4 -->
<g id="edge37" class="edge">
<title>Node41&#45;&gt;Node4</title>
<path fill="none" stroke="midnightblue" d="M2035.27,-117.98C2029.68,-115.91 2023.65,-113.78 2018,-112 1957.55,-92.93 1939.65,-97.45 1880,-76 1860.17,-68.87 1857.3,-61.68 1837,-56 1702.87,-18.44 1535.49,-12.04 1465.35,-11.08"/>
<polygon fill="midnightblue" stroke="midnightblue" points="1465.37,-7.58 1455.33,-10.98 1465.3,-14.58 1465.37,-7.58"/>
</g>
<!-- Node41&#45;&gt;Node5 -->
<g id="edge38" class="edge">
<title>Node41&#45;&gt;Node5</title>
<path fill="none" stroke="midnightblue" d="M2035.75,-117.9C2030.04,-115.78 2023.84,-113.65 2018,-112 1939.09,-89.64 1913.45,-105.71 1837,-76 1821.01,-69.79 1820.3,-61.34 1804,-56 1632.71,0.17 1578.03,-48.33 1400,-20 1398.94,-19.83 1397.86,-19.65 1396.77,-19.46"/>
<polygon fill="midnightblue" stroke="midnightblue" points="1397.4,-16.01 1386.92,-17.51 1396.05,-22.88 1397.4,-16.01"/>
</g>
<!-- Node41&#45;&gt;Node6 -->
<g id="edge45" class="edge">
<title>Node41&#45;&gt;Node6</title>
<path fill="none" stroke="midnightblue" d="M2050.63,-117.86C2041.02,-103.67 2025.33,-75.11 2039,-56 2044.75,-47.97 2096.79,-31.9 2133.78,-21.29"/>
<polygon fill="midnightblue" stroke="midnightblue" points="2135.1,-24.56 2143.76,-18.46 2133.19,-17.82 2135.1,-24.56"/>
</g>
<!-- Node41&#45;&gt;Node34 -->
<g id="edge36" class="edge">
<title>Node41&#45;&gt;Node34</title>
<path fill="none" stroke="midnightblue" d="M2036.64,-117.91C2030.71,-115.69 2024.18,-113.51 2018,-112 1894.49,-81.84 1856.6,-100.74 1727.17,-75.69"/>
<polygon fill="midnightblue" stroke="midnightblue" points="1727.77,-72.24 1717.27,-73.73 1726.4,-79.11 1727.77,-72.24"/>
</g>
<!-- Node41&#45;&gt;Node35 -->
<g id="edge39" class="edge">
<title>Node41&#45;&gt;Node35</title>
<path fill="none" stroke="midnightblue" d="M2036.18,-117.95C2030.37,-115.78 2024,-113.62 2018,-112 1926.99,-87.47 1901.63,-93.45 1809,-76 1807.56,-75.73 1806.1,-75.45 1804.62,-75.16"/>
<polygon fill="midnightblue" stroke="midnightblue" points="1805.29,-71.73 1794.8,-73.23 1803.93,-78.6 1805.29,-71.73"/>
</g>
<!-- Node41&#45;&gt;Node36 -->
<g id="edge40" class="edge">
<title>Node41&#45;&gt;Node36</title>
<path fill="none" stroke="midnightblue" d="M2058.58,-117.98C2060.13,-109.58 2062.55,-96.48 2064.55,-85.66"/>
<polygon fill="midnightblue" stroke="midnightblue" points="2068.05,-85.98 2066.43,-75.51 2061.17,-84.71 2068.05,-85.98"/>
</g>
<!-- Node41&#45;&gt;Node37 -->
<g id="edge41" class="edge">
<title>Node41&#45;&gt;Node37</title>
<path fill="none" stroke="midnightblue" d="M2067.46,-117.98C2078.95,-108.61 2097.63,-93.38 2111.59,-82.01"/>
<polygon fill="midnightblue" stroke="midnightblue" points="2114.02,-84.54 2119.56,-75.51 2109.6,-79.11 2114.02,-84.54"/>
</g>
<!-- Node41&#45;&gt;Node38 -->
<g id="edge42" class="edge">
<title>Node41&#45;&gt;Node38</title>
<path fill="none" stroke="midnightblue" d="M2076.34,-117.98C2099.1,-107.95 2137.09,-91.2 2163.29,-79.65"/>
<polygon fill="midnightblue" stroke="midnightblue" points="2164.95,-82.74 2172.69,-75.51 2162.13,-76.34 2164.95,-82.74"/>
</g>
<!-- Node41&#45;&gt;Node39 -->
<g id="edge43" class="edge">
<title>Node41&#45;&gt;Node39</title>
<path fill="none" stroke="midnightblue" d="M2086.01,-117.97C2117.11,-108.75 2168.15,-93.39 2220.6,-76.38"/>
<polygon fill="midnightblue" stroke="midnightblue" points="2221.98,-79.61 2230.41,-73.19 2219.81,-72.96 2221.98,-79.61"/>
</g>
<!-- Node41&#45;&gt;Node40 -->
<g id="edge44" class="edge">
<title>Node41&#45;&gt;Node40</title>
<path fill="none" stroke="midnightblue" d="M2087.76,-119.69C2128.22,-110.67 2201.78,-94.02 2274.05,-76.18"/>
<polygon fill="midnightblue" stroke="midnightblue" points="2274.91,-79.57 2283.77,-73.77 2273.22,-72.78 2274.91,-79.57"/>
</g>
<!-- Node43&#45;&gt;Node42 -->
<g id="edge55" class="edge">
<title>Node43&#45;&gt;Node42</title>
<path fill="none" stroke="midnightblue" d="M467.7,-180.88C472.53,-180.21 477.36,-179.58 482,-179 635.86,-159.86 676.82,-172.71 829,-143 833.51,-142.12 838.21,-141.02 842.83,-139.81"/>
<polygon fill="midnightblue" stroke="midnightblue" points="844.04,-143.11 852.75,-137.07 842.18,-136.36 844.04,-143.11"/>
</g>
<!-- Node44 -->
<g id="node33" class="node">
<title>Node44</title>
<g id="a_node33"><a xlink:title=" ">
<polygon fill="none" stroke="#bfbfbf" points="80,-118 80,-137 136,-137 136,-118 80,-118"/>
<text text-anchor="middle" x="108" y="-125" font-family="Helvetica,sans-Serif" font-size="10.00">QPixmap</text>
</a>
</g>
</g>
<!-- Node43&#45;&gt;Node44 -->
<g id="edge48" class="edge">
<title>Node43&#45;&gt;Node44</title>
<path fill="none" stroke="midnightblue" d="M372.3,-180.46C296.48,-168.44 155.86,-145.98 145,-143 142.41,-142.29 139.75,-141.46 137.1,-140.56"/>
<polygon fill="midnightblue" stroke="midnightblue" points="138.3,-137.27 127.71,-137.11 135.89,-143.84 138.3,-137.27"/>
</g>
<!-- Node45 -->
<g id="node34" class="node">
<title>Node45</title>
<g id="a_node34"><a xlink:title=" ">
<polygon fill="none" stroke="#bfbfbf" points="154.5,-118 154.5,-137 205.5,-137 205.5,-118 154.5,-118"/>
<text text-anchor="middle" x="180" y="-125" font-family="Helvetica,sans-Serif" font-size="10.00">QImage</text>
</a>
</g>
</g>
<!-- Node43&#45;&gt;Node45 -->
<g id="edge49" class="edge">
<title>Node43&#45;&gt;Node45</title>
<path fill="none" stroke="midnightblue" d="M372.15,-179.97C330.2,-172.35 267.84,-159.6 215,-143 212.86,-142.33 210.67,-141.58 208.47,-140.78"/>
<polygon fill="midnightblue" stroke="midnightblue" points="209.62,-137.47 199.03,-137.1 207.08,-143.99 209.62,-137.47"/>
</g>
<!-- Node46 -->
<g id="node35" class="node">
<title>Node46</title>
<g id="a_node35"><a xlink:title=" ">
<polygon fill="none" stroke="#bfbfbf" points="224,-118 224,-137 278,-137 278,-118 224,-118"/>
<text text-anchor="middle" x="251" y="-125" font-family="Helvetica,sans-Serif" font-size="10.00">QThread</text>
</a>
</g>
</g>
<!-- Node43&#45;&gt;Node46 -->
<g id="edge50" class="edge">
<title>Node43&#45;&gt;Node46</title>
<path fill="none" stroke="midnightblue" d="M393.35,-179.47C366.38,-170.73 323.58,-156.54 287,-143 285.15,-142.32 283.26,-141.6 281.35,-140.86"/>
<polygon fill="midnightblue" stroke="midnightblue" points="282.45,-137.54 271.86,-137.14 279.89,-144.05 282.45,-137.54"/>
</g>
<!-- Node47 -->
<g id="node36" class="node">
<title>Node47</title>
<g id="a_node36"><a xlink:title=" ">
<polygon fill="none" stroke="#bfbfbf" points="296,-118 296,-137 402,-137 402,-118 296,-118"/>
<text text-anchor="middle" x="349" y="-125" font-family="Helvetica,sans-Serif" font-size="10.00">opencv2/opencv.hpp</text>
</a>
</g>
</g>
<!-- Node43&#45;&gt;Node47 -->
<g id="edge51" class="edge">
<title>Node43&#45;&gt;Node47</title>
<path fill="none" stroke="midnightblue" d="M409.83,-179.48C398.65,-170.11 380.48,-154.88 366.91,-143.51"/>
<polygon fill="midnightblue" stroke="midnightblue" points="369.07,-140.75 359.15,-137.01 364.57,-146.11 369.07,-140.75"/>
</g>
<!-- Node48 -->
<g id="node37" class="node">
<title>Node48</title>
<g id="a_node37"><a xlink:title=" ">
<polygon fill="none" stroke="#bfbfbf" points="420.5,-118 420.5,-137 559.5,-137 559.5,-118 420.5,-118"/>
<text text-anchor="middle" x="490" y="-125" font-family="Helvetica,sans-Serif" font-size="10.00">opencv2/highgui/highgui.hpp</text>
</a>
</g>
</g>
<!-- Node43&#45;&gt;Node48 -->
<g id="edge52" class="edge">
<title>Node43&#45;&gt;Node48</title>
<path fill="none" stroke="midnightblue" d="M430.03,-179.48C441.05,-170.11 458.96,-154.88 472.34,-143.51"/>
<polygon fill="midnightblue" stroke="midnightblue" points="474.64,-146.15 479.99,-137.01 470.1,-140.82 474.64,-146.15"/>
</g>
<!-- Node49 -->
<g id="node38" class="node">
<title>Node49</title>
<g id="a_node38"><a xlink:title=" ">
<polygon fill="none" stroke="#bfbfbf" points="577.5,-118 577.5,-137 686.5,-137 686.5,-118 577.5,-118"/>
<text text-anchor="middle" x="632" y="-125" font-family="Helvetica,sans-Serif" font-size="10.00">opencv2/imgproc.hpp</text>
</a>
</g>
</g>
<!-- Node43&#45;&gt;Node49 -->
<g id="edge53" class="edge">
<title>Node43&#45;&gt;Node49</title>
<path fill="none" stroke="midnightblue" d="M450.37,-179.48C487.61,-169.03 550.81,-151.29 591.98,-139.73"/>
<polygon fill="midnightblue" stroke="midnightblue" points="593,-143.08 601.68,-137.01 591.11,-136.34 593,-143.08"/>
</g>
<!-- Node50 -->
<g id="node39" class="node">
<title>Node50</title>
<g id="a_node39"><a xlink:title=" ">
<polygon fill="none" stroke="#bfbfbf" points="704.5,-118 704.5,-137 819.5,-137 819.5,-118 704.5,-118"/>
<text text-anchor="middle" x="762" y="-125" font-family="Helvetica,sans-Serif" font-size="10.00">opencv2/core/core.hpp</text>
</a>
</g>
</g>
<!-- Node43&#45;&gt;Node50 -->
<g id="edge54" class="edge">
<title>Node43&#45;&gt;Node50</title>
<path fill="none" stroke="midnightblue" d="M467.51,-181.06C522.62,-172.82 616.13,-158.27 696,-143 702.13,-141.83 708.55,-140.52 714.89,-139.18"/>
<polygon fill="midnightblue" stroke="midnightblue" points="715.69,-142.59 724.73,-137.06 714.21,-135.74 715.69,-142.59"/>
</g>
<!-- Node59&#45;&gt;Node2 -->
<g id="edge69" class="edge">
<title>Node59&#45;&gt;Node2</title>
<path fill="none" stroke="midnightblue" d="M192.68,-235.47C156.85,-225.08 108.62,-211.08 75.18,-201.37"/>
<polygon fill="midnightblue" stroke="midnightblue" points="75.89,-197.93 65.31,-198.51 73.94,-204.66 75.89,-197.93"/>
</g>
<!-- Node59&#45;&gt;Node43 -->
<g id="edge71" class="edge">
<title>Node59&#45;&gt;Node43</title>
<path fill="none" stroke="midnightblue" d="M283.42,-235.4C314.22,-225.16 355.41,-211.47 384.48,-201.81"/>
<polygon fill="midnightblue" stroke="midnightblue" points="385.83,-205.05 394.22,-198.57 383.62,-198.4 385.83,-205.05"/>
</g>
<!-- Node59&#45;&gt;Node52 -->
<g id="edge67" class="edge">
<title>Node59&#45;&gt;Node52</title>
<path fill="none" stroke="midnightblue" d="M258.3,-235.4C269.45,-226.31 283.95,-214.49 295.36,-205.19"/>
<polygon fill="midnightblue" stroke="midnightblue" points="297.84,-207.69 303.38,-198.66 293.42,-202.26 297.84,-207.69"/>
</g>
<!-- Node60 -->
<g id="node49" class="node">
<title>Node60</title>
<g id="a_node49"><a xlink:title=" ">
<polygon fill="none" stroke="#bfbfbf" points="90,-179.5 90,-198.5 208,-198.5 208,-179.5 90,-179.5"/>
<text text-anchor="middle" x="149" y="-186.5" font-family="Helvetica,sans-Serif" font-size="10.00">ui_endoscope_viewer.h</text>
</a>
</g>
</g>
<!-- Node59&#45;&gt;Node60 -->
<g id="edge68" class="edge">
<title>Node59&#45;&gt;Node60</title>
<path fill="none" stroke="midnightblue" d="M219.2,-235.4C204.59,-225.95 185.43,-213.56 170.82,-204.11"/>
<polygon fill="midnightblue" stroke="midnightblue" points="172.68,-201.15 162.39,-198.66 168.88,-207.03 172.68,-201.15"/>
</g>
<!-- Node61 -->
<g id="node50" class="node">
<title>Node61</title>
<g id="a_node50"><a xlink:title=" ">
<polygon fill="none" stroke="#bfbfbf" points="226.5,-179.5 226.5,-198.5 255.5,-198.5 255.5,-179.5 226.5,-179.5"/>
<text text-anchor="middle" x="241" y="-186.5" font-family="Helvetica,sans-Serif" font-size="10.00">Qt</text>
</a>
</g>
</g>
<!-- Node59&#45;&gt;Node61 -->
<g id="edge70" class="edge">
<title>Node59&#45;&gt;Node61</title>
<path fill="none" stroke="midnightblue" d="M241,-235.4C241,-227.47 241,-217.46 241,-208.86"/>
<polygon fill="midnightblue" stroke="midnightblue" points="244.5,-208.66 241,-198.66 237.5,-208.66 244.5,-208.66"/>
</g>
</g>
</svg>
