<?xml version="1.0" encoding="UTF-8" standalone="no"?>
<!DOCTYPE svg PUBLIC "-//W3C//DTD SVG 1.1//EN"
 "http://www.w3.org/Graphics/SVG/1.1/DTD/svg11.dtd">
<!-- Generated by graphviz version 2.49.3 (20211027.1534)
 -->
<!-- Title: src/gui_pkg/src/main.cpp Pages: 1 -->
<svg width="2175pt" height="274pt"
 viewBox="0.00 0.00 2175.44 274.00" xmlns="http://www.w3.org/2000/svg" xmlns:xlink="http://www.w3.org/1999/xlink">
<g id="graph0" class="graph" transform="scale(1 1) rotate(0) translate(4 270)">
<title>src/gui_pkg/src/main.cpp</title>
<!-- Node1 -->
<g id="node1" class="node">
<title>Node1</title>
<g id="a_node1"><a xlink:title=" ">
<polygon fill="#bfbfbf" stroke="black" points="403,-246.5 403,-265.5 528,-265.5 528,-246.5 403,-246.5"/>
<text text-anchor="middle" x="465.5" y="-253.5" font-family="Helvetica,sans-Serif" font-size="10.00">src/gui_pkg/src/main.cpp</text>
</a>
</g>
</g>
<!-- Node2 -->
<g id="node2" class="node">
<title>Node2</title>
<g id="a_node2"><a xlink:title=" ">
<polygon fill="none" stroke="#bfbfbf" points="224.5,-123.5 224.5,-142.5 296.5,-142.5 296.5,-123.5 224.5,-123.5"/>
<text text-anchor="middle" x="260.5" y="-130.5" font-family="Helvetica,sans-Serif" font-size="10.00">QApplication</text>
</a>
</g>
</g>
<!-- Node1&#45;&gt;Node2 -->
<g id="edge1" class="edge">
<title>Node1&#45;&gt;Node2</title>
<path fill="none" stroke="midnightblue" d="M451.08,-246.49C416.18,-225.89 326.83,-173.15 284.04,-147.89"/>
<polygon fill="midnightblue" stroke="midnightblue" points="285.56,-144.73 275.17,-142.66 282.01,-150.76 285.56,-144.73"/>
</g>
<!-- Node3 -->
<g id="node3" class="node">
<title>Node3</title>
<g id="a_node3"><a xlink:href="main__window_8hpp.html" target="_top" xlink:title=" ">
<polygon fill="none" stroke="black" points="1200,-179.5 1200,-209.5 1297,-209.5 1297,-179.5 1200,-179.5"/>
<text text-anchor="start" x="1208" y="-197.5" font-family="Helvetica,sans-Serif" font-size="10.00">../include/gui_pkg</text>
<text text-anchor="middle" x="1248.5" y="-186.5" font-family="Helvetica,sans-Serif" font-size="10.00">/main_window.hpp</text>
</a>
</g>
</g>
<!-- Node1&#45;&gt;Node3 -->
<g id="edge2" class="edge">
<title>Node1&#45;&gt;Node3</title>
<path fill="none" stroke="midnightblue" d="M528.25,-250.23C676.24,-238.99 1045.4,-210.93 1189.53,-199.98"/>
<polygon fill="midnightblue" stroke="midnightblue" points="1190.22,-203.44 1199.92,-199.19 1189.69,-196.46 1190.22,-203.44"/>
</g>
<!-- Node39 -->
<g id="node39" class="node">
<title>Node39</title>
<g id="a_node39"><a xlink:href="endoscope__viewer_8hpp.html" target="_top" xlink:title=" ">
<polygon fill="none" stroke="black" points="406,-179.5 406,-209.5 525,-209.5 525,-179.5 406,-179.5"/>
<text text-anchor="start" x="414" y="-197.5" font-family="Helvetica,sans-Serif" font-size="10.00">../include/gui_pkg</text>
<text text-anchor="middle" x="465.5" y="-186.5" font-family="Helvetica,sans-Serif" font-size="10.00">/endoscope_viewer.hpp</text>
</a>
</g>
</g>
<!-- Node1&#45;&gt;Node39 -->
<g id="edge54" class="edge">
<title>Node1&#45;&gt;Node39</title>
<path fill="none" stroke="midnightblue" d="M465.5,-246.48C465.5,-239.47 465.5,-229.19 465.5,-219.7"/>
<polygon fill="midnightblue" stroke="midnightblue" points="469,-219.52 465.5,-209.52 462,-219.52 469,-219.52"/>
</g>
<!-- Node3&#45;&gt;Node2 -->
<g id="edge47" class="edge">
<title>Node3&#45;&gt;Node2</title>
<path fill="none" stroke="midnightblue" d="M1199.94,-193.36C1061.67,-192.43 653.94,-186.07 306.77,-142.97"/>
<polygon fill="midnightblue" stroke="midnightblue" points="307.13,-139.49 296.78,-141.72 306.26,-146.44 307.13,-139.49"/>
</g>
<!-- Node4 -->
<g id="node4" class="node">
<title>Node4</title>
<g id="a_node4"><a xlink:title=" ">
<polygon fill="none" stroke="#bfbfbf" points="2010.5,-0.5 2010.5,-19.5 2056.5,-19.5 2056.5,-0.5 2010.5,-0.5"/>
<text text-anchor="middle" x="2033.5" y="-7.5" font-family="Helvetica,sans-Serif" font-size="10.00">chrono</text>
</a>
</g>
</g>
<!-- Node3&#45;&gt;Node4 -->
<g id="edge3" class="edge">
<title>Node3&#45;&gt;Node4</title>
<path fill="none" stroke="midnightblue" d="M1297.02,-191.71C1477.94,-184.53 2105.7,-154.86 2160.5,-87 2189.84,-50.67 2113.5,-27.62 2066.76,-17.3"/>
<polygon fill="midnightblue" stroke="midnightblue" points="2067.22,-13.82 2056.71,-15.18 2065.77,-20.67 2067.22,-13.82"/>
</g>
<!-- Node5 -->
<g id="node5" class="node">
<title>Node5</title>
<g id="a_node5"><a xlink:title=" ">
<polygon fill="none" stroke="#bfbfbf" points="856,-0.5 856,-19.5 907,-19.5 907,-0.5 856,-0.5"/>
<text text-anchor="middle" x="881.5" y="-7.5" font-family="Helvetica,sans-Serif" font-size="10.00">memory</text>
</a>
</g>
</g>
<!-- Node3&#45;&gt;Node5 -->
<g id="edge4" class="edge">
<title>Node3&#45;&gt;Node5</title>
<path fill="none" stroke="midnightblue" d="M1199.85,-188.69C1098.66,-177.57 871.12,-146.38 825.5,-87 817.11,-76.07 819.55,-68.42 825.5,-56 831.75,-42.95 843.84,-32.49 855.18,-24.95"/>
<polygon fill="midnightblue" stroke="midnightblue" points="857.31,-27.75 864,-19.54 853.65,-21.79 857.31,-27.75"/>
</g>
<!-- Node6 -->
<g id="node6" class="node">
<title>Node6</title>
<g id="a_node6"><a xlink:title=" ">
<polygon fill="none" stroke="#bfbfbf" points="762.5,-0.5 762.5,-19.5 816.5,-19.5 816.5,-0.5 762.5,-0.5"/>
<text text-anchor="middle" x="789.5" y="-7.5" font-family="Helvetica,sans-Serif" font-size="10.00">iostream</text>
</a>
</g>
</g>
<!-- Node3&#45;&gt;Node6 -->
<g id="edge5" class="edge">
<title>Node3&#45;&gt;Node6</title>
<path fill="none" stroke="midnightblue" d="M1199.7,-190.18C1113.35,-183.75 937.43,-167.99 881.5,-143 846.38,-127.31 837.17,-118.78 815.5,-87 803.5,-69.4 796.56,-45.75 792.92,-29.53"/>
<polygon fill="midnightblue" stroke="midnightblue" points="796.33,-28.75 790.9,-19.65 789.48,-30.15 796.33,-28.75"/>
</g>
<!-- Node7 -->
<g id="node7" class="node">
<title>Node7</title>
<g id="a_node7"><a xlink:title=" ">
<polygon fill="none" stroke="#bfbfbf" points="2061.5,-62 2061.5,-81 2151.5,-81 2151.5,-62 2061.5,-62"/>
<text text-anchor="middle" x="2106.5" y="-69" font-family="Helvetica,sans-Serif" font-size="10.00">rclcpp/rclcpp.hpp</text>
</a>
</g>
</g>
<!-- Node3&#45;&gt;Node7 -->
<g id="edge6" class="edge">
<title>Node3&#45;&gt;Node7</title>
<path fill="none" stroke="midnightblue" d="M1297.38,-192.25C1399.4,-189.02 1642.16,-177.98 1842.5,-143 1925.57,-128.49 2020.56,-100.14 2070.87,-84.17"/>
<polygon fill="midnightblue" stroke="midnightblue" points="2072.15,-87.43 2080.61,-81.05 2070.02,-80.76 2072.15,-87.43"/>
</g>
<!-- Node8 -->
<g id="node8" class="node">
<title>Node8</title>
<g id="a_node8"><a xlink:href="gui__node_8hpp.html" target="_top" xlink:title=" ">
<polygon fill="none" stroke="black" points="1110.5,-123.5 1110.5,-142.5 1184.5,-142.5 1184.5,-123.5 1110.5,-123.5"/>
<text text-anchor="middle" x="1147.5" y="-130.5" font-family="Helvetica,sans-Serif" font-size="10.00">gui_node.hpp</text>
</a>
</g>
</g>
<!-- Node3&#45;&gt;Node8 -->
<g id="edge7" class="edge">
<title>Node3&#45;&gt;Node8</title>
<path fill="none" stroke="midnightblue" d="M1224.56,-179.4C1208.37,-169.86 1187.09,-157.32 1171,-147.84"/>
<polygon fill="midnightblue" stroke="midnightblue" points="1172.59,-144.72 1162.2,-142.66 1169.04,-150.75 1172.59,-144.72"/>
</g>
<!-- Node22 -->
<g id="node22" class="node">
<title>Node22</title>
<g id="a_node22"><a xlink:href="gui__globals_8hpp.html" target="_top" xlink:title=" ">
<polygon fill="none" stroke="black" points="834,-62 834,-81 917,-81 917,-62 834,-62"/>
<text text-anchor="middle" x="875.5" y="-69" font-family="Helvetica,sans-Serif" font-size="10.00">gui_globals.hpp</text>
</a>
</g>
</g>
<!-- Node3&#45;&gt;Node22 -->
<g id="edge44" class="edge">
<title>Node3&#45;&gt;Node22</title>
<path fill="none" stroke="midnightblue" d="M1204.98,-179.38C1130.62,-155.26 980.45,-106.55 911.54,-84.19"/>
<polygon fill="midnightblue" stroke="midnightblue" points="912.58,-80.85 901.99,-81.09 910.42,-87.51 912.58,-80.85"/>
</g>
<!-- Node23 -->
<g id="node23" class="node">
<title>Node23</title>
<g id="a_node23"><a xlink:href="video__capture_8hpp.html" target="_top" xlink:title=" ">
<polygon fill="none" stroke="black" points="498,-123.5 498,-142.5 593,-142.5 593,-123.5 498,-123.5"/>
<text text-anchor="middle" x="545.5" y="-130.5" font-family="Helvetica,sans-Serif" font-size="10.00">video_capture.hpp</text>
</a>
</g>
</g>
<!-- Node3&#45;&gt;Node23 -->
<g id="edge35" class="edge">
<title>Node3&#45;&gt;Node23</title>
<path fill="none" stroke="midnightblue" d="M1199.92,-189.82C1096.09,-181.87 844.86,-162.29 634.5,-143 624.41,-142.07 613.68,-141.04 603.29,-140"/>
<polygon fill="midnightblue" stroke="midnightblue" points="603.36,-136.49 593.06,-138.98 602.66,-143.46 603.36,-136.49"/>
</g>
<!-- Node31 -->
<g id="node31" class="node">
<title>Node31</title>
<g id="a_node31"><a xlink:title=" ">
<polygon fill="none" stroke="#bfbfbf" points="1203,-123.5 1203,-142.5 1294,-142.5 1294,-123.5 1203,-123.5"/>
<text text-anchor="middle" x="1248.5" y="-130.5" font-family="Helvetica,sans-Serif" font-size="10.00">ui_mainwindow.h</text>
</a>
</g>
</g>
<!-- Node3&#45;&gt;Node31 -->
<g id="edge45" class="edge">
<title>Node3&#45;&gt;Node31</title>
<path fill="none" stroke="midnightblue" d="M1248.5,-179.4C1248.5,-171.47 1248.5,-161.46 1248.5,-152.86"/>
<polygon fill="midnightblue" stroke="midnightblue" points="1252,-152.66 1248.5,-142.66 1245,-152.66 1252,-152.66"/>
</g>
<!-- Node32 -->
<g id="node32" class="node">
<title>Node32</title>
<g id="a_node32"><a xlink:title=" ">
<polygon fill="none" stroke="#bfbfbf" points="643.5,-123.5 643.5,-142.5 723.5,-142.5 723.5,-123.5 643.5,-123.5"/>
<text text-anchor="middle" x="683.5" y="-130.5" font-family="Helvetica,sans-Serif" font-size="10.00">QMainWindow</text>
</a>
</g>
</g>
<!-- Node3&#45;&gt;Node32 -->
<g id="edge46" class="edge">
<title>Node3&#45;&gt;Node32</title>
<path fill="none" stroke="midnightblue" d="M1199.97,-188.97C1111.26,-180.61 916.98,-161.85 753.5,-143 747.19,-142.27 740.56,-141.47 734.01,-140.65"/>
<polygon fill="midnightblue" stroke="midnightblue" points="734.19,-137.15 723.83,-139.37 733.31,-144.09 734.19,-137.15"/>
</g>
<!-- Node33 -->
<g id="node33" class="node">
<title>Node33</title>
<g id="a_node33"><a xlink:title=" ">
<polygon fill="none" stroke="#bfbfbf" points="1312,-123.5 1312,-142.5 1421,-142.5 1421,-123.5 1312,-123.5"/>
<text text-anchor="middle" x="1366.5" y="-130.5" font-family="Helvetica,sans-Serif" font-size="10.00">QStandardItemModel</text>
</a>
</g>
</g>
<!-- Node3&#45;&gt;Node33 -->
<g id="edge48" class="edge">
<title>Node3&#45;&gt;Node33</title>
<path fill="none" stroke="midnightblue" d="M1276.46,-179.4C1295.82,-169.64 1321.41,-156.74 1340.36,-147.18"/>
<polygon fill="midnightblue" stroke="midnightblue" points="1341.98,-150.29 1349.33,-142.66 1338.83,-144.04 1341.98,-150.29"/>
</g>
<!-- Node34 -->
<g id="node34" class="node">
<title>Node34</title>
<g id="a_node34"><a xlink:title=" ">
<polygon fill="none" stroke="#bfbfbf" points="1439.5,-123.5 1439.5,-142.5 1509.5,-142.5 1509.5,-123.5 1439.5,-123.5"/>
<text text-anchor="middle" x="1474.5" y="-130.5" font-family="Helvetica,sans-Serif" font-size="10.00">QTableView</text>
</a>
</g>
</g>
<!-- Node3&#45;&gt;Node34 -->
<g id="edge49" class="edge">
<title>Node3&#45;&gt;Node34</title>
<path fill="none" stroke="midnightblue" d="M1297.26,-180.66C1337.52,-170.06 1394.08,-155.17 1432.39,-145.09"/>
<polygon fill="midnightblue" stroke="midnightblue" points="1433.42,-148.43 1442.2,-142.5 1431.64,-141.67 1433.42,-148.43"/>
</g>
<!-- Node35 -->
<g id="node35" class="node">
<title>Node35</title>
<g id="a_node35"><a xlink:title=" ">
<polygon fill="none" stroke="#bfbfbf" points="1528,-123.5 1528,-142.5 1605,-142.5 1605,-123.5 1528,-123.5"/>
<text text-anchor="middle" x="1566.5" y="-130.5" font-family="Helvetica,sans-Serif" font-size="10.00">QHeaderView</text>
</a>
</g>
</g>
<!-- Node3&#45;&gt;Node35 -->
<g id="edge50" class="edge">
<title>Node3&#45;&gt;Node35</title>
<path fill="none" stroke="midnightblue" d="M1297.28,-184.38C1349.29,-174.66 1434.37,-158.75 1518.06,-143.08"/>
<polygon fill="midnightblue" stroke="midnightblue" points="1518.8,-146.5 1527.99,-141.22 1517.51,-139.62 1518.8,-146.5"/>
</g>
<!-- Node36 -->
<g id="node36" class="node">
<title>Node36</title>
<g id="a_node36"><a xlink:title=" ">
<polygon fill="none" stroke="#bfbfbf" points="1623.5,-123.5 1623.5,-142.5 1673.5,-142.5 1673.5,-123.5 1623.5,-123.5"/>
<text text-anchor="middle" x="1648.5" y="-130.5" font-family="Helvetica,sans-Serif" font-size="10.00">QString</text>
</a>
</g>
</g>
<!-- Node3&#45;&gt;Node36 -->
<g id="edge51" class="edge">
<title>Node3&#45;&gt;Node36</title>
<path fill="none" stroke="midnightblue" d="M1297.07,-188.7C1365.54,-181.52 1494.47,-166.46 1613.33,-143.02"/>
<polygon fill="midnightblue" stroke="midnightblue" points="1614.21,-146.42 1623.33,-141.03 1612.84,-139.55 1614.21,-146.42"/>
</g>
<!-- Node37 -->
<g id="node37" class="node">
<title>Node37</title>
<g id="a_node37"><a xlink:title=" ">
<polygon fill="none" stroke="#bfbfbf" points="1691.5,-123.5 1691.5,-142.5 1765.5,-142.5 1765.5,-123.5 1691.5,-123.5"/>
<text text-anchor="middle" x="1728.5" y="-130.5" font-family="Helvetica,sans-Serif" font-size="10.00">QTextStream</text>
</a>
</g>
</g>
<!-- Node3&#45;&gt;Node37 -->
<g id="edge52" class="edge">
<title>Node3&#45;&gt;Node37</title>
<path fill="none" stroke="midnightblue" d="M1297.16,-189.08C1375.79,-181.66 1535.88,-165.44 1681.38,-143.07"/>
<polygon fill="midnightblue" stroke="midnightblue" points="1682.04,-146.51 1691.39,-141.52 1680.97,-139.59 1682.04,-146.51"/>
</g>
<!-- Node38 -->
<g id="node38" class="node">
<title>Node38</title>
<g id="a_node38"><a xlink:title=" ">
<polygon fill="none" stroke="#bfbfbf" points="1784,-123.5 1784,-142.5 1833,-142.5 1833,-123.5 1784,-123.5"/>
<text text-anchor="middle" x="1808.5" y="-130.5" font-family="Helvetica,sans-Serif" font-size="10.00">QTimer</text>
</a>
</g>
</g>
<!-- Node3&#45;&gt;Node38 -->
<g id="edge53" class="edge">
<title>Node3&#45;&gt;Node38</title>
<path fill="none" stroke="midnightblue" d="M1297.09,-191.48C1388.62,-187.12 1592.89,-174.64 1773.76,-142.83"/>
<polygon fill="midnightblue" stroke="midnightblue" points="1774.49,-146.26 1783.72,-141.06 1773.26,-139.37 1774.49,-146.26"/>
</g>
<!-- Node8&#45;&gt;Node4 -->
<g id="edge15" class="edge">
<title>Node8&#45;&gt;Node4</title>
<path fill="none" stroke="midnightblue" d="M1184.62,-124.38C1187.95,-123.85 1191.28,-123.38 1194.5,-123 1285.08,-112.4 1943.86,-144.69 2014.5,-87 2031.17,-73.39 2034.49,-47.56 2034.6,-29.83"/>
<polygon fill="midnightblue" stroke="midnightblue" points="2038.09,-29.68 2034.32,-19.78 2031.1,-29.87 2038.09,-29.68"/>
</g>
<!-- Node8&#45;&gt;Node5 -->
<g id="edge16" class="edge">
<title>Node8&#45;&gt;Node5</title>
<path fill="none" stroke="midnightblue" d="M1110.23,-124.55C1078.29,-117.36 1031.55,-104.92 993.5,-87 957.81,-70.19 920.77,-42.75 899.49,-25.84"/>
<polygon fill="midnightblue" stroke="midnightblue" points="901.62,-23.06 891.64,-19.51 897.23,-28.51 901.62,-23.06"/>
</g>
<!-- Node8&#45;&gt;Node7 -->
<g id="edge8" class="edge">
<title>Node8&#45;&gt;Node7</title>
<path fill="none" stroke="midnightblue" d="M1184.62,-124.37C1187.95,-123.84 1191.28,-123.37 1194.5,-123 1571.41,-79.2 1671.85,-140.54 2047.5,-87 2053.8,-86.1 2060.42,-84.82 2066.84,-83.39"/>
<polygon fill="midnightblue" stroke="midnightblue" points="2067.79,-86.76 2076.71,-81.04 2066.17,-79.95 2067.79,-86.76"/>
</g>
<!-- Node9 -->
<g id="node9" class="node">
<title>Node9</title>
<g id="a_node9"><a xlink:title=" ">
<polygon fill="none" stroke="#bfbfbf" points="1319.5,-62 1319.5,-81 1449.5,-81 1449.5,-62 1319.5,-62"/>
<text text-anchor="middle" x="1384.5" y="-69" font-family="Helvetica,sans-Serif" font-size="10.00">sensor_msgs/msg/joy.hpp</text>
</a>
</g>
</g>
<!-- Node8&#45;&gt;Node9 -->
<g id="edge9" class="edge">
<title>Node8&#45;&gt;Node9</title>
<path fill="none" stroke="midnightblue" d="M1181.46,-123.48C1223.34,-112.96 1294.63,-95.06 1340.63,-83.51"/>
<polygon fill="midnightblue" stroke="midnightblue" points="1341.76,-86.84 1350.61,-81.01 1340.06,-80.05 1341.76,-86.84"/>
</g>
<!-- Node10 -->
<g id="node10" class="node">
<title>Node10</title>
<g id="a_node10"><a xlink:title=" ">
<polygon fill="none" stroke="#bfbfbf" points="1467.5,-56.5 1467.5,-86.5 1575.5,-86.5 1575.5,-56.5 1467.5,-56.5"/>
<text text-anchor="start" x="1475.5" y="-74.5" font-family="Helvetica,sans-Serif" font-size="10.00">ecat_msgs/msg/data</text>
<text text-anchor="middle" x="1521.5" y="-63.5" font-family="Helvetica,sans-Serif" font-size="10.00">_received.hpp</text>
</a>
</g>
</g>
<!-- Node8&#45;&gt;Node10 -->
<g id="edge10" class="edge">
<title>Node8&#45;&gt;Node10</title>
<path fill="none" stroke="midnightblue" d="M1184.67,-124.69C1187.99,-124.1 1191.3,-123.52 1194.5,-123 1308.17,-104.38 1340.27,-108.08 1457.2,-87.14"/>
<polygon fill="midnightblue" stroke="midnightblue" points="1458.05,-90.54 1467.27,-85.31 1456.8,-83.65 1458.05,-90.54"/>
</g>
<!-- Node11 -->
<g id="node11" class="node">
<title>Node11</title>
<g id="a_node11"><a xlink:title=" ">
<polygon fill="none" stroke="#bfbfbf" points="1593.5,-56.5 1593.5,-86.5 1701.5,-86.5 1701.5,-56.5 1593.5,-56.5"/>
<text text-anchor="start" x="1601.5" y="-74.5" font-family="Helvetica,sans-Serif" font-size="10.00">ecat_msgs/msg/data</text>
<text text-anchor="middle" x="1647.5" y="-63.5" font-family="Helvetica,sans-Serif" font-size="10.00">_sent.hpp</text>
</a>
</g>
</g>
<!-- Node8&#45;&gt;Node11 -->
<g id="edge11" class="edge">
<title>Node8&#45;&gt;Node11</title>
<path fill="none" stroke="midnightblue" d="M1184.64,-124.54C1187.97,-123.98 1191.29,-123.45 1194.5,-123 1363.65,-99.06 1410.89,-114 1583.38,-87.04"/>
<polygon fill="midnightblue" stroke="midnightblue" points="1583.97,-90.49 1593.29,-85.46 1582.87,-83.57 1583.97,-90.49"/>
</g>
<!-- Node12 -->
<g id="node12" class="node">
<title>Node12</title>
<g id="a_node12"><a xlink:title=" ">
<polygon fill="none" stroke="#bfbfbf" points="1719.5,-56.5 1719.5,-86.5 1853.5,-86.5 1853.5,-56.5 1719.5,-56.5"/>
<text text-anchor="start" x="1727.5" y="-74.5" font-family="Helvetica,sans-Serif" font-size="10.00">ecat_msgs/msg/gui_button</text>
<text text-anchor="middle" x="1786.5" y="-63.5" font-family="Helvetica,sans-Serif" font-size="10.00">_data.hpp</text>
</a>
</g>
</g>
<!-- Node8&#45;&gt;Node12 -->
<g id="edge12" class="edge">
<title>Node8&#45;&gt;Node12</title>
<path fill="none" stroke="midnightblue" d="M1184.63,-124.46C1187.96,-123.92 1191.29,-123.42 1194.5,-123 1419.24,-93.75 1480.79,-115.95 1709.47,-87.02"/>
<polygon fill="midnightblue" stroke="midnightblue" points="1709.96,-90.49 1719.43,-85.74 1709.07,-83.55 1709.96,-90.49"/>
</g>
<!-- Node13 -->
<g id="node13" class="node">
<title>Node13</title>
<g id="a_node13"><a xlink:title=" ">
<polygon fill="none" stroke="#bfbfbf" points="1871.5,-62 1871.5,-81 2005.5,-81 2005.5,-62 1871.5,-62"/>
<text text-anchor="middle" x="1938.5" y="-69" font-family="Helvetica,sans-Serif" font-size="10.00">std_msgs/msg/u_int16.hpp</text>
</a>
</g>
</g>
<!-- Node8&#45;&gt;Node13 -->
<g id="edge13" class="edge">
<title>Node8&#45;&gt;Node13</title>
<path fill="none" stroke="midnightblue" d="M1184.63,-124.41C1187.96,-123.87 1191.28,-123.39 1194.5,-123 1489.63,-86.96 1567.36,-122.94 1862.5,-87 1871.22,-85.94 1880.44,-84.47 1889.34,-82.88"/>
<polygon fill="midnightblue" stroke="midnightblue" points="1890.02,-86.31 1899.21,-81.04 1888.74,-79.43 1890.02,-86.31"/>
</g>
<!-- Node14 -->
<g id="node14" class="node">
<title>Node14</title>
<g id="a_node14"><a xlink:title=" ">
<polygon fill="none" stroke="#bfbfbf" points="993.5,-0.5 993.5,-19.5 1037.5,-19.5 1037.5,-0.5 993.5,-0.5"/>
<text text-anchor="middle" x="1015.5" y="-7.5" font-family="Helvetica,sans-Serif" font-size="10.00">vector</text>
</a>
</g>
</g>
<!-- Node8&#45;&gt;Node14 -->
<g id="edge14" class="edge">
<title>Node8&#45;&gt;Node14</title>
<path fill="none" stroke="midnightblue" d="M1127.38,-123.36C1110.64,-115.52 1086.85,-102.78 1069.5,-87 1050.86,-70.04 1034.92,-45.6 1025.29,-29.05"/>
<polygon fill="midnightblue" stroke="midnightblue" points="1028.1,-26.9 1020.14,-19.9 1022,-30.34 1028.1,-26.9"/>
</g>
<!-- Node15 -->
<g id="node15" class="node">
<title>Node15</title>
<g id="a_node15"><a xlink:title=" ">
<polygon fill="none" stroke="#bfbfbf" points="1056,-0.5 1056,-19.5 1115,-19.5 1115,-0.5 1056,-0.5"/>
<text text-anchor="middle" x="1085.5" y="-7.5" font-family="Helvetica,sans-Serif" font-size="10.00">functional</text>
</a>
</g>
</g>
<!-- Node8&#45;&gt;Node15 -->
<g id="edge17" class="edge">
<title>Node8&#45;&gt;Node15</title>
<path fill="none" stroke="midnightblue" d="M1124.05,-123.41C1108.34,-116.28 1088.88,-104.46 1079.5,-87 1069.93,-69.19 1073.92,-45.58 1078.69,-29.43"/>
<polygon fill="midnightblue" stroke="midnightblue" points="1082.12,-30.19 1081.96,-19.6 1075.48,-27.98 1082.12,-30.19"/>
</g>
<!-- Node16 -->
<g id="node16" class="node">
<title>Node16</title>
<g id="a_node16"><a xlink:title=" ">
<polygon fill="none" stroke="#bfbfbf" points="1133,-0.5 1133,-19.5 1174,-19.5 1174,-0.5 1133,-0.5"/>
<text text-anchor="middle" x="1153.5" y="-7.5" font-family="Helvetica,sans-Serif" font-size="10.00">string</text>
</a>
</g>
</g>
<!-- Node8&#45;&gt;Node16 -->
<g id="edge18" class="edge">
<title>Node8&#45;&gt;Node16</title>
<path fill="none" stroke="midnightblue" d="M1150.23,-123.49C1152.95,-114.52 1156.94,-99.94 1158.5,-87 1160.82,-67.75 1158.84,-45.62 1156.73,-30.22"/>
<polygon fill="midnightblue" stroke="midnightblue" points="1160.12,-29.28 1155.15,-19.92 1153.2,-30.34 1160.12,-29.28"/>
</g>
<!-- Node17 -->
<g id="node17" class="node">
<title>Node17</title>
<g id="a_node17"><a xlink:title=" ">
<polygon fill="none" stroke="#bfbfbf" points="1192.5,-0.5 1192.5,-19.5 1238.5,-19.5 1238.5,-0.5 1192.5,-0.5"/>
<text text-anchor="middle" x="1215.5" y="-7.5" font-family="Helvetica,sans-Serif" font-size="10.00">cstdint</text>
</a>
</g>
</g>
<!-- Node8&#45;&gt;Node17 -->
<g id="edge19" class="edge">
<title>Node8&#45;&gt;Node17</title>
<path fill="none" stroke="midnightblue" d="M1152.39,-123.3C1163.52,-103.5 1190.9,-54.78 1205.67,-28.49"/>
<polygon fill="midnightblue" stroke="midnightblue" points="1208.81,-30.06 1210.65,-19.62 1202.7,-26.63 1208.81,-30.06"/>
</g>
<!-- Node18 -->
<g id="node18" class="node">
<title>Node18</title>
<g id="a_node18"><a xlink:title=" ">
<polygon fill="none" stroke="#bfbfbf" points="1257,-0.5 1257,-19.5 1298,-19.5 1298,-0.5 1257,-0.5"/>
<text text-anchor="middle" x="1277.5" y="-7.5" font-family="Helvetica,sans-Serif" font-size="10.00">ctime</text>
</a>
</g>
</g>
<!-- Node8&#45;&gt;Node18 -->
<g id="edge20" class="edge">
<title>Node8&#45;&gt;Node18</title>
<path fill="none" stroke="midnightblue" d="M1156.85,-123.3C1178.68,-102.98 1233.25,-52.19 1260.89,-26.46"/>
<polygon fill="midnightblue" stroke="midnightblue" points="1263.3,-29 1268.24,-19.62 1258.53,-23.87 1263.3,-29"/>
</g>
<!-- Node19 -->
<g id="node19" class="node">
<title>Node19</title>
<g id="a_node19"><a xlink:title=" ">
<polygon fill="none" stroke="#bfbfbf" points="1316,-0.5 1316,-19.5 1351,-19.5 1351,-0.5 1316,-0.5"/>
<text text-anchor="middle" x="1333.5" y="-7.5" font-family="Helvetica,sans-Serif" font-size="10.00">ratio</text>
</a>
</g>
</g>
<!-- Node8&#45;&gt;Node19 -->
<g id="edge21" class="edge">
<title>Node8&#45;&gt;Node19</title>
<path fill="none" stroke="midnightblue" d="M1163.51,-123.49C1179.67,-114.76 1205.21,-100.58 1226.5,-87 1257.93,-66.95 1292.9,-41.49 1314.04,-25.71"/>
<polygon fill="midnightblue" stroke="midnightblue" points="1316.3,-28.39 1322.2,-19.59 1312.1,-22.79 1316.3,-28.39"/>
</g>
<!-- Node20 -->
<g id="node20" class="node">
<title>Node20</title>
<g id="a_node20"><a xlink:title=" ">
<polygon fill="none" stroke="#bfbfbf" points="925.5,-0.5 925.5,-19.5 975.5,-19.5 975.5,-0.5 925.5,-0.5"/>
<text text-anchor="middle" x="950.5" y="-7.5" font-family="Helvetica,sans-Serif" font-size="10.00">fstream</text>
</a>
</g>
</g>
<!-- Node8&#45;&gt;Node20 -->
<g id="edge22" class="edge">
<title>Node8&#45;&gt;Node20</title>
<path fill="none" stroke="midnightblue" d="M1119.91,-123.37C1097.14,-115.61 1064.47,-102.99 1038.5,-87 1010.43,-69.72 982.37,-43.56 965.72,-26.89"/>
<polygon fill="midnightblue" stroke="midnightblue" points="968.02,-24.23 958.52,-19.54 963.02,-29.13 968.02,-24.23"/>
</g>
<!-- Node21 -->
<g id="node21" class="node">
<title>Node21</title>
<g id="a_node21"><a xlink:href="gui__pkg_2include_2gui__pkg_2timing_8hpp.html" target="_top" xlink:title=" ">
<polygon fill="none" stroke="black" points="1088,-62 1088,-81 1149,-81 1149,-62 1088,-62"/>
<text text-anchor="middle" x="1118.5" y="-69" font-family="Helvetica,sans-Serif" font-size="10.00">timing.hpp</text>
</a>
</g>
</g>
<!-- Node8&#45;&gt;Node21 -->
<g id="edge23" class="edge">
<title>Node8&#45;&gt;Node21</title>
<path fill="none" stroke="midnightblue" d="M1143.35,-123.48C1139.12,-114.82 1132.46,-101.15 1127.1,-90.15"/>
<polygon fill="midnightblue" stroke="midnightblue" points="1130.17,-88.46 1122.65,-81.01 1123.88,-91.53 1130.17,-88.46"/>
</g>
<!-- Node8&#45;&gt;Node22 -->
<g id="edge34" class="edge">
<title>Node8&#45;&gt;Node22</title>
<path fill="none" stroke="midnightblue" d="M1110.31,-124.81C1067.17,-116.35 993.98,-101.59 931.5,-87 926.85,-85.92 922.01,-84.73 917.19,-83.53"/>
<polygon fill="midnightblue" stroke="midnightblue" points="917.97,-80.12 907.42,-81.05 916.25,-86.9 917.97,-80.12"/>
</g>
<!-- Node21&#45;&gt;Node4 -->
<g id="edge25" class="edge">
<title>Node21&#45;&gt;Node4</title>
<path fill="none" stroke="midnightblue" d="M1149.08,-68.06C1186.96,-65.08 1253.47,-59.93 1310.5,-56 1576.49,-37.68 1897.75,-18.84 2000.34,-12.91"/>
<polygon fill="midnightblue" stroke="midnightblue" points="2000.61,-16.4 2010.39,-12.33 2000.21,-9.41 2000.61,-16.4"/>
</g>
<!-- Node21&#45;&gt;Node5 -->
<g id="edge26" class="edge">
<title>Node21&#45;&gt;Node5</title>
<path fill="none" stroke="midnightblue" d="M1087.68,-62.86C1049.91,-53.49 983.7,-37.01 916.96,-20.1"/>
<polygon fill="midnightblue" stroke="midnightblue" points="917.66,-16.67 907.11,-17.61 915.94,-23.46 917.66,-16.67"/>
</g>
<!-- Node21&#45;&gt;Node6 -->
<g id="edge33" class="edge">
<title>Node21&#45;&gt;Node6</title>
<path fill="none" stroke="midnightblue" d="M1087.84,-64.96C1027.28,-54 892.47,-29.62 826.84,-17.75"/>
<polygon fill="midnightblue" stroke="midnightblue" points="827.39,-14.3 816.92,-15.96 826.14,-21.18 827.39,-14.3"/>
</g>
<!-- Node21&#45;&gt;Node14 -->
<g id="edge24" class="edge">
<title>Node21&#45;&gt;Node14</title>
<path fill="none" stroke="midnightblue" d="M1103.74,-61.98C1086.84,-52.21 1058.92,-36.08 1039.01,-24.58"/>
<polygon fill="midnightblue" stroke="midnightblue" points="1040.64,-21.48 1030.23,-19.51 1037.14,-27.54 1040.64,-21.48"/>
</g>
<!-- Node21&#45;&gt;Node15 -->
<g id="edge27" class="edge">
<title>Node21&#45;&gt;Node15</title>
<path fill="none" stroke="midnightblue" d="M1113.77,-61.98C1108.92,-53.23 1101.23,-39.37 1095.1,-28.31"/>
<polygon fill="midnightblue" stroke="midnightblue" points="1098.13,-26.56 1090.22,-19.51 1092.01,-29.95 1098.13,-26.56"/>
</g>
<!-- Node21&#45;&gt;Node16 -->
<g id="edge28" class="edge">
<title>Node21&#45;&gt;Node16</title>
<path fill="none" stroke="midnightblue" d="M1123.51,-61.98C1128.66,-53.23 1136.81,-39.37 1143.32,-28.31"/>
<polygon fill="midnightblue" stroke="midnightblue" points="1146.44,-29.9 1148.49,-19.51 1140.41,-26.35 1146.44,-29.9"/>
</g>
<!-- Node21&#45;&gt;Node17 -->
<g id="edge29" class="edge">
<title>Node21&#45;&gt;Node17</title>
<path fill="none" stroke="midnightblue" d="M1132.4,-61.98C1148.17,-52.3 1174.14,-36.37 1192.85,-24.89"/>
<polygon fill="midnightblue" stroke="midnightblue" points="1194.93,-27.72 1201.63,-19.51 1191.27,-21.75 1194.93,-27.72"/>
</g>
<!-- Node21&#45;&gt;Node18 -->
<g id="edge30" class="edge">
<title>Node21&#45;&gt;Node18</title>
<path fill="none" stroke="midnightblue" d="M1141.28,-61.98C1169.17,-51.54 1216.51,-33.82 1247.38,-22.27"/>
<polygon fill="midnightblue" stroke="midnightblue" points="1248.65,-25.53 1256.78,-18.75 1246.19,-18.98 1248.65,-25.53"/>
</g>
<!-- Node21&#45;&gt;Node19 -->
<g id="edge31" class="edge">
<title>Node21&#45;&gt;Node19</title>
<path fill="none" stroke="midnightblue" d="M1149.14,-63.04C1184.77,-54.2 1245.55,-38.64 1306.21,-20.25"/>
<polygon fill="midnightblue" stroke="midnightblue" points="1307.4,-23.54 1315.93,-17.27 1305.35,-16.85 1307.4,-23.54"/>
</g>
<!-- Node21&#45;&gt;Node20 -->
<g id="edge32" class="edge">
<title>Node21&#45;&gt;Node20</title>
<path fill="none" stroke="midnightblue" d="M1094.43,-61.98C1065.49,-51.72 1016.74,-34.46 984.1,-22.9"/>
<polygon fill="midnightblue" stroke="midnightblue" points="985.12,-19.55 974.53,-19.51 982.78,-26.15 985.12,-19.55"/>
</g>
<!-- Node23&#45;&gt;Node22 -->
<g id="edge43" class="edge">
<title>Node23&#45;&gt;Node22</title>
<path fill="none" stroke="midnightblue" d="M592.78,-123.48C653.98,-112.44 760.26,-93.28 823.62,-81.85"/>
<polygon fill="midnightblue" stroke="midnightblue" points="824.57,-85.24 833.79,-80.02 823.33,-78.35 824.57,-85.24"/>
</g>
<!-- Node24 -->
<g id="node24" class="node">
<title>Node24</title>
<g id="a_node24"><a xlink:title=" ">
<polygon fill="none" stroke="#bfbfbf" points="259.5,-62 259.5,-81 315.5,-81 315.5,-62 259.5,-62"/>
<text text-anchor="middle" x="287.5" y="-69" font-family="Helvetica,sans-Serif" font-size="10.00">QPixmap</text>
</a>
</g>
</g>
<!-- Node23&#45;&gt;Node24 -->
<g id="edge36" class="edge">
<title>Node23&#45;&gt;Node24</title>
<path fill="none" stroke="midnightblue" d="M498.72,-123.46C443.91,-113.28 356.51,-96.46 324.5,-87 322.07,-86.28 319.57,-85.47 317.08,-84.61"/>
<polygon fill="midnightblue" stroke="midnightblue" points="318.23,-81.3 307.64,-81.12 315.8,-87.87 318.23,-81.3"/>
</g>
<!-- Node25 -->
<g id="node25" class="node">
<title>Node25</title>
<g id="a_node25"><a xlink:title=" ">
<polygon fill="none" stroke="#bfbfbf" points="334,-62 334,-81 385,-81 385,-62 334,-62"/>
<text text-anchor="middle" x="359.5" y="-69" font-family="Helvetica,sans-Serif" font-size="10.00">QImage</text>
</a>
</g>
</g>
<!-- Node23&#45;&gt;Node25 -->
<g id="edge37" class="edge">
<title>Node23&#45;&gt;Node25</title>
<path fill="none" stroke="midnightblue" d="M513.38,-123.46C482.6,-115.04 434.97,-101.37 394.5,-87 392.64,-86.34 390.74,-85.64 388.82,-84.91"/>
<polygon fill="midnightblue" stroke="midnightblue" points="389.94,-81.58 379.35,-81.14 387.35,-88.09 389.94,-81.58"/>
</g>
<!-- Node26 -->
<g id="node26" class="node">
<title>Node26</title>
<g id="a_node26"><a xlink:title=" ">
<polygon fill="none" stroke="#bfbfbf" points="403.5,-62 403.5,-81 457.5,-81 457.5,-62 403.5,-62"/>
<text text-anchor="middle" x="430.5" y="-69" font-family="Helvetica,sans-Serif" font-size="10.00">QThread</text>
</a>
</g>
</g>
<!-- Node23&#45;&gt;Node26 -->
<g id="edge38" class="edge">
<title>Node23&#45;&gt;Node26</title>
<path fill="none" stroke="midnightblue" d="M529.02,-123.48C509.89,-113.58 478.13,-97.14 455.85,-85.62"/>
<polygon fill="midnightblue" stroke="midnightblue" points="457.44,-82.5 446.95,-81.01 454.22,-88.71 457.44,-82.5"/>
</g>
<!-- Node27 -->
<g id="node27" class="node">
<title>Node27</title>
<g id="a_node27"><a xlink:title=" ">
<polygon fill="none" stroke="#bfbfbf" points="475.5,-62 475.5,-81 581.5,-81 581.5,-62 475.5,-62"/>
<text text-anchor="middle" x="528.5" y="-69" font-family="Helvetica,sans-Serif" font-size="10.00">opencv2/opencv.hpp</text>
</a>
</g>
</g>
<!-- Node23&#45;&gt;Node27 -->
<g id="edge39" class="edge">
<title>Node23&#45;&gt;Node27</title>
<path fill="none" stroke="midnightblue" d="M543.06,-123.48C540.64,-114.99 536.84,-101.7 533.73,-90.82"/>
<polygon fill="midnightblue" stroke="midnightblue" points="537.04,-89.66 530.93,-81.01 530.31,-91.59 537.04,-89.66"/>
</g>
<!-- Node28 -->
<g id="node28" class="node">
<title>Node28</title>
<g id="a_node28"><a xlink:title=" ">
<polygon fill="none" stroke="#bfbfbf" points="600,-62 600,-81 739,-81 739,-62 600,-62"/>
<text text-anchor="middle" x="669.5" y="-69" font-family="Helvetica,sans-Serif" font-size="10.00">opencv2/highgui/highgui.hpp</text>
</a>
</g>
</g>
<!-- Node23&#45;&gt;Node28 -->
<g id="edge40" class="edge">
<title>Node23&#45;&gt;Node28</title>
<path fill="none" stroke="midnightblue" d="M563.27,-123.48C583.98,-113.53 618.45,-96.99 642.49,-85.46"/>
<polygon fill="midnightblue" stroke="midnightblue" points="644.27,-88.49 651.77,-81.01 641.24,-82.18 644.27,-88.49"/>
</g>
<!-- Node29 -->
<g id="node29" class="node">
<title>Node29</title>
<g id="a_node29"><a xlink:title=" ">
<polygon fill="none" stroke="#bfbfbf" points="0,-62 0,-81 109,-81 109,-62 0,-62"/>
<text text-anchor="middle" x="54.5" y="-69" font-family="Helvetica,sans-Serif" font-size="10.00">opencv2/imgproc.hpp</text>
</a>
</g>
</g>
<!-- Node23&#45;&gt;Node29 -->
<g id="edge41" class="edge">
<title>Node23&#45;&gt;Node29</title>
<path fill="none" stroke="midnightblue" d="M497.87,-124.14C495.04,-123.73 492.23,-123.35 489.5,-123 324.75,-101.81 281.45,-113.68 117.5,-87 111.18,-85.97 104.54,-84.68 98.04,-83.29"/>
<polygon fill="midnightblue" stroke="midnightblue" points="98.54,-79.82 88.02,-81.06 97.02,-86.65 98.54,-79.82"/>
</g>
<!-- Node30 -->
<g id="node30" class="node">
<title>Node30</title>
<g id="a_node30"><a xlink:title=" ">
<polygon fill="none" stroke="#bfbfbf" points="127,-62 127,-81 242,-81 242,-62 127,-62"/>
<text text-anchor="middle" x="184.5" y="-69" font-family="Helvetica,sans-Serif" font-size="10.00">opencv2/core/core.hpp</text>
</a>
</g>
</g>
<!-- Node23&#45;&gt;Node30 -->
<g id="edge42" class="edge">
<title>Node23&#45;&gt;Node30</title>
<path fill="none" stroke="midnightblue" d="M497.85,-124.31C495.02,-123.86 492.22,-123.42 489.5,-123 383.36,-106.48 356.13,-106.54 250.5,-87 244.29,-85.85 237.78,-84.55 231.36,-83.2"/>
<polygon fill="midnightblue" stroke="midnightblue" points="231.92,-79.74 221.41,-81.07 230.46,-86.58 231.92,-79.74"/>
</g>
<!-- Node39&#45;&gt;Node2 -->
<g id="edge57" class="edge">
<title>Node39&#45;&gt;Node2</title>
<path fill="none" stroke="midnightblue" d="M417.18,-179.47C381.35,-169.08 333.12,-155.08 299.68,-145.37"/>
<polygon fill="midnightblue" stroke="midnightblue" points="300.39,-141.93 289.81,-142.51 298.44,-148.66 300.39,-141.93"/>
</g>
<!-- Node39&#45;&gt;Node23 -->
<g id="edge59" class="edge">
<title>Node39&#45;&gt;Node23</title>
<path fill="none" stroke="midnightblue" d="M484.46,-179.4C496.92,-170.13 513.2,-158.03 525.81,-148.65"/>
<polygon fill="midnightblue" stroke="midnightblue" points="527.92,-151.43 533.86,-142.66 523.75,-145.82 527.92,-151.43"/>
</g>
<!-- Node39&#45;&gt;Node32 -->
<g id="edge55" class="edge">
<title>Node39&#45;&gt;Node32</title>
<path fill="none" stroke="midnightblue" d="M516.89,-179.47C555.15,-169.03 606.71,-154.96 642.29,-145.25"/>
<polygon fill="midnightblue" stroke="midnightblue" points="643.61,-148.52 652.33,-142.51 641.77,-141.76 643.61,-148.52"/>
</g>
<!-- Node40 -->
<g id="node40" class="node">
<title>Node40</title>
<g id="a_node40"><a xlink:title=" ">
<polygon fill="none" stroke="#bfbfbf" points="314.5,-123.5 314.5,-142.5 432.5,-142.5 432.5,-123.5 314.5,-123.5"/>
<text text-anchor="middle" x="373.5" y="-130.5" font-family="Helvetica,sans-Serif" font-size="10.00">ui_endoscope_viewer.h</text>
</a>
</g>
</g>
<!-- Node39&#45;&gt;Node40 -->
<g id="edge56" class="edge">
<title>Node39&#45;&gt;Node40</title>
<path fill="none" stroke="midnightblue" d="M443.7,-179.4C429.09,-169.95 409.93,-157.56 395.32,-148.11"/>
<polygon fill="midnightblue" stroke="midnightblue" points="397.18,-145.15 386.89,-142.66 393.38,-151.03 397.18,-145.15"/>
</g>
<!-- Node41 -->
<g id="node41" class="node">
<title>Node41</title>
<g id="a_node41"><a xlink:title=" ">
<polygon fill="none" stroke="#bfbfbf" points="451,-123.5 451,-142.5 480,-142.5 480,-123.5 451,-123.5"/>
<text text-anchor="middle" x="465.5" y="-130.5" font-family="Helvetica,sans-Serif" font-size="10.00">Qt</text>
</a>
</g>
</g>
<!-- Node39&#45;&gt;Node41 -->
<g id="edge58" class="edge">
<title>Node39&#45;&gt;Node41</title>
<path fill="none" stroke="midnightblue" d="M465.5,-179.4C465.5,-171.47 465.5,-161.46 465.5,-152.86"/>
<polygon fill="midnightblue" stroke="midnightblue" points="469,-152.66 465.5,-142.66 462,-152.66 469,-152.66"/>
</g>
</g>
</svg>
