<?xml version="1.0" encoding="UTF-8" standalone="no"?>
<!DOCTYPE svg PUBLIC "-//W3C//DTD SVG 1.1//EN"
 "http://www.w3.org/Graphics/SVG/1.1/DTD/svg11.dtd">
<!-- Generated by graphviz version 2.49.3 (20211027.1534)
 -->
<!-- Title: src/gui_pkg/src/gui_node.cpp Pages: 1 -->
<!--zoomable 285 -->
<svg id="main" version="1.1" xmlns="http://www.w3.org/2000/svg" xmlns:xlink="http://www.w3.org/1999/xlink" xml:space="preserve" onload="init(evt)">
<style type="text/css"><![CDATA[
.edge:hover path { stroke: red; }
.edge:hover polygon { stroke: red; fill: red; }
]]></style>
<script type="text/javascript"><![CDATA[
var edges = document.getElementsByTagName('g');
if (edges && edges.length) {
  for (var i=0;i<edges.length;i++) {
    if (edges[i].id.substr(0,4)=='edge') {
      edges[i].setAttribute('class','edge');
    }
  }
}
]]></script>
        <defs>
                <circle id="rim" cx="0" cy="0" r="7"/>
                <circle id="rim2" cx="0" cy="0" r="3.5"/>
                <g id="zoomPlus">
                        <use xlink:href="#rim" fill="#404040">
                                <set attributeName="fill" to="#808080" begin="zoomplus.mouseover" end="zoomplus.mouseout"/>
                        </use>
                        <path d="M-4,0h8M0,-4v8" fill="none" stroke="white" stroke-width="1.5" pointer-events="none"/>
                </g>
                <g id="zoomMin">
                        <use xlink:href="#rim" fill="#404040">
                                <set attributeName="fill" to="#808080" begin="zoomminus.mouseover" end="zoomminus.mouseout"/>
                        </use>
                        <path d="M-4,0h8" fill="none" stroke="white" stroke-width="1.5" pointer-events="none"/>
                </g>
                <g id="dirArrow">
                        <path fill="none" stroke="white" stroke-width="1.5" d="M0,-3.0v7 M-2.5,-0.5L0,-3.0L2.5,-0.5"/>
                </g>
               <g id="resetDef">
                       <use xlink:href="#rim2" fill="#404040">
                               <set attributeName="fill" to="#808080" begin="reset.mouseover" end="reset.mouseout"/>
                       </use>
               </g>
        </defs>

<script type="text/javascript">
var viewWidth = 1641;
var viewHeight = 285;
var sectionId = 'dynsection-0';
</script>
<script xlink:href="svgpan.js"/>
<svg id="graph" class="graph">
<g id="viewport">
<title>src/gui_pkg/src/gui_node.cpp</title>
<!-- Node1 -->
<g id="node1" class="node">
<title>Node1</title>
<g id="a_node1"><a xlink:title=" ">
<polygon fill="#bfbfbf" stroke="black" points="1061,-246.5 1061,-276.5 1160,-276.5 1160,-246.5 1061,-246.5"/>
<text text-anchor="start" x="1069" y="-264.5" font-family="Helvetica,sans-Serif" font-size="10.00">src/gui_pkg/src/gui</text>
<text text-anchor="middle" x="1110.5" y="-253.5" font-family="Helvetica,sans-Serif" font-size="10.00">_node.cpp</text>
</a>
</g>
</g>
<!-- Node2 -->
<g id="node2" class="node">
<title>Node2</title>
<g id="a_node2"><a xlink:href="gui__node_8hpp.html" target="_top" xlink:title=" ">
<polygon fill="none" stroke="black" points="1064.5,-179.5 1064.5,-209.5 1156.5,-209.5 1156.5,-179.5 1064.5,-179.5"/>
<text text-anchor="start" x="1072.5" y="-197.5" font-family="Helvetica,sans-Serif" font-size="10.00">../include/gui_pkg</text>
<text text-anchor="middle" x="1110.5" y="-186.5" font-family="Helvetica,sans-Serif" font-size="10.00">/gui_node.hpp</text>
</a>
</g>
</g>
<!-- Node1&#45;&gt;Node2 -->
<g id="edge1" class="edge">
<title>Node1&#45;&gt;Node2</title>
<path fill="none" stroke="midnightblue" d="M1110.5,-246.4C1110.5,-238.64 1110.5,-228.81 1110.5,-219.86"/>
<polygon fill="midnightblue" stroke="midnightblue" points="1114,-219.58 1110.5,-209.58 1107,-219.58 1114,-219.58"/>
</g>
<!-- Node3 -->
<g id="node3" class="node">
<title>Node3</title>
<g id="a_node3"><a xlink:title=" ">
<polygon fill="none" stroke="#bfbfbf" points="123.5,-118 123.5,-137 213.5,-137 213.5,-118 123.5,-118"/>
<text text-anchor="middle" x="168.5" y="-125" font-family="Helvetica,sans-Serif" font-size="10.00">rclcpp/rclcpp.hpp</text>
</a>
</g>
</g>
<!-- Node2&#45;&gt;Node3 -->
<g id="edge2" class="edge">
<title>Node2&#45;&gt;Node3</title>
<path fill="none" stroke="midnightblue" d="M1064.39,-194.2C932.3,-195.49 541.51,-194.34 222.5,-143 217.05,-142.12 211.36,-140.92 205.79,-139.58"/>
<polygon fill="midnightblue" stroke="midnightblue" points="206.57,-136.16 196.01,-137.06 204.82,-142.94 206.57,-136.16"/>
</g>
<!-- Node4 -->
<g id="node4" class="node">
<title>Node4</title>
<g id="a_node4"><a xlink:title=" ">
<polygon fill="none" stroke="#bfbfbf" points="231.5,-118 231.5,-137 361.5,-137 361.5,-118 231.5,-118"/>
<text text-anchor="middle" x="296.5" y="-125" font-family="Helvetica,sans-Serif" font-size="10.00">sensor_msgs/msg/joy.hpp</text>
</a>
</g>
</g>
<!-- Node2&#45;&gt;Node4 -->
<g id="edge3" class="edge">
<title>Node2&#45;&gt;Node4</title>
<path fill="none" stroke="midnightblue" d="M1064.4,-192.36C947.76,-189.05 631.59,-177.35 370.5,-143 362.29,-141.92 353.61,-140.49 345.21,-138.94"/>
<polygon fill="midnightblue" stroke="midnightblue" points="345.62,-135.46 335.14,-137.02 344.31,-142.33 345.62,-135.46"/>
</g>
<!-- Node5 -->
<g id="node5" class="node">
<title>Node5</title>
<g id="a_node5"><a xlink:title=" ">
<polygon fill="none" stroke="#bfbfbf" points="379.5,-112.5 379.5,-142.5 487.5,-142.5 487.5,-112.5 379.5,-112.5"/>
<text text-anchor="start" x="387.5" y="-130.5" font-family="Helvetica,sans-Serif" font-size="10.00">ecat_msgs/msg/data</text>
<text text-anchor="middle" x="433.5" y="-119.5" font-family="Helvetica,sans-Serif" font-size="10.00">_received.hpp</text>
</a>
</g>
</g>
<!-- Node2&#45;&gt;Node5 -->
<g id="edge4" class="edge">
<title>Node2&#45;&gt;Node5</title>
<path fill="none" stroke="midnightblue" d="M1064.4,-191.98C963.37,-188.16 714.76,-176.09 497.69,-143.04"/>
<polygon fill="midnightblue" stroke="midnightblue" points="498.12,-139.56 487.7,-141.5 497.05,-146.48 498.12,-139.56"/>
</g>
<!-- Node6 -->
<g id="node6" class="node">
<title>Node6</title>
<g id="a_node6"><a xlink:title=" ">
<polygon fill="none" stroke="#bfbfbf" points="505.5,-112.5 505.5,-142.5 613.5,-142.5 613.5,-112.5 505.5,-112.5"/>
<text text-anchor="start" x="513.5" y="-130.5" font-family="Helvetica,sans-Serif" font-size="10.00">ecat_msgs/msg/data</text>
<text text-anchor="middle" x="559.5" y="-119.5" font-family="Helvetica,sans-Serif" font-size="10.00">_sent.hpp</text>
</a>
</g>
</g>
<!-- Node2&#45;&gt;Node6 -->
<g id="edge5" class="edge">
<title>Node2&#45;&gt;Node6</title>
<path fill="none" stroke="midnightblue" d="M1064.5,-190.64C979.36,-184.92 791.35,-170.39 623.71,-143.07"/>
<polygon fill="midnightblue" stroke="midnightblue" points="624.15,-139.6 613.71,-141.42 623.01,-146.5 624.15,-139.6"/>
</g>
<!-- Node7 -->
<g id="node7" class="node">
<title>Node7</title>
<g id="a_node7"><a xlink:title=" ">
<polygon fill="none" stroke="#bfbfbf" points="631.5,-112.5 631.5,-142.5 765.5,-142.5 765.5,-112.5 631.5,-112.5"/>
<text text-anchor="start" x="639.5" y="-130.5" font-family="Helvetica,sans-Serif" font-size="10.00">ecat_msgs/msg/gui_button</text>
<text text-anchor="middle" x="698.5" y="-119.5" font-family="Helvetica,sans-Serif" font-size="10.00">_data.hpp</text>
</a>
</g>
</g>
<!-- Node2&#45;&gt;Node7 -->
<g id="edge6" class="edge">
<title>Node2&#45;&gt;Node7</title>
<path fill="none" stroke="midnightblue" d="M1064.48,-187.17C1001.57,-178.38 884.95,-161.64 775.5,-143.13"/>
<polygon fill="midnightblue" stroke="midnightblue" points="776.06,-139.68 765.61,-141.45 774.88,-146.58 776.06,-139.68"/>
</g>
<!-- Node8 -->
<g id="node8" class="node">
<title>Node8</title>
<g id="a_node8"><a xlink:title=" ">
<polygon fill="none" stroke="#bfbfbf" points="783.5,-118 783.5,-137 917.5,-137 917.5,-118 783.5,-118"/>
<text text-anchor="middle" x="850.5" y="-125" font-family="Helvetica,sans-Serif" font-size="10.00">std_msgs/msg/u_int16.hpp</text>
</a>
</g>
</g>
<!-- Node2&#45;&gt;Node8 -->
<g id="edge7" class="edge">
<title>Node2&#45;&gt;Node8</title>
<path fill="none" stroke="midnightblue" d="M1064.32,-181.95C1016.33,-169.96 941.77,-151.32 894.58,-139.52"/>
<polygon fill="midnightblue" stroke="midnightblue" points="895.2,-136.07 884.65,-137.04 893.5,-142.86 895.2,-136.07"/>
</g>
<!-- Node9 -->
<g id="node9" class="node">
<title>Node9</title>
<g id="a_node9"><a xlink:href="ecat__globals_8hpp.html" target="_top" xlink:title=" ">
<polygon fill="none" stroke="black" points="936,-118 936,-137 1025,-137 1025,-118 936,-118"/>
<text text-anchor="middle" x="980.5" y="-125" font-family="Helvetica,sans-Serif" font-size="10.00">ecat_globals.hpp</text>
</a>
</g>
</g>
<!-- Node2&#45;&gt;Node9 -->
<g id="edge8" class="edge">
<title>Node2&#45;&gt;Node9</title>
<path fill="none" stroke="midnightblue" d="M1082.29,-179.4C1059.78,-168.14 1028.5,-152.5 1006.58,-141.54"/>
<polygon fill="midnightblue" stroke="midnightblue" points="1008.02,-138.35 997.51,-137.01 1004.89,-144.61 1008.02,-138.35"/>
</g>
<!-- Node28 -->
<g id="node28" class="node">
<title>Node28</title>
<g id="a_node28"><a xlink:title=" ">
<polygon fill="none" stroke="#bfbfbf" points="1474.5,-0.5 1474.5,-19.5 1520.5,-19.5 1520.5,-0.5 1474.5,-0.5"/>
<text text-anchor="middle" x="1497.5" y="-7.5" font-family="Helvetica,sans-Serif" font-size="10.00">chrono</text>
</a>
</g>
</g>
<!-- Node2&#45;&gt;Node28 -->
<g id="edge32" class="edge">
<title>Node2&#45;&gt;Node28</title>
<path fill="none" stroke="midnightblue" d="M1156.64,-194.46C1218.54,-193.89 1330.32,-186.2 1413.5,-143 1450.59,-123.73 1458.59,-112.19 1479.5,-76 1487.83,-61.58 1492.46,-43.13 1494.93,-29.57"/>
<polygon fill="midnightblue" stroke="midnightblue" points="1498.41,-29.95 1496.53,-19.53 1491.5,-28.85 1498.41,-29.95"/>
</g>
<!-- Node29 -->
<g id="node29" class="node">
<title>Node29</title>
<g id="a_node29"><a xlink:title=" ">
<polygon fill="none" stroke="#bfbfbf" points="1405,-0.5 1405,-19.5 1456,-19.5 1456,-0.5 1405,-0.5"/>
<text text-anchor="middle" x="1430.5" y="-7.5" font-family="Helvetica,sans-Serif" font-size="10.00">memory</text>
</a>
</g>
</g>
<!-- Node2&#45;&gt;Node29 -->
<g id="edge33" class="edge">
<title>Node2&#45;&gt;Node29</title>
<path fill="none" stroke="midnightblue" d="M1156.58,-189.82C1208.71,-184.42 1295.36,-171.69 1364.5,-143 1413.91,-122.5 1439.31,-123.2 1464.5,-76 1473.34,-59.44 1460.73,-40.4 1448.43,-27.23"/>
<polygon fill="midnightblue" stroke="midnightblue" points="1450.58,-24.42 1441.02,-19.86 1445.64,-29.39 1450.58,-24.42"/>
</g>
<!-- Node32 -->
<g id="node32" class="node">
<title>Node32</title>
<g id="a_node32"><a xlink:title=" ">
<polygon fill="none" stroke="#bfbfbf" points="915.5,-56.5 915.5,-75.5 959.5,-75.5 959.5,-56.5 915.5,-56.5"/>
<text text-anchor="middle" x="937.5" y="-63.5" font-family="Helvetica,sans-Serif" font-size="10.00">vector</text>
</a>
</g>
</g>
<!-- Node2&#45;&gt;Node32 -->
<g id="edge31" class="edge">
<title>Node2&#45;&gt;Node32</title>
<path fill="none" stroke="midnightblue" d="M1098.22,-179.27C1080.36,-158.79 1047.78,-122.32 1033.5,-112 1013.72,-97.7 988.68,-86.14 969.13,-78.32"/>
<polygon fill="midnightblue" stroke="midnightblue" points="970.33,-75.03 959.74,-74.68 967.8,-81.56 970.33,-75.03"/>
</g>
<!-- Node33 -->
<g id="node33" class="node">
<title>Node33</title>
<g id="a_node33"><a xlink:title=" ">
<polygon fill="none" stroke="#bfbfbf" points="978,-56.5 978,-75.5 1037,-75.5 1037,-56.5 978,-56.5"/>
<text text-anchor="middle" x="1007.5" y="-63.5" font-family="Helvetica,sans-Serif" font-size="10.00">functional</text>
</a>
</g>
</g>
<!-- Node2&#45;&gt;Node33 -->
<g id="edge34" class="edge">
<title>Node2&#45;&gt;Node33</title>
<path fill="none" stroke="midnightblue" d="M1105.3,-179.39C1098.48,-162.18 1085.26,-132.81 1067.5,-112 1057.2,-99.92 1043.1,-89.14 1031.16,-81.16"/>
<polygon fill="midnightblue" stroke="midnightblue" points="1032.85,-78.09 1022.54,-75.63 1029.07,-83.98 1032.85,-78.09"/>
</g>
<!-- Node34 -->
<g id="node34" class="node">
<title>Node34</title>
<g id="a_node34"><a xlink:title=" ">
<polygon fill="none" stroke="#bfbfbf" points="1055,-56.5 1055,-75.5 1096,-75.5 1096,-56.5 1055,-56.5"/>
<text text-anchor="middle" x="1075.5" y="-63.5" font-family="Helvetica,sans-Serif" font-size="10.00">string</text>
</a>
</g>
</g>
<!-- Node2&#45;&gt;Node34 -->
<g id="edge35" class="edge">
<title>Node2&#45;&gt;Node34</title>
<path fill="none" stroke="midnightblue" d="M1111.83,-179.23C1112.88,-162.62 1113.1,-134.57 1105.5,-112 1102.02,-101.67 1095.54,-91.46 1089.48,-83.39"/>
<polygon fill="midnightblue" stroke="midnightblue" points="1092.21,-81.2 1083.24,-75.55 1086.73,-85.56 1092.21,-81.2"/>
</g>
<!-- Node35 -->
<g id="node35" class="node">
<title>Node35</title>
<g id="a_node35"><a xlink:title=" ">
<polygon fill="none" stroke="#bfbfbf" points="1114.5,-56.5 1114.5,-75.5 1160.5,-75.5 1160.5,-56.5 1114.5,-56.5"/>
<text text-anchor="middle" x="1137.5" y="-63.5" font-family="Helvetica,sans-Serif" font-size="10.00">cstdint</text>
</a>
</g>
</g>
<!-- Node2&#45;&gt;Node35 -->
<g id="edge36" class="edge">
<title>Node2&#45;&gt;Node35</title>
<path fill="none" stroke="midnightblue" d="M1123.11,-179.19C1130.64,-169.66 1139.49,-156.45 1143.5,-143 1149.15,-124.01 1146.15,-101.25 1142.67,-85.62"/>
<polygon fill="midnightblue" stroke="midnightblue" points="1146,-84.5 1140.18,-75.65 1139.21,-86.2 1146,-84.5"/>
</g>
<!-- Node36 -->
<g id="node36" class="node">
<title>Node36</title>
<g id="a_node36"><a xlink:title=" ">
<polygon fill="none" stroke="#bfbfbf" points="1293,-56.5 1293,-75.5 1334,-75.5 1334,-56.5 1293,-56.5"/>
<text text-anchor="middle" x="1313.5" y="-63.5" font-family="Helvetica,sans-Serif" font-size="10.00">ctime</text>
</a>
</g>
</g>
<!-- Node2&#45;&gt;Node36 -->
<g id="edge37" class="edge">
<title>Node2&#45;&gt;Node36</title>
<path fill="none" stroke="midnightblue" d="M1156.82,-186.99C1189.87,-180.43 1233.89,-167.59 1265.5,-143 1284.98,-127.84 1298.71,-102.4 1306.36,-85.17"/>
<polygon fill="midnightblue" stroke="midnightblue" points="1309.71,-86.25 1310.34,-75.67 1303.25,-83.55 1309.71,-86.25"/>
</g>
<!-- Node37 -->
<g id="node37" class="node">
<title>Node37</title>
<g id="a_node37"><a xlink:title=" ">
<polygon fill="none" stroke="#bfbfbf" points="1352,-56.5 1352,-75.5 1387,-75.5 1387,-56.5 1352,-56.5"/>
<text text-anchor="middle" x="1369.5" y="-63.5" font-family="Helvetica,sans-Serif" font-size="10.00">ratio</text>
</a>
</g>
</g>
<!-- Node2&#45;&gt;Node37 -->
<g id="edge38" class="edge">
<title>Node2&#45;&gt;Node37</title>
<path fill="none" stroke="midnightblue" d="M1156.76,-187.3C1195.13,-180.66 1250.07,-167.56 1292.5,-143 1318.94,-127.69 1342.86,-101.16 1356.8,-83.84"/>
<polygon fill="midnightblue" stroke="midnightblue" points="1359.73,-85.77 1363.13,-75.73 1354.22,-81.46 1359.73,-85.77"/>
</g>
<!-- Node38 -->
<g id="node38" class="node">
<title>Node38</title>
<g id="a_node38"><a xlink:title=" ">
<polygon fill="none" stroke="#bfbfbf" points="1405.5,-56.5 1405.5,-75.5 1455.5,-75.5 1455.5,-56.5 1405.5,-56.5"/>
<text text-anchor="middle" x="1430.5" y="-63.5" font-family="Helvetica,sans-Serif" font-size="10.00">fstream</text>
</a>
</g>
</g>
<!-- Node2&#45;&gt;Node38 -->
<g id="edge39" class="edge">
<title>Node2&#45;&gt;Node38</title>
<path fill="none" stroke="midnightblue" d="M1156.67,-188.03C1201.42,-181.51 1270.4,-168.18 1325.5,-143 1359.89,-127.29 1394.36,-99.47 1414,-82.2"/>
<polygon fill="midnightblue" stroke="midnightblue" points="1416.35,-84.79 1421.46,-75.51 1411.68,-79.58 1416.35,-84.79"/>
</g>
<!-- Node39 -->
<g id="node39" class="node">
<title>Node39</title>
<g id="a_node39"><a xlink:href="gui__pkg_2include_2gui__pkg_2timing_8hpp.html" target="_top" xlink:title=" ">
<polygon fill="none" stroke="black" points="1196,-118 1196,-137 1257,-137 1257,-118 1196,-118"/>
<text text-anchor="middle" x="1226.5" y="-125" font-family="Helvetica,sans-Serif" font-size="10.00">timing.hpp</text>
</a>
</g>
</g>
<!-- Node2&#45;&gt;Node39 -->
<g id="edge40" class="edge">
<title>Node2&#45;&gt;Node39</title>
<path fill="none" stroke="midnightblue" d="M1135.67,-179.4C1155.48,-168.29 1182.92,-152.92 1202.44,-141.98"/>
<polygon fill="midnightblue" stroke="midnightblue" points="1204.31,-144.95 1211.32,-137.01 1200.88,-138.84 1204.31,-144.95"/>
</g>
<!-- Node40 -->
<g id="node40" class="node">
<title>Node40</title>
<g id="a_node40"><a xlink:href="gui__globals_8hpp.html" target="_top" xlink:title=" ">
<polygon fill="none" stroke="black" points="1550,-118 1550,-137 1633,-137 1633,-118 1550,-118"/>
<text text-anchor="middle" x="1591.5" y="-125" font-family="Helvetica,sans-Serif" font-size="10.00">gui_globals.hpp</text>
</a>
</g>
</g>
<!-- Node2&#45;&gt;Node40 -->
<g id="edge51" class="edge">
<title>Node2&#45;&gt;Node40</title>
<path fill="none" stroke="midnightblue" d="M1156.72,-190.07C1235.11,-183.78 1398.94,-168.67 1535.5,-143 1540.87,-141.99 1546.48,-140.76 1551.99,-139.44"/>
<polygon fill="midnightblue" stroke="midnightblue" points="1552.88,-142.82 1561.73,-137 1551.18,-136.03 1552.88,-142.82"/>
</g>
<!-- Node10 -->
<g id="node10" class="node">
<title>Node10</title>
<g id="a_node10"><a xlink:href="ecat__definitions_8hpp.html" target="_top" xlink:title="Writes desired operational mode, to slave in specified index via SDO.">
<polygon fill="none" stroke="black" points="780.5,-56.5 780.5,-75.5 882.5,-75.5 882.5,-56.5 780.5,-56.5"/>
<text text-anchor="middle" x="831.5" y="-63.5" font-family="Helvetica,sans-Serif" font-size="10.00">ecat_definitions.hpp</text>
</a>
</g>
</g>
<!-- Node9&#45;&gt;Node10 -->
<g id="edge9" class="edge">
<title>Node9&#45;&gt;Node10</title>
<path fill="none" stroke="midnightblue" d="M959.15,-117.98C933.81,-107.86 891.36,-90.9 862.43,-79.35"/>
<polygon fill="midnightblue" stroke="midnightblue" points="863.39,-75.97 852.81,-75.51 860.8,-82.47 863.39,-75.97"/>
</g>
<!-- Node11 -->
<g id="node11" class="node">
<title>Node11</title>
<g id="a_node11"><a xlink:title=" ">
<polygon fill="none" stroke="#bfbfbf" points="1332.5,-0.5 1332.5,-19.5 1386.5,-19.5 1386.5,-0.5 1332.5,-0.5"/>
<text text-anchor="middle" x="1359.5" y="-7.5" font-family="Helvetica,sans-Serif" font-size="10.00">iostream</text>
</a>
</g>
</g>
<!-- Node10&#45;&gt;Node11 -->
<g id="edge10" class="edge">
<title>Node10&#45;&gt;Node11</title>
<path fill="none" stroke="midnightblue" d="M882.71,-58.62C890.67,-57.7 898.8,-56.79 906.5,-56 1088.29,-37.25 1138.27,-50.18 1322.45,-19.91"/>
<polygon fill="midnightblue" stroke="midnightblue" points="1323.18,-23.34 1332.47,-18.25 1322.03,-16.44 1323.18,-23.34"/>
</g>
<!-- Node12 -->
<g id="node12" class="node">
<title>Node12</title>
<g id="a_node12"><a xlink:title=" ">
<polygon fill="none" stroke="#bfbfbf" points="703.5,-0.5 703.5,-19.5 749.5,-19.5 749.5,-0.5 703.5,-0.5"/>
<text text-anchor="middle" x="726.5" y="-7.5" font-family="Helvetica,sans-Serif" font-size="10.00">cstring</text>
</a>
</g>
</g>
<!-- Node10&#45;&gt;Node12 -->
<g id="edge11" class="edge">
<title>Node10&#45;&gt;Node12</title>
<path fill="none" stroke="midnightblue" d="M814.63,-56.32C797.79,-47.66 771.69,-34.24 752.26,-24.25"/>
<polygon fill="midnightblue" stroke="midnightblue" points="753.82,-21.12 743.33,-19.65 750.62,-27.34 753.82,-21.12"/>
</g>
<!-- Node13 -->
<g id="node13" class="node">
<title>Node13</title>
<g id="a_node13"><a xlink:title=" ">
<polygon fill="none" stroke="#bfbfbf" points="768,-0.5 768,-19.5 815,-19.5 815,-0.5 768,-0.5"/>
<text text-anchor="middle" x="791.5" y="-7.5" font-family="Helvetica,sans-Serif" font-size="10.00">limits.h</text>
</a>
</g>
</g>
<!-- Node10&#45;&gt;Node13 -->
<g id="edge12" class="edge">
<title>Node10&#45;&gt;Node13</title>
<path fill="none" stroke="midnightblue" d="M824.89,-56.08C819.24,-48.46 810.96,-37.26 804.05,-27.94"/>
<polygon fill="midnightblue" stroke="midnightblue" points="806.75,-25.7 797.98,-19.75 801.12,-29.87 806.75,-25.7"/>
</g>
<!-- Node14 -->
<g id="node14" class="node">
<title>Node14</title>
<g id="a_node14"><a xlink:title=" ">
<polygon fill="none" stroke="#bfbfbf" points="833,-0.5 833,-19.5 880,-19.5 880,-0.5 833,-0.5"/>
<text text-anchor="middle" x="856.5" y="-7.5" font-family="Helvetica,sans-Serif" font-size="10.00">stdlib.h</text>
</a>
</g>
</g>
<!-- Node10&#45;&gt;Node14 -->
<g id="edge13" class="edge">
<title>Node10&#45;&gt;Node14</title>
<path fill="none" stroke="midnightblue" d="M835.63,-56.08C839.01,-48.77 843.92,-38.18 848.12,-29.1"/>
<polygon fill="midnightblue" stroke="midnightblue" points="851.42,-30.3 852.45,-19.75 845.07,-27.36 851.42,-30.3"/>
</g>
<!-- Node15 -->
<g id="node15" class="node">
<title>Node15</title>
<g id="a_node15"><a xlink:title=" ">
<polygon fill="none" stroke="#bfbfbf" points="898.5,-0.5 898.5,-19.5 954.5,-19.5 954.5,-0.5 898.5,-0.5"/>
<text text-anchor="middle" x="926.5" y="-7.5" font-family="Helvetica,sans-Serif" font-size="10.00">pthread.h</text>
</a>
</g>
</g>
<!-- Node10&#45;&gt;Node15 -->
<g id="edge14" class="edge">
<title>Node10&#45;&gt;Node15</title>
<path fill="none" stroke="midnightblue" d="M846.76,-56.32C861.72,-47.82 884.75,-34.73 902.23,-24.8"/>
<polygon fill="midnightblue" stroke="midnightblue" points="904.31,-27.64 911.27,-19.65 900.85,-21.55 904.31,-27.64"/>
</g>
<!-- Node16 -->
<g id="node16" class="node">
<title>Node16</title>
<g id="a_node16"><a xlink:title=" ">
<polygon fill="none" stroke="#bfbfbf" points="972.5,-0.5 972.5,-19.5 1018.5,-19.5 1018.5,-0.5 972.5,-0.5"/>
<text text-anchor="middle" x="995.5" y="-7.5" font-family="Helvetica,sans-Serif" font-size="10.00">errno.h</text>
</a>
</g>
</g>
<!-- Node10&#45;&gt;Node16 -->
<g id="edge15" class="edge">
<title>Node10&#45;&gt;Node16</title>
<path fill="none" stroke="midnightblue" d="M857.49,-56.44C885.89,-47.09 931.46,-32.09 962.4,-21.9"/>
<polygon fill="midnightblue" stroke="midnightblue" points="963.88,-25.1 972.29,-18.64 961.69,-18.45 963.88,-25.1"/>
</g>
<!-- Node17 -->
<g id="node17" class="node">
<title>Node17</title>
<g id="a_node17"><a xlink:title=" ">
<polygon fill="none" stroke="#bfbfbf" points="1036.5,-0.5 1036.5,-19.5 1086.5,-19.5 1086.5,-0.5 1036.5,-0.5"/>
<text text-anchor="middle" x="1061.5" y="-7.5" font-family="Helvetica,sans-Serif" font-size="10.00">signal.h</text>
</a>
</g>
</g>
<!-- Node10&#45;&gt;Node17 -->
<g id="edge16" class="edge">
<title>Node10&#45;&gt;Node17</title>
<path fill="none" stroke="midnightblue" d="M870.27,-56.5C907.78,-48.18 966.5,-34.93 1026.28,-20.24"/>
<polygon fill="midnightblue" stroke="midnightblue" points="1027.4,-23.57 1036.27,-17.78 1025.73,-16.78 1027.4,-23.57"/>
</g>
<!-- Node18 -->
<g id="node18" class="node">
<title>Node18</title>
<g id="a_node18"><a xlink:title=" ">
<polygon fill="none" stroke="#bfbfbf" points="1105,-0.5 1105,-19.5 1150,-19.5 1150,-0.5 1105,-0.5"/>
<text text-anchor="middle" x="1127.5" y="-7.5" font-family="Helvetica,sans-Serif" font-size="10.00">stdio.h</text>
</a>
</g>
</g>
<!-- Node10&#45;&gt;Node18 -->
<g id="edge17" class="edge">
<title>Node10&#45;&gt;Node18</title>
<path fill="none" stroke="midnightblue" d="M882.92,-57.87C934.16,-50.41 1015.25,-37.6 1094.67,-19.98"/>
<polygon fill="midnightblue" stroke="midnightblue" points="1095.86,-23.3 1104.85,-17.69 1094.33,-16.47 1095.86,-23.3"/>
</g>
<!-- Node19 -->
<g id="node19" class="node">
<title>Node19</title>
<g id="a_node19"><a xlink:title=" ">
<polygon fill="none" stroke="#bfbfbf" points="1168.5,-0.5 1168.5,-19.5 1216.5,-19.5 1216.5,-0.5 1168.5,-0.5"/>
<text text-anchor="middle" x="1192.5" y="-7.5" font-family="Helvetica,sans-Serif" font-size="10.00">string.h</text>
</a>
</g>
</g>
<!-- Node10&#45;&gt;Node19 -->
<g id="edge18" class="edge">
<title>Node10&#45;&gt;Node19</title>
<path fill="none" stroke="midnightblue" d="M882.6,-58.74C960.89,-49.02 1106.88,-30.34 1158.5,-20 1158.6,-19.98 1158.7,-19.96 1158.8,-19.94"/>
<polygon fill="midnightblue" stroke="midnightblue" points="1159.46,-23.38 1168.44,-17.76 1157.91,-16.55 1159.46,-23.38"/>
</g>
<!-- Node20 -->
<g id="node20" class="node">
<title>Node20</title>
<g id="a_node20"><a xlink:title=" ">
<polygon fill="none" stroke="#bfbfbf" points="1234.5,-0.5 1234.5,-19.5 1314.5,-19.5 1314.5,-0.5 1234.5,-0.5"/>
<text text-anchor="middle" x="1274.5" y="-7.5" font-family="Helvetica,sans-Serif" font-size="10.00">sys/resource.h</text>
</a>
</g>
</g>
<!-- Node10&#45;&gt;Node20 -->
<g id="edge19" class="edge">
<title>Node10&#45;&gt;Node20</title>
<path fill="none" stroke="midnightblue" d="M882.73,-58.8C890.69,-57.86 898.81,-56.89 906.5,-56 1045.04,-39.87 1082.68,-40.85 1224.48,-20.06"/>
<polygon fill="midnightblue" stroke="midnightblue" points="1225.04,-23.52 1234.43,-18.59 1224.02,-16.59 1225.04,-23.52"/>
</g>
<!-- Node21 -->
<g id="node21" class="node">
<title>Node21</title>
<g id="a_node21"><a xlink:title=" ">
<polygon fill="none" stroke="#bfbfbf" points="0,-0.5 0,-19.5 61,-19.5 61,-0.5 0,-0.5"/>
<text text-anchor="middle" x="30.5" y="-7.5" font-family="Helvetica,sans-Serif" font-size="10.00">sys/time.h</text>
</a>
</g>
</g>
<!-- Node10&#45;&gt;Node21 -->
<g id="edge20" class="edge">
<title>Node10&#45;&gt;Node21</title>
<path fill="none" stroke="midnightblue" d="M780.37,-64.93C658.81,-64.14 342.96,-58.36 71.12,-20"/>
<polygon fill="midnightblue" stroke="midnightblue" points="71.46,-16.51 61.07,-18.56 70.47,-23.44 71.46,-16.51"/>
</g>
<!-- Node22 -->
<g id="node22" class="node">
<title>Node22</title>
<g id="a_node22"><a xlink:title=" ">
<polygon fill="none" stroke="#bfbfbf" points="79,-0.5 79,-19.5 144,-19.5 144,-0.5 79,-0.5"/>
<text text-anchor="middle" x="111.5" y="-7.5" font-family="Helvetica,sans-Serif" font-size="10.00">sys/types.h</text>
</a>
</g>
</g>
<!-- Node10&#45;&gt;Node22 -->
<g id="edge21" class="edge">
<title>Node10&#45;&gt;Node22</title>
<path fill="none" stroke="midnightblue" d="M780.21,-64.13C668.28,-61.68 393.65,-52.7 154.36,-19.91"/>
<polygon fill="midnightblue" stroke="midnightblue" points="154.82,-16.44 144.43,-18.53 153.86,-23.37 154.82,-16.44"/>
</g>
<!-- Node23 -->
<g id="node23" class="node">
<title>Node23</title>
<g id="a_node23"><a xlink:title=" ">
<polygon fill="none" stroke="#bfbfbf" points="162.5,-0.5 162.5,-19.5 212.5,-19.5 212.5,-0.5 162.5,-0.5"/>
<text text-anchor="middle" x="187.5" y="-7.5" font-family="Helvetica,sans-Serif" font-size="10.00">unistd.h</text>
</a>
</g>
</g>
<!-- Node10&#45;&gt;Node23 -->
<g id="edge22" class="edge">
<title>Node10&#45;&gt;Node23</title>
<path fill="none" stroke="midnightblue" d="M780.11,-64.41C676.3,-62.53 434.22,-54.64 222.69,-19.88"/>
<polygon fill="midnightblue" stroke="midnightblue" points="223.08,-16.4 212.64,-18.21 221.93,-23.31 223.08,-16.4"/>
</g>
<!-- Node24 -->
<g id="node24" class="node">
<title>Node24</title>
<g id="a_node24"><a xlink:title=" ">
<polygon fill="none" stroke="#bfbfbf" points="231,-0.5 231,-19.5 274,-19.5 274,-0.5 231,-0.5"/>
<text text-anchor="middle" x="252.5" y="-7.5" font-family="Helvetica,sans-Serif" font-size="10.00">time.h</text>
</a>
</g>
</g>
<!-- Node10&#45;&gt;Node24 -->
<g id="edge23" class="edge">
<title>Node10&#45;&gt;Node24</title>
<path fill="none" stroke="midnightblue" d="M780.31,-64.37C684.38,-62.42 471.07,-54.44 284.32,-20"/>
<polygon fill="midnightblue" stroke="midnightblue" points="284.8,-16.53 274.32,-18.12 283.51,-23.41 284.8,-16.53"/>
</g>
<!-- Node25 -->
<g id="node25" class="node">
<title>Node25</title>
<g id="a_node25"><a xlink:title=" ">
<polygon fill="none" stroke="#bfbfbf" points="292,-0.5 292,-19.5 361,-19.5 361,-0.5 292,-0.5"/>
<text text-anchor="middle" x="326.5" y="-7.5" font-family="Helvetica,sans-Serif" font-size="10.00">sys/mman.h</text>
</a>
</g>
</g>
<!-- Node10&#45;&gt;Node25 -->
<g id="edge24" class="edge">
<title>Node10&#45;&gt;Node25</title>
<path fill="none" stroke="midnightblue" d="M780.34,-61.85C696.73,-56.3 525.44,-43.26 371.3,-20.13"/>
<polygon fill="midnightblue" stroke="midnightblue" points="371.59,-16.64 361.17,-18.6 370.54,-23.56 371.59,-16.64"/>
</g>
<!-- Node26 -->
<g id="node26" class="node">
<title>Node26</title>
<g id="a_node26"><a xlink:title=" ">
<polygon fill="none" stroke="#bfbfbf" points="379,-0.5 379,-19.5 432,-19.5 432,-0.5 379,-0.5"/>
<text text-anchor="middle" x="405.5" y="-7.5" font-family="Helvetica,sans-Serif" font-size="10.00">malloc.h</text>
</a>
</g>
</g>
<!-- Node10&#45;&gt;Node26 -->
<g id="edge25" class="edge">
<title>Node10&#45;&gt;Node26</title>
<path fill="none" stroke="midnightblue" d="M780.39,-61.24C707.48,-55.4 569.28,-42.6 442.07,-19.87"/>
<polygon fill="midnightblue" stroke="midnightblue" points="442.62,-16.41 432.15,-18.07 441.37,-23.3 442.62,-16.41"/>
</g>
<!-- Node27 -->
<g id="node27" class="node">
<title>Node27</title>
<g id="a_node27"><a xlink:title=" ">
<polygon fill="none" stroke="#bfbfbf" points="450.5,-0.5 450.5,-19.5 500.5,-19.5 500.5,-0.5 450.5,-0.5"/>
<text text-anchor="middle" x="475.5" y="-7.5" font-family="Helvetica,sans-Serif" font-size="10.00">sched.h</text>
</a>
</g>
</g>
<!-- Node10&#45;&gt;Node27 -->
<g id="edge26" class="edge">
<title>Node10&#45;&gt;Node27</title>
<path fill="none" stroke="midnightblue" d="M780.43,-59.78C718.71,-53.04 611.58,-40 510.72,-20.04"/>
<polygon fill="midnightblue" stroke="midnightblue" points="511.17,-16.56 500.67,-18.02 509.79,-23.42 511.17,-16.56"/>
</g>
<!-- Node10&#45;&gt;Node28 -->
<g id="edge27" class="edge">
<title>Node10&#45;&gt;Node28</title>
<path fill="none" stroke="midnightblue" d="M882.7,-58.47C890.66,-57.57 898.8,-56.71 906.5,-56 1151.14,-33.46 1218.33,-61.18 1464.26,-19.85"/>
<polygon fill="midnightblue" stroke="midnightblue" points="1464.94,-23.29 1474.21,-18.16 1463.77,-16.39 1464.94,-23.29"/>
</g>
<!-- Node10&#45;&gt;Node29 -->
<g id="edge28" class="edge">
<title>Node10&#45;&gt;Node29</title>
<path fill="none" stroke="midnightblue" d="M882.7,-58.54C890.66,-57.62 898.8,-56.75 906.5,-56 1120.13,-35.33 1178.69,-54.67 1394.91,-19.77"/>
<polygon fill="midnightblue" stroke="midnightblue" points="1395.69,-23.19 1405,-18.12 1394.56,-16.28 1395.69,-23.19"/>
</g>
<!-- Node30 -->
<g id="node30" class="node">
<title>Node30</title>
<g id="a_node30"><a xlink:title=" ">
<polygon fill="none" stroke="#bfbfbf" points="519,-0.5 519,-19.5 560,-19.5 560,-0.5 519,-0.5"/>
<text text-anchor="middle" x="539.5" y="-7.5" font-family="Helvetica,sans-Serif" font-size="10.00">ecrt.h</text>
</a>
</g>
</g>
<!-- Node10&#45;&gt;Node30 -->
<g id="edge29" class="edge">
<title>Node10&#45;&gt;Node30</title>
<path fill="none" stroke="midnightblue" d="M780.19,-58.26C729.07,-51.09 648.22,-38.52 570.02,-20.12"/>
<polygon fill="midnightblue" stroke="midnightblue" points="570.54,-16.65 560,-17.73 568.92,-23.46 570.54,-16.65"/>
</g>
<!-- Node31 -->
<g id="node31" class="node">
<title>Node31</title>
<g id="a_node31"><a xlink:href="object__dictionary_8hpp.html" target="_top" xlink:title=" ">
<polygon fill="none" stroke="black" points="578,-0.5 578,-19.5 685,-19.5 685,-0.5 578,-0.5"/>
<text text-anchor="middle" x="631.5" y="-7.5" font-family="Helvetica,sans-Serif" font-size="10.00">object_dictionary.hpp</text>
</a>
</g>
</g>
<!-- Node10&#45;&gt;Node31 -->
<g id="edge30" class="edge">
<title>Node10&#45;&gt;Node31</title>
<path fill="none" stroke="midnightblue" d="M799.81,-56.44C765.43,-47.16 710.42,-32.31 672.71,-22.13"/>
<polygon fill="midnightblue" stroke="midnightblue" points="673.61,-18.74 663.04,-19.52 671.78,-25.5 673.61,-18.74"/>
</g>
<!-- Node39&#45;&gt;Node11 -->
<g id="edge50" class="edge">
<title>Node39&#45;&gt;Node11</title>
<path fill="none" stroke="midnightblue" d="M1220.84,-117.75C1212.34,-103.42 1198.7,-74.66 1212.5,-56 1215.89,-51.42 1280.2,-32.92 1322.62,-21.11"/>
<polygon fill="midnightblue" stroke="midnightblue" points="1323.66,-24.46 1332.36,-18.41 1321.79,-17.71 1323.66,-24.46"/>
</g>
<!-- Node39&#45;&gt;Node28 -->
<g id="edge42" class="edge">
<title>Node39&#45;&gt;Node28</title>
<path fill="none" stroke="midnightblue" d="M1230.81,-117.94C1238.9,-102.8 1257.9,-71.45 1283.5,-56 1351.33,-15.05 1382.81,-37.27 1464.29,-20.01"/>
<polygon fill="midnightblue" stroke="midnightblue" points="1465.5,-23.33 1474.48,-17.71 1463.96,-16.5 1465.5,-23.33"/>
</g>
<!-- Node39&#45;&gt;Node29 -->
<g id="edge43" class="edge">
<title>Node39&#45;&gt;Node29</title>
<path fill="none" stroke="midnightblue" d="M1226.89,-117.7C1228.05,-102.76 1232.6,-72.44 1250.5,-56 1297.11,-13.18 1328.11,-34.06 1394.79,-19.96"/>
<polygon fill="midnightblue" stroke="midnightblue" points="1395.94,-23.28 1404.89,-17.61 1394.36,-16.46 1395.94,-23.28"/>
</g>
<!-- Node39&#45;&gt;Node32 -->
<g id="edge41" class="edge">
<title>Node39&#45;&gt;Node32</title>
<path fill="none" stroke="midnightblue" d="M1195.73,-121.39C1148.92,-113.43 1056.86,-96.98 969.58,-76.1"/>
<polygon fill="midnightblue" stroke="midnightblue" points="970.33,-72.68 959.79,-73.73 968.68,-79.48 970.33,-72.68"/>
</g>
<!-- Node39&#45;&gt;Node33 -->
<g id="edge44" class="edge">
<title>Node39&#45;&gt;Node33</title>
<path fill="none" stroke="midnightblue" d="M1195.59,-118.1C1156.62,-107.51 1089.59,-89.3 1046.96,-77.72"/>
<polygon fill="midnightblue" stroke="midnightblue" points="1047.77,-74.31 1037.2,-75.07 1045.94,-81.07 1047.77,-74.31"/>
</g>
<!-- Node39&#45;&gt;Node34 -->
<g id="edge45" class="edge">
<title>Node39&#45;&gt;Node34</title>
<path fill="none" stroke="midnightblue" d="M1204.87,-117.98C1178.78,-107.7 1134.8,-90.37 1105.47,-78.81"/>
<polygon fill="midnightblue" stroke="midnightblue" points="1106.71,-75.54 1096.13,-75.13 1104.15,-82.05 1106.71,-75.54"/>
</g>
<!-- Node39&#45;&gt;Node35 -->
<g id="edge46" class="edge">
<title>Node39&#45;&gt;Node35</title>
<path fill="none" stroke="midnightblue" d="M1213.75,-117.98C1199.47,-108.43 1176.1,-92.81 1158.99,-81.37"/>
<polygon fill="midnightblue" stroke="midnightblue" points="1160.49,-78.16 1150.23,-75.51 1156.6,-83.98 1160.49,-78.16"/>
</g>
<!-- Node39&#45;&gt;Node36 -->
<g id="edge47" class="edge">
<title>Node39&#45;&gt;Node36</title>
<path fill="none" stroke="midnightblue" d="M1238.96,-117.98C1252.92,-108.43 1275.76,-92.81 1292.49,-81.37"/>
<polygon fill="midnightblue" stroke="midnightblue" points="1294.78,-84.04 1301.06,-75.51 1290.83,-78.27 1294.78,-84.04"/>
</g>
<!-- Node39&#45;&gt;Node37 -->
<g id="edge48" class="edge">
<title>Node39&#45;&gt;Node37</title>
<path fill="none" stroke="midnightblue" d="M1246.99,-117.98C1272.02,-107.56 1314.47,-89.9 1342.25,-78.34"/>
<polygon fill="midnightblue" stroke="midnightblue" points="1343.87,-81.46 1351.75,-74.38 1341.18,-74.99 1343.87,-81.46"/>
</g>
<!-- Node39&#45;&gt;Node38 -->
<g id="edge49" class="edge">
<title>Node39&#45;&gt;Node38</title>
<path fill="none" stroke="midnightblue" d="M1255.73,-117.98C1292.72,-107.19 1356.36,-88.62 1395.78,-77.13"/>
<polygon fill="midnightblue" stroke="midnightblue" points="1396.88,-80.45 1405.5,-74.29 1394.92,-73.73 1396.88,-80.45"/>
</g>
</g>
</svg>
        <g id="navigator" transform="translate(0 0)" fill="#404254">
                <rect fill="#f2f5e9" fill-opacity="0.5" stroke="#606060" stroke-width=".5" x="0" y="0" width="60" height="60"/>
                <use id="zoomplus" xlink:href="#zoomPlus" x="17" y="9" onmousedown="handleZoom(evt,'in')"/>
                <use id="zoomminus" xlink:href="#zoomMin" x="42" y="9" onmousedown="handleZoom(evt,'out')"/>
                <use id="reset" xlink:href="#resetDef" x="30" y="36" onmousedown="handleReset()"/>
                <g id="arrowUp" xlink:href="#dirArrow" transform="translate(30 24)" onmousedown="handlePan(0,-1)">
                  <use xlink:href="#rim" fill="#404040">
                        <set attributeName="fill" to="#808080" begin="arrowUp.mouseover" end="arrowUp.mouseout"/>
                  </use>
                  <path fill="none" stroke="white" stroke-width="1.5" d="M0,-3.0v7 M-2.5,-0.5L0,-3.0L2.5,-0.5"/>
                </g>
                <g id="arrowRight" xlink:href="#dirArrow" transform="rotate(90) translate(36 -43)" onmousedown="handlePan(1,0)">
                  <use xlink:href="#rim" fill="#404040">
                        <set attributeName="fill" to="#808080" begin="arrowRight.mouseover" end="arrowRight.mouseout"/>
                  </use>
                  <path fill="none" stroke="white" stroke-width="1.5" d="M0,-3.0v7 M-2.5,-0.5L0,-3.0L2.5,-0.5"/>
                </g>
                <g id="arrowDown" xlink:href="#dirArrow" transform="rotate(180) translate(-30 -48)" onmousedown="handlePan(0,1)">
                  <use xlink:href="#rim" fill="#404040">
                        <set attributeName="fill" to="#808080" begin="arrowDown.mouseover" end="arrowDown.mouseout"/>
                  </use>
                  <path fill="none" stroke="white" stroke-width="1.5" d="M0,-3.0v7 M-2.5,-0.5L0,-3.0L2.5,-0.5"/>
                </g>
                <g id="arrowLeft" xlink:href="#dirArrow" transform="rotate(270) translate(-36 17)" onmousedown="handlePan(-1,0)">
                  <use xlink:href="#rim" fill="#404040">
                        <set attributeName="fill" to="#808080" begin="arrowLeft.mouseover" end="arrowLeft.mouseout"/>
                  </use>
                  <path fill="none" stroke="white" stroke-width="1.5" d="M0,-3.0v7 M-2.5,-0.5L0,-3.0L2.5,-0.5"/>
                </g>
        </g>
        <svg viewBox="0 0 15 15" width="100%" height="30px" preserveAspectRatio="xMaxYMin meet">
         <g id="arrow_out" transform="scale(0.3 0.3)">
          <a xlink:href="gui__node_8cpp__incl_org.svg" target="_base">
           <rect id="button" ry="5" rx="5" y="6" x="6" height="38" width="38"
                fill="#f2f5e9" fill-opacity="0.5" stroke="#606060" stroke-width="1.0"/>
           <path id="arrow"
             d="M 11.500037,31.436501 C 11.940474,20.09759 22.043105,11.32322 32.158766,21.979434 L 37.068811,17.246167 C 37.068811,17.246167 37.088388,32 37.088388,32 L 22.160133,31.978069 C 22.160133,31.978069 26.997745,27.140456 26.997745,27.140456 C 18.528582,18.264221 13.291696,25.230495 11.500037,31.436501 z"
             style="fill:#404040;"/>
          </a>
         </g>
        </svg>
</svg>
