<?xml version="1.0" encoding="UTF-8" standalone="no"?>
<!DOCTYPE svg PUBLIC "-//W3C//DTD SVG 1.1//EN"
 "http://www.w3.org/Graphics/SVG/1.1/DTD/svg11.dtd">
<!-- Generated by graphviz version 2.49.3 (20211027.1534)
 -->
<!-- Title: src/gui_pkg/include/gui_pkg/gui_globals.hpp Pages: 1 -->
<svg width="562pt" height="240pt"
 viewBox="0.00 0.00 561.50 240.00" xmlns="http://www.w3.org/2000/svg" xmlns:xlink="http://www.w3.org/1999/xlink">
<g id="graph0" class="graph" transform="scale(1 1) rotate(0) translate(4 236)">
<title>src/gui_pkg/include/gui_pkg/gui_globals.hpp</title>
<!-- Node1 -->
<g id="node1" class="node">
<title>Node1</title>
<g id="a_node1"><a xlink:title=" ">
<polygon fill="#bfbfbf" stroke="black" points="140,-201.5 140,-231.5 263,-231.5 263,-201.5 140,-201.5"/>
<text text-anchor="start" x="148" y="-219.5" font-family="Helvetica,sans-Serif" font-size="10.00">src/gui_pkg/include</text>
<text text-anchor="middle" x="201.5" y="-208.5" font-family="Helvetica,sans-Serif" font-size="10.00">/gui_pkg/gui_globals.hpp</text>
</a>
</g>
</g>
<!-- Node2 -->
<g id="node2" class="node">
<title>Node2</title>
<g id="a_node2"><a xlink:href="gui__node_8hpp.html" target="_top" xlink:title=" ">
<polygon fill="none" stroke="black" points="60,-134.5 60,-164.5 173,-164.5 173,-134.5 60,-134.5"/>
<text text-anchor="start" x="68" y="-152.5" font-family="Helvetica,sans-Serif" font-size="10.00">src/gui_pkg/include</text>
<text text-anchor="middle" x="116.5" y="-141.5" font-family="Helvetica,sans-Serif" font-size="10.00">/gui_pkg/gui_node.hpp</text>
</a>
</g>
</g>
<!-- Node1&#45;&gt;Node2 -->
<g id="edge1" class="edge">
<title>Node1&#45;&gt;Node2</title>
<path fill="none" stroke="midnightblue" d="M174.91,-195.17C161.91,-185.23 146.6,-173.51 134.91,-164.58"/>
<polygon fill="midnightblue" stroke="midnightblue" points="172.99,-198.1 183.06,-201.4 177.24,-192.54 172.99,-198.1"/>
</g>
<!-- Node3 -->
<g id="node3" class="node">
<title>Node3</title>
<g id="a_node3"><a xlink:href="main__window_8hpp.html" target="_top" xlink:title=" ">
<polygon fill="none" stroke="black" points="117.5,-67.5 117.5,-97.5 251.5,-97.5 251.5,-67.5 117.5,-67.5"/>
<text text-anchor="start" x="125.5" y="-85.5" font-family="Helvetica,sans-Serif" font-size="10.00">src/gui_pkg/include</text>
<text text-anchor="middle" x="184.5" y="-74.5" font-family="Helvetica,sans-Serif" font-size="10.00">/gui_pkg/main_window.hpp</text>
</a>
</g>
</g>
<!-- Node1&#45;&gt;Node3 -->
<g id="edge6" class="edge">
<title>Node1&#45;&gt;Node3</title>
<path fill="none" stroke="midnightblue" d="M198.39,-191.39C194.85,-163.9 189.19,-119.89 186.31,-97.52"/>
<polygon fill="midnightblue" stroke="midnightblue" points="194.93,-191.9 199.68,-201.37 201.87,-191.01 194.93,-191.9"/>
</g>
<!-- Node7 -->
<g id="node7" class="node">
<title>Node7</title>
<g id="a_node7"><a xlink:href="video__capture_8hpp.html" target="_top" xlink:title=" ">
<polygon fill="none" stroke="black" points="263,-134.5 263,-164.5 398,-164.5 398,-134.5 263,-134.5"/>
<text text-anchor="start" x="271" y="-152.5" font-family="Helvetica,sans-Serif" font-size="10.00">src/gui_pkg/include</text>
<text text-anchor="middle" x="330.5" y="-141.5" font-family="Helvetica,sans-Serif" font-size="10.00">/gui_pkg/video_capture.hpp</text>
</a>
</g>
</g>
<!-- Node1&#45;&gt;Node7 -->
<g id="edge7" class="edge">
<title>Node1&#45;&gt;Node7</title>
<path fill="none" stroke="midnightblue" d="M238.51,-196.85C258.9,-186.58 283.81,-174.03 302.56,-164.58"/>
<polygon fill="midnightblue" stroke="midnightblue" points="236.85,-193.77 229.49,-201.4 240,-200.02 236.85,-193.77"/>
</g>
<!-- Node2&#45;&gt;Node3 -->
<g id="edge2" class="edge">
<title>Node2&#45;&gt;Node3</title>
<path fill="none" stroke="midnightblue" d="M138.67,-127.31C148.87,-117.56 160.69,-106.26 169.77,-97.58"/>
<polygon fill="midnightblue" stroke="midnightblue" points="136.07,-124.96 131.25,-134.4 140.9,-130.02 136.07,-124.96"/>
</g>
<!-- Node6 -->
<g id="node6" class="node">
<title>Node6</title>
<g id="a_node6"><a xlink:href="gui__node_8cpp.html" target="_top" xlink:title=" ">
<polygon fill="none" stroke="black" points="0,-67.5 0,-97.5 99,-97.5 99,-67.5 0,-67.5"/>
<text text-anchor="start" x="8" y="-85.5" font-family="Helvetica,sans-Serif" font-size="10.00">src/gui_pkg/src/gui</text>
<text text-anchor="middle" x="49.5" y="-74.5" font-family="Helvetica,sans-Serif" font-size="10.00">_node.cpp</text>
</a>
</g>
</g>
<!-- Node2&#45;&gt;Node6 -->
<g id="edge5" class="edge">
<title>Node2&#45;&gt;Node6</title>
<path fill="none" stroke="midnightblue" d="M94.66,-127.31C84.61,-117.56 72.96,-106.26 64.01,-97.58"/>
<polygon fill="midnightblue" stroke="midnightblue" points="92.35,-129.94 101.96,-134.4 97.22,-124.92 92.35,-129.94"/>
</g>
<!-- Node4 -->
<g id="node4" class="node">
<title>Node4</title>
<g id="a_node4"><a xlink:href="gui__pkg_2src_2main_8cpp.html" target="_top" xlink:title=" ">
<polygon fill="none" stroke="black" points="197,-6 197,-25 322,-25 322,-6 197,-6"/>
<text text-anchor="middle" x="259.5" y="-13" font-family="Helvetica,sans-Serif" font-size="10.00">src/gui_pkg/src/main.cpp</text>
</a>
</g>
</g>
<!-- Node3&#45;&gt;Node4 -->
<g id="edge3" class="edge">
<title>Node3&#45;&gt;Node4</title>
<path fill="none" stroke="midnightblue" d="M208.53,-60.67C222.38,-48.67 239.05,-34.22 249.47,-25.19"/>
<polygon fill="midnightblue" stroke="midnightblue" points="206.04,-58.2 200.77,-67.4 210.62,-63.49 206.04,-58.2"/>
</g>
<!-- Node5 -->
<g id="node5" class="node">
<title>Node5</title>
<g id="a_node5"><a xlink:href="main__window_8cpp.html" target="_top" xlink:title=" ">
<polygon fill="none" stroke="black" points="72,-0.5 72,-30.5 179,-30.5 179,-0.5 72,-0.5"/>
<text text-anchor="start" x="80" y="-18.5" font-family="Helvetica,sans-Serif" font-size="10.00">src/gui_pkg/src/main</text>
<text text-anchor="middle" x="125.5" y="-7.5" font-family="Helvetica,sans-Serif" font-size="10.00">_window.cpp</text>
</a>
</g>
</g>
<!-- Node3&#45;&gt;Node5 -->
<g id="edge4" class="edge">
<title>Node3&#45;&gt;Node5</title>
<path fill="none" stroke="midnightblue" d="M164.75,-59.74C156.02,-50.12 146,-39.09 138.28,-30.58"/>
<polygon fill="midnightblue" stroke="midnightblue" points="162.39,-62.34 171.7,-67.4 167.57,-57.64 162.39,-62.34"/>
</g>
<!-- Node7&#45;&gt;Node3 -->
<g id="edge11" class="edge">
<title>Node7&#45;&gt;Node3</title>
<path fill="none" stroke="midnightblue" d="M289.55,-130.27C266.3,-119.92 237.63,-107.15 216.12,-97.58"/>
<polygon fill="midnightblue" stroke="midnightblue" points="288.26,-133.53 298.82,-134.4 291.11,-127.13 288.26,-133.53"/>
</g>
<!-- Node8 -->
<g id="node8" class="node">
<title>Node8</title>
<g id="a_node8"><a xlink:href="endoscope__viewer_8hpp.html" target="_top" xlink:title=" ">
<polygon fill="none" stroke="black" points="270,-67.5 270,-97.5 425,-97.5 425,-67.5 270,-67.5"/>
<text text-anchor="start" x="278" y="-85.5" font-family="Helvetica,sans-Serif" font-size="10.00">src/gui_pkg/include</text>
<text text-anchor="middle" x="347.5" y="-74.5" font-family="Helvetica,sans-Serif" font-size="10.00">/gui_pkg/endoscope_viewer.hpp</text>
</a>
</g>
</g>
<!-- Node7&#45;&gt;Node8 -->
<g id="edge8" class="edge">
<title>Node7&#45;&gt;Node8</title>
<path fill="none" stroke="midnightblue" d="M336.73,-124.7C339.11,-115.59 341.75,-105.49 343.82,-97.58"/>
<polygon fill="midnightblue" stroke="midnightblue" points="333.33,-123.84 334.19,-134.4 340.11,-125.61 333.33,-123.84"/>
</g>
<!-- Node10 -->
<g id="node10" class="node">
<title>Node10</title>
<g id="a_node10"><a xlink:href="video__capture_8cpp.html" target="_top" xlink:title=" ">
<polygon fill="none" stroke="black" points="443.5,-67.5 443.5,-97.5 553.5,-97.5 553.5,-67.5 443.5,-67.5"/>
<text text-anchor="start" x="451.5" y="-85.5" font-family="Helvetica,sans-Serif" font-size="10.00">src/gui_pkg/src/video</text>
<text text-anchor="middle" x="498.5" y="-74.5" font-family="Helvetica,sans-Serif" font-size="10.00">_capture.cpp</text>
</a>
</g>
</g>
<!-- Node7&#45;&gt;Node10 -->
<g id="edge12" class="edge">
<title>Node7&#45;&gt;Node10</title>
<path fill="none" stroke="midnightblue" d="M376.55,-130.68C403.5,-120.26 437.04,-107.28 462.12,-97.58"/>
<polygon fill="midnightblue" stroke="midnightblue" points="375.02,-127.52 366.95,-134.4 377.54,-134.05 375.02,-127.52"/>
</g>
<!-- Node8&#45;&gt;Node4 -->
<g id="edge10" class="edge">
<title>Node8&#45;&gt;Node4</title>
<path fill="none" stroke="midnightblue" d="M320.16,-61.31C303.64,-49.1 283.43,-34.18 271.02,-25.01"/>
<polygon fill="midnightblue" stroke="midnightblue" points="318.28,-64.27 328.41,-67.4 322.44,-58.64 318.28,-64.27"/>
</g>
<!-- Node9 -->
<g id="node9" class="node">
<title>Node9</title>
<g id="a_node9"><a xlink:href="endoscope__viewer_8cpp.html" target="_top" xlink:title=" ">
<polygon fill="none" stroke="black" points="340.5,-0.5 340.5,-30.5 474.5,-30.5 474.5,-0.5 340.5,-0.5"/>
<text text-anchor="start" x="348.5" y="-18.5" font-family="Helvetica,sans-Serif" font-size="10.00">src/gui_pkg/src/endoscope</text>
<text text-anchor="middle" x="407.5" y="-7.5" font-family="Helvetica,sans-Serif" font-size="10.00">_viewer.cpp</text>
</a>
</g>
</g>
<!-- Node8&#45;&gt;Node9 -->
<g id="edge9" class="edge">
<title>Node8&#45;&gt;Node9</title>
<path fill="none" stroke="midnightblue" d="M367.32,-60.02C376.26,-50.34 386.57,-39.17 394.51,-30.58"/>
<polygon fill="midnightblue" stroke="midnightblue" points="364.73,-57.67 360.52,-67.4 369.87,-62.42 364.73,-57.67"/>
</g>
</g>
</svg>
