<?xml version="1.0" encoding="UTF-8" standalone="no"?>
<!DOCTYPE svg PUBLIC "-//W3C//DTD SVG 1.1//EN"
 "http://www.w3.org/Graphics/SVG/1.1/DTD/svg11.dtd">
<!-- Generated by graphviz version 2.49.3 (20211027.1534)
 -->
<!-- Title: src/gui_pkg/include/gui_pkg/timing.hpp Pages: 1 -->
<svg width="410pt" height="240pt"
 viewBox="0.00 0.00 410.00 240.00" xmlns="http://www.w3.org/2000/svg" xmlns:xlink="http://www.w3.org/1999/xlink">
<g id="graph0" class="graph" transform="scale(1 1) rotate(0) translate(4 236)">
<title>src/gui_pkg/include/gui_pkg/timing.hpp</title>
<!-- Node1 -->
<g id="node1" class="node">
<title>Node1</title>
<g id="a_node1"><a xlink:title=" ">
<polygon fill="#bfbfbf" stroke="black" points="216,-201.5 216,-231.5 317,-231.5 317,-201.5 216,-201.5"/>
<text text-anchor="start" x="224" y="-219.5" font-family="Helvetica,sans-Serif" font-size="10.00">src/gui_pkg/include</text>
<text text-anchor="middle" x="266.5" y="-208.5" font-family="Helvetica,sans-Serif" font-size="10.00">/gui_pkg/timing.hpp</text>
</a>
</g>
</g>
<!-- Node2 -->
<g id="node2" class="node">
<title>Node2</title>
<g id="a_node2"><a xlink:href="gui__node_8hpp.html" target="_top" xlink:title=" ">
<polygon fill="none" stroke="black" points="140,-134.5 140,-164.5 253,-164.5 253,-134.5 140,-134.5"/>
<text text-anchor="start" x="148" y="-152.5" font-family="Helvetica,sans-Serif" font-size="10.00">src/gui_pkg/include</text>
<text text-anchor="middle" x="196.5" y="-141.5" font-family="Helvetica,sans-Serif" font-size="10.00">/gui_pkg/gui_node.hpp</text>
</a>
</g>
</g>
<!-- Node1&#45;&gt;Node2 -->
<g id="edge1" class="edge">
<title>Node1&#45;&gt;Node2</title>
<path fill="none" stroke="midnightblue" d="M243.68,-194.31C233.18,-184.56 221.01,-173.26 211.66,-164.58"/>
<polygon fill="midnightblue" stroke="midnightblue" points="241.6,-197.16 251.31,-201.4 246.36,-192.03 241.6,-197.16"/>
</g>
<!-- Node7 -->
<g id="node7" class="node">
<title>Node7</title>
<g id="a_node7"><a xlink:href="gui__pkg_2src_2timing_8cpp.html" target="_top" xlink:title=" ">
<polygon fill="none" stroke="black" points="271,-140 271,-159 402,-159 402,-140 271,-140"/>
<text text-anchor="middle" x="336.5" y="-147" font-family="Helvetica,sans-Serif" font-size="10.00">src/gui_pkg/src/timing.cpp</text>
</a>
</g>
</g>
<!-- Node1&#45;&gt;Node7 -->
<g id="edge6" class="edge">
<title>Node1&#45;&gt;Node7</title>
<path fill="none" stroke="midnightblue" d="M289.29,-194.34C302.15,-182.4 317.51,-168.14 327.14,-159.19"/>
<polygon fill="midnightblue" stroke="midnightblue" points="286.64,-192.03 281.69,-201.4 291.4,-197.16 286.64,-192.03"/>
</g>
<!-- Node3 -->
<g id="node3" class="node">
<title>Node3</title>
<g id="a_node3"><a xlink:href="main__window_8hpp.html" target="_top" xlink:title=" ">
<polygon fill="none" stroke="black" points="62.5,-67.5 62.5,-97.5 196.5,-97.5 196.5,-67.5 62.5,-67.5"/>
<text text-anchor="start" x="70.5" y="-85.5" font-family="Helvetica,sans-Serif" font-size="10.00">src/gui_pkg/include</text>
<text text-anchor="middle" x="129.5" y="-74.5" font-family="Helvetica,sans-Serif" font-size="10.00">/gui_pkg/main_window.hpp</text>
</a>
</g>
</g>
<!-- Node2&#45;&gt;Node3 -->
<g id="edge2" class="edge">
<title>Node2&#45;&gt;Node3</title>
<path fill="none" stroke="midnightblue" d="M174.66,-127.31C164.61,-117.56 152.96,-106.26 144.01,-97.58"/>
<polygon fill="midnightblue" stroke="midnightblue" points="172.35,-129.94 181.96,-134.4 177.22,-124.92 172.35,-129.94"/>
</g>
<!-- Node6 -->
<g id="node6" class="node">
<title>Node6</title>
<g id="a_node6"><a xlink:href="gui__node_8cpp.html" target="_top" xlink:title=" ">
<polygon fill="none" stroke="black" points="215,-67.5 215,-97.5 314,-97.5 314,-67.5 215,-67.5"/>
<text text-anchor="start" x="223" y="-85.5" font-family="Helvetica,sans-Serif" font-size="10.00">src/gui_pkg/src/gui</text>
<text text-anchor="middle" x="264.5" y="-74.5" font-family="Helvetica,sans-Serif" font-size="10.00">_node.cpp</text>
</a>
</g>
</g>
<!-- Node2&#45;&gt;Node6 -->
<g id="edge5" class="edge">
<title>Node2&#45;&gt;Node6</title>
<path fill="none" stroke="midnightblue" d="M218.67,-127.31C228.87,-117.56 240.69,-106.26 249.77,-97.58"/>
<polygon fill="midnightblue" stroke="midnightblue" points="216.07,-124.96 211.25,-134.4 220.9,-130.02 216.07,-124.96"/>
</g>
<!-- Node4 -->
<g id="node4" class="node">
<title>Node4</title>
<g id="a_node4"><a xlink:href="gui__pkg_2src_2main_8cpp.html" target="_top" xlink:title=" ">
<polygon fill="none" stroke="black" points="0,-6 0,-25 125,-25 125,-6 0,-6"/>
<text text-anchor="middle" x="62.5" y="-13" font-family="Helvetica,sans-Serif" font-size="10.00">src/gui_pkg/src/main.cpp</text>
</a>
</g>
</g>
<!-- Node3&#45;&gt;Node4 -->
<g id="edge3" class="edge">
<title>Node3&#45;&gt;Node4</title>
<path fill="none" stroke="midnightblue" d="M107.68,-60.34C95.38,-48.4 80.68,-34.14 71.46,-25.19"/>
<polygon fill="midnightblue" stroke="midnightblue" points="105.35,-62.94 114.96,-67.4 110.22,-57.92 105.35,-62.94"/>
</g>
<!-- Node5 -->
<g id="node5" class="node">
<title>Node5</title>
<g id="a_node5"><a xlink:href="main__window_8cpp.html" target="_top" xlink:title=" ">
<polygon fill="none" stroke="black" points="143,-0.5 143,-30.5 250,-30.5 250,-0.5 143,-0.5"/>
<text text-anchor="start" x="151" y="-18.5" font-family="Helvetica,sans-Serif" font-size="10.00">src/gui_pkg/src/main</text>
<text text-anchor="middle" x="196.5" y="-7.5" font-family="Helvetica,sans-Serif" font-size="10.00">_window.cpp</text>
</a>
</g>
</g>
<!-- Node3&#45;&gt;Node5 -->
<g id="edge4" class="edge">
<title>Node3&#45;&gt;Node5</title>
<path fill="none" stroke="midnightblue" d="M151.34,-60.31C161.39,-50.56 173.04,-39.26 181.99,-30.58"/>
<polygon fill="midnightblue" stroke="midnightblue" points="148.78,-57.92 144.04,-67.4 153.65,-62.94 148.78,-57.92"/>
</g>
</g>
</svg>
