<?xml version="1.0" encoding="UTF-8" standalone="no"?>
<!DOCTYPE svg PUBLIC "-//W3C//DTD SVG 1.1//EN"
 "http://www.w3.org/Graphics/SVG/1.1/DTD/svg11.dtd">
<!-- Generated by graphviz version 2.43.0 (0)
 -->
<!-- Title: src/input_pkg/src/hapticNode.cpp Pages: 1 -->
<!--zoomable 162 -->
<svg id="main" version="1.1" xmlns="http://www.w3.org/2000/svg" xmlns:xlink="http://www.w3.org/1999/xlink" xml:space="preserve" onload="init(evt)">
<style type="text/css"><![CDATA[
.edge:hover path { stroke: red; }
.edge:hover polygon { stroke: red; fill: red; }
]]></style>
<script type="text/javascript"><![CDATA[
var edges = document.getElementsByTagName('g');
if (edges && edges.length) {
  for (var i=0;i<edges.length;i++) {
    if (edges[i].id.substr(0,4)=='edge') {
      edges[i].setAttribute('class','edge');
    }
  }
}
]]></script>
        <defs>
                <circle id="rim" cx="0" cy="0" r="7"/>
                <circle id="rim2" cx="0" cy="0" r="3.5"/>
                <g id="zoomPlus">
                        <use xlink:href="#rim" fill="#404040">
                                <set attributeName="fill" to="#808080" begin="zoomplus.mouseover" end="zoomplus.mouseout"/>
                        </use>
                        <path d="M-4,0h8M0,-4v8" fill="none" stroke="white" stroke-width="1.5" pointer-events="none"/>
                </g>
                <g id="zoomMin">
                        <use xlink:href="#rim" fill="#404040">
                                <set attributeName="fill" to="#808080" begin="zoomminus.mouseover" end="zoomminus.mouseout"/>
                        </use>
                        <path d="M-4,0h8" fill="none" stroke="white" stroke-width="1.5" pointer-events="none"/>
                </g>
                <g id="dirArrow">
                        <path fill="none" stroke="white" stroke-width="1.5" d="M0,-3.0v7 M-2.5,-0.5L0,-3.0L2.5,-0.5"/>
                </g>
               <g id="resetDef">
                       <use xlink:href="#rim2" fill="#404040">
                               <set attributeName="fill" to="#808080" begin="reset.mouseover" end="reset.mouseout"/>
                       </use>
               </g>
        </defs>

<script type="text/javascript">
var viewWidth = 1587;
var viewHeight = 162;
var sectionId = 'dynsection-0';
</script>
<script xlink:href="svgpan.js"/>
<svg id="graph" class="graph">
<g id="viewport">
<title>src/input_pkg/src/hapticNode.cpp</title>
<!-- Node1 -->
<g id="node1" class="node">
<title>Node1</title>
<g id="a_node1"><a xlink:title=" ">
<polygon fill="#bfbfbf" stroke="black" points="591,-123.5 591,-153.5 723,-153.5 723,-123.5 591,-123.5"/>
<text text-anchor="start" x="599" y="-141.5" font-family="Helvetica,sans-Serif" font-size="10.00">src/input_pkg/src/haptic</text>
<text text-anchor="middle" x="657" y="-130.5" font-family="Helvetica,sans-Serif" font-size="10.00">Node.cpp</text>
</a>
</g>
</g>
<!-- Node2 -->
<g id="node2" class="node">
<title>Node2</title>
<g id="a_node2"><a xlink:title=" ">
<polygon fill="none" stroke="#bfbfbf" points="0,-67.5 0,-86.5 50,-86.5 50,-67.5 0,-67.5"/>
<text text-anchor="middle" x="25" y="-74.5" font-family="Helvetica,sans-Serif" font-size="10.00">chrono</text>
</a>
</g>
</g>
<!-- Node1&#45;&gt;Node2 -->
<g id="edge1" class="edge">
<title>Node1&#45;&gt;Node2</title>
<path fill="none" stroke="midnightblue" d="M590.6,-135.67C481.56,-131.84 257.79,-120.5 60.13,-86.9"/>
<polygon fill="midnightblue" stroke="midnightblue" points="60.59,-83.43 50.14,-85.18 59.4,-90.33 60.59,-83.43"/>
</g>
<!-- Node3 -->
<g id="node3" class="node">
<title>Node3</title>
<g id="a_node3"><a xlink:title=" ">
<polygon fill="none" stroke="#bfbfbf" points="68.5,-67.5 68.5,-86.5 133.5,-86.5 133.5,-67.5 68.5,-67.5"/>
<text text-anchor="middle" x="101" y="-74.5" font-family="Helvetica,sans-Serif" font-size="10.00">functional</text>
</a>
</g>
</g>
<!-- Node1&#45;&gt;Node3 -->
<g id="edge2" class="edge">
<title>Node1&#45;&gt;Node3</title>
<path fill="none" stroke="midnightblue" d="M590.88,-132.86C493.57,-125.59 306.19,-109.95 148,-87 146.54,-86.79 145.05,-86.56 143.55,-86.32"/>
<polygon fill="midnightblue" stroke="midnightblue" points="144,-82.85 133.55,-84.63 142.83,-89.75 144,-82.85"/>
</g>
<!-- Node4 -->
<g id="node4" class="node">
<title>Node4</title>
<g id="a_node4"><a xlink:title=" ">
<polygon fill="none" stroke="#bfbfbf" points="50,-6 50,-25 108,-25 108,-6 50,-6"/>
<text text-anchor="middle" x="79" y="-13" font-family="Helvetica,sans-Serif" font-size="10.00">memory</text>
</a>
</g>
</g>
<!-- Node1&#45;&gt;Node4 -->
<g id="edge3" class="edge">
<title>Node1&#45;&gt;Node4</title>
<path fill="none" stroke="midnightblue" d="M590.98,-138.42C501.03,-137.82 335.95,-130.16 203,-87 163.28,-74.11 122.09,-47.61 98.6,-31.03"/>
<polygon fill="midnightblue" stroke="midnightblue" points="100.38,-28 90.22,-25 96.3,-33.68 100.38,-28"/>
</g>
<!-- Node5 -->
<g id="node5" class="node">
<title>Node5</title>
<g id="a_node5"><a xlink:title=" ">
<polygon fill="none" stroke="#bfbfbf" points="126,-6 126,-25 170,-25 170,-6 126,-6"/>
<text text-anchor="middle" x="148" y="-13" font-family="Helvetica,sans-Serif" font-size="10.00">string</text>
</a>
</g>
</g>
<!-- Node1&#45;&gt;Node5 -->
<g id="edge4" class="edge">
<title>Node1&#45;&gt;Node5</title>
<path fill="none" stroke="midnightblue" d="M590.93,-133.75C489.86,-127.3 302.04,-112.3 240,-87 209.58,-74.59 180.54,-49.33 163.49,-32.66"/>
<polygon fill="midnightblue" stroke="midnightblue" points="165.67,-29.89 156.13,-25.26 160.7,-34.82 165.67,-29.89"/>
</g>
<!-- Node6 -->
<g id="node6" class="node">
<title>Node6</title>
<g id="a_node6"><a xlink:title=" ">
<polygon fill="none" stroke="#bfbfbf" points="416.5,-67.5 416.5,-86.5 467.5,-86.5 467.5,-67.5 416.5,-67.5"/>
<text text-anchor="middle" x="442" y="-74.5" font-family="Helvetica,sans-Serif" font-size="10.00">math.h</text>
</a>
</g>
</g>
<!-- Node1&#45;&gt;Node6 -->
<g id="edge5" class="edge">
<title>Node1&#45;&gt;Node6</title>
<path fill="none" stroke="midnightblue" d="M606.32,-123.47C566.66,-112.5 512.52,-97.52 477.41,-87.8"/>
<polygon fill="midnightblue" stroke="midnightblue" points="478.17,-84.38 467.6,-85.08 476.3,-91.12 478.17,-84.38"/>
</g>
<!-- Node7 -->
<g id="node7" class="node">
<title>Node7</title>
<g id="a_node7"><a xlink:title=" ">
<polygon fill="none" stroke="#bfbfbf" points="485.5,-67.5 485.5,-86.5 554.5,-86.5 554.5,-67.5 485.5,-67.5"/>
<text text-anchor="middle" x="520" y="-74.5" font-family="Helvetica,sans-Serif" font-size="10.00">arpa/inet.h</text>
</a>
</g>
</g>
<!-- Node1&#45;&gt;Node7 -->
<g id="edge6" class="edge">
<title>Node1&#45;&gt;Node7</title>
<path fill="none" stroke="midnightblue" d="M624.53,-123.4C601.65,-113.46 571.27,-100.26 549.16,-90.66"/>
<polygon fill="midnightblue" stroke="midnightblue" points="550.5,-87.43 539.93,-86.66 547.71,-93.85 550.5,-87.43"/>
</g>
<!-- Node8 -->
<g id="node8" class="node">
<title>Node8</title>
<g id="a_node8"><a xlink:title=" ">
<polygon fill="none" stroke="#bfbfbf" points="572.5,-67.5 572.5,-86.5 649.5,-86.5 649.5,-67.5 572.5,-67.5"/>
<text text-anchor="middle" x="611" y="-74.5" font-family="Helvetica,sans-Serif" font-size="10.00">sys/socket.h</text>
</a>
</g>
</g>
<!-- Node1&#45;&gt;Node8 -->
<g id="edge7" class="edge">
<title>Node1&#45;&gt;Node8</title>
<path fill="none" stroke="midnightblue" d="M646.1,-123.4C639.41,-114.75 630.82,-103.64 623.82,-94.58"/>
<polygon fill="midnightblue" stroke="midnightblue" points="626.58,-92.43 617.69,-86.66 621.04,-96.71 626.58,-92.43"/>
</g>
<!-- Node9 -->
<g id="node9" class="node">
<title>Node9</title>
<g id="a_node9"><a xlink:title=" ">
<polygon fill="none" stroke="#bfbfbf" points="668,-67.5 668,-86.5 740,-86.5 740,-67.5 668,-67.5"/>
<text text-anchor="middle" x="704" y="-74.5" font-family="Helvetica,sans-Serif" font-size="10.00">sys/types.h</text>
</a>
</g>
</g>
<!-- Node1&#45;&gt;Node9 -->
<g id="edge8" class="edge">
<title>Node1&#45;&gt;Node9</title>
<path fill="none" stroke="midnightblue" d="M668.14,-123.4C674.97,-114.75 683.74,-103.64 690.91,-94.58"/>
<polygon fill="midnightblue" stroke="midnightblue" points="693.71,-96.67 697.16,-86.66 688.22,-92.34 693.71,-96.67"/>
</g>
<!-- Node10 -->
<g id="node10" class="node">
<title>Node10</title>
<g id="a_node10"><a xlink:title=" ">
<polygon fill="none" stroke="#bfbfbf" points="758,-67.5 758,-86.5 830,-86.5 830,-67.5 758,-67.5"/>
<text text-anchor="middle" x="794" y="-74.5" font-family="Helvetica,sans-Serif" font-size="10.00">netinet/in.h</text>
</a>
</g>
</g>
<!-- Node1&#45;&gt;Node10 -->
<g id="edge9" class="edge">
<title>Node1&#45;&gt;Node10</title>
<path fill="none" stroke="midnightblue" d="M689.47,-123.4C712.35,-113.46 742.73,-100.26 764.84,-90.66"/>
<polygon fill="midnightblue" stroke="midnightblue" points="766.29,-93.85 774.07,-86.66 763.5,-87.43 766.29,-93.85"/>
</g>
<!-- Node11 -->
<g id="node11" class="node">
<title>Node11</title>
<g id="a_node11"><a xlink:title=" ">
<polygon fill="none" stroke="#bfbfbf" points="848.5,-67.5 848.5,-86.5 895.5,-86.5 895.5,-67.5 848.5,-67.5"/>
<text text-anchor="middle" x="872" y="-74.5" font-family="Helvetica,sans-Serif" font-size="10.00">fcntl.h</text>
</a>
</g>
</g>
<!-- Node1&#45;&gt;Node11 -->
<g id="edge10" class="edge">
<title>Node1&#45;&gt;Node11</title>
<path fill="none" stroke="midnightblue" d="M707.68,-123.47C748.13,-112.28 803.65,-96.92 838.67,-87.22"/>
<polygon fill="midnightblue" stroke="midnightblue" points="839.7,-90.57 848.41,-84.53 837.84,-83.82 839.7,-90.57"/>
</g>
<!-- Node12 -->
<g id="node12" class="node">
<title>Node12</title>
<g id="a_node12"><a xlink:title=" ">
<polygon fill="none" stroke="#bfbfbf" points="914,-67.5 914,-86.5 964,-86.5 964,-67.5 914,-67.5"/>
<text text-anchor="middle" x="939" y="-74.5" font-family="Helvetica,sans-Serif" font-size="10.00">stdio.h</text>
</a>
</g>
</g>
<!-- Node1&#45;&gt;Node12 -->
<g id="edge11" class="edge">
<title>Node1&#45;&gt;Node12</title>
<path fill="none" stroke="midnightblue" d="M723.02,-125.14C770.77,-115.94 837.04,-102.68 903.92,-87.15"/>
<polygon fill="midnightblue" stroke="midnightblue" points="904.85,-90.53 913.79,-84.85 903.26,-83.71 904.85,-90.53"/>
</g>
<!-- Node13 -->
<g id="node13" class="node">
<title>Node13</title>
<g id="a_node13"><a xlink:title=" ">
<polygon fill="none" stroke="#bfbfbf" points="982.5,-67.5 982.5,-86.5 1035.5,-86.5 1035.5,-67.5 982.5,-67.5"/>
<text text-anchor="middle" x="1009" y="-74.5" font-family="Helvetica,sans-Serif" font-size="10.00">stdlib.h</text>
</a>
</g>
</g>
<!-- Node1&#45;&gt;Node13 -->
<g id="edge12" class="edge">
<title>Node1&#45;&gt;Node13</title>
<path fill="none" stroke="midnightblue" d="M723.27,-128.61C785.16,-119.92 880.29,-105.58 972.28,-86.99"/>
<polygon fill="midnightblue" stroke="midnightblue" points="973.22,-90.37 982.32,-84.94 971.82,-83.51 973.22,-90.37"/>
</g>
<!-- Node14 -->
<g id="node14" class="node">
<title>Node14</title>
<g id="a_node14"><a xlink:title=" ">
<polygon fill="none" stroke="#bfbfbf" points="1054,-67.5 1054,-86.5 1110,-86.5 1110,-67.5 1054,-67.5"/>
<text text-anchor="middle" x="1082" y="-74.5" font-family="Helvetica,sans-Serif" font-size="10.00">unistd.h</text>
</a>
</g>
</g>
<!-- Node1&#45;&gt;Node14 -->
<g id="edge13" class="edge">
<title>Node1&#45;&gt;Node14</title>
<path fill="none" stroke="midnightblue" d="M723.25,-131.1C798.65,-123.32 925.63,-108.71 1043.84,-87.04"/>
<polygon fill="midnightblue" stroke="midnightblue" points="1044.59,-90.46 1053.79,-85.2 1043.32,-83.58 1044.59,-90.46"/>
</g>
<!-- Node15 -->
<g id="node15" class="node">
<title>Node15</title>
<g id="a_node15"><a xlink:title=" ">
<polygon fill="none" stroke="#bfbfbf" points="1128,-67.5 1128,-86.5 1188,-86.5 1188,-67.5 1128,-67.5"/>
<text text-anchor="middle" x="1158" y="-74.5" font-family="Helvetica,sans-Serif" font-size="10.00">iostream</text>
</a>
</g>
</g>
<!-- Node1&#45;&gt;Node15 -->
<g id="edge14" class="edge">
<title>Node1&#45;&gt;Node15</title>
<path fill="none" stroke="midnightblue" d="M723.13,-132.74C811.1,-125.85 971.58,-111.39 1117.78,-87.03"/>
<polygon fill="midnightblue" stroke="midnightblue" points="1118.56,-90.44 1127.84,-85.33 1117.39,-83.54 1118.56,-90.44"/>
</g>
<!-- Node16 -->
<g id="node16" class="node">
<title>Node16</title>
<g id="a_node16"><a xlink:title=" ">
<polygon fill="none" stroke="#bfbfbf" points="1206.5,-67.5 1206.5,-86.5 1261.5,-86.5 1261.5,-67.5 1206.5,-67.5"/>
<text text-anchor="middle" x="1234" y="-74.5" font-family="Helvetica,sans-Serif" font-size="10.00">fstream</text>
</a>
</g>
</g>
<!-- Node1&#45;&gt;Node16 -->
<g id="edge15" class="edge">
<title>Node1&#45;&gt;Node16</title>
<path fill="none" stroke="midnightblue" d="M723.07,-134.42C823.35,-129.06 1020.05,-115.88 1196.24,-86.88"/>
<polygon fill="midnightblue" stroke="midnightblue" points="1196.92,-90.32 1206.21,-85.22 1195.77,-83.41 1196.92,-90.32"/>
</g>
<!-- Node17 -->
<g id="node17" class="node">
<title>Node17</title>
<g id="a_node17"><a xlink:title=" ">
<polygon fill="none" stroke="#bfbfbf" points="188.5,-6 188.5,-25 287.5,-25 287.5,-6 188.5,-6"/>
<text text-anchor="middle" x="238" y="-13" font-family="Helvetica,sans-Serif" font-size="10.00">rclcpp/rclcpp.hpp</text>
</a>
</g>
</g>
<!-- Node1&#45;&gt;Node17 -->
<g id="edge16" class="edge">
<title>Node1&#45;&gt;Node17</title>
<path fill="none" stroke="midnightblue" d="M590.81,-137.69C490.52,-136.6 306.58,-128.76 258,-87 243.41,-74.45 239.08,-52.12 237.98,-35.94"/>
<polygon fill="midnightblue" stroke="midnightblue" points="241.46,-35.36 237.64,-25.48 234.46,-35.59 241.46,-35.36"/>
</g>
<!-- Node18 -->
<g id="node18" class="node">
<title>Node18</title>
<g id="a_node18"><a xlink:title=" ">
<polygon fill="none" stroke="#bfbfbf" points="1279.5,-67.5 1279.5,-86.5 1418.5,-86.5 1418.5,-67.5 1279.5,-67.5"/>
<text text-anchor="middle" x="1349" y="-74.5" font-family="Helvetica,sans-Serif" font-size="10.00">std_msgs/msg/string.hpp</text>
</a>
</g>
</g>
<!-- Node1&#45;&gt;Node18 -->
<g id="edge17" class="edge">
<title>Node1&#45;&gt;Node18</title>
<path fill="none" stroke="midnightblue" d="M723.39,-132.76C834.27,-124.68 1064.39,-107.24 1269.23,-87.15"/>
<polygon fill="midnightblue" stroke="midnightblue" points="1269.66,-90.62 1279.27,-86.16 1268.98,-83.66 1269.66,-90.62"/>
</g>
<!-- Node19 -->
<g id="node19" class="node">
<title>Node19</title>
<g id="a_node19"><a xlink:title=" ">
<polygon fill="none" stroke="#bfbfbf" points="1437,-67.5 1437,-86.5 1579,-86.5 1579,-67.5 1437,-67.5"/>
<text text-anchor="middle" x="1508" y="-74.5" font-family="Helvetica,sans-Serif" font-size="10.00">sensor_msgs/msg/joy.hpp</text>
</a>
</g>
</g>
<!-- Node1&#45;&gt;Node19 -->
<g id="edge18" class="edge">
<title>Node1&#45;&gt;Node19</title>
<path fill="none" stroke="midnightblue" d="M723.09,-134.21C854.79,-127.43 1159.59,-110.61 1426.63,-87.08"/>
<polygon fill="midnightblue" stroke="midnightblue" points="1427.27,-90.54 1436.92,-86.17 1426.65,-83.57 1427.27,-90.54"/>
</g>
<!-- Node20 -->
<g id="node20" class="node">
<title>Node20</title>
<g id="a_node20"><a xlink:title=" ">
<polygon fill="none" stroke="#bfbfbf" points="526,-0.5 526,-30.5 652,-30.5 652,-0.5 526,-0.5"/>
<text text-anchor="start" x="534" y="-18.5" font-family="Helvetica,sans-Serif" font-size="10.00">ecat_msgs/msg/haptic</text>
<text text-anchor="middle" x="589" y="-7.5" font-family="Helvetica,sans-Serif" font-size="10.00">_cmd.hpp</text>
</a>
</g>
</g>
<!-- Node1&#45;&gt;Node20 -->
<g id="edge19" class="edge">
<title>Node1&#45;&gt;Node20</title>
<path fill="none" stroke="midnightblue" d="M591,-133.34C525.19,-127.66 430.72,-114.79 408,-87 402.37,-80.12 402.63,-74.08 408,-67 414.93,-57.87 468.78,-43.55 515.95,-32.49"/>
<polygon fill="midnightblue" stroke="midnightblue" points="516.95,-35.85 525.9,-30.18 515.37,-29.03 516.95,-35.85"/>
</g>
<!-- Node21 -->
<g id="node21" class="node">
<title>Node21</title>
<g id="a_node21"><a xlink:href="hapticNode_8hpp.html" target="_top" xlink:title=" ">
<polygon fill="none" stroke="black" points="266.5,-67.5 266.5,-86.5 359.5,-86.5 359.5,-67.5 266.5,-67.5"/>
<text text-anchor="middle" x="313" y="-74.5" font-family="Helvetica,sans-Serif" font-size="10.00">hapticNode.hpp</text>
</a>
</g>
</g>
<!-- Node1&#45;&gt;Node21 -->
<g id="edge20" class="edge">
<title>Node1&#45;&gt;Node21</title>
<path fill="none" stroke="midnightblue" d="M590.67,-126.03C526.54,-114.93 430.4,-98.31 369.72,-87.81"/>
<polygon fill="midnightblue" stroke="midnightblue" points="370.01,-84.31 359.56,-86.05 368.82,-91.21 370.01,-84.31"/>
</g>
<!-- Node21&#45;&gt;Node4 -->
<g id="edge23" class="edge">
<title>Node21&#45;&gt;Node4</title>
<path fill="none" stroke="midnightblue" d="M267.77,-67.47C227.74,-59.49 167.94,-46.48 117,-31 114.43,-30.22 111.78,-29.35 109.14,-28.43"/>
<polygon fill="midnightblue" stroke="midnightblue" points="110.32,-25.14 99.73,-25 107.92,-31.72 110.32,-25.14"/>
</g>
<!-- Node21&#45;&gt;Node5 -->
<g id="edge24" class="edge">
<title>Node21&#45;&gt;Node5</title>
<path fill="none" stroke="midnightblue" d="M284.43,-67.44C257.06,-59 214.77,-45.32 179,-31 177.62,-30.45 176.22,-29.87 174.8,-29.26"/>
<polygon fill="midnightblue" stroke="midnightblue" points="176.11,-26.02 165.55,-25.13 173.26,-32.41 176.11,-26.02"/>
</g>
<!-- Node21&#45;&gt;Node17 -->
<g id="edge26" class="edge">
<title>Node21&#45;&gt;Node17</title>
<path fill="none" stroke="midnightblue" d="M302.25,-67.48C290.45,-58.11 271.26,-42.88 256.92,-31.51"/>
<polygon fill="midnightblue" stroke="midnightblue" points="258.74,-28.48 248.73,-25.01 254.38,-33.97 258.74,-28.48"/>
</g>
<!-- Node21&#45;&gt;Node20 -->
<g id="edge27" class="edge">
<title>Node21&#45;&gt;Node20</title>
<path fill="none" stroke="midnightblue" d="M352.54,-67.48C395.04,-58.31 463.54,-43.55 515.9,-32.26"/>
<polygon fill="midnightblue" stroke="midnightblue" points="516.77,-35.65 525.81,-30.12 515.29,-28.81 516.77,-35.65"/>
</g>
<!-- Node22 -->
<g id="node22" class="node">
<title>Node22</title>
<g id="a_node22"><a xlink:title=" ">
<polygon fill="none" stroke="#bfbfbf" points="306,-6 306,-25 378,-25 378,-6 306,-6"/>
<text text-anchor="middle" x="342" y="-13" font-family="Helvetica,sans-Serif" font-size="10.00">SDL2/SDL.h</text>
</a>
</g>
</g>
<!-- Node21&#45;&gt;Node22 -->
<g id="edge21" class="edge">
<title>Node21&#45;&gt;Node22</title>
<path fill="none" stroke="midnightblue" d="M317.15,-67.48C321.38,-58.82 328.04,-45.15 333.4,-34.15"/>
<polygon fill="midnightblue" stroke="midnightblue" points="336.62,-35.53 337.85,-25.01 330.33,-32.46 336.62,-35.53"/>
</g>
<!-- Node23 -->
<g id="node23" class="node">
<title>Node23</title>
<g id="a_node23"><a xlink:title=" ">
<polygon fill="none" stroke="#bfbfbf" points="396,-6 396,-25 442,-25 442,-6 396,-6"/>
<text text-anchor="middle" x="419" y="-13" font-family="Helvetica,sans-Serif" font-size="10.00">future</text>
</a>
</g>
</g>
<!-- Node21&#45;&gt;Node23 -->
<g id="edge22" class="edge">
<title>Node21&#45;&gt;Node23</title>
<path fill="none" stroke="midnightblue" d="M328.19,-67.48C345.66,-57.67 374.58,-41.43 395.08,-29.92"/>
<polygon fill="midnightblue" stroke="midnightblue" points="396.83,-32.96 403.84,-25.01 393.41,-26.85 396.83,-32.96"/>
</g>
<!-- Node24 -->
<g id="node24" class="node">
<title>Node24</title>
<g id="a_node24"><a xlink:title=" ">
<polygon fill="none" stroke="#bfbfbf" points="460,-6 460,-25 508,-25 508,-6 460,-6"/>
<text text-anchor="middle" x="484" y="-13" font-family="Helvetica,sans-Serif" font-size="10.00">thread</text>
</a>
</g>
</g>
<!-- Node21&#45;&gt;Node24 -->
<g id="edge25" class="edge">
<title>Node21&#45;&gt;Node24</title>
<path fill="none" stroke="midnightblue" d="M342.1,-67.43C370.23,-58.92 413.92,-45.15 451,-31 452.61,-30.39 454.25,-29.74 455.9,-29.07"/>
<polygon fill="midnightblue" stroke="midnightblue" points="457.43,-32.22 465.29,-25.11 454.71,-25.77 457.43,-32.22"/>
</g>
</g>
</svg>
        <g id="navigator" transform="translate(0 0)" fill="#404254">
                <rect fill="#f2f5e9" fill-opacity="0.5" stroke="#606060" stroke-width=".5" x="0" y="0" width="60" height="60"/>
                <use id="zoomplus" xlink:href="#zoomPlus" x="17" y="9" onmousedown="handleZoom(evt,'in')"/>
                <use id="zoomminus" xlink:href="#zoomMin" x="42" y="9" onmousedown="handleZoom(evt,'out')"/>
                <use id="reset" xlink:href="#resetDef" x="30" y="36" onmousedown="handleReset()"/>
                <g id="arrowUp" xlink:href="#dirArrow" transform="translate(30 24)" onmousedown="handlePan(0,-1)">
                  <use xlink:href="#rim" fill="#404040">
                        <set attributeName="fill" to="#808080" begin="arrowUp.mouseover" end="arrowUp.mouseout"/>
                  </use>
                  <path fill="none" stroke="white" stroke-width="1.5" d="M0,-3.0v7 M-2.5,-0.5L0,-3.0L2.5,-0.5"/>
                </g>
                <g id="arrowRight" xlink:href="#dirArrow" transform="rotate(90) translate(36 -43)" onmousedown="handlePan(1,0)">
                  <use xlink:href="#rim" fill="#404040">
                        <set attributeName="fill" to="#808080" begin="arrowRight.mouseover" end="arrowRight.mouseout"/>
                  </use>
                  <path fill="none" stroke="white" stroke-width="1.5" d="M0,-3.0v7 M-2.5,-0.5L0,-3.0L2.5,-0.5"/>
                </g>
                <g id="arrowDown" xlink:href="#dirArrow" transform="rotate(180) translate(-30 -48)" onmousedown="handlePan(0,1)">
                  <use xlink:href="#rim" fill="#404040">
                        <set attributeName="fill" to="#808080" begin="arrowDown.mouseover" end="arrowDown.mouseout"/>
                  </use>
                  <path fill="none" stroke="white" stroke-width="1.5" d="M0,-3.0v7 M-2.5,-0.5L0,-3.0L2.5,-0.5"/>
                </g>
                <g id="arrowLeft" xlink:href="#dirArrow" transform="rotate(270) translate(-36 17)" onmousedown="handlePan(-1,0)">
                  <use xlink:href="#rim" fill="#404040">
                        <set attributeName="fill" to="#808080" begin="arrowLeft.mouseover" end="arrowLeft.mouseout"/>
                  </use>
                  <path fill="none" stroke="white" stroke-width="1.5" d="M0,-3.0v7 M-2.5,-0.5L0,-3.0L2.5,-0.5"/>
                </g>
        </g>
        <svg viewBox="0 0 15 15" width="100%" height="30px" preserveAspectRatio="xMaxYMin meet">
         <g id="arrow_out" transform="scale(0.3 0.3)">
          <a xlink:href="hapticNode_8cpp__incl_org.svg" target="_base">
           <rect id="button" ry="5" rx="5" y="6" x="6" height="38" width="38"
                fill="#f2f5e9" fill-opacity="0.5" stroke="#606060" stroke-width="1.0"/>
           <path id="arrow"
             d="M 11.500037,31.436501 C 11.940474,20.09759 22.043105,11.32322 32.158766,21.979434 L 37.068811,17.246167 C 37.068811,17.246167 37.088388,32 37.088388,32 L 22.160133,31.978069 C 22.160133,31.978069 26.997745,27.140456 26.997745,27.140456 C 18.528582,18.264221 13.291696,25.230495 11.500037,31.436501 z"
             style="fill:#404040;"/>
          </a>
         </g>
        </svg>
</svg>
