<?xml version="1.0" encoding="UTF-8" standalone="no"?>
<!DOCTYPE svg PUBLIC "-//W3C//DTD SVG 1.1//EN"
 "http://www.w3.org/Graphics/SVG/1.1/DTD/svg11.dtd">
<!-- Generated by graphviz version 2.43.0 (0)
 -->
<!-- Title: src/input_pkg/include/input_pkg/hapticNode.hpp Pages: 1 -->
<svg width="610pt" height="106pt"
 viewBox="0.00 0.00 610.00 106.00" xmlns="http://www.w3.org/2000/svg" xmlns:xlink="http://www.w3.org/1999/xlink">
<g id="graph0" class="graph" transform="scale(1 1) rotate(0) translate(4 102)">
<title>src/input_pkg/include/input_pkg/hapticNode.hpp</title>
<!-- Node1 -->
<g id="node1" class="node">
<title>Node1</title>
<g id="a_node1"><a xlink:title=" ">
<polygon fill="#bfbfbf" stroke="black" points="178.5,-67.5 178.5,-97.5 325.5,-97.5 325.5,-67.5 178.5,-67.5"/>
<text text-anchor="start" x="186.5" y="-85.5" font-family="Helvetica,sans-Serif" font-size="10.00">src/input_pkg/include</text>
<text text-anchor="middle" x="252" y="-74.5" font-family="Helvetica,sans-Serif" font-size="10.00">/input_pkg/hapticNode.hpp</text>
</a>
</g>
</g>
<!-- Node2 -->
<g id="node2" class="node">
<title>Node2</title>
<g id="a_node2"><a xlink:title=" ">
<polygon fill="none" stroke="#bfbfbf" points="0,-6 0,-25 72,-25 72,-6 0,-6"/>
<text text-anchor="middle" x="36" y="-13" font-family="Helvetica,sans-Serif" font-size="10.00">SDL2/SDL.h</text>
</a>
</g>
</g>
<!-- Node1&#45;&gt;Node2 -->
<g id="edge1" class="edge">
<title>Node1&#45;&gt;Node2</title>
<path fill="none" stroke="midnightblue" d="M203.26,-67.45C168.99,-57.49 122.11,-43.69 81,-31 78.04,-30.09 74.97,-29.12 71.89,-28.15"/>
<polygon fill="midnightblue" stroke="midnightblue" points="72.73,-24.75 62.14,-25.04 70.6,-31.42 72.73,-24.75"/>
</g>
<!-- Node3 -->
<g id="node3" class="node">
<title>Node3</title>
<g id="a_node3"><a xlink:title=" ">
<polygon fill="none" stroke="#bfbfbf" points="90,-6 90,-25 136,-25 136,-6 90,-6"/>
<text text-anchor="middle" x="113" y="-13" font-family="Helvetica,sans-Serif" font-size="10.00">future</text>
</a>
</g>
</g>
<!-- Node1&#45;&gt;Node3 -->
<g id="edge2" class="edge">
<title>Node1&#45;&gt;Node3</title>
<path fill="none" stroke="midnightblue" d="M221.84,-67.4C197.56,-56.04 163.72,-40.22 140.25,-29.24"/>
<polygon fill="midnightblue" stroke="midnightblue" points="141.73,-26.07 131.19,-25.01 138.77,-32.41 141.73,-26.07"/>
</g>
<!-- Node4 -->
<g id="node4" class="node">
<title>Node4</title>
<g id="a_node4"><a xlink:title=" ">
<polygon fill="none" stroke="#bfbfbf" points="154,-6 154,-25 212,-25 212,-6 154,-6"/>
<text text-anchor="middle" x="183" y="-13" font-family="Helvetica,sans-Serif" font-size="10.00">memory</text>
</a>
</g>
</g>
<!-- Node1&#45;&gt;Node4 -->
<g id="edge3" class="edge">
<title>Node1&#45;&gt;Node4</title>
<path fill="none" stroke="midnightblue" d="M237.03,-67.4C226.06,-57.06 211.16,-43.02 199.78,-32.31"/>
<polygon fill="midnightblue" stroke="midnightblue" points="201.91,-29.5 192.23,-25.19 197.11,-34.6 201.91,-29.5"/>
</g>
<!-- Node5 -->
<g id="node5" class="node">
<title>Node5</title>
<g id="a_node5"><a xlink:title=" ">
<polygon fill="none" stroke="#bfbfbf" points="230,-6 230,-25 274,-25 274,-6 230,-6"/>
<text text-anchor="middle" x="252" y="-13" font-family="Helvetica,sans-Serif" font-size="10.00">string</text>
</a>
</g>
</g>
<!-- Node1&#45;&gt;Node5 -->
<g id="edge4" class="edge">
<title>Node1&#45;&gt;Node5</title>
<path fill="none" stroke="midnightblue" d="M252,-67.4C252,-58.06 252,-45.71 252,-35.52"/>
<polygon fill="midnightblue" stroke="midnightblue" points="255.5,-35.19 252,-25.19 248.5,-35.19 255.5,-35.19"/>
</g>
<!-- Node6 -->
<g id="node6" class="node">
<title>Node6</title>
<g id="a_node6"><a xlink:title=" ">
<polygon fill="none" stroke="#bfbfbf" points="292,-6 292,-25 340,-25 340,-6 292,-6"/>
<text text-anchor="middle" x="316" y="-13" font-family="Helvetica,sans-Serif" font-size="10.00">thread</text>
</a>
</g>
</g>
<!-- Node1&#45;&gt;Node6 -->
<g id="edge5" class="edge">
<title>Node1&#45;&gt;Node6</title>
<path fill="none" stroke="midnightblue" d="M265.89,-67.4C275.96,-57.16 289.62,-43.3 300.13,-32.62"/>
<polygon fill="midnightblue" stroke="midnightblue" points="302.92,-34.78 307.44,-25.19 297.93,-29.86 302.92,-34.78"/>
</g>
<!-- Node7 -->
<g id="node7" class="node">
<title>Node7</title>
<g id="a_node7"><a xlink:title=" ">
<polygon fill="none" stroke="#bfbfbf" points="358.5,-6 358.5,-25 457.5,-25 457.5,-6 358.5,-6"/>
<text text-anchor="middle" x="408" y="-13" font-family="Helvetica,sans-Serif" font-size="10.00">rclcpp/rclcpp.hpp</text>
</a>
</g>
</g>
<!-- Node1&#45;&gt;Node7 -->
<g id="edge6" class="edge">
<title>Node1&#45;&gt;Node7</title>
<path fill="none" stroke="midnightblue" d="M285.85,-67.4C313.34,-55.94 351.75,-39.94 378.11,-28.95"/>
<polygon fill="midnightblue" stroke="midnightblue" points="379.7,-32.08 387.58,-25.01 377.01,-25.62 379.7,-32.08"/>
</g>
<!-- Node8 -->
<g id="node8" class="node">
<title>Node8</title>
<g id="a_node8"><a xlink:title=" ">
<polygon fill="none" stroke="#bfbfbf" points="476,-0.5 476,-30.5 602,-30.5 602,-0.5 476,-0.5"/>
<text text-anchor="start" x="484" y="-18.5" font-family="Helvetica,sans-Serif" font-size="10.00">ecat_msgs/msg/haptic</text>
<text text-anchor="middle" x="539" y="-7.5" font-family="Helvetica,sans-Serif" font-size="10.00">_cmd.hpp</text>
</a>
</g>
</g>
<!-- Node1&#45;&gt;Node8 -->
<g id="edge7" class="edge">
<title>Node1&#45;&gt;Node8</title>
<path fill="none" stroke="midnightblue" d="M313.92,-67.48C358.84,-57.3 419.74,-43.51 466.86,-32.84"/>
<polygon fill="midnightblue" stroke="midnightblue" points="467.72,-36.23 476.69,-30.61 466.17,-29.41 467.72,-36.23"/>
</g>
</g>
</svg>
