<?xml version="1.0" encoding="UTF-8" standalone="no"?>
<!DOCTYPE svg PUBLIC "-//W3C//DTD SVG 1.1//EN"
 "http://www.w3.org/Graphics/SVG/1.1/DTD/svg11.dtd">
<!-- Generated by graphviz version 2.49.3 (20211027.1534)
 -->
<!-- Title: Graphical Class Hierarchy Pages: 1 -->
<svg width="219pt" height="104pt"
 viewBox="0.00 0.00 219.00 104.00" xmlns="http://www.w3.org/2000/svg" xmlns:xlink="http://www.w3.org/1999/xlink">
<g id="graph0" class="graph" transform="scale(1 1) rotate(0) translate(4 100)">
<title>Graphical Class Hierarchy</title>
<!-- Node16 -->
<g id="node1" class="node">
<title>Node16</title>
<g id="a_node1"><a xlink:title=" ">
<polygon fill="none" stroke="#bfbfbf" points="0,-38.5 0,-57.5 80,-57.5 80,-38.5 0,-38.5"/>
<text text-anchor="middle" x="40" y="-45.5" font-family="Helvetica,sans-Serif" font-size="10.00">QMainWindow</text>
</a>
</g>
</g>
<!-- Node0 -->
<g id="node2" class="node">
<title>Node0</title>
<g id="a_node2"><a xlink:href="classControlUI.html" target="_top" xlink:title=" ">
<polygon fill="none" stroke="black" points="134.5,-76.5 134.5,-95.5 192.5,-95.5 192.5,-76.5 134.5,-76.5"/>
<text text-anchor="middle" x="163.5" y="-83.5" font-family="Helvetica,sans-Serif" font-size="10.00">ControlUI</text>
</a>
</g>
</g>
<!-- Node16&#45;&gt;Node0 -->
<g id="edge1" class="edge">
<title>Node16&#45;&gt;Node0</title>
<path fill="none" stroke="midnightblue" d="M81.53,-60.67C98.86,-66.09 118.66,-72.29 134.35,-77.2"/>
<polygon fill="midnightblue" stroke="midnightblue" points="82.25,-57.23 71.66,-57.59 80.16,-63.91 82.25,-57.23"/>
</g>
<!-- Node18 -->
<g id="node3" class="node">
<title>Node18</title>
<g id="a_node3"><a xlink:href="classEndoscopeViewer.html" target="_top" xlink:title=" ">
<polygon fill="none" stroke="black" points="116,-38.5 116,-57.5 211,-57.5 211,-38.5 116,-38.5"/>
<text text-anchor="middle" x="163.5" y="-45.5" font-family="Helvetica,sans-Serif" font-size="10.00">EndoscopeViewer</text>
</a>
</g>
</g>
<!-- Node16&#45;&gt;Node18 -->
<g id="edge2" class="edge">
<title>Node16&#45;&gt;Node18</title>
<path fill="none" stroke="midnightblue" d="M90.22,-48C98.68,-48 107.44,-48 115.82,-48"/>
<polygon fill="midnightblue" stroke="midnightblue" points="90.11,-44.5 80.11,-48 90.11,-51.5 90.11,-44.5"/>
</g>
<!-- Node19 -->
<g id="node4" class="node">
<title>Node19</title>
<g id="a_node4"><a xlink:href="classMainWindow.html" target="_top" xlink:title=" ">
<polygon fill="none" stroke="black" points="127.5,-0.5 127.5,-19.5 199.5,-19.5 199.5,-0.5 127.5,-0.5"/>
<text text-anchor="middle" x="163.5" y="-7.5" font-family="Helvetica,sans-Serif" font-size="10.00">MainWindow</text>
</a>
</g>
</g>
<!-- Node16&#45;&gt;Node19 -->
<g id="edge3" class="edge">
<title>Node16&#45;&gt;Node19</title>
<path fill="none" stroke="midnightblue" d="M81.54,-35.32C97.96,-30.19 116.6,-24.36 131.85,-19.59"/>
<polygon fill="midnightblue" stroke="midnightblue" points="80.16,-32.09 71.66,-38.41 82.25,-38.77 80.16,-32.09"/>
</g>
</g>
</svg>
