<?xml version="1.0" encoding="UTF-8" standalone="no"?>
<!DOCTYPE svg PUBLIC "-//W3C//DTD SVG 1.1//EN"
 "http://www.w3.org/Graphics/SVG/1.1/DTD/svg11.dtd">
<!-- Generated by graphviz version 2.49.3 (20211027.1534)
 -->
<!-- Title: Graphical Class Hierarchy Pages: 1 -->
<svg width="192pt" height="104pt"
 viewBox="0.00 0.00 192.00 104.00" xmlns="http://www.w3.org/2000/svg" xmlns:xlink="http://www.w3.org/1999/xlink">
<g id="graph0" class="graph" transform="scale(1 1) rotate(0) translate(4 100)">
<title>Graphical Class Hierarchy</title>
<!-- Node9 -->
<g id="node1" class="node">
<title>Node9</title>
<g id="a_node1"><a xlink:title=" ">
<polygon fill="none" stroke="#bfbfbf" points="0,-38.5 0,-57.5 71,-57.5 71,-38.5 0,-38.5"/>
<text text-anchor="middle" x="35.5" y="-45.5" font-family="Helvetica,sans-Serif" font-size="10.00">rclcpp::Node</text>
</a>
</g>
</g>
<!-- Node0 -->
<g id="node2" class="node">
<title>Node0</title>
<g id="a_node2"><a xlink:href="classGUI_1_1GuiNode.html" target="_top" xlink:title="This node will be responsible from all GUI interaction and visualization of feedback information acqu...">
<polygon fill="none" stroke="black" points="107,-76.5 107,-95.5 184,-95.5 184,-76.5 107,-76.5"/>
<text text-anchor="middle" x="145.5" y="-83.5" font-family="Helvetica,sans-Serif" font-size="10.00">GUI::GuiNode</text>
</a>
</g>
</g>
<!-- Node9&#45;&gt;Node0 -->
<g id="edge1" class="edge">
<title>Node9&#45;&gt;Node0</title>
<path fill="none" stroke="midnightblue" d="M73.37,-60.97C87.76,-66.03 103.95,-71.73 117.26,-76.41"/>
<polygon fill="midnightblue" stroke="midnightblue" points="74.35,-57.61 63.75,-57.59 72.02,-64.21 74.35,-57.61"/>
</g>
<!-- Node11 -->
<g id="node3" class="node">
<title>Node11</title>
<g id="a_node3"><a xlink:href="classHapticNode.html" target="_top" xlink:title=" ">
<polygon fill="none" stroke="black" points="111.5,-38.5 111.5,-57.5 179.5,-57.5 179.5,-38.5 111.5,-38.5"/>
<text text-anchor="middle" x="145.5" y="-45.5" font-family="Helvetica,sans-Serif" font-size="10.00">HapticNode</text>
</a>
</g>
</g>
<!-- Node9&#45;&gt;Node11 -->
<g id="edge2" class="edge">
<title>Node9&#45;&gt;Node11</title>
<path fill="none" stroke="midnightblue" d="M81.46,-48C91.44,-48 101.85,-48 111.27,-48"/>
<polygon fill="midnightblue" stroke="midnightblue" points="81.27,-44.5 71.27,-48 81.27,-51.5 81.27,-44.5"/>
</g>
<!-- Node12 -->
<g id="node4" class="node">
<title>Node12</title>
<g id="a_node4"><a xlink:href="classSafetyNode.html" target="_top" xlink:title=" ">
<polygon fill="none" stroke="black" points="111.5,-0.5 111.5,-19.5 179.5,-19.5 179.5,-0.5 111.5,-0.5"/>
<text text-anchor="middle" x="145.5" y="-7.5" font-family="Helvetica,sans-Serif" font-size="10.00">SafetyNode</text>
</a>
</g>
</g>
<!-- Node9&#45;&gt;Node12 -->
<g id="edge3" class="edge">
<title>Node9&#45;&gt;Node12</title>
<path fill="none" stroke="midnightblue" d="M73.37,-35.03C87.76,-29.97 103.95,-24.27 117.26,-19.59"/>
<polygon fill="midnightblue" stroke="midnightblue" points="72.02,-31.79 63.75,-38.41 74.35,-38.39 72.02,-31.79"/>
</g>
</g>
</svg>
