<?xml version="1.0" encoding="UTF-8" standalone="no"?>
<!DOCTYPE svg PUBLIC "-//W3C//DTD SVG 1.1//EN"
 "http://www.w3.org/Graphics/SVG/1.1/DTD/svg11.dtd">
<!-- Generated by graphviz version 2.49.3 (20211027.1534)
 -->
<!-- Title: Graphical Class Hierarchy Pages: 1 -->
<svg width="231pt" height="180pt"
 viewBox="0.00 0.00 231.00 180.00" xmlns="http://www.w3.org/2000/svg" xmlns:xlink="http://www.w3.org/1999/xlink">
<g id="graph0" class="graph" transform="scale(1 1) rotate(0) translate(4 176)">
<title>Graphical Class Hierarchy</title>
<!-- Node9 -->
<g id="node1" class="node">
<title>Node9</title>
<g id="a_node1"><a xlink:title=" ">
<polygon fill="none" stroke="#bfbfbf" points="0,-76.5 0,-95.5 71,-95.5 71,-76.5 0,-76.5"/>
<text text-anchor="middle" x="35.5" y="-83.5" font-family="Helvetica,sans-Serif" font-size="10.00">rclcpp::Node</text>
</a>
</g>
</g>
<!-- Node0 -->
<g id="node2" class="node">
<title>Node0</title>
<g id="a_node2"><a xlink:href="classGUI_1_1GuiNode.html" target="_top" xlink:title="This node will be responsible from all GUI interaction and visualization of feedback information acqu...">
<polygon fill="none" stroke="black" points="126.5,-152.5 126.5,-171.5 203.5,-171.5 203.5,-152.5 126.5,-152.5"/>
<text text-anchor="middle" x="165" y="-159.5" font-family="Helvetica,sans-Serif" font-size="10.00">GUI::GuiNode</text>
</a>
</g>
</g>
<!-- Node9&#45;&gt;Node0 -->
<g id="edge1" class="edge">
<title>Node9&#45;&gt;Node0</title>
<path fill="none" stroke="midnightblue" d="M53.73,-102.91C67.27,-115.42 87.11,-132.11 107,-143 113.77,-146.71 121.39,-149.86 128.8,-152.46"/>
<polygon fill="midnightblue" stroke="midnightblue" points="55.84,-100.09 46.17,-95.75 51.03,-105.17 55.84,-100.09"/>
</g>
<!-- Node11 -->
<g id="node3" class="node">
<title>Node11</title>
<g id="a_node3"><a xlink:href="classHapticNode.html" target="_top" xlink:title=" ">
<polygon fill="none" stroke="black" points="131,-114.5 131,-133.5 199,-133.5 199,-114.5 131,-114.5"/>
<text text-anchor="middle" x="165" y="-121.5" font-family="Helvetica,sans-Serif" font-size="10.00">HapticNode</text>
</a>
</g>
</g>
<!-- Node9&#45;&gt;Node11 -->
<g id="edge2" class="edge">
<title>Node9&#45;&gt;Node11</title>
<path fill="none" stroke="midnightblue" d="M78.56,-98.54C95.9,-103.7 115.68,-109.6 131.84,-114.41"/>
<polygon fill="midnightblue" stroke="midnightblue" points="79.26,-95.09 68.67,-95.59 77.26,-101.8 79.26,-95.09"/>
</g>
<!-- Node12 -->
<g id="node4" class="node">
<title>Node12</title>
<g id="a_node4"><a xlink:href="classLifecycleNodeManager.html" target="_top" xlink:title=" ">
<polygon fill="none" stroke="black" points="107,-76.5 107,-95.5 223,-95.5 223,-76.5 107,-76.5"/>
<text text-anchor="middle" x="165" y="-83.5" font-family="Helvetica,sans-Serif" font-size="10.00">LifecycleNodeManager</text>
</a>
</g>
</g>
<!-- Node9&#45;&gt;Node12 -->
<g id="edge3" class="edge">
<title>Node9&#45;&gt;Node12</title>
<path fill="none" stroke="midnightblue" d="M81.2,-86C89.5,-86 98.26,-86 106.86,-86"/>
<polygon fill="midnightblue" stroke="midnightblue" points="81,-82.5 71,-86 81,-89.5 81,-82.5"/>
</g>
<!-- Node13 -->
<g id="node5" class="node">
<title>Node13</title>
<g id="a_node5"><a xlink:href="classSafetyNode.html" target="_top" xlink:title=" ">
<polygon fill="none" stroke="black" points="131,-38.5 131,-57.5 199,-57.5 199,-38.5 131,-38.5"/>
<text text-anchor="middle" x="165" y="-45.5" font-family="Helvetica,sans-Serif" font-size="10.00">SafetyNode</text>
</a>
</g>
</g>
<!-- Node9&#45;&gt;Node13 -->
<g id="edge4" class="edge">
<title>Node9&#45;&gt;Node13</title>
<path fill="none" stroke="midnightblue" d="M78.56,-73.46C95.9,-68.3 115.68,-62.4 131.84,-57.59"/>
<polygon fill="midnightblue" stroke="midnightblue" points="77.26,-70.2 68.67,-76.41 79.26,-76.91 77.26,-70.2"/>
</g>
<!-- Node14 -->
<g id="node6" class="node">
<title>Node14</title>
<g id="a_node6"><a xlink:href="classTiming_1_1TimingNode.html" target="_top" xlink:title=" ">
<polygon fill="none" stroke="black" points="113.5,-0.5 113.5,-19.5 216.5,-19.5 216.5,-0.5 113.5,-0.5"/>
<text text-anchor="middle" x="165" y="-7.5" font-family="Helvetica,sans-Serif" font-size="10.00">Timing::TimingNode</text>
</a>
</g>
</g>
<!-- Node9&#45;&gt;Node14 -->
<g id="edge5" class="edge">
<title>Node9&#45;&gt;Node14</title>
<path fill="none" stroke="midnightblue" d="M53.73,-69.09C67.27,-56.58 87.11,-39.89 107,-29 113.77,-25.29 121.39,-22.14 128.8,-19.54"/>
<polygon fill="midnightblue" stroke="midnightblue" points="51.03,-66.83 46.17,-76.25 55.84,-71.91 51.03,-66.83"/>
</g>
</g>
</svg>
