<?xml version="1.0" encoding="UTF-8" standalone="no"?>
<!DOCTYPE svg PUBLIC "-//W3C//DTD SVG 1.1//EN"
 "http://www.w3.org/Graphics/SVG/1.1/DTD/svg11.dtd">
<!-- Generated by graphviz version 2.43.0 (0)
 -->
<!-- Title: src/controller/src/joy_node_linux.cpp Pages: 1 -->
<svg width="1811pt" height="106pt"
 viewBox="0.00 0.00 1811.00 106.00" xmlns="http://www.w3.org/2000/svg" xmlns:xlink="http://www.w3.org/1999/xlink">
<g id="graph0" class="graph" transform="scale(1 1) rotate(0) translate(4 102)">
<title>src/controller/src/joy_node_linux.cpp</title>
<!-- Node1 -->
<g id="node1" class="node">
<title>Node1</title>
<g id="a_node1"><a xlink:title="This file contains joystick data publisher as a ROS2 node. Original source code for this node : https...">
<polygon fill="#bfbfbf" stroke="black" points="635.5,-67.5 635.5,-97.5 748.5,-97.5 748.5,-67.5 635.5,-67.5"/>
<text text-anchor="start" x="643.5" y="-85.5" font-family="Helvetica,sans-Serif" font-size="10.00">src/controller/src</text>
<text text-anchor="middle" x="692" y="-74.5" font-family="Helvetica,sans-Serif" font-size="10.00">/joy_node_linux.cpp</text>
</a>
</g>
</g>
<!-- Node2 -->
<g id="node2" class="node">
<title>Node2</title>
<g id="a_node2"><a xlink:title=" ">
<polygon fill="none" stroke="#bfbfbf" points="0,-6 0,-25 56,-25 56,-6 0,-6"/>
<text text-anchor="middle" x="28" y="-13" font-family="Helvetica,sans-Serif" font-size="10.00">unistd.h</text>
</a>
</g>
</g>
<!-- Node1&#45;&gt;Node2 -->
<g id="edge1" class="edge">
<title>Node1&#45;&gt;Node2</title>
<path fill="none" stroke="midnightblue" d="M635.38,-82.44C524.41,-83.08 271.16,-78.61 65,-31 62.16,-30.35 59.26,-29.51 56.38,-28.58"/>
<polygon fill="midnightblue" stroke="midnightblue" points="57.46,-25.25 46.86,-25.12 55.07,-31.82 57.46,-25.25"/>
</g>
<!-- Node3 -->
<g id="node3" class="node">
<title>Node3</title>
<g id="a_node3"><a xlink:title=" ">
<polygon fill="none" stroke="#bfbfbf" points="74.5,-6 74.5,-25 125.5,-25 125.5,-6 74.5,-6"/>
<text text-anchor="middle" x="100" y="-13" font-family="Helvetica,sans-Serif" font-size="10.00">math.h</text>
</a>
</g>
</g>
<!-- Node1&#45;&gt;Node3 -->
<g id="edge2" class="edge">
<title>Node1&#45;&gt;Node3</title>
<path fill="none" stroke="midnightblue" d="M635.19,-82.16C533.2,-82.07 312.98,-76.07 134,-31 131.64,-30.41 129.23,-29.67 126.84,-28.84"/>
<polygon fill="midnightblue" stroke="midnightblue" points="127.87,-25.49 117.28,-25.1 125.32,-32.01 127.87,-25.49"/>
</g>
<!-- Node4 -->
<g id="node4" class="node">
<title>Node4</title>
<g id="a_node4"><a xlink:title=" ">
<polygon fill="none" stroke="#bfbfbf" points="143.5,-6 143.5,-25 234.5,-25 234.5,-6 143.5,-6"/>
<text text-anchor="middle" x="189" y="-13" font-family="Helvetica,sans-Serif" font-size="10.00">linux/joystick.h</text>
</a>
</g>
</g>
<!-- Node1&#45;&gt;Node4 -->
<g id="edge3" class="edge">
<title>Node1&#45;&gt;Node4</title>
<path fill="none" stroke="midnightblue" d="M635.24,-77.86C549.65,-71.76 382.69,-57.46 243,-31 237.94,-30.04 232.67,-28.86 227.47,-27.59"/>
<polygon fill="midnightblue" stroke="midnightblue" points="228.24,-24.17 217.68,-25.06 226.49,-30.95 228.24,-24.17"/>
</g>
<!-- Node5 -->
<g id="node5" class="node">
<title>Node5</title>
<g id="a_node5"><a xlink:title=" ">
<polygon fill="none" stroke="#bfbfbf" points="252.5,-6 252.5,-25 299.5,-25 299.5,-6 252.5,-6"/>
<text text-anchor="middle" x="276" y="-13" font-family="Helvetica,sans-Serif" font-size="10.00">fcntl.h</text>
</a>
</g>
</g>
<!-- Node1&#45;&gt;Node5 -->
<g id="edge4" class="edge">
<title>Node1&#45;&gt;Node5</title>
<path fill="none" stroke="midnightblue" d="M635.18,-79.02C559.51,-74.59 422.04,-62.59 309,-31 306.85,-30.4 304.65,-29.68 302.46,-28.89"/>
<polygon fill="midnightblue" stroke="midnightblue" points="303.71,-25.62 293.13,-25.12 301.09,-32.11 303.71,-25.62"/>
</g>
<!-- Node6 -->
<g id="node6" class="node">
<title>Node6</title>
<g id="a_node6"><a xlink:title=" ">
<polygon fill="none" stroke="#bfbfbf" points="318,-6 318,-25 382,-25 382,-6 318,-6"/>
<text text-anchor="middle" x="350" y="-13" font-family="Helvetica,sans-Serif" font-size="10.00">sys/stat.h</text>
</a>
</g>
</g>
<!-- Node1&#45;&gt;Node6 -->
<g id="edge5" class="edge">
<title>Node1&#45;&gt;Node6</title>
<path fill="none" stroke="midnightblue" d="M635.36,-74.98C574.39,-67.27 474.87,-52.69 391,-31 387.96,-30.21 384.82,-29.3 381.69,-28.32"/>
<polygon fill="midnightblue" stroke="midnightblue" points="382.51,-24.9 371.91,-25.04 380.28,-31.54 382.51,-24.9"/>
</g>
<!-- Node7 -->
<g id="node7" class="node">
<title>Node7</title>
<g id="a_node7"><a xlink:title=" ">
<polygon fill="none" stroke="#bfbfbf" points="400,-6 400,-25 454,-25 454,-6 400,-6"/>
<text text-anchor="middle" x="427" y="-13" font-family="Helvetica,sans-Serif" font-size="10.00">dirent.h</text>
</a>
</g>
</g>
<!-- Node1&#45;&gt;Node7 -->
<g id="edge6" class="edge">
<title>Node1&#45;&gt;Node7</title>
<path fill="none" stroke="midnightblue" d="M635.33,-71.71C588.56,-63 520.76,-48.86 463,-31 460.72,-30.29 458.38,-29.51 456.04,-28.67"/>
<polygon fill="midnightblue" stroke="midnightblue" points="457.18,-25.36 446.59,-25.08 454.69,-31.9 457.18,-25.36"/>
</g>
<!-- Node8 -->
<g id="node8" class="node">
<title>Node8</title>
<g id="a_node8"><a xlink:title=" ">
<polygon fill="none" stroke="#bfbfbf" points="472.5,-6 472.5,-25 567.5,-25 567.5,-6 472.5,-6"/>
<text text-anchor="middle" x="520" y="-13" font-family="Helvetica,sans-Serif" font-size="10.00">rclcpp/clock.hpp</text>
</a>
</g>
</g>
<!-- Node1&#45;&gt;Node8 -->
<g id="edge7" class="edge">
<title>Node1&#45;&gt;Node8</title>
<path fill="none" stroke="midnightblue" d="M654.68,-67.4C624.1,-55.84 581.27,-39.66 552.18,-28.66"/>
<polygon fill="midnightblue" stroke="midnightblue" points="553.1,-25.27 542.51,-25.01 550.63,-31.82 553.1,-25.27"/>
</g>
<!-- Node9 -->
<g id="node9" class="node">
<title>Node9</title>
<g id="a_node9"><a xlink:title=" ">
<polygon fill="none" stroke="#bfbfbf" points="585.5,-6 585.5,-25 684.5,-25 684.5,-6 585.5,-6"/>
<text text-anchor="middle" x="635" y="-13" font-family="Helvetica,sans-Serif" font-size="10.00">rclcpp/rclcpp.hpp</text>
</a>
</g>
</g>
<!-- Node1&#45;&gt;Node9 -->
<g id="edge8" class="edge">
<title>Node1&#45;&gt;Node9</title>
<path fill="none" stroke="midnightblue" d="M679.63,-67.4C670.74,-57.26 658.74,-43.57 649.41,-32.94"/>
<polygon fill="midnightblue" stroke="midnightblue" points="651.85,-30.41 642.62,-25.19 646.59,-35.02 651.85,-30.41"/>
</g>
<!-- Node10 -->
<g id="node10" class="node">
<title>Node10</title>
<g id="a_node10"><a xlink:title=" ">
<polygon fill="none" stroke="#bfbfbf" points="703,-6 703,-25 795,-25 795,-6 703,-6"/>
<text text-anchor="middle" x="749" y="-13" font-family="Helvetica,sans-Serif" font-size="10.00">rclcpp/time.hpp</text>
</a>
</g>
</g>
<!-- Node1&#45;&gt;Node10 -->
<g id="edge9" class="edge">
<title>Node1&#45;&gt;Node10</title>
<path fill="none" stroke="midnightblue" d="M704.37,-67.4C713.26,-57.26 725.26,-43.57 734.59,-32.94"/>
<polygon fill="midnightblue" stroke="midnightblue" points="737.41,-35.02 741.38,-25.19 732.15,-30.41 737.41,-35.02"/>
</g>
<!-- Node11 -->
<g id="node11" class="node">
<title>Node11</title>
<g id="a_node11"><a xlink:title=" ">
<polygon fill="none" stroke="#bfbfbf" points="813,-6 813,-25 943,-25 943,-6 813,-6"/>
<text text-anchor="middle" x="878" y="-13" font-family="Helvetica,sans-Serif" font-size="10.00">rclcpp/time_source.hpp</text>
</a>
</g>
</g>
<!-- Node1&#45;&gt;Node11 -->
<g id="edge10" class="edge">
<title>Node1&#45;&gt;Node11</title>
<path fill="none" stroke="midnightblue" d="M732.36,-67.4C765.72,-55.74 812.55,-39.37 844.02,-28.38"/>
<polygon fill="midnightblue" stroke="midnightblue" points="845.37,-31.61 853.66,-25.01 843.06,-25 845.37,-31.61"/>
</g>
<!-- Node12 -->
<g id="node12" class="node">
<title>Node12</title>
<g id="a_node12"><a xlink:title=" ">
<polygon fill="none" stroke="#bfbfbf" points="961,-6 961,-25 1097,-25 1097,-6 961,-6"/>
<text text-anchor="middle" x="1029" y="-13" font-family="Helvetica,sans-Serif" font-size="10.00">rcutils/logging_macros.h</text>
</a>
</g>
</g>
<!-- Node1&#45;&gt;Node12 -->
<g id="edge11" class="edge">
<title>Node1&#45;&gt;Node12</title>
<path fill="none" stroke="midnightblue" d="M748.79,-70.55C811.87,-58.38 912.96,-38.88 974.93,-26.93"/>
<polygon fill="midnightblue" stroke="midnightblue" points="975.74,-30.34 984.9,-25.01 974.42,-23.46 975.74,-30.34"/>
</g>
<!-- Node13 -->
<g id="node13" class="node">
<title>Node13</title>
<g id="a_node13"><a xlink:title=" ">
<polygon fill="none" stroke="#bfbfbf" points="1115,-6 1115,-25 1257,-25 1257,-6 1115,-6"/>
<text text-anchor="middle" x="1186" y="-13" font-family="Helvetica,sans-Serif" font-size="10.00">sensor_msgs/msg/joy.hpp</text>
</a>
</g>
</g>
<!-- Node1&#45;&gt;Node13 -->
<g id="edge12" class="edge">
<title>Node1&#45;&gt;Node13</title>
<path fill="none" stroke="midnightblue" d="M748.73,-75.63C828.62,-67.13 978.75,-50.28 1106,-31 1114.33,-29.74 1123.12,-28.28 1131.7,-26.78"/>
<polygon fill="midnightblue" stroke="midnightblue" points="1132.41,-30.21 1141.65,-25.01 1131.19,-23.32 1132.41,-30.21"/>
</g>
<!-- Node14 -->
<g id="node14" class="node">
<title>Node14</title>
<g id="a_node14"><a xlink:title=" ">
<polygon fill="none" stroke="#bfbfbf" points="1275.5,-0.5 1275.5,-30.5 1430.5,-30.5 1430.5,-0.5 1275.5,-0.5"/>
<text text-anchor="start" x="1283.5" y="-18.5" font-family="Helvetica,sans-Serif" font-size="10.00">rclcpp/strategies/message</text>
<text text-anchor="middle" x="1353" y="-7.5" font-family="Helvetica,sans-Serif" font-size="10.00">_pool_memory_strategy.hpp</text>
</a>
</g>
</g>
<!-- Node1&#45;&gt;Node14 -->
<g id="edge13" class="edge">
<title>Node1&#45;&gt;Node14</title>
<path fill="none" stroke="midnightblue" d="M748.78,-77.97C850.24,-71.34 1069.54,-55.55 1265.08,-31.05"/>
<polygon fill="midnightblue" stroke="midnightblue" points="1265.77,-34.49 1275.26,-29.76 1264.9,-27.55 1265.77,-34.49"/>
</g>
<!-- Node15 -->
<g id="node15" class="node">
<title>Node15</title>
<g id="a_node15"><a xlink:title=" ">
<polygon fill="none" stroke="#bfbfbf" points="1448.5,-0.5 1448.5,-30.5 1591.5,-30.5 1591.5,-0.5 1448.5,-0.5"/>
<text text-anchor="start" x="1456.5" y="-18.5" font-family="Helvetica,sans-Serif" font-size="10.00">rclcpp/strategies/allocator</text>
<text text-anchor="middle" x="1520" y="-7.5" font-family="Helvetica,sans-Serif" font-size="10.00">_memory_strategy.hpp</text>
</a>
</g>
</g>
<!-- Node1&#45;&gt;Node15 -->
<g id="edge14" class="edge">
<title>Node1&#45;&gt;Node15</title>
<path fill="none" stroke="midnightblue" d="M748.51,-79.84C871.96,-75.76 1175.13,-63.19 1437.98,-31.17"/>
<polygon fill="midnightblue" stroke="midnightblue" points="1438.6,-34.62 1448.1,-29.92 1437.75,-27.67 1438.6,-34.62"/>
</g>
<!-- Node16 -->
<g id="node16" class="node">
<title>Node16</title>
<g id="a_node16"><a xlink:title=" ">
<polygon fill="none" stroke="#bfbfbf" points="1609.5,-6 1609.5,-25 1690.5,-25 1690.5,-6 1609.5,-6"/>
<text text-anchor="middle" x="1650" y="-13" font-family="Helvetica,sans-Serif" font-size="10.00">rttest/rttest.h</text>
</a>
</g>
</g>
<!-- Node1&#45;&gt;Node16 -->
<g id="edge15" class="edge">
<title>Node1&#45;&gt;Node16</title>
<path fill="none" stroke="midnightblue" d="M748.7,-80.07C920.87,-75.47 1435.92,-59.61 1601,-31 1605.77,-30.17 1610.74,-29.04 1615.6,-27.76"/>
<polygon fill="midnightblue" stroke="midnightblue" points="1616.67,-31.1 1625.34,-25.01 1614.76,-24.37 1616.67,-31.1"/>
</g>
<!-- Node17 -->
<g id="node17" class="node">
<title>Node17</title>
<g id="a_node17"><a xlink:title=" ">
<polygon fill="none" stroke="#bfbfbf" points="1709,-6 1709,-25 1803,-25 1803,-6 1709,-6"/>
<text text-anchor="middle" x="1756" y="-13" font-family="Helvetica,sans-Serif" font-size="10.00">tlsf_cpp/tlsf.hpp</text>
</a>
</g>
</g>
<!-- Node1&#45;&gt;Node17 -->
<g id="edge16" class="edge">
<title>Node1&#45;&gt;Node17</title>
<path fill="none" stroke="midnightblue" d="M748.56,-80.18C932.77,-75.64 1514.34,-59.38 1700,-31 1705.85,-30.11 1711.98,-28.85 1717.94,-27.46"/>
<polygon fill="midnightblue" stroke="midnightblue" points="1718.89,-30.83 1727.74,-25.01 1717.19,-24.04 1718.89,-30.83"/>
</g>
</g>
</svg>
