<?xml version="1.0" encoding="UTF-8" standalone="no"?>
<!DOCTYPE svg PUBLIC "-//W3C//DTD SVG 1.1//EN"
 "http://www.w3.org/Graphics/SVG/1.1/DTD/svg11.dtd">
<!-- Generated by graphviz version 2.49.3 (20211027.1534)
 -->
<!-- Title: src/gui_pkg/src/main_window.cpp Pages: 1 -->
<svg width="2458pt" height="341pt"
 viewBox="0.00 0.00 2458.39 341.00" xmlns="http://www.w3.org/2000/svg" xmlns:xlink="http://www.w3.org/1999/xlink">
<g id="graph0" class="graph" transform="scale(1 1) rotate(0) translate(4 337)">
<title>src/gui_pkg/src/main_window.cpp</title>
<!-- Node1 -->
<g id="node1" class="node">
<title>Node1</title>
<g id="a_node1"><a xlink:title=" ">
<polygon fill="#bfbfbf" stroke="black" points="1675.39,-302.5 1675.39,-332.5 1782.39,-332.5 1782.39,-302.5 1675.39,-302.5"/>
<text text-anchor="start" x="1683.39" y="-320.5" font-family="Helvetica,sans-Serif" font-size="10.00">src/gui_pkg/src/main</text>
<text text-anchor="middle" x="1728.89" y="-309.5" font-family="Helvetica,sans-Serif" font-size="10.00">_window.cpp</text>
</a>
</g>
</g>
<!-- Node2 -->
<g id="node2" class="node">
<title>Node2</title>
<g id="a_node2"><a xlink:href="main__window_8hpp.html" target="_top" xlink:title=" ">
<polygon fill="none" stroke="black" points="1680.39,-235.5 1680.39,-265.5 1777.39,-265.5 1777.39,-235.5 1680.39,-235.5"/>
<text text-anchor="start" x="1688.39" y="-253.5" font-family="Helvetica,sans-Serif" font-size="10.00">../include/gui_pkg</text>
<text text-anchor="middle" x="1728.89" y="-242.5" font-family="Helvetica,sans-Serif" font-size="10.00">/main_window.hpp</text>
</a>
</g>
</g>
<!-- Node1&#45;&gt;Node2 -->
<g id="edge1" class="edge">
<title>Node1&#45;&gt;Node2</title>
<path fill="none" stroke="midnightblue" d="M1728.89,-302.4C1728.89,-294.64 1728.89,-284.81 1728.89,-275.86"/>
<polygon fill="midnightblue" stroke="midnightblue" points="1732.39,-275.58 1728.89,-265.58 1725.39,-275.58 1732.39,-275.58"/>
</g>
<!-- Node3 -->
<g id="node3" class="node">
<title>Node3</title>
<g id="a_node3"><a xlink:title=" ">
<polygon fill="none" stroke="#bfbfbf" points="1245.89,-0.5 1245.89,-19.5 1291.89,-19.5 1291.89,-0.5 1245.89,-0.5"/>
<text text-anchor="middle" x="1268.89" y="-7.5" font-family="Helvetica,sans-Serif" font-size="10.00">chrono</text>
</a>
</g>
</g>
<!-- Node2&#45;&gt;Node3 -->
<g id="edge2" class="edge">
<title>Node2&#45;&gt;Node3</title>
<path fill="none" stroke="midnightblue" d="M1680.11,-246.17C1630.34,-241.19 1551.95,-228.94 1490.89,-199 1484.92,-196.07 1338.3,-70.53 1286.67,-26.26"/>
<polygon fill="midnightblue" stroke="midnightblue" points="1288.84,-23.51 1278.97,-19.66 1284.29,-28.82 1288.84,-23.51"/>
</g>
<!-- Node4 -->
<g id="node4" class="node">
<title>Node4</title>
<g id="a_node4"><a xlink:title=" ">
<polygon fill="none" stroke="#bfbfbf" points="222.39,-0.5 222.39,-19.5 273.39,-19.5 273.39,-0.5 222.39,-0.5"/>
<text text-anchor="middle" x="247.89" y="-7.5" font-family="Helvetica,sans-Serif" font-size="10.00">memory</text>
</a>
</g>
</g>
<!-- Node2&#45;&gt;Node4 -->
<g id="edge3" class="edge">
<title>Node2&#45;&gt;Node4</title>
<path fill="none" stroke="midnightblue" d="M1680.34,-249.41C1507.48,-248.7 905.88,-243.02 411.89,-199 233.52,-183.1 130.38,-278.14 12.89,-143 -48.96,-71.86 132.06,-30.94 212.01,-16.74"/>
<polygon fill="midnightblue" stroke="midnightblue" points="212.88,-20.14 222.13,-14.98 211.68,-13.24 212.88,-20.14"/>
</g>
<!-- Node5 -->
<g id="node5" class="node">
<title>Node5</title>
<g id="a_node5"><a xlink:title=" ">
<polygon fill="none" stroke="#bfbfbf" points="1107.89,-0.5 1107.89,-19.5 1161.89,-19.5 1161.89,-0.5 1107.89,-0.5"/>
<text text-anchor="middle" x="1134.89" y="-7.5" font-family="Helvetica,sans-Serif" font-size="10.00">iostream</text>
</a>
</g>
</g>
<!-- Node2&#45;&gt;Node5 -->
<g id="edge4" class="edge">
<title>Node2&#45;&gt;Node5</title>
<path fill="none" stroke="midnightblue" d="M1680.21,-245.1C1626.05,-239.09 1536.6,-225.85 1463.89,-199 1399.32,-175.16 1220.48,-64.68 1157.33,-25.13"/>
<polygon fill="midnightblue" stroke="midnightblue" points="1158.88,-21.97 1148.55,-19.62 1155.16,-27.9 1158.88,-21.97"/>
</g>
<!-- Node6 -->
<g id="node6" class="node">
<title>Node6</title>
<g id="a_node6"><a xlink:title=" ">
<polygon fill="none" stroke="#bfbfbf" points="21.89,-118 21.89,-137 111.89,-137 111.89,-118 21.89,-118"/>
<text text-anchor="middle" x="66.89" y="-125" font-family="Helvetica,sans-Serif" font-size="10.00">rclcpp/rclcpp.hpp</text>
</a>
</g>
</g>
<!-- Node2&#45;&gt;Node6 -->
<g id="edge5" class="edge">
<title>Node2&#45;&gt;Node6</title>
<path fill="none" stroke="midnightblue" d="M1680.16,-247.65C1537.11,-242.07 1105.98,-224.24 748.89,-199 471.58,-179.4 400.1,-188.75 125.89,-143 120.02,-142.02 113.88,-140.77 107.87,-139.42"/>
<polygon fill="midnightblue" stroke="midnightblue" points="108.48,-135.96 97.94,-137.06 106.86,-142.77 108.48,-135.96"/>
</g>
<!-- Node7 -->
<g id="node7" class="node">
<title>Node7</title>
<g id="a_node7"><a xlink:href="gui__node_8hpp.html" target="_top" xlink:title=" ">
<polygon fill="none" stroke="black" points="757.89,-179.5 757.89,-198.5 831.89,-198.5 831.89,-179.5 757.89,-179.5"/>
<text text-anchor="middle" x="794.89" y="-186.5" font-family="Helvetica,sans-Serif" font-size="10.00">gui_node.hpp</text>
</a>
</g>
</g>
<!-- Node2&#45;&gt;Node7 -->
<g id="edge6" class="edge">
<title>Node2&#45;&gt;Node7</title>
<path fill="none" stroke="midnightblue" d="M1680.31,-246.41C1518.91,-236.12 1001.73,-203.18 842.2,-193.01"/>
<polygon fill="midnightblue" stroke="midnightblue" points="842.42,-189.52 832.22,-192.38 841.97,-196.51 842.42,-189.52"/>
</g>
<!-- Node41 -->
<g id="node33" class="node">
<title>Node41</title>
<g id="a_node33"><a xlink:href="gui__globals_8hpp.html" target="_top" xlink:title=" ">
<polygon fill="none" stroke="black" points="1439.39,-118 1439.39,-137 1522.39,-137 1522.39,-118 1439.39,-118"/>
<text text-anchor="middle" x="1480.89" y="-125" font-family="Helvetica,sans-Serif" font-size="10.00">gui_globals.hpp</text>
</a>
</g>
</g>
<!-- Node2&#45;&gt;Node41 -->
<g id="edge58" class="edge">
<title>Node2&#45;&gt;Node41</title>
<path fill="none" stroke="midnightblue" d="M1680.14,-243.64C1623.41,-235.93 1534.24,-220.76 1508.89,-199 1493.62,-185.9 1486.61,-163.33 1483.43,-147.26"/>
<polygon fill="midnightblue" stroke="midnightblue" points="1486.88,-146.66 1481.79,-137.37 1479.97,-147.81 1486.88,-146.66"/>
</g>
<!-- Node42 -->
<g id="node34" class="node">
<title>Node42</title>
<g id="a_node34"><a xlink:href="video__capture_8hpp.html" target="_top" xlink:title=" ">
<polygon fill="none" stroke="black" points="1518.39,-179.5 1518.39,-198.5 1613.39,-198.5 1613.39,-179.5 1518.39,-179.5"/>
<text text-anchor="middle" x="1565.89" y="-186.5" font-family="Helvetica,sans-Serif" font-size="10.00">video_capture.hpp</text>
</a>
</g>
</g>
<!-- Node2&#45;&gt;Node42 -->
<g id="edge49" class="edge">
<title>Node2&#45;&gt;Node42</title>
<path fill="none" stroke="midnightblue" d="M1690.26,-235.4C1662.54,-225.28 1625.58,-211.79 1599.17,-202.15"/>
<polygon fill="midnightblue" stroke="midnightblue" points="1600.2,-198.8 1589.61,-198.66 1597.8,-205.37 1600.2,-198.8"/>
</g>
<!-- Node50 -->
<g id="node42" class="node">
<title>Node50</title>
<g id="a_node42"><a xlink:title=" ">
<polygon fill="none" stroke="#bfbfbf" points="1631.39,-179.5 1631.39,-198.5 1722.39,-198.5 1722.39,-179.5 1631.39,-179.5"/>
<text text-anchor="middle" x="1676.89" y="-186.5" font-family="Helvetica,sans-Serif" font-size="10.00">ui_mainwindow.h</text>
</a>
</g>
</g>
<!-- Node2&#45;&gt;Node50 -->
<g id="edge59" class="edge">
<title>Node2&#45;&gt;Node50</title>
<path fill="none" stroke="midnightblue" d="M1716.57,-235.4C1708.93,-226.66 1699.1,-215.41 1691.13,-206.3"/>
<polygon fill="midnightblue" stroke="midnightblue" points="1693.67,-203.88 1684.46,-198.66 1688.4,-208.49 1693.67,-203.88"/>
</g>
<!-- Node51 -->
<g id="node43" class="node">
<title>Node51</title>
<g id="a_node43"><a xlink:title=" ">
<polygon fill="none" stroke="#bfbfbf" points="1740.89,-179.5 1740.89,-198.5 1820.89,-198.5 1820.89,-179.5 1740.89,-179.5"/>
<text text-anchor="middle" x="1780.89" y="-186.5" font-family="Helvetica,sans-Serif" font-size="10.00">QMainWindow</text>
</a>
</g>
</g>
<!-- Node2&#45;&gt;Node51 -->
<g id="edge60" class="edge">
<title>Node2&#45;&gt;Node51</title>
<path fill="none" stroke="midnightblue" d="M1741.21,-235.4C1748.85,-226.66 1758.68,-215.41 1766.65,-206.3"/>
<polygon fill="midnightblue" stroke="midnightblue" points="1769.38,-208.49 1773.32,-198.66 1764.11,-203.88 1769.38,-208.49"/>
</g>
<!-- Node52 -->
<g id="node44" class="node">
<title>Node52</title>
<g id="a_node44"><a xlink:title=" ">
<polygon fill="none" stroke="#bfbfbf" points="1838.89,-179.5 1838.89,-198.5 1910.89,-198.5 1910.89,-179.5 1838.89,-179.5"/>
<text text-anchor="middle" x="1874.89" y="-186.5" font-family="Helvetica,sans-Serif" font-size="10.00">QApplication</text>
</a>
</g>
</g>
<!-- Node2&#45;&gt;Node52 -->
<g id="edge61" class="edge">
<title>Node2&#45;&gt;Node52</title>
<path fill="none" stroke="midnightblue" d="M1763.49,-235.4C1787.98,-225.42 1820.55,-212.15 1844.13,-202.53"/>
<polygon fill="midnightblue" stroke="midnightblue" points="1845.7,-205.67 1853.64,-198.66 1843.06,-199.19 1845.7,-205.67"/>
</g>
<!-- Node53 -->
<g id="node45" class="node">
<title>Node53</title>
<g id="a_node45"><a xlink:title=" ">
<polygon fill="none" stroke="#bfbfbf" points="1929.39,-179.5 1929.39,-198.5 2038.39,-198.5 2038.39,-179.5 1929.39,-179.5"/>
<text text-anchor="middle" x="1983.89" y="-186.5" font-family="Helvetica,sans-Serif" font-size="10.00">QStandardItemModel</text>
</a>
</g>
</g>
<!-- Node2&#45;&gt;Node53 -->
<g id="edge62" class="edge">
<title>Node2&#45;&gt;Node53</title>
<path fill="none" stroke="midnightblue" d="M1777.45,-238.17C1823.4,-227.45 1891.89,-211.47 1937.21,-200.89"/>
<polygon fill="midnightblue" stroke="midnightblue" points="1938.13,-204.27 1947.07,-198.59 1936.54,-197.45 1938.13,-204.27"/>
</g>
<!-- Node54 -->
<g id="node46" class="node">
<title>Node54</title>
<g id="a_node46"><a xlink:title=" ">
<polygon fill="none" stroke="#bfbfbf" points="2056.89,-179.5 2056.89,-198.5 2126.89,-198.5 2126.89,-179.5 2056.89,-179.5"/>
<text text-anchor="middle" x="2091.89" y="-186.5" font-family="Helvetica,sans-Serif" font-size="10.00">QTableView</text>
</a>
</g>
</g>
<!-- Node2&#45;&gt;Node54 -->
<g id="edge63" class="edge">
<title>Node2&#45;&gt;Node54</title>
<path fill="none" stroke="midnightblue" d="M1777.64,-242.47C1838.3,-233.58 1945.27,-217.39 2046.73,-199.14"/>
<polygon fill="midnightblue" stroke="midnightblue" points="2047.63,-202.54 2056.85,-197.31 2046.39,-195.65 2047.63,-202.54"/>
</g>
<!-- Node55 -->
<g id="node47" class="node">
<title>Node55</title>
<g id="a_node47"><a xlink:title=" ">
<polygon fill="none" stroke="#bfbfbf" points="2145.39,-179.5 2145.39,-198.5 2222.39,-198.5 2222.39,-179.5 2145.39,-179.5"/>
<text text-anchor="middle" x="2183.89" y="-186.5" font-family="Helvetica,sans-Serif" font-size="10.00">QHeaderView</text>
</a>
</g>
</g>
<!-- Node2&#45;&gt;Node55 -->
<g id="edge64" class="edge">
<title>Node2&#45;&gt;Node55</title>
<path fill="none" stroke="midnightblue" d="M1777.58,-244.44C1852.2,-236.48 1999.54,-219.9 2135.01,-199.05"/>
<polygon fill="midnightblue" stroke="midnightblue" points="2135.81,-202.47 2145.15,-197.48 2134.73,-195.55 2135.81,-202.47"/>
</g>
<!-- Node56 -->
<g id="node48" class="node">
<title>Node56</title>
<g id="a_node48"><a xlink:title=" ">
<polygon fill="none" stroke="#bfbfbf" points="2240.89,-179.5 2240.89,-198.5 2290.89,-198.5 2290.89,-179.5 2240.89,-179.5"/>
<text text-anchor="middle" x="2265.89" y="-186.5" font-family="Helvetica,sans-Serif" font-size="10.00">QString</text>
</a>
</g>
</g>
<!-- Node2&#45;&gt;Node56 -->
<g id="edge65" class="edge">
<title>Node2&#45;&gt;Node56</title>
<path fill="none" stroke="midnightblue" d="M1777.45,-247.19C1865.89,-242.43 2059.19,-229.46 2230.77,-198.93"/>
<polygon fill="midnightblue" stroke="midnightblue" points="2231.52,-202.35 2240.74,-197.13 2230.28,-195.46 2231.52,-202.35"/>
</g>
<!-- Node57 -->
<g id="node49" class="node">
<title>Node57</title>
<g id="a_node49"><a xlink:title=" ">
<polygon fill="none" stroke="#bfbfbf" points="2308.89,-179.5 2308.89,-198.5 2382.89,-198.5 2382.89,-179.5 2308.89,-179.5"/>
<text text-anchor="middle" x="2345.89" y="-186.5" font-family="Helvetica,sans-Serif" font-size="10.00">QTextStream</text>
</a>
</g>
</g>
<!-- Node2&#45;&gt;Node57 -->
<g id="edge66" class="edge">
<title>Node2&#45;&gt;Node57</title>
<path fill="none" stroke="midnightblue" d="M1777.59,-246.92C1874.78,-241.4 2099.86,-226.75 2298.74,-199.02"/>
<polygon fill="midnightblue" stroke="midnightblue" points="2299.37,-202.47 2308.79,-197.61 2298.4,-195.53 2299.37,-202.47"/>
</g>
<!-- Node58 -->
<g id="node50" class="node">
<title>Node58</title>
<g id="a_node50"><a xlink:title=" ">
<polygon fill="none" stroke="#bfbfbf" points="2401.39,-179.5 2401.39,-198.5 2450.39,-198.5 2450.39,-179.5 2401.39,-179.5"/>
<text text-anchor="middle" x="2425.89" y="-186.5" font-family="Helvetica,sans-Serif" font-size="10.00">QTimer</text>
</a>
</g>
</g>
<!-- Node2&#45;&gt;Node58 -->
<g id="edge67" class="edge">
<title>Node2&#45;&gt;Node58</title>
<path fill="none" stroke="midnightblue" d="M1777.51,-248.83C1886.07,-246.68 2156.44,-237.73 2391.03,-198.81"/>
<polygon fill="midnightblue" stroke="midnightblue" points="2391.84,-202.23 2401.12,-197.12 2390.68,-195.32 2391.84,-202.23"/>
</g>
<!-- Node7&#45;&gt;Node3 -->
<g id="edge29" class="edge">
<title>Node7&#45;&gt;Node3</title>
<path fill="none" stroke="midnightblue" d="M832.22,-187.48C943.09,-185.56 1264.73,-177.08 1295.89,-143 1325.11,-111.03 1297.94,-56.25 1280.66,-28.38"/>
<polygon fill="midnightblue" stroke="midnightblue" points="1283.43,-26.23 1275.07,-19.73 1277.55,-30.03 1283.43,-26.23"/>
</g>
<!-- Node7&#45;&gt;Node4 -->
<g id="edge30" class="edge">
<title>Node7&#45;&gt;Node4</title>
<path fill="none" stroke="midnightblue" d="M757.69,-186.05C623.14,-178.91 169.17,-154.03 158.89,-143 123.28,-104.78 188.75,-51.06 225.46,-25.54"/>
<polygon fill="midnightblue" stroke="midnightblue" points="227.78,-28.2 234.1,-19.69 223.86,-22.41 227.78,-28.2"/>
</g>
<!-- Node7&#45;&gt;Node6 -->
<g id="edge7" class="edge">
<title>Node7&#45;&gt;Node6</title>
<path fill="none" stroke="midnightblue" d="M757.65,-187.76C655.85,-186.61 364.57,-180.07 125.89,-143 119.88,-142.07 113.58,-140.82 107.44,-139.44"/>
<polygon fill="midnightblue" stroke="midnightblue" points="107.84,-135.94 97.31,-137.05 106.23,-142.76 107.84,-135.94"/>
</g>
<!-- Node8 -->
<g id="node8" class="node">
<title>Node8</title>
<g id="a_node8"><a xlink:title=" ">
<polygon fill="none" stroke="#bfbfbf" points="1012.89,-118 1012.89,-137 1142.89,-137 1142.89,-118 1012.89,-118"/>
<text text-anchor="middle" x="1077.89" y="-125" font-family="Helvetica,sans-Serif" font-size="10.00">sensor_msgs/msg/joy.hpp</text>
</a>
</g>
</g>
<!-- Node7&#45;&gt;Node8 -->
<g id="edge8" class="edge">
<title>Node7&#45;&gt;Node8</title>
<path fill="none" stroke="midnightblue" d="M832.18,-180.16C882.2,-169.64 971.2,-150.93 1027.25,-139.15"/>
<polygon fill="midnightblue" stroke="midnightblue" points="1028.25,-142.51 1037.31,-137.03 1026.81,-135.66 1028.25,-142.51"/>
</g>
<!-- Node9 -->
<g id="node9" class="node">
<title>Node9</title>
<g id="a_node9"><a xlink:title=" ">
<polygon fill="none" stroke="#bfbfbf" points="1160.89,-112.5 1160.89,-142.5 1268.89,-142.5 1268.89,-112.5 1160.89,-112.5"/>
<text text-anchor="start" x="1168.89" y="-130.5" font-family="Helvetica,sans-Serif" font-size="10.00">ecat_msgs/msg/data</text>
<text text-anchor="middle" x="1214.89" y="-119.5" font-family="Helvetica,sans-Serif" font-size="10.00">_received.hpp</text>
</a>
</g>
</g>
<!-- Node7&#45;&gt;Node9 -->
<g id="edge9" class="edge">
<title>Node7&#45;&gt;Node9</title>
<path fill="none" stroke="midnightblue" d="M832.08,-184.56C895.47,-178.43 1028.68,-164.36 1150.77,-143.09"/>
<polygon fill="midnightblue" stroke="midnightblue" points="1151.42,-146.53 1160.66,-141.35 1150.21,-139.64 1151.42,-146.53"/>
</g>
<!-- Node10 -->
<g id="node10" class="node">
<title>Node10</title>
<g id="a_node10"><a xlink:title=" ">
<polygon fill="none" stroke="#bfbfbf" points="167.89,-112.5 167.89,-142.5 275.89,-142.5 275.89,-112.5 167.89,-112.5"/>
<text text-anchor="start" x="175.89" y="-130.5" font-family="Helvetica,sans-Serif" font-size="10.00">ecat_msgs/msg/data</text>
<text text-anchor="middle" x="221.89" y="-119.5" font-family="Helvetica,sans-Serif" font-size="10.00">_sent.hpp</text>
</a>
</g>
</g>
<!-- Node7&#45;&gt;Node10 -->
<g id="edge10" class="edge">
<title>Node7&#45;&gt;Node10</title>
<path fill="none" stroke="midnightblue" d="M757.64,-186.23C673.75,-181.9 463.75,-169.18 289.89,-143 288.61,-142.81 287.33,-142.61 286.03,-142.4"/>
<polygon fill="midnightblue" stroke="midnightblue" points="286.42,-138.91 275.97,-140.65 285.22,-145.81 286.42,-138.91"/>
</g>
<!-- Node11 -->
<g id="node11" class="node">
<title>Node11</title>
<g id="a_node11"><a xlink:title=" ">
<polygon fill="none" stroke="#bfbfbf" points="407.89,-112.5 407.89,-142.5 541.89,-142.5 541.89,-112.5 407.89,-112.5"/>
<text text-anchor="start" x="415.89" y="-130.5" font-family="Helvetica,sans-Serif" font-size="10.00">ecat_msgs/msg/gui_button</text>
<text text-anchor="middle" x="474.89" y="-119.5" font-family="Helvetica,sans-Serif" font-size="10.00">_data.hpp</text>
</a>
</g>
</g>
<!-- Node7&#45;&gt;Node11 -->
<g id="edge11" class="edge">
<title>Node7&#45;&gt;Node11</title>
<path fill="none" stroke="midnightblue" d="M757.67,-181.21C711.77,-172.82 631.1,-158.02 552.14,-143.23"/>
<polygon fill="midnightblue" stroke="midnightblue" points="552.49,-139.73 542.02,-141.33 551.2,-146.61 552.49,-139.73"/>
</g>
<!-- Node12 -->
<g id="node12" class="node">
<title>Node12</title>
<g id="a_node12"><a xlink:title=" ">
<polygon fill="none" stroke="#bfbfbf" points="559.89,-118 559.89,-137 693.89,-137 693.89,-118 559.89,-118"/>
<text text-anchor="middle" x="626.89" y="-125" font-family="Helvetica,sans-Serif" font-size="10.00">std_msgs/msg/u_int16.hpp</text>
</a>
</g>
</g>
<!-- Node7&#45;&gt;Node12 -->
<g id="edge12" class="edge">
<title>Node7&#45;&gt;Node12</title>
<path fill="none" stroke="midnightblue" d="M770.82,-179.48C741.88,-169.22 693.13,-151.96 660.49,-140.4"/>
<polygon fill="midnightblue" stroke="midnightblue" points="661.51,-137.05 650.91,-137.01 659.17,-143.65 661.51,-137.05"/>
</g>
<!-- Node13 -->
<g id="node13" class="node">
<title>Node13</title>
<g id="a_node13"><a xlink:href="ecat__globals_8hpp.html" target="_top" xlink:title=" ">
<polygon fill="none" stroke="black" points="750.39,-118 750.39,-137 839.39,-137 839.39,-118 750.39,-118"/>
<text text-anchor="middle" x="794.89" y="-125" font-family="Helvetica,sans-Serif" font-size="10.00">ecat_globals.hpp</text>
</a>
</g>
</g>
<!-- Node7&#45;&gt;Node13 -->
<g id="edge13" class="edge">
<title>Node7&#45;&gt;Node13</title>
<path fill="none" stroke="midnightblue" d="M794.89,-179.48C794.89,-171.08 794.89,-157.98 794.89,-147.16"/>
<polygon fill="midnightblue" stroke="midnightblue" points="798.39,-147.01 794.89,-137.01 791.39,-147.01 798.39,-147.01"/>
</g>
<!-- Node33 -->
<g id="node25" class="node">
<title>Node33</title>
<g id="a_node25"><a xlink:title=" ">
<polygon fill="none" stroke="#bfbfbf" points="1143.89,-56.5 1143.89,-75.5 1187.89,-75.5 1187.89,-56.5 1143.89,-56.5"/>
<text text-anchor="middle" x="1165.89" y="-63.5" font-family="Helvetica,sans-Serif" font-size="10.00">vector</text>
</a>
</g>
</g>
<!-- Node7&#45;&gt;Node33 -->
<g id="edge28" class="edge">
<title>Node7&#45;&gt;Node33</title>
<path fill="none" stroke="midnightblue" d="M832.02,-187.35C939.98,-185.09 1248,-175.8 1277.89,-143 1287.17,-132.82 1285.6,-123.41 1277.89,-112 1260.17,-85.79 1224.41,-74.84 1198.04,-70.27"/>
<polygon fill="midnightblue" stroke="midnightblue" points="1198.51,-66.81 1188.09,-68.77 1197.46,-73.73 1198.51,-66.81"/>
</g>
<!-- Node34 -->
<g id="node26" class="node">
<title>Node34</title>
<g id="a_node26"><a xlink:title=" ">
<polygon fill="none" stroke="#bfbfbf" points="295.39,-56.5 295.39,-75.5 354.39,-75.5 354.39,-56.5 295.39,-56.5"/>
<text text-anchor="middle" x="324.89" y="-63.5" font-family="Helvetica,sans-Serif" font-size="10.00">functional</text>
</a>
</g>
</g>
<!-- Node7&#45;&gt;Node34 -->
<g id="edge31" class="edge">
<title>Node7&#45;&gt;Node34</title>
<path fill="none" stroke="midnightblue" d="M757.73,-187.91C667.72,-187.08 440.7,-181.17 376.89,-143 354.87,-129.83 340.02,-103.3 332.01,-85.34"/>
<polygon fill="midnightblue" stroke="midnightblue" points="335.16,-83.8 328.07,-75.92 328.7,-86.5 335.16,-83.8"/>
</g>
<!-- Node35 -->
<g id="node27" class="node">
<title>Node35</title>
<g id="a_node27"><a xlink:title=" ">
<polygon fill="none" stroke="#bfbfbf" points="394.39,-56.5 394.39,-75.5 435.39,-75.5 435.39,-56.5 394.39,-56.5"/>
<text text-anchor="middle" x="414.89" y="-63.5" font-family="Helvetica,sans-Serif" font-size="10.00">string</text>
</a>
</g>
</g>
<!-- Node7&#45;&gt;Node35 -->
<g id="edge32" class="edge">
<title>Node7&#45;&gt;Node35</title>
<path fill="none" stroke="midnightblue" d="M757.78,-186.68C661.85,-182.88 411.44,-170.4 386.89,-143 371.71,-126.05 386.9,-100.17 400.14,-83.42"/>
<polygon fill="midnightblue" stroke="midnightblue" points="402.96,-85.49 406.71,-75.58 397.6,-80.99 402.96,-85.49"/>
</g>
<!-- Node36 -->
<g id="node28" class="node">
<title>Node36</title>
<g id="a_node28"><a xlink:title=" ">
<polygon fill="none" stroke="#bfbfbf" points="538.89,-56.5 538.89,-75.5 584.89,-75.5 584.89,-56.5 538.89,-56.5"/>
<text text-anchor="middle" x="561.89" y="-63.5" font-family="Helvetica,sans-Serif" font-size="10.00">cstdint</text>
</a>
</g>
</g>
<!-- Node7&#45;&gt;Node36 -->
<g id="edge33" class="edge">
<title>Node7&#45;&gt;Node36</title>
<path fill="none" stroke="midnightblue" d="M757.85,-186.55C663.99,-182.49 422.59,-169.55 398.89,-143 359.05,-98.38 470.12,-77.98 528.55,-70.54"/>
<polygon fill="midnightblue" stroke="midnightblue" points="529.29,-73.98 538.8,-69.3 528.45,-67.03 529.29,-73.98"/>
</g>
<!-- Node37 -->
<g id="node29" class="node">
<title>Node37</title>
<g id="a_node29"><a xlink:title=" ">
<polygon fill="none" stroke="#bfbfbf" points="646.39,-56.5 646.39,-75.5 687.39,-75.5 687.39,-56.5 646.39,-56.5"/>
<text text-anchor="middle" x="666.89" y="-63.5" font-family="Helvetica,sans-Serif" font-size="10.00">ctime</text>
</a>
</g>
</g>
<!-- Node7&#45;&gt;Node37 -->
<g id="edge34" class="edge">
<title>Node7&#45;&gt;Node37</title>
<path fill="none" stroke="midnightblue" d="M783.85,-179.36C772.73,-170.53 755.22,-156.26 740.89,-143 719.48,-123.19 696.24,-98.8 681.62,-83.08"/>
<polygon fill="midnightblue" stroke="midnightblue" points="684.18,-80.69 674.82,-75.72 679.04,-85.44 684.18,-80.69"/>
</g>
<!-- Node38 -->
<g id="node30" class="node">
<title>Node38</title>
<g id="a_node30"><a xlink:title=" ">
<polygon fill="none" stroke="#bfbfbf" points="940.39,-56.5 940.39,-75.5 975.39,-75.5 975.39,-56.5 940.39,-56.5"/>
<text text-anchor="middle" x="957.89" y="-63.5" font-family="Helvetica,sans-Serif" font-size="10.00">ratio</text>
</a>
</g>
</g>
<!-- Node7&#45;&gt;Node38 -->
<g id="edge35" class="edge">
<title>Node7&#45;&gt;Node38</title>
<path fill="none" stroke="midnightblue" d="M831.92,-183.8C861.04,-178.71 900.91,-167.5 926.89,-143 943.13,-127.68 951.11,-102.65 954.85,-85.53"/>
<polygon fill="midnightblue" stroke="midnightblue" points="958.3,-86.08 956.74,-75.6 951.43,-84.77 958.3,-86.08"/>
</g>
<!-- Node39 -->
<g id="node31" class="node">
<title>Node39</title>
<g id="a_node31"><a xlink:title=" ">
<polygon fill="none" stroke="#bfbfbf" points="993.89,-56.5 993.89,-75.5 1043.89,-75.5 1043.89,-56.5 993.89,-56.5"/>
<text text-anchor="middle" x="1018.89" y="-63.5" font-family="Helvetica,sans-Serif" font-size="10.00">fstream</text>
</a>
</g>
</g>
<!-- Node7&#45;&gt;Node39 -->
<g id="edge36" class="edge">
<title>Node7&#45;&gt;Node39</title>
<path fill="none" stroke="midnightblue" d="M831.94,-183.26C865.14,-177.68 914.13,-166.09 950.89,-143 975.05,-127.82 995.74,-101.64 1007.75,-84.32"/>
<polygon fill="midnightblue" stroke="midnightblue" points="1010.85,-85.99 1013.5,-75.73 1005.03,-82.09 1010.85,-85.99"/>
</g>
<!-- Node40 -->
<g id="node32" class="node">
<title>Node40</title>
<g id="a_node32"><a xlink:href="gui__pkg_2include_2gui__pkg_2timing_8hpp.html" target="_top" xlink:title=" ">
<polygon fill="none" stroke="black" points="857.39,-118 857.39,-137 918.39,-137 918.39,-118 857.39,-118"/>
<text text-anchor="middle" x="887.89" y="-125" font-family="Helvetica,sans-Serif" font-size="10.00">timing.hpp</text>
</a>
</g>
</g>
<!-- Node7&#45;&gt;Node40 -->
<g id="edge37" class="edge">
<title>Node7&#45;&gt;Node40</title>
<path fill="none" stroke="midnightblue" d="M808.21,-179.48C823.27,-169.84 848,-154.02 865.93,-142.55"/>
<polygon fill="midnightblue" stroke="midnightblue" points="868.05,-145.35 874.59,-137.01 864.28,-139.45 868.05,-145.35"/>
</g>
<!-- Node7&#45;&gt;Node41 -->
<g id="edge48" class="edge">
<title>Node7&#45;&gt;Node41</title>
<path fill="none" stroke="midnightblue" d="M832.21,-185.34C921.52,-178.88 1154.61,-161.56 1348.89,-143 1375.4,-140.47 1404.85,-137.27 1429.2,-134.52"/>
<polygon fill="midnightblue" stroke="midnightblue" points="1429.76,-137.98 1439.3,-133.37 1428.97,-131.02 1429.76,-137.98"/>
</g>
<!-- Node14 -->
<g id="node14" class="node">
<title>Node14</title>
<g id="a_node14"><a xlink:href="ecat__definitions_8hpp.html" target="_top" xlink:title="Writes desired operational mode, to slave in specified index via SDO.">
<polygon fill="none" stroke="red" points="743.89,-56.5 743.89,-75.5 845.89,-75.5 845.89,-56.5 743.89,-56.5"/>
<text text-anchor="middle" x="794.89" y="-63.5" font-family="Helvetica,sans-Serif" font-size="10.00">ecat_definitions.hpp</text>
</a>
</g>
</g>
<!-- Node13&#45;&gt;Node14 -->
<g id="edge14" class="edge">
<title>Node13&#45;&gt;Node14</title>
<path fill="none" stroke="midnightblue" d="M794.89,-117.98C794.89,-109.58 794.89,-96.48 794.89,-85.66"/>
<polygon fill="midnightblue" stroke="midnightblue" points="798.39,-85.51 794.89,-75.51 791.39,-85.51 798.39,-85.51"/>
</g>
<!-- Node14&#45;&gt;Node3 -->
<g id="edge26" class="edge">
<title>Node14&#45;&gt;Node3</title>
<path fill="none" stroke="midnightblue" d="M846.07,-59.17C943.66,-48.05 1153.93,-24.1 1235.55,-14.8"/>
<polygon fill="midnightblue" stroke="midnightblue" points="1236.2,-18.25 1245.74,-13.64 1235.41,-11.29 1236.2,-18.25"/>
</g>
<!-- Node14&#45;&gt;Node4 -->
<g id="edge27" class="edge">
<title>Node14&#45;&gt;Node4</title>
<path fill="none" stroke="midnightblue" d="M743.82,-57.71C739.11,-57.1 734.42,-56.52 729.89,-56 563.3,-36.7 363.57,-20.15 283.57,-13.78"/>
<polygon fill="midnightblue" stroke="midnightblue" points="283.78,-10.29 273.53,-12.99 283.23,-17.27 283.78,-10.29"/>
</g>
<!-- Node14&#45;&gt;Node5 -->
<g id="edge15" class="edge">
<title>Node14&#45;&gt;Node5</title>
<path fill="none" stroke="midnightblue" d="M846.16,-57.69C919.89,-47.14 1051.33,-28.18 1097.74,-19.96"/>
<polygon fill="midnightblue" stroke="midnightblue" points="1098.64,-23.35 1107.83,-18.07 1097.35,-16.47 1098.64,-23.35"/>
</g>
<!-- Node15 -->
<g id="node15" class="node">
<title>Node15</title>
<g id="a_node15"><a xlink:title=" ">
<polygon fill="none" stroke="#bfbfbf" points="706.89,-0.5 706.89,-19.5 752.89,-19.5 752.89,-0.5 706.89,-0.5"/>
<text text-anchor="middle" x="729.89" y="-7.5" font-family="Helvetica,sans-Serif" font-size="10.00">cstring</text>
</a>
</g>
</g>
<!-- Node14&#45;&gt;Node15 -->
<g id="edge16" class="edge">
<title>Node14&#45;&gt;Node15</title>
<path fill="none" stroke="midnightblue" d="M784.45,-56.32C774.74,-48.26 760.07,-36.08 748.39,-26.37"/>
<polygon fill="midnightblue" stroke="midnightblue" points="750.45,-23.53 740.52,-19.83 745.98,-28.92 750.45,-23.53"/>
</g>
<!-- Node16 -->
<g id="node16" class="node">
<title>Node16</title>
<g id="a_node16"><a xlink:title=" ">
<polygon fill="none" stroke="#bfbfbf" points="771.39,-0.5 771.39,-19.5 818.39,-19.5 818.39,-0.5 771.39,-0.5"/>
<text text-anchor="middle" x="794.89" y="-7.5" font-family="Helvetica,sans-Serif" font-size="10.00">limits.h</text>
</a>
</g>
</g>
<!-- Node14&#45;&gt;Node16 -->
<g id="edge17" class="edge">
<title>Node14&#45;&gt;Node16</title>
<path fill="none" stroke="midnightblue" d="M794.89,-56.08C794.89,-49.01 794.89,-38.86 794.89,-29.99"/>
<polygon fill="midnightblue" stroke="midnightblue" points="798.39,-29.75 794.89,-19.75 791.39,-29.75 798.39,-29.75"/>
</g>
<!-- Node17 -->
<g id="node17" class="node">
<title>Node17</title>
<g id="a_node17"><a xlink:title=" ">
<polygon fill="none" stroke="#bfbfbf" points="836.39,-0.5 836.39,-19.5 883.39,-19.5 883.39,-0.5 836.39,-0.5"/>
<text text-anchor="middle" x="859.89" y="-7.5" font-family="Helvetica,sans-Serif" font-size="10.00">stdlib.h</text>
</a>
</g>
</g>
<!-- Node14&#45;&gt;Node17 -->
<g id="edge18" class="edge">
<title>Node14&#45;&gt;Node17</title>
<path fill="none" stroke="midnightblue" d="M805.33,-56.32C815.03,-48.26 829.7,-36.08 841.39,-26.37"/>
<polygon fill="midnightblue" stroke="midnightblue" points="843.8,-28.92 849.26,-19.83 839.33,-23.53 843.8,-28.92"/>
</g>
<!-- Node18 -->
<g id="node18" class="node">
<title>Node18</title>
<g id="a_node18"><a xlink:title=" ">
<polygon fill="none" stroke="#bfbfbf" points="901.89,-0.5 901.89,-19.5 957.89,-19.5 957.89,-0.5 901.89,-0.5"/>
<text text-anchor="middle" x="929.89" y="-7.5" font-family="Helvetica,sans-Serif" font-size="10.00">pthread.h</text>
</a>
</g>
</g>
<!-- Node14&#45;&gt;Node18 -->
<g id="edge19" class="edge">
<title>Node14&#45;&gt;Node18</title>
<path fill="none" stroke="midnightblue" d="M816.28,-56.44C838.6,-47.52 873.79,-33.44 899.1,-23.32"/>
<polygon fill="midnightblue" stroke="midnightblue" points="900.61,-26.48 908.6,-19.52 898.01,-19.98 900.61,-26.48"/>
</g>
<!-- Node19 -->
<g id="node19" class="node">
<title>Node19</title>
<g id="a_node19"><a xlink:title=" ">
<polygon fill="none" stroke="#bfbfbf" points="975.89,-0.5 975.89,-19.5 1021.89,-19.5 1021.89,-0.5 975.89,-0.5"/>
<text text-anchor="middle" x="998.89" y="-7.5" font-family="Helvetica,sans-Serif" font-size="10.00">errno.h</text>
</a>
</g>
</g>
<!-- Node14&#45;&gt;Node19 -->
<g id="edge20" class="edge">
<title>Node14&#45;&gt;Node19</title>
<path fill="none" stroke="midnightblue" d="M828.23,-56.47C860.95,-48.05 912.52,-34.68 966.15,-20.17"/>
<polygon fill="midnightblue" stroke="midnightblue" points="967.1,-23.54 975.83,-17.54 965.26,-16.78 967.1,-23.54"/>
</g>
<!-- Node20 -->
<g id="node20" class="node">
<title>Node20</title>
<g id="a_node20"><a xlink:title=" ">
<polygon fill="none" stroke="#bfbfbf" points="1039.89,-0.5 1039.89,-19.5 1089.89,-19.5 1089.89,-0.5 1039.89,-0.5"/>
<text text-anchor="middle" x="1064.89" y="-7.5" font-family="Helvetica,sans-Serif" font-size="10.00">signal.h</text>
</a>
</g>
</g>
<!-- Node14&#45;&gt;Node20 -->
<g id="edge21" class="edge">
<title>Node14&#45;&gt;Node20</title>
<path fill="none" stroke="midnightblue" d="M845.28,-56.45C891.06,-48.45 960.64,-35.69 1029.92,-20.1"/>
<polygon fill="midnightblue" stroke="midnightblue" points="1030.71,-23.51 1039.69,-17.88 1029.16,-16.68 1030.71,-23.51"/>
</g>
<!-- Node21 -->
<g id="node21" class="node">
<title>Node21</title>
<g id="a_node21"><a xlink:title=" ">
<polygon fill="none" stroke="#bfbfbf" points="399.39,-0.5 399.39,-19.5 444.39,-19.5 444.39,-0.5 399.39,-0.5"/>
<text text-anchor="middle" x="421.89" y="-7.5" font-family="Helvetica,sans-Serif" font-size="10.00">stdio.h</text>
</a>
</g>
</g>
<!-- Node14&#45;&gt;Node21 -->
<g id="edge22" class="edge">
<title>Node14&#45;&gt;Node21</title>
<path fill="none" stroke="midnightblue" d="M743.8,-57.89C739.1,-57.24 734.4,-56.61 729.89,-56 610.52,-39.95 576.84,-44.55 454.64,-19.87"/>
<polygon fill="midnightblue" stroke="midnightblue" points="455.01,-16.37 444.52,-17.8 453.61,-23.23 455.01,-16.37"/>
</g>
<!-- Node22 -->
<g id="node22" class="node">
<title>Node22</title>
<g id="a_node22"><a xlink:title=" ">
<polygon fill="none" stroke="#bfbfbf" points="462.89,-0.5 462.89,-19.5 510.89,-19.5 510.89,-0.5 462.89,-0.5"/>
<text text-anchor="middle" x="486.89" y="-7.5" font-family="Helvetica,sans-Serif" font-size="10.00">string.h</text>
</a>
</g>
</g>
<!-- Node14&#45;&gt;Node22 -->
<g id="edge23" class="edge">
<title>Node14&#45;&gt;Node22</title>
<path fill="none" stroke="midnightblue" d="M743.87,-57.3C680.6,-47.65 575.35,-31.22 520.85,-19.98"/>
<polygon fill="midnightblue" stroke="midnightblue" points="521.48,-16.54 510.97,-17.88 520.02,-23.39 521.48,-16.54"/>
</g>
<!-- Node23 -->
<g id="node23" class="node">
<title>Node23</title>
<g id="a_node23"><a xlink:title=" ">
<polygon fill="none" stroke="#bfbfbf" points="528.89,-0.5 528.89,-19.5 608.89,-19.5 608.89,-0.5 528.89,-0.5"/>
<text text-anchor="middle" x="568.89" y="-7.5" font-family="Helvetica,sans-Serif" font-size="10.00">sys/resource.h</text>
</a>
</g>
</g>
<!-- Node14&#45;&gt;Node23 -->
<g id="edge24" class="edge">
<title>Node14&#45;&gt;Node23</title>
<path fill="none" stroke="midnightblue" d="M759.08,-56.44C719.9,-47.08 657.01,-32.06 614.37,-21.87"/>
<polygon fill="midnightblue" stroke="midnightblue" points="615.07,-18.44 604.53,-19.52 613.44,-25.24 615.07,-18.44"/>
</g>
<!-- Node24 -->
<g id="node24" class="node">
<title>Node24</title>
<g id="a_node24"><a xlink:title=" ">
<polygon fill="none" stroke="#bfbfbf" points="627.39,-0.5 627.39,-19.5 688.39,-19.5 688.39,-0.5 627.39,-0.5"/>
<text text-anchor="middle" x="657.89" y="-7.5" font-family="Helvetica,sans-Serif" font-size="10.00">sys/time.h</text>
</a>
</g>
</g>
<!-- Node14&#45;&gt;Node24 -->
<g id="edge25" class="edge">
<title>Node14&#45;&gt;Node24</title>
<path fill="none" stroke="midnightblue" d="M773.18,-56.44C750.53,-47.52 714.82,-33.44 689.14,-23.32"/>
<polygon fill="midnightblue" stroke="midnightblue" points="690.08,-19.93 679.5,-19.52 687.51,-26.44 690.08,-19.93"/>
</g>
<!-- Node40&#45;&gt;Node3 -->
<g id="edge39" class="edge">
<title>Node40&#45;&gt;Node3</title>
<path fill="none" stroke="midnightblue" d="M890.44,-117.82C895.44,-102.5 908.07,-70.88 930.89,-56 943.6,-47.71 1152.72,-23.84 1235.52,-14.66"/>
<polygon fill="midnightblue" stroke="midnightblue" points="1236.1,-18.12 1245.65,-13.54 1235.33,-11.16 1236.1,-18.12"/>
</g>
<!-- Node40&#45;&gt;Node4 -->
<g id="edge40" class="edge">
<title>Node40&#45;&gt;Node4</title>
<path fill="none" stroke="midnightblue" d="M864.68,-117.91C859.19,-115.93 853.34,-113.86 847.89,-112 797.99,-95.02 783.62,-96.09 734.89,-76 716.88,-68.57 714.57,-61.51 695.89,-56 656.74,-44.45 383.2,-21.79 283.84,-13.84"/>
<polygon fill="midnightblue" stroke="midnightblue" points="283.94,-10.33 273.7,-13.03 283.39,-17.31 283.94,-10.33"/>
</g>
<!-- Node40&#45;&gt;Node5 -->
<g id="edge47" class="edge">
<title>Node40&#45;&gt;Node5</title>
<path fill="none" stroke="midnightblue" d="M886.22,-117.76C883.93,-102.91 881.76,-72.73 897.89,-56 958.73,7.1 1006.76,-35.84 1097.96,-19.9"/>
<polygon fill="midnightblue" stroke="midnightblue" points="1098.66,-23.33 1107.81,-17.98 1097.32,-16.46 1098.66,-23.33"/>
</g>
<!-- Node40&#45;&gt;Node33 -->
<g id="edge38" class="edge">
<title>Node40&#45;&gt;Node33</title>
<path fill="none" stroke="midnightblue" d="M918.43,-119.96C971.33,-108.64 1079.49,-85.49 1133.58,-73.92"/>
<polygon fill="midnightblue" stroke="midnightblue" points="1134.6,-77.28 1143.65,-71.76 1133.13,-70.43 1134.6,-77.28"/>
</g>
<!-- Node40&#45;&gt;Node34 -->
<g id="edge41" class="edge">
<title>Node40&#45;&gt;Node34</title>
<path fill="none" stroke="midnightblue" d="M867.44,-117.89C861.26,-115.61 854.39,-113.4 847.89,-112 646.14,-68.43 589.97,-99.32 384.89,-76 378.36,-75.26 371.46,-74.34 364.75,-73.38"/>
<polygon fill="midnightblue" stroke="midnightblue" points="364.84,-69.86 354.44,-71.86 363.82,-76.79 364.84,-69.86"/>
</g>
<!-- Node40&#45;&gt;Node35 -->
<g id="edge42" class="edge">
<title>Node40&#45;&gt;Node35</title>
<path fill="none" stroke="midnightblue" d="M867.42,-117.99C861.24,-115.72 854.37,-113.49 847.89,-112 808.87,-103.04 537.87,-78.09 445.59,-69.75"/>
<polygon fill="midnightblue" stroke="midnightblue" points="445.76,-66.26 435.49,-68.84 445.14,-73.23 445.76,-66.26"/>
</g>
<!-- Node40&#45;&gt;Node36 -->
<g id="edge43" class="edge">
<title>Node40&#45;&gt;Node36</title>
<path fill="none" stroke="midnightblue" d="M866.54,-117.9C860.57,-115.74 854.04,-113.58 847.89,-112 800.51,-99.81 659.82,-80.14 595.12,-71.41"/>
<polygon fill="midnightblue" stroke="midnightblue" points="595.42,-67.92 585.05,-70.06 594.49,-74.86 595.42,-67.92"/>
</g>
<!-- Node40&#45;&gt;Node37 -->
<g id="edge44" class="edge">
<title>Node40&#45;&gt;Node37</title>
<path fill="none" stroke="midnightblue" d="M865.6,-117.95C859.87,-115.88 853.68,-113.76 847.89,-112 783.94,-92.58 766.7,-92.32 701.89,-76 700.44,-75.64 698.97,-75.26 697.47,-74.88"/>
<polygon fill="midnightblue" stroke="midnightblue" points="698.16,-71.45 687.61,-72.36 696.43,-78.23 698.16,-71.45"/>
</g>
<!-- Node40&#45;&gt;Node38 -->
<g id="edge45" class="edge">
<title>Node40&#45;&gt;Node38</title>
<path fill="none" stroke="midnightblue" d="M897.92,-117.98C908.94,-108.61 926.85,-93.38 940.23,-82.01"/>
<polygon fill="midnightblue" stroke="midnightblue" points="942.53,-84.65 947.88,-75.51 937.99,-79.32 942.53,-84.65"/>
</g>
<!-- Node40&#45;&gt;Node39 -->
<g id="edge46" class="edge">
<title>Node40&#45;&gt;Node39</title>
<path fill="none" stroke="midnightblue" d="M906.66,-117.98C928.74,-107.95 965.61,-91.2 991.03,-79.65"/>
<polygon fill="midnightblue" stroke="midnightblue" points="992.5,-82.83 1000.15,-75.51 989.6,-76.46 992.5,-82.83"/>
</g>
<!-- Node42&#45;&gt;Node41 -->
<g id="edge57" class="edge">
<title>Node42&#45;&gt;Node41</title>
<path fill="none" stroke="midnightblue" d="M1553.71,-179.48C1540.08,-169.93 1517.76,-154.31 1501.41,-142.87"/>
<polygon fill="midnightblue" stroke="midnightblue" points="1503.24,-139.88 1493.04,-137.01 1499.23,-145.61 1503.24,-139.88"/>
</g>
<!-- Node43 -->
<g id="node35" class="node">
<title>Node43</title>
<g id="a_node35"><a xlink:title=" ">
<polygon fill="none" stroke="#bfbfbf" points="1540.89,-118 1540.89,-137 1596.89,-137 1596.89,-118 1540.89,-118"/>
<text text-anchor="middle" x="1568.89" y="-125" font-family="Helvetica,sans-Serif" font-size="10.00">QPixmap</text>
</a>
</g>
</g>
<!-- Node42&#45;&gt;Node43 -->
<g id="edge50" class="edge">
<title>Node42&#45;&gt;Node43</title>
<path fill="none" stroke="midnightblue" d="M1566.32,-179.48C1566.74,-171.08 1567.4,-157.98 1567.95,-147.16"/>
<polygon fill="midnightblue" stroke="midnightblue" points="1571.45,-147.17 1568.46,-137.01 1564.46,-146.82 1571.45,-147.17"/>
</g>
<!-- Node44 -->
<g id="node36" class="node">
<title>Node44</title>
<g id="a_node36"><a xlink:title=" ">
<polygon fill="none" stroke="#bfbfbf" points="1615.39,-118 1615.39,-137 1666.39,-137 1666.39,-118 1615.39,-118"/>
<text text-anchor="middle" x="1640.89" y="-125" font-family="Helvetica,sans-Serif" font-size="10.00">QImage</text>
</a>
</g>
</g>
<!-- Node42&#45;&gt;Node44 -->
<g id="edge51" class="edge">
<title>Node42&#45;&gt;Node44</title>
<path fill="none" stroke="midnightblue" d="M1576.63,-179.48C1588.44,-170.11 1607.63,-154.88 1621.97,-143.51"/>
<polygon fill="midnightblue" stroke="midnightblue" points="1624.5,-145.97 1630.16,-137.01 1620.15,-140.48 1624.5,-145.97"/>
</g>
<!-- Node45 -->
<g id="node37" class="node">
<title>Node45</title>
<g id="a_node37"><a xlink:title=" ">
<polygon fill="none" stroke="#bfbfbf" points="1684.89,-118 1684.89,-137 1738.89,-137 1738.89,-118 1684.89,-118"/>
<text text-anchor="middle" x="1711.89" y="-125" font-family="Helvetica,sans-Serif" font-size="10.00">QThread</text>
</a>
</g>
</g>
<!-- Node42&#45;&gt;Node45 -->
<g id="edge52" class="edge">
<title>Node42&#45;&gt;Node45</title>
<path fill="none" stroke="midnightblue" d="M1586.81,-179.48C1611.63,-169.36 1653.23,-152.4 1681.58,-140.85"/>
<polygon fill="midnightblue" stroke="midnightblue" points="1683.07,-144.02 1691.01,-137.01 1680.43,-137.54 1683.07,-144.02"/>
</g>
<!-- Node46 -->
<g id="node38" class="node">
<title>Node46</title>
<g id="a_node38"><a xlink:title=" ">
<polygon fill="none" stroke="#bfbfbf" points="1756.89,-118 1756.89,-137 1862.89,-137 1862.89,-118 1756.89,-118"/>
<text text-anchor="middle" x="1809.89" y="-125" font-family="Helvetica,sans-Serif" font-size="10.00">opencv2/opencv.hpp</text>
</a>
</g>
</g>
<!-- Node42&#45;&gt;Node46 -->
<g id="edge53" class="edge">
<title>Node42&#45;&gt;Node46</title>
<path fill="none" stroke="midnightblue" d="M1600.85,-179.48C1644.06,-168.94 1717.68,-150.99 1765.02,-139.44"/>
<polygon fill="midnightblue" stroke="midnightblue" points="1766.11,-142.78 1774.99,-137.01 1764.45,-135.98 1766.11,-142.78"/>
</g>
<!-- Node47 -->
<g id="node39" class="node">
<title>Node47</title>
<g id="a_node39"><a xlink:title=" ">
<polygon fill="none" stroke="#bfbfbf" points="1881.39,-118 1881.39,-137 2020.39,-137 2020.39,-118 1881.39,-118"/>
<text text-anchor="middle" x="1950.89" y="-125" font-family="Helvetica,sans-Serif" font-size="10.00">opencv2/highgui/highgui.hpp</text>
</a>
</g>
</g>
<!-- Node42&#45;&gt;Node47 -->
<g id="edge54" class="edge">
<title>Node42&#45;&gt;Node47</title>
<path fill="none" stroke="midnightblue" d="M1613.47,-180.44C1616.65,-179.95 1619.82,-179.46 1622.89,-179 1733.45,-162.28 1761.55,-161.1 1871.89,-143 1879.81,-141.7 1888.17,-140.25 1896.36,-138.79"/>
<polygon fill="midnightblue" stroke="midnightblue" points="1897.02,-142.23 1906.24,-137 1895.77,-135.34 1897.02,-142.23"/>
</g>
<!-- Node48 -->
<g id="node40" class="node">
<title>Node48</title>
<g id="a_node40"><a xlink:title=" ">
<polygon fill="none" stroke="#bfbfbf" points="2038.39,-118 2038.39,-137 2147.39,-137 2147.39,-118 2038.39,-118"/>
<text text-anchor="middle" x="2092.89" y="-125" font-family="Helvetica,sans-Serif" font-size="10.00">opencv2/imgproc.hpp</text>
</a>
</g>
</g>
<!-- Node42&#45;&gt;Node48 -->
<g id="edge55" class="edge">
<title>Node42&#45;&gt;Node48</title>
<path fill="none" stroke="midnightblue" d="M1613.44,-180.24C1616.63,-179.8 1619.81,-179.38 1622.89,-179 1803.12,-156.83 1850.53,-171.43 2029.89,-143 2036.29,-141.99 2043.01,-140.69 2049.58,-139.29"/>
<polygon fill="midnightblue" stroke="midnightblue" points="2050.71,-142.63 2059.71,-137.04 2049.19,-135.8 2050.71,-142.63"/>
</g>
<!-- Node49 -->
<g id="node41" class="node">
<title>Node49</title>
<g id="a_node41"><a xlink:title=" ">
<polygon fill="none" stroke="#bfbfbf" points="2165.39,-118 2165.39,-137 2280.39,-137 2280.39,-118 2165.39,-118"/>
<text text-anchor="middle" x="2222.89" y="-125" font-family="Helvetica,sans-Serif" font-size="10.00">opencv2/core/core.hpp</text>
</a>
</g>
</g>
<!-- Node42&#45;&gt;Node49 -->
<g id="edge56" class="edge">
<title>Node42&#45;&gt;Node49</title>
<path fill="none" stroke="midnightblue" d="M1613.43,-180.17C1616.63,-179.74 1619.8,-179.35 1622.89,-179 1859.27,-152.42 1921.4,-176.61 2156.89,-143 2164.07,-141.97 2171.64,-140.6 2178.99,-139.1"/>
<polygon fill="midnightblue" stroke="midnightblue" points="2179.76,-142.51 2188.81,-137 2178.3,-135.67 2179.76,-142.51"/>
</g>
</g>
</svg>
