<?xml version="1.0" encoding="UTF-8" standalone="no"?>
<!DOCTYPE svg PUBLIC "-//W3C//DTD SVG 1.1//EN"
 "http://www.w3.org/Graphics/SVG/1.1/DTD/svg11.dtd">
<!-- Generated by graphviz version 2.49.3 (20211027.1534)
 -->
<!-- Title: src/gui_pkg/src/main_window.cpp Pages: 1 -->
<svg width="2314pt" height="285pt"
 viewBox="0.00 0.00 2313.50 285.00" xmlns="http://www.w3.org/2000/svg" xmlns:xlink="http://www.w3.org/1999/xlink">
<g id="graph0" class="graph" transform="scale(1 1) rotate(0) translate(4 281)">
<title>src/gui_pkg/src/main_window.cpp</title>
<!-- Node1 -->
<g id="node1" class="node">
<title>Node1</title>
<g id="a_node1"><a xlink:title=" ">
<polygon fill="#bfbfbf" stroke="black" points="1530.5,-246.5 1530.5,-276.5 1637.5,-276.5 1637.5,-246.5 1530.5,-246.5"/>
<text text-anchor="start" x="1538.5" y="-264.5" font-family="Helvetica,sans-Serif" font-size="10.00">src/gui_pkg/src/main</text>
<text text-anchor="middle" x="1584" y="-253.5" font-family="Helvetica,sans-Serif" font-size="10.00">_window.cpp</text>
</a>
</g>
</g>
<!-- Node2 -->
<g id="node2" class="node">
<title>Node2</title>
<g id="a_node2"><a xlink:href="main__window_8hpp.html" target="_top" xlink:title=" ">
<polygon fill="none" stroke="black" points="1535.5,-179.5 1535.5,-209.5 1632.5,-209.5 1632.5,-179.5 1535.5,-179.5"/>
<text text-anchor="start" x="1543.5" y="-197.5" font-family="Helvetica,sans-Serif" font-size="10.00">../include/gui_pkg</text>
<text text-anchor="middle" x="1584" y="-186.5" font-family="Helvetica,sans-Serif" font-size="10.00">/main_window.hpp</text>
</a>
</g>
</g>
<!-- Node1&#45;&gt;Node2 -->
<g id="edge1" class="edge">
<title>Node1&#45;&gt;Node2</title>
<path fill="none" stroke="midnightblue" d="M1584,-246.4C1584,-238.64 1584,-228.81 1584,-219.86"/>
<polygon fill="midnightblue" stroke="midnightblue" points="1587.5,-219.58 1584,-209.58 1580.5,-219.58 1587.5,-219.58"/>
</g>
<!-- Node3 -->
<g id="node3" class="node">
<title>Node3</title>
<g id="a_node3"><a xlink:title=" ">
<polygon fill="none" stroke="#bfbfbf" points="0,-0.5 0,-19.5 46,-19.5 46,-0.5 0,-0.5"/>
<text text-anchor="middle" x="23" y="-7.5" font-family="Helvetica,sans-Serif" font-size="10.00">chrono</text>
</a>
</g>
</g>
<!-- Node2&#45;&gt;Node3 -->
<g id="edge2" class="edge">
<title>Node2&#45;&gt;Node3</title>
<path fill="none" stroke="midnightblue" d="M1535.11,-193.39C1278.56,-192.64 97.07,-186.78 34,-143 1.15,-120.19 5.8,-95.66 11,-56 12.16,-47.18 14.53,-37.63 16.87,-29.61"/>
<polygon fill="midnightblue" stroke="midnightblue" points="20.29,-30.42 19.91,-19.83 13.6,-28.34 20.29,-30.42"/>
</g>
<!-- Node4 -->
<g id="node4" class="node">
<title>Node4</title>
<g id="a_node4"><a xlink:title=" ">
<polygon fill="none" stroke="#bfbfbf" points="64.5,-0.5 64.5,-19.5 115.5,-19.5 115.5,-0.5 64.5,-0.5"/>
<text text-anchor="middle" x="90" y="-7.5" font-family="Helvetica,sans-Serif" font-size="10.00">memory</text>
</a>
</g>
</g>
<!-- Node2&#45;&gt;Node4 -->
<g id="edge3" class="edge">
<title>Node2&#45;&gt;Node4</title>
<path fill="none" stroke="midnightblue" d="M1535.19,-192.99C1282.95,-190.21 136.37,-175.79 69,-143 29.48,-123.77 1.2,-94.71 22,-56 29.62,-41.82 43.9,-31.35 57.41,-24.1"/>
<polygon fill="midnightblue" stroke="midnightblue" points="59.13,-27.16 66.55,-19.59 56.03,-20.88 59.13,-27.16"/>
</g>
<!-- Node5 -->
<g id="node5" class="node">
<title>Node5</title>
<g id="a_node5"><a xlink:title=" ">
<polygon fill="none" stroke="#bfbfbf" points="134,-0.5 134,-19.5 188,-19.5 188,-0.5 134,-0.5"/>
<text text-anchor="middle" x="161" y="-7.5" font-family="Helvetica,sans-Serif" font-size="10.00">iostream</text>
</a>
</g>
</g>
<!-- Node2&#45;&gt;Node5 -->
<g id="edge4" class="edge">
<title>Node2&#45;&gt;Node5</title>
<path fill="none" stroke="midnightblue" d="M1535.38,-192.62C1332.47,-188.79 552.32,-172.43 308,-143 183.73,-128.03 111.22,-183.91 32,-87 23.28,-76.33 24.02,-67.23 32,-56 37.57,-48.16 87.9,-32.18 124.01,-21.53"/>
<polygon fill="midnightblue" stroke="midnightblue" points="125.15,-24.84 133.77,-18.68 123.19,-18.12 125.15,-24.84"/>
</g>
<!-- Node6 -->
<g id="node6" class="node">
<title>Node6</title>
<g id="a_node6"><a xlink:title=" ">
<polygon fill="none" stroke="#bfbfbf" points="41,-62 41,-81 131,-81 131,-62 41,-62"/>
<text text-anchor="middle" x="86" y="-69" font-family="Helvetica,sans-Serif" font-size="10.00">rclcpp/rclcpp.hpp</text>
</a>
</g>
</g>
<!-- Node2&#45;&gt;Node6 -->
<g id="edge5" class="edge">
<title>Node2&#45;&gt;Node6</title>
<path fill="none" stroke="midnightblue" d="M1535.39,-193.42C1379.56,-192.72 878.62,-186.96 467,-143 318.64,-127.16 281.44,-120.28 136,-87 131.84,-86.05 127.51,-84.95 123.21,-83.8"/>
<polygon fill="midnightblue" stroke="midnightblue" points="123.93,-80.37 113.36,-81.05 122.05,-87.11 123.93,-80.37"/>
</g>
<!-- Node7 -->
<g id="node7" class="node">
<title>Node7</title>
<g id="a_node7"><a xlink:href="gui__node_8hpp.html" target="_top" xlink:title=" ">
<polygon fill="none" stroke="black" points="476,-123.5 476,-142.5 550,-142.5 550,-123.5 476,-123.5"/>
<text text-anchor="middle" x="513" y="-130.5" font-family="Helvetica,sans-Serif" font-size="10.00">gui_node.hpp</text>
</a>
</g>
</g>
<!-- Node2&#45;&gt;Node7 -->
<g id="edge6" class="edge">
<title>Node2&#45;&gt;Node7</title>
<path fill="none" stroke="midnightblue" d="M1535.2,-190.79C1356.15,-180.84 736.64,-146.42 560.22,-136.62"/>
<polygon fill="midnightblue" stroke="midnightblue" points="560.39,-133.13 550.21,-136.07 560,-140.12 560.39,-133.13"/>
</g>
<!-- Node21 -->
<g id="node21" class="node">
<title>Node21</title>
<g id="a_node21"><a xlink:href="gui__globals_8hpp.html" target="_top" xlink:title=" ">
<polygon fill="none" stroke="black" points="1275.5,-62 1275.5,-81 1358.5,-81 1358.5,-62 1275.5,-62"/>
<text text-anchor="middle" x="1317" y="-69" font-family="Helvetica,sans-Serif" font-size="10.00">gui_globals.hpp</text>
</a>
</g>
</g>
<!-- Node2&#45;&gt;Node21 -->
<g id="edge43" class="edge">
<title>Node2&#45;&gt;Node21</title>
<path fill="none" stroke="midnightblue" d="M1535.27,-192.49C1487.72,-189.31 1415.28,-178.4 1364,-143 1345.33,-130.11 1332.1,-107.17 1324.53,-90.96"/>
<polygon fill="midnightblue" stroke="midnightblue" points="1327.58,-89.21 1320.37,-81.45 1321.17,-92.02 1327.58,-89.21"/>
</g>
<!-- Node22 -->
<g id="node22" class="node">
<title>Node22</title>
<g id="a_node22"><a xlink:href="video__capture_8hpp.html" target="_top" xlink:title=" ">
<polygon fill="none" stroke="black" points="1373.5,-123.5 1373.5,-142.5 1468.5,-142.5 1468.5,-123.5 1373.5,-123.5"/>
<text text-anchor="middle" x="1421" y="-130.5" font-family="Helvetica,sans-Serif" font-size="10.00">video_capture.hpp</text>
</a>
</g>
</g>
<!-- Node2&#45;&gt;Node22 -->
<g id="edge34" class="edge">
<title>Node2&#45;&gt;Node22</title>
<path fill="none" stroke="midnightblue" d="M1545.37,-179.4C1517.66,-169.28 1480.69,-155.79 1454.28,-146.15"/>
<polygon fill="midnightblue" stroke="midnightblue" points="1455.31,-142.8 1444.72,-142.66 1452.91,-149.37 1455.31,-142.8"/>
</g>
<!-- Node30 -->
<g id="node30" class="node">
<title>Node30</title>
<g id="a_node30"><a xlink:title=" ">
<polygon fill="none" stroke="#bfbfbf" points="1486.5,-123.5 1486.5,-142.5 1577.5,-142.5 1577.5,-123.5 1486.5,-123.5"/>
<text text-anchor="middle" x="1532" y="-130.5" font-family="Helvetica,sans-Serif" font-size="10.00">ui_mainwindow.h</text>
</a>
</g>
</g>
<!-- Node2&#45;&gt;Node30 -->
<g id="edge44" class="edge">
<title>Node2&#45;&gt;Node30</title>
<path fill="none" stroke="midnightblue" d="M1571.68,-179.4C1564.04,-170.66 1554.21,-159.41 1546.24,-150.3"/>
<polygon fill="midnightblue" stroke="midnightblue" points="1548.78,-147.88 1539.57,-142.66 1543.51,-152.49 1548.78,-147.88"/>
</g>
<!-- Node31 -->
<g id="node31" class="node">
<title>Node31</title>
<g id="a_node31"><a xlink:title=" ">
<polygon fill="none" stroke="#bfbfbf" points="1596,-123.5 1596,-142.5 1676,-142.5 1676,-123.5 1596,-123.5"/>
<text text-anchor="middle" x="1636" y="-130.5" font-family="Helvetica,sans-Serif" font-size="10.00">QMainWindow</text>
</a>
</g>
</g>
<!-- Node2&#45;&gt;Node31 -->
<g id="edge45" class="edge">
<title>Node2&#45;&gt;Node31</title>
<path fill="none" stroke="midnightblue" d="M1596.32,-179.4C1603.96,-170.66 1613.79,-159.41 1621.76,-150.3"/>
<polygon fill="midnightblue" stroke="midnightblue" points="1624.49,-152.49 1628.43,-142.66 1619.22,-147.88 1624.49,-152.49"/>
</g>
<!-- Node32 -->
<g id="node32" class="node">
<title>Node32</title>
<g id="a_node32"><a xlink:title=" ">
<polygon fill="none" stroke="#bfbfbf" points="1694,-123.5 1694,-142.5 1766,-142.5 1766,-123.5 1694,-123.5"/>
<text text-anchor="middle" x="1730" y="-130.5" font-family="Helvetica,sans-Serif" font-size="10.00">QApplication</text>
</a>
</g>
</g>
<!-- Node2&#45;&gt;Node32 -->
<g id="edge46" class="edge">
<title>Node2&#45;&gt;Node32</title>
<path fill="none" stroke="midnightblue" d="M1618.6,-179.4C1643.1,-169.42 1675.66,-156.15 1699.25,-146.53"/>
<polygon fill="midnightblue" stroke="midnightblue" points="1700.82,-149.67 1708.76,-142.66 1698.17,-143.19 1700.82,-149.67"/>
</g>
<!-- Node33 -->
<g id="node33" class="node">
<title>Node33</title>
<g id="a_node33"><a xlink:title=" ">
<polygon fill="none" stroke="#bfbfbf" points="1784.5,-123.5 1784.5,-142.5 1893.5,-142.5 1893.5,-123.5 1784.5,-123.5"/>
<text text-anchor="middle" x="1839" y="-130.5" font-family="Helvetica,sans-Serif" font-size="10.00">QStandardItemModel</text>
</a>
</g>
</g>
<!-- Node2&#45;&gt;Node33 -->
<g id="edge47" class="edge">
<title>Node2&#45;&gt;Node33</title>
<path fill="none" stroke="midnightblue" d="M1632.56,-182.17C1678.51,-171.45 1747,-155.47 1792.32,-144.89"/>
<polygon fill="midnightblue" stroke="midnightblue" points="1793.24,-148.27 1802.18,-142.59 1791.65,-141.45 1793.24,-148.27"/>
</g>
<!-- Node34 -->
<g id="node34" class="node">
<title>Node34</title>
<g id="a_node34"><a xlink:title=" ">
<polygon fill="none" stroke="#bfbfbf" points="1912,-123.5 1912,-142.5 1982,-142.5 1982,-123.5 1912,-123.5"/>
<text text-anchor="middle" x="1947" y="-130.5" font-family="Helvetica,sans-Serif" font-size="10.00">QTableView</text>
</a>
</g>
</g>
<!-- Node2&#45;&gt;Node34 -->
<g id="edge48" class="edge">
<title>Node2&#45;&gt;Node34</title>
<path fill="none" stroke="midnightblue" d="M1632.75,-186.47C1693.41,-177.58 1800.38,-161.39 1901.85,-143.14"/>
<polygon fill="midnightblue" stroke="midnightblue" points="1902.75,-146.54 1911.96,-141.31 1901.5,-139.65 1902.75,-146.54"/>
</g>
<!-- Node35 -->
<g id="node35" class="node">
<title>Node35</title>
<g id="a_node35"><a xlink:title=" ">
<polygon fill="none" stroke="#bfbfbf" points="2000.5,-123.5 2000.5,-142.5 2077.5,-142.5 2077.5,-123.5 2000.5,-123.5"/>
<text text-anchor="middle" x="2039" y="-130.5" font-family="Helvetica,sans-Serif" font-size="10.00">QHeaderView</text>
</a>
</g>
</g>
<!-- Node2&#45;&gt;Node35 -->
<g id="edge49" class="edge">
<title>Node2&#45;&gt;Node35</title>
<path fill="none" stroke="midnightblue" d="M1632.69,-188.44C1707.31,-180.48 1854.66,-163.9 1990.12,-143.05"/>
<polygon fill="midnightblue" stroke="midnightblue" points="1990.92,-146.47 2000.26,-141.48 1989.84,-139.55 1990.92,-146.47"/>
</g>
<!-- Node36 -->
<g id="node36" class="node">
<title>Node36</title>
<g id="a_node36"><a xlink:title=" ">
<polygon fill="none" stroke="#bfbfbf" points="2096,-123.5 2096,-142.5 2146,-142.5 2146,-123.5 2096,-123.5"/>
<text text-anchor="middle" x="2121" y="-130.5" font-family="Helvetica,sans-Serif" font-size="10.00">QString</text>
</a>
</g>
</g>
<!-- Node2&#45;&gt;Node36 -->
<g id="edge50" class="edge">
<title>Node2&#45;&gt;Node36</title>
<path fill="none" stroke="midnightblue" d="M1632.56,-191.19C1721.01,-186.43 1914.3,-173.46 2085.88,-142.93"/>
<polygon fill="midnightblue" stroke="midnightblue" points="2086.63,-146.35 2095.85,-141.13 2085.39,-139.46 2086.63,-146.35"/>
</g>
<!-- Node37 -->
<g id="node37" class="node">
<title>Node37</title>
<g id="a_node37"><a xlink:title=" ">
<polygon fill="none" stroke="#bfbfbf" points="2164,-123.5 2164,-142.5 2238,-142.5 2238,-123.5 2164,-123.5"/>
<text text-anchor="middle" x="2201" y="-130.5" font-family="Helvetica,sans-Serif" font-size="10.00">QTextStream</text>
</a>
</g>
</g>
<!-- Node2&#45;&gt;Node37 -->
<g id="edge51" class="edge">
<title>Node2&#45;&gt;Node37</title>
<path fill="none" stroke="midnightblue" d="M1632.7,-190.92C1729.9,-185.4 1954.97,-170.75 2153.85,-143.02"/>
<polygon fill="midnightblue" stroke="midnightblue" points="2154.49,-146.47 2163.9,-141.61 2153.51,-139.53 2154.49,-146.47"/>
</g>
<!-- Node38 -->
<g id="node38" class="node">
<title>Node38</title>
<g id="a_node38"><a xlink:title=" ">
<polygon fill="none" stroke="#bfbfbf" points="2256.5,-123.5 2256.5,-142.5 2305.5,-142.5 2305.5,-123.5 2256.5,-123.5"/>
<text text-anchor="middle" x="2281" y="-130.5" font-family="Helvetica,sans-Serif" font-size="10.00">QTimer</text>
</a>
</g>
</g>
<!-- Node2&#45;&gt;Node38 -->
<g id="edge52" class="edge">
<title>Node2&#45;&gt;Node38</title>
<path fill="none" stroke="midnightblue" d="M1632.62,-192.83C1741.18,-190.68 2011.55,-181.73 2246.15,-142.81"/>
<polygon fill="midnightblue" stroke="midnightblue" points="2246.95,-146.23 2256.23,-141.12 2245.79,-139.32 2246.95,-146.23"/>
</g>
<!-- Node7&#45;&gt;Node3 -->
<g id="edge14" class="edge">
<title>Node7&#45;&gt;Node3</title>
<path fill="none" stroke="midnightblue" d="M475.88,-129.95C399.2,-125.27 226.06,-112.17 173,-87 154.82,-78.38 157.04,-66.7 140,-56 125.61,-46.97 85.27,-32.22 55.98,-22.08"/>
<polygon fill="midnightblue" stroke="midnightblue" points="56.73,-18.64 46.13,-18.71 54.46,-25.26 56.73,-18.64"/>
</g>
<!-- Node7&#45;&gt;Node4 -->
<g id="edge15" class="edge">
<title>Node7&#45;&gt;Node4</title>
<path fill="none" stroke="midnightblue" d="M475.8,-128.81C424.33,-123.68 328.91,-111.57 251,-87 199.93,-70.89 144.25,-41.78 113.58,-24.64"/>
<polygon fill="midnightblue" stroke="midnightblue" points="114.97,-21.4 104.54,-19.53 111.53,-27.5 114.97,-21.4"/>
</g>
<!-- Node7&#45;&gt;Node6 -->
<g id="edge7" class="edge">
<title>Node7&#45;&gt;Node6</title>
<path fill="none" stroke="midnightblue" d="M475.96,-128.94C409.35,-123.12 265.13,-109.03 145,-87 139.42,-85.98 133.59,-84.75 127.85,-83.44"/>
<polygon fill="midnightblue" stroke="midnightblue" points="128.23,-79.93 117.69,-81.03 126.62,-86.74 128.23,-79.93"/>
</g>
<!-- Node8 -->
<g id="node8" class="node">
<title>Node8</title>
<g id="a_node8"><a xlink:title=" ">
<polygon fill="none" stroke="#bfbfbf" points="495,-62 495,-81 625,-81 625,-62 495,-62"/>
<text text-anchor="middle" x="560" y="-69" font-family="Helvetica,sans-Serif" font-size="10.00">sensor_msgs/msg/joy.hpp</text>
</a>
</g>
</g>
<!-- Node7&#45;&gt;Node8 -->
<g id="edge8" class="edge">
<title>Node7&#45;&gt;Node8</title>
<path fill="none" stroke="midnightblue" d="M519.73,-123.48C526.78,-114.55 538.03,-100.31 546.85,-89.14"/>
<polygon fill="midnightblue" stroke="midnightblue" points="549.83,-91.03 553.28,-81.01 544.33,-86.69 549.83,-91.03"/>
</g>
<!-- Node9 -->
<g id="node9" class="node">
<title>Node9</title>
<g id="a_node9"><a xlink:title=" ">
<polygon fill="none" stroke="#bfbfbf" points="643,-56.5 643,-86.5 751,-86.5 751,-56.5 643,-56.5"/>
<text text-anchor="start" x="651" y="-74.5" font-family="Helvetica,sans-Serif" font-size="10.00">ecat_msgs/msg/data</text>
<text text-anchor="middle" x="697" y="-63.5" font-family="Helvetica,sans-Serif" font-size="10.00">_received.hpp</text>
</a>
</g>
</g>
<!-- Node7&#45;&gt;Node9 -->
<g id="edge9" class="edge">
<title>Node7&#45;&gt;Node9</title>
<path fill="none" stroke="midnightblue" d="M539.36,-123.48C566.5,-114.7 609.52,-100.79 643.77,-89.71"/>
<polygon fill="midnightblue" stroke="midnightblue" points="645.2,-92.93 653.63,-86.52 643.04,-86.27 645.2,-92.93"/>
</g>
<!-- Node10 -->
<g id="node10" class="node">
<title>Node10</title>
<g id="a_node10"><a xlink:title=" ">
<polygon fill="none" stroke="#bfbfbf" points="769,-56.5 769,-86.5 877,-86.5 877,-56.5 769,-56.5"/>
<text text-anchor="start" x="777" y="-74.5" font-family="Helvetica,sans-Serif" font-size="10.00">ecat_msgs/msg/data</text>
<text text-anchor="middle" x="823" y="-63.5" font-family="Helvetica,sans-Serif" font-size="10.00">_sent.hpp</text>
</a>
</g>
</g>
<!-- Node7&#45;&gt;Node10 -->
<g id="edge10" class="edge">
<title>Node7&#45;&gt;Node10</title>
<path fill="none" stroke="midnightblue" d="M550.35,-125.75C596.82,-117.84 678.85,-103.5 758.53,-87.25"/>
<polygon fill="midnightblue" stroke="midnightblue" points="759.65,-90.59 768.74,-85.16 758.24,-83.74 759.65,-90.59"/>
</g>
<!-- Node11 -->
<g id="node11" class="node">
<title>Node11</title>
<g id="a_node11"><a xlink:title=" ">
<polygon fill="none" stroke="#bfbfbf" points="895,-56.5 895,-86.5 1029,-86.5 1029,-56.5 895,-56.5"/>
<text text-anchor="start" x="903" y="-74.5" font-family="Helvetica,sans-Serif" font-size="10.00">ecat_msgs/msg/gui_button</text>
<text text-anchor="middle" x="962" y="-63.5" font-family="Helvetica,sans-Serif" font-size="10.00">_data.hpp</text>
</a>
</g>
</g>
<!-- Node7&#45;&gt;Node11 -->
<g id="edge11" class="edge">
<title>Node7&#45;&gt;Node11</title>
<path fill="none" stroke="midnightblue" d="M550.17,-128.37C615.69,-121.78 756.17,-106.83 884.87,-87.11"/>
<polygon fill="midnightblue" stroke="midnightblue" points="885.56,-90.55 894.91,-85.56 884.49,-83.63 885.56,-90.55"/>
</g>
<!-- Node12 -->
<g id="node12" class="node">
<title>Node12</title>
<g id="a_node12"><a xlink:title=" ">
<polygon fill="none" stroke="#bfbfbf" points="1047,-62 1047,-81 1181,-81 1181,-62 1047,-62"/>
<text text-anchor="middle" x="1114" y="-69" font-family="Helvetica,sans-Serif" font-size="10.00">std_msgs/msg/u_int16.hpp</text>
</a>
</g>
</g>
<!-- Node7&#45;&gt;Node12 -->
<g id="edge12" class="edge">
<title>Node7&#45;&gt;Node12</title>
<path fill="none" stroke="midnightblue" d="M550.06,-130.14C636.08,-125.53 855.85,-112.11 1038,-87 1046.32,-85.85 1055.11,-84.4 1063.65,-82.86"/>
<polygon fill="midnightblue" stroke="midnightblue" points="1064.31,-86.3 1073.5,-81.03 1063.03,-79.42 1064.31,-86.3"/>
</g>
<!-- Node13 -->
<g id="node13" class="node">
<title>Node13</title>
<g id="a_node13"><a xlink:title=" ">
<polygon fill="none" stroke="#bfbfbf" points="1066,-0.5 1066,-19.5 1110,-19.5 1110,-0.5 1066,-0.5"/>
<text text-anchor="middle" x="1088" y="-7.5" font-family="Helvetica,sans-Serif" font-size="10.00">vector</text>
</a>
</g>
</g>
<!-- Node7&#45;&gt;Node13 -->
<g id="edge13" class="edge">
<title>Node7&#45;&gt;Node13</title>
<path fill="none" stroke="midnightblue" d="M550.46,-132.49C688.47,-133.9 1162.83,-135.19 1208,-87 1217.42,-76.95 1215.85,-67.32 1208,-56 1188.45,-27.78 1148.87,-17.23 1120.52,-13.3"/>
<polygon fill="midnightblue" stroke="midnightblue" points="1120.6,-9.79 1110.26,-12.1 1119.78,-16.74 1120.6,-9.79"/>
</g>
<!-- Node14 -->
<g id="node14" class="node">
<title>Node14</title>
<g id="a_node14"><a xlink:title=" ">
<polygon fill="none" stroke="#bfbfbf" points="206.5,-0.5 206.5,-19.5 265.5,-19.5 265.5,-0.5 206.5,-0.5"/>
<text text-anchor="middle" x="236" y="-7.5" font-family="Helvetica,sans-Serif" font-size="10.00">functional</text>
</a>
</g>
</g>
<!-- Node7&#45;&gt;Node14 -->
<g id="edge16" class="edge">
<title>Node7&#45;&gt;Node14</title>
<path fill="none" stroke="midnightblue" d="M475.59,-128.48C418.21,-122.48 311.85,-108.74 281,-87 261.07,-72.96 248.54,-47.04 241.9,-29.42"/>
<polygon fill="midnightblue" stroke="midnightblue" points="245.11,-27.99 238.52,-19.7 238.5,-30.29 245.11,-27.99"/>
</g>
<!-- Node15 -->
<g id="node15" class="node">
<title>Node15</title>
<g id="a_node15"><a xlink:title=" ">
<polygon fill="none" stroke="#bfbfbf" points="283.5,-0.5 283.5,-19.5 324.5,-19.5 324.5,-0.5 283.5,-0.5"/>
<text text-anchor="middle" x="304" y="-7.5" font-family="Helvetica,sans-Serif" font-size="10.00">string</text>
</a>
</g>
</g>
<!-- Node7&#45;&gt;Node15 -->
<g id="edge17" class="edge">
<title>Node7&#45;&gt;Node15</title>
<path fill="none" stroke="midnightblue" d="M475.8,-129.94C418.99,-125.94 314.79,-114.9 292,-87 278.7,-70.72 286.28,-45.74 294.1,-28.91"/>
<polygon fill="midnightblue" stroke="midnightblue" points="297.41,-30.13 298.82,-19.63 291.17,-26.96 297.41,-30.13"/>
</g>
<!-- Node16 -->
<g id="node16" class="node">
<title>Node16</title>
<g id="a_node16"><a xlink:title=" ">
<polygon fill="none" stroke="#bfbfbf" points="343,-0.5 343,-19.5 389,-19.5 389,-0.5 343,-0.5"/>
<text text-anchor="middle" x="366" y="-7.5" font-family="Helvetica,sans-Serif" font-size="10.00">cstdint</text>
</a>
</g>
</g>
<!-- Node7&#45;&gt;Node16 -->
<g id="edge18" class="edge">
<title>Node7&#45;&gt;Node16</title>
<path fill="none" stroke="midnightblue" d="M500.85,-123.29C488.58,-114.41 469.19,-100.11 453,-87 428.09,-66.82 400.37,-42.21 383.06,-26.57"/>
<polygon fill="midnightblue" stroke="midnightblue" points="385.21,-23.8 375.45,-19.67 380.51,-28.99 385.21,-23.8"/>
</g>
<!-- Node17 -->
<g id="node17" class="node">
<title>Node17</title>
<g id="a_node17"><a xlink:title=" ">
<polygon fill="none" stroke="#bfbfbf" points="407.5,-0.5 407.5,-19.5 448.5,-19.5 448.5,-0.5 407.5,-0.5"/>
<text text-anchor="middle" x="428" y="-7.5" font-family="Helvetica,sans-Serif" font-size="10.00">ctime</text>
</a>
</g>
</g>
<!-- Node7&#45;&gt;Node17 -->
<g id="edge19" class="edge">
<title>Node7&#45;&gt;Node17</title>
<path fill="none" stroke="midnightblue" d="M505.82,-123.19C498.59,-114.23 487.22,-99.87 478,-87 463.84,-67.22 448.62,-43.73 438.74,-28.15"/>
<polygon fill="midnightblue" stroke="midnightblue" points="441.63,-26.18 433.33,-19.58 435.71,-29.91 441.63,-26.18"/>
</g>
<!-- Node18 -->
<g id="node18" class="node">
<title>Node18</title>
<g id="a_node18"><a xlink:title=" ">
<polygon fill="none" stroke="#bfbfbf" points="466.5,-0.5 466.5,-19.5 501.5,-19.5 501.5,-0.5 466.5,-0.5"/>
<text text-anchor="middle" x="484" y="-7.5" font-family="Helvetica,sans-Serif" font-size="10.00">ratio</text>
</a>
</g>
</g>
<!-- Node7&#45;&gt;Node18 -->
<g id="edge20" class="edge">
<title>Node7&#45;&gt;Node18</title>
<path fill="none" stroke="midnightblue" d="M505.93,-123.34C499.37,-114.72 490.02,-100.82 486,-87 480.48,-68.03 480.73,-45.27 481.89,-29.63"/>
<polygon fill="midnightblue" stroke="midnightblue" points="485.38,-29.94 482.83,-19.65 478.41,-29.28 485.38,-29.94"/>
</g>
<!-- Node19 -->
<g id="node19" class="node">
<title>Node19</title>
<g id="a_node19"><a xlink:title=" ">
<polygon fill="none" stroke="#bfbfbf" points="839,-0.5 839,-19.5 889,-19.5 889,-0.5 839,-0.5"/>
<text text-anchor="middle" x="864" y="-7.5" font-family="Helvetica,sans-Serif" font-size="10.00">fstream</text>
</a>
</g>
</g>
<!-- Node7&#45;&gt;Node19 -->
<g id="edge21" class="edge">
<title>Node7&#45;&gt;Node19</title>
<path fill="none" stroke="midnightblue" d="M550.42,-132.42C686.05,-133.55 1146.14,-133.88 1190,-87 1199.41,-76.94 1199.05,-66.39 1190,-56 1171.07,-34.28 979.61,-18.85 899.23,-13.28"/>
<polygon fill="midnightblue" stroke="midnightblue" points="899.32,-9.78 889.1,-12.59 898.84,-16.77 899.32,-9.78"/>
</g>
<!-- Node20 -->
<g id="node20" class="node">
<title>Node20</title>
<g id="a_node20"><a xlink:href="gui__pkg_2include_2gui__pkg_2timing_8hpp.html" target="_top" xlink:title=" ">
<polygon fill="none" stroke="black" points="301.5,-62 301.5,-81 362.5,-81 362.5,-62 301.5,-62"/>
<text text-anchor="middle" x="332" y="-69" font-family="Helvetica,sans-Serif" font-size="10.00">timing.hpp</text>
</a>
</g>
</g>
<!-- Node7&#45;&gt;Node20 -->
<g id="edge22" class="edge">
<title>Node7&#45;&gt;Node20</title>
<path fill="none" stroke="midnightblue" d="M487.07,-123.48C455.75,-113.18 402.91,-95.81 367.74,-84.25"/>
<polygon fill="midnightblue" stroke="midnightblue" points="368.48,-80.81 357.88,-81.01 366.29,-87.46 368.48,-80.81"/>
</g>
<!-- Node7&#45;&gt;Node21 -->
<g id="edge33" class="edge">
<title>Node7&#45;&gt;Node21</title>
<path fill="none" stroke="midnightblue" d="M550.24,-132.29C659.9,-132.61 990.83,-129.69 1261,-87 1266.78,-86.09 1272.84,-84.84 1278.74,-83.45"/>
<polygon fill="midnightblue" stroke="midnightblue" points="1279.59,-86.85 1288.45,-81.03 1277.9,-80.05 1279.59,-86.85"/>
</g>
<!-- Node20&#45;&gt;Node3 -->
<g id="edge24" class="edge">
<title>Node20&#45;&gt;Node3</title>
<path fill="none" stroke="midnightblue" d="M301.48,-65.9C251.94,-58.22 150.83,-41.69 55.78,-20"/>
<polygon fill="midnightblue" stroke="midnightblue" points="56.54,-16.58 46.01,-17.75 54.96,-23.41 56.54,-16.58"/>
</g>
<!-- Node20&#45;&gt;Node4 -->
<g id="edge25" class="edge">
<title>Node20&#45;&gt;Node4</title>
<path fill="none" stroke="midnightblue" d="M301.46,-63.17C262.86,-53.89 194.15,-37.27 125.31,-20.06"/>
<polygon fill="midnightblue" stroke="midnightblue" points="126.16,-16.66 115.6,-17.62 124.45,-23.45 126.16,-16.66"/>
</g>
<!-- Node20&#45;&gt;Node5 -->
<g id="edge32" class="edge">
<title>Node20&#45;&gt;Node5</title>
<path fill="none" stroke="midnightblue" d="M307.5,-61.98C278.04,-51.72 228.42,-34.46 195.2,-22.9"/>
<polygon fill="midnightblue" stroke="midnightblue" points="196.05,-19.49 185.45,-19.51 193.75,-26.1 196.05,-19.49"/>
</g>
<!-- Node20&#45;&gt;Node13 -->
<g id="edge23" class="edge">
<title>Node20&#45;&gt;Node13</title>
<path fill="none" stroke="midnightblue" d="M362.66,-67.44C393.73,-64.38 443.19,-59.62 486,-56 703.52,-37.63 965.58,-19.36 1055.72,-13.19"/>
<polygon fill="midnightblue" stroke="midnightblue" points="1056.11,-16.67 1065.85,-12.5 1055.63,-9.69 1056.11,-16.67"/>
</g>
<!-- Node20&#45;&gt;Node14 -->
<g id="edge26" class="edge">
<title>Node20&#45;&gt;Node14</title>
<path fill="none" stroke="midnightblue" d="M318.25,-61.98C302.63,-52.3 276.94,-36.37 258.42,-24.89"/>
<polygon fill="midnightblue" stroke="midnightblue" points="260.07,-21.8 249.73,-19.51 256.38,-27.75 260.07,-21.8"/>
</g>
<!-- Node20&#45;&gt;Node15 -->
<g id="edge27" class="edge">
<title>Node20&#45;&gt;Node15</title>
<path fill="none" stroke="midnightblue" d="M327.99,-61.98C323.91,-53.32 317.48,-39.65 312.3,-28.65"/>
<polygon fill="midnightblue" stroke="midnightblue" points="315.43,-27.07 308,-19.51 309.1,-30.05 315.43,-27.07"/>
</g>
<!-- Node20&#45;&gt;Node16 -->
<g id="edge28" class="edge">
<title>Node20&#45;&gt;Node16</title>
<path fill="none" stroke="midnightblue" d="M336.87,-61.98C341.87,-53.23 349.79,-39.37 356.11,-28.31"/>
<polygon fill="midnightblue" stroke="midnightblue" points="359.22,-29.93 361.14,-19.51 353.14,-26.46 359.22,-29.93"/>
</g>
<!-- Node20&#45;&gt;Node17 -->
<g id="edge29" class="edge">
<title>Node20&#45;&gt;Node17</title>
<path fill="none" stroke="midnightblue" d="M345.75,-61.98C361.37,-52.3 387.06,-36.37 405.58,-24.89"/>
<polygon fill="midnightblue" stroke="midnightblue" points="407.62,-27.75 414.27,-19.51 403.93,-21.8 407.62,-27.75"/>
</g>
<!-- Node20&#45;&gt;Node18 -->
<g id="edge30" class="edge">
<title>Node20&#45;&gt;Node18</title>
<path fill="none" stroke="midnightblue" d="M353.78,-61.98C380.8,-51.4 426.91,-33.35 456.39,-21.81"/>
<polygon fill="midnightblue" stroke="midnightblue" points="458.02,-24.93 466.06,-18.02 455.47,-18.41 458.02,-24.93"/>
</g>
<!-- Node20&#45;&gt;Node19 -->
<g id="edge31" class="edge">
<title>Node20&#45;&gt;Node19</title>
<path fill="none" stroke="midnightblue" d="M362.51,-67.09C454.86,-56.76 730.99,-25.88 829.01,-14.91"/>
<polygon fill="midnightblue" stroke="midnightblue" points="829.45,-18.39 839,-13.8 828.67,-11.43 829.45,-18.39"/>
</g>
<!-- Node22&#45;&gt;Node21 -->
<g id="edge42" class="edge">
<title>Node22&#45;&gt;Node21</title>
<path fill="none" stroke="midnightblue" d="M1406.1,-123.48C1389.03,-113.71 1360.84,-97.58 1340.74,-86.08"/>
<polygon fill="midnightblue" stroke="midnightblue" points="1342.29,-82.94 1331.87,-81.01 1338.81,-89.01 1342.29,-82.94"/>
</g>
<!-- Node23 -->
<g id="node23" class="node">
<title>Node23</title>
<g id="a_node23"><a xlink:title=" ">
<polygon fill="none" stroke="#bfbfbf" points="1636,-62 1636,-81 1692,-81 1692,-62 1636,-62"/>
<text text-anchor="middle" x="1664" y="-69" font-family="Helvetica,sans-Serif" font-size="10.00">QPixmap</text>
</a>
</g>
</g>
<!-- Node22&#45;&gt;Node23 -->
<g id="edge35" class="edge">
<title>Node22&#45;&gt;Node23</title>
<path fill="none" stroke="midnightblue" d="M1468.86,-123.97C1511.2,-116.3 1574.4,-103.49 1628,-87 1630.28,-86.3 1632.62,-85.51 1634.96,-84.68"/>
<polygon fill="midnightblue" stroke="midnightblue" points="1636.31,-87.91 1644.41,-81.09 1633.82,-81.37 1636.31,-87.91"/>
</g>
<!-- Node24 -->
<g id="node24" class="node">
<title>Node24</title>
<g id="a_node24"><a xlink:title=" ">
<polygon fill="none" stroke="#bfbfbf" points="1710.5,-62 1710.5,-81 1761.5,-81 1761.5,-62 1710.5,-62"/>
<text text-anchor="middle" x="1736" y="-69" font-family="Helvetica,sans-Serif" font-size="10.00">QImage</text>
</a>
</g>
</g>
<!-- Node22&#45;&gt;Node24 -->
<g id="edge36" class="edge">
<title>Node22&#45;&gt;Node24</title>
<path fill="none" stroke="midnightblue" d="M1468.55,-124.43C1547.72,-111.81 1698.21,-87.79 1701,-87 1703.3,-86.35 1705.64,-85.59 1707.98,-84.77"/>
<polygon fill="midnightblue" stroke="midnightblue" points="1709.32,-88.01 1717.4,-81.15 1706.81,-81.47 1709.32,-88.01"/>
</g>
<!-- Node25 -->
<g id="node25" class="node">
<title>Node25</title>
<g id="a_node25"><a xlink:title=" ">
<polygon fill="none" stroke="#bfbfbf" points="1780,-62 1780,-81 1834,-81 1834,-62 1780,-62"/>
<text text-anchor="middle" x="1807" y="-69" font-family="Helvetica,sans-Serif" font-size="10.00">QThread</text>
</a>
</g>
</g>
<!-- Node22&#45;&gt;Node25 -->
<g id="edge37" class="edge">
<title>Node22&#45;&gt;Node25</title>
<path fill="none" stroke="midnightblue" d="M1468.57,-124.36C1471.76,-123.89 1474.92,-123.43 1478,-123 1607.93,-104.77 1643.96,-119.79 1771,-87 1773.51,-86.35 1776.08,-85.57 1778.64,-84.71"/>
<polygon fill="midnightblue" stroke="midnightblue" points="1780.11,-87.9 1788.25,-81.12 1777.66,-81.34 1780.11,-87.9"/>
</g>
<!-- Node26 -->
<g id="node26" class="node">
<title>Node26</title>
<g id="a_node26"><a xlink:title=" ">
<polygon fill="none" stroke="#bfbfbf" points="1852,-62 1852,-81 1958,-81 1958,-62 1852,-62"/>
<text text-anchor="middle" x="1905" y="-69" font-family="Helvetica,sans-Serif" font-size="10.00">opencv2/opencv.hpp</text>
</a>
</g>
</g>
<!-- Node22&#45;&gt;Node26 -->
<g id="edge38" class="edge">
<title>Node22&#45;&gt;Node26</title>
<path fill="none" stroke="midnightblue" d="M1468.56,-124.28C1471.75,-123.83 1474.92,-123.39 1478,-123 1639.69,-102.28 1682.18,-113.62 1843,-87 1849.23,-85.97 1855.76,-84.68 1862.15,-83.29"/>
<polygon fill="midnightblue" stroke="midnightblue" points="1863.04,-86.68 1872.02,-81.06 1861.49,-79.85 1863.04,-86.68"/>
</g>
<!-- Node27 -->
<g id="node27" class="node">
<title>Node27</title>
<g id="a_node27"><a xlink:title=" ">
<polygon fill="none" stroke="#bfbfbf" points="1976.5,-62 1976.5,-81 2115.5,-81 2115.5,-62 1976.5,-62"/>
<text text-anchor="middle" x="2046" y="-69" font-family="Helvetica,sans-Serif" font-size="10.00">opencv2/highgui/highgui.hpp</text>
</a>
</g>
</g>
<!-- Node22&#45;&gt;Node27 -->
<g id="edge39" class="edge">
<title>Node22&#45;&gt;Node27</title>
<path fill="none" stroke="midnightblue" d="M1468.55,-124.19C1471.74,-123.76 1474.91,-123.36 1478,-123 1694.48,-97.98 1750.85,-114.71 1967,-87 1975.84,-85.87 1985.2,-84.39 1994.25,-82.82"/>
<polygon fill="midnightblue" stroke="midnightblue" points="1995.09,-86.23 2004.31,-81.02 1993.85,-79.34 1995.09,-86.23"/>
</g>
<!-- Node28 -->
<g id="node28" class="node">
<title>Node28</title>
<g id="a_node28"><a xlink:title=" ">
<polygon fill="none" stroke="#bfbfbf" points="1376.5,-62 1376.5,-81 1485.5,-81 1485.5,-62 1376.5,-62"/>
<text text-anchor="middle" x="1431" y="-69" font-family="Helvetica,sans-Serif" font-size="10.00">opencv2/imgproc.hpp</text>
</a>
</g>
</g>
<!-- Node22&#45;&gt;Node28 -->
<g id="edge40" class="edge">
<title>Node22&#45;&gt;Node28</title>
<path fill="none" stroke="midnightblue" d="M1422.43,-123.48C1423.84,-115.08 1426.05,-101.98 1427.86,-91.16"/>
<polygon fill="midnightblue" stroke="midnightblue" points="1431.36,-91.45 1429.57,-81.01 1424.46,-90.29 1431.36,-91.45"/>
</g>
<!-- Node29 -->
<g id="node29" class="node">
<title>Node29</title>
<g id="a_node29"><a xlink:title=" ">
<polygon fill="none" stroke="#bfbfbf" points="1503.5,-62 1503.5,-81 1618.5,-81 1618.5,-62 1503.5,-62"/>
<text text-anchor="middle" x="1561" y="-69" font-family="Helvetica,sans-Serif" font-size="10.00">opencv2/core/core.hpp</text>
</a>
</g>
</g>
<!-- Node22&#45;&gt;Node29 -->
<g id="edge41" class="edge">
<title>Node22&#45;&gt;Node29</title>
<path fill="none" stroke="midnightblue" d="M1441.06,-123.48C1464.76,-113.4 1504.41,-96.55 1531.58,-85"/>
<polygon fill="midnightblue" stroke="midnightblue" points="1533.14,-88.14 1540.98,-81.01 1530.41,-81.7 1533.14,-88.14"/>
</g>
</g>
</svg>
