<?xml version="1.0" encoding="UTF-8" standalone="no"?>
<!DOCTYPE svg PUBLIC "-//W3C//DTD SVG 1.1//EN"
 "http://www.w3.org/Graphics/SVG/1.1/DTD/svg11.dtd">
<!-- Generated by graphviz version 2.49.3 (20211027.1534)
 -->
<!-- Title: src/gui_pkg/include/gui_pkg/main_window.hpp Pages: 1 -->
<!--zoomable 274 -->
<svg id="main" version="1.1" xmlns="http://www.w3.org/2000/svg" xmlns:xlink="http://www.w3.org/1999/xlink" xml:space="preserve" onload="init(evt)">
<style type="text/css"><![CDATA[
.edge:hover path { stroke: red; }
.edge:hover polygon { stroke: red; fill: red; }
]]></style>
<script type="text/javascript"><![CDATA[
var edges = document.getElementsByTagName('g');
if (edges && edges.length) {
  for (var i=0;i<edges.length;i++) {
    if (edges[i].id.substr(0,4)=='edge') {
      edges[i].setAttribute('class','edge');
    }
  }
}
]]></script>
        <defs>
                <circle id="rim" cx="0" cy="0" r="7"/>
                <circle id="rim2" cx="0" cy="0" r="3.5"/>
                <g id="zoomPlus">
                        <use xlink:href="#rim" fill="#404040">
                                <set attributeName="fill" to="#808080" begin="zoomplus.mouseover" end="zoomplus.mouseout"/>
                        </use>
                        <path d="M-4,0h8M0,-4v8" fill="none" stroke="white" stroke-width="1.5" pointer-events="none"/>
                </g>
                <g id="zoomMin">
                        <use xlink:href="#rim" fill="#404040">
                                <set attributeName="fill" to="#808080" begin="zoomminus.mouseover" end="zoomminus.mouseout"/>
                        </use>
                        <path d="M-4,0h8" fill="none" stroke="white" stroke-width="1.5" pointer-events="none"/>
                </g>
                <g id="dirArrow">
                        <path fill="none" stroke="white" stroke-width="1.5" d="M0,-3.0v7 M-2.5,-0.5L0,-3.0L2.5,-0.5"/>
                </g>
               <g id="resetDef">
                       <use xlink:href="#rim2" fill="#404040">
                               <set attributeName="fill" to="#808080" begin="reset.mouseover" end="reset.mouseout"/>
                       </use>
               </g>
        </defs>

<script type="text/javascript">
var viewWidth = 2458;
var viewHeight = 274;
var sectionId = 'dynsection-0';
</script>
<script xlink:href="svgpan.js"/>
<svg id="graph" class="graph">
<g id="viewport">
<title>src/gui_pkg/include/gui_pkg/main_window.hpp</title>
<!-- Node1 -->
<g id="node1" class="node">
<title>Node1</title>
<g id="a_node1"><a xlink:title=" ">
<polygon fill="#bfbfbf" stroke="black" points="1661.59,-235.5 1661.59,-265.5 1795.59,-265.5 1795.59,-235.5 1661.59,-235.5"/>
<text text-anchor="start" x="1669.59" y="-253.5" font-family="Helvetica,sans-Serif" font-size="10.00">src/gui_pkg/include</text>
<text text-anchor="middle" x="1728.59" y="-242.5" font-family="Helvetica,sans-Serif" font-size="10.00">/gui_pkg/main_window.hpp</text>
</a>
</g>
</g>
<!-- Node2 -->
<g id="node2" class="node">
<title>Node2</title>
<g id="a_node2"><a xlink:title=" ">
<polygon fill="none" stroke="#bfbfbf" points="1244.59,-0.5 1244.59,-19.5 1290.59,-19.5 1290.59,-0.5 1244.59,-0.5"/>
<text text-anchor="middle" x="1267.59" y="-7.5" font-family="Helvetica,sans-Serif" font-size="10.00">chrono</text>
</a>
</g>
</g>
<!-- Node1&#45;&gt;Node2 -->
<g id="edge1" class="edge">
<title>Node1&#45;&gt;Node2</title>
<path fill="none" stroke="midnightblue" d="M1661.36,-244.08C1612.05,-238.05 1544.57,-225.39 1490.59,-199 1487.6,-197.53 1338.38,-71.05 1285.74,-26.4"/>
<polygon fill="midnightblue" stroke="midnightblue" points="1287.78,-23.54 1277.89,-19.74 1283.25,-28.87 1287.78,-23.54"/>
</g>
<!-- Node3 -->
<g id="node3" class="node">
<title>Node3</title>
<g id="a_node3"><a xlink:title=" ">
<polygon fill="none" stroke="#bfbfbf" points="213.09,-0.5 213.09,-19.5 264.09,-19.5 264.09,-0.5 213.09,-0.5"/>
<text text-anchor="middle" x="238.59" y="-7.5" font-family="Helvetica,sans-Serif" font-size="10.00">memory</text>
</a>
</g>
</g>
<!-- Node1&#45;&gt;Node3 -->
<g id="edge2" class="edge">
<title>Node1&#45;&gt;Node3</title>
<path fill="none" stroke="midnightblue" d="M1661.28,-249.32C1467.06,-248.28 889.07,-241.55 411.59,-199 233.23,-183.1 130.09,-278.14 12.59,-143 -47.13,-74.31 125.01,-32.29 202.7,-17.27"/>
<polygon fill="midnightblue" stroke="midnightblue" points="203.83,-20.62 213.01,-15.33 202.53,-13.74 203.83,-20.62"/>
</g>
<!-- Node4 -->
<g id="node4" class="node">
<title>Node4</title>
<g id="a_node4"><a xlink:title=" ">
<polygon fill="none" stroke="#bfbfbf" points="1138.59,-0.5 1138.59,-19.5 1192.59,-19.5 1192.59,-0.5 1138.59,-0.5"/>
<text text-anchor="middle" x="1165.59" y="-7.5" font-family="Helvetica,sans-Serif" font-size="10.00">iostream</text>
</a>
</g>
</g>
<!-- Node1&#45;&gt;Node4 -->
<g id="edge3" class="edge">
<title>Node1&#45;&gt;Node4</title>
<path fill="none" stroke="midnightblue" d="M1661.59,-243.63C1607.05,-237.23 1528.85,-224.31 1464.59,-199 1349.06,-153.5 1229.22,-62.35 1184.17,-26.24"/>
<polygon fill="midnightblue" stroke="midnightblue" points="1186.16,-23.35 1176.19,-19.78 1181.76,-28.79 1186.16,-23.35"/>
</g>
<!-- Node5 -->
<g id="node5" class="node">
<title>Node5</title>
<g id="a_node5"><a xlink:title=" ">
<polygon fill="none" stroke="#bfbfbf" points="21.59,-118 21.59,-137 111.59,-137 111.59,-118 21.59,-118"/>
<text text-anchor="middle" x="66.59" y="-125" font-family="Helvetica,sans-Serif" font-size="10.00">rclcpp/rclcpp.hpp</text>
</a>
</g>
</g>
<!-- Node1&#45;&gt;Node5 -->
<g id="edge4" class="edge">
<title>Node1&#45;&gt;Node5</title>
<path fill="none" stroke="midnightblue" d="M1661.41,-246.92C1502.56,-240.64 1091.45,-223.23 748.59,-199 471.28,-179.4 399.81,-188.75 125.59,-143 119.73,-142.02 113.59,-140.77 107.57,-139.42"/>
<polygon fill="midnightblue" stroke="midnightblue" points="108.18,-135.96 97.64,-137.06 106.57,-142.77 108.18,-135.96"/>
</g>
<!-- Node6 -->
<g id="node6" class="node">
<title>Node6</title>
<g id="a_node6"><a xlink:href="gui__node_8hpp.html" target="_top" xlink:title=" ">
<polygon fill="none" stroke="black" points="757.59,-179.5 757.59,-198.5 831.59,-198.5 831.59,-179.5 757.59,-179.5"/>
<text text-anchor="middle" x="794.59" y="-186.5" font-family="Helvetica,sans-Serif" font-size="10.00">gui_node.hpp</text>
</a>
</g>
</g>
<!-- Node1&#45;&gt;Node6 -->
<g id="edge5" class="edge">
<title>Node1&#45;&gt;Node6</title>
<path fill="none" stroke="midnightblue" d="M1661.42,-245.22C1482.13,-233.8 995.47,-202.8 841.78,-193.01"/>
<polygon fill="midnightblue" stroke="midnightblue" points="841.92,-189.51 831.72,-192.36 841.47,-196.49 841.92,-189.51"/>
</g>
<!-- Node40 -->
<g id="node33" class="node">
<title>Node40</title>
<g id="a_node33"><a xlink:href="gui__globals_8hpp.html" target="_top" xlink:title=" ">
<polygon fill="none" stroke="black" points="1439.09,-118 1439.09,-137 1522.09,-137 1522.09,-118 1439.09,-118"/>
<text text-anchor="middle" x="1480.59" y="-125" font-family="Helvetica,sans-Serif" font-size="10.00">gui_globals.hpp</text>
</a>
</g>
</g>
<!-- Node1&#45;&gt;Node40 -->
<g id="edge58" class="edge">
<title>Node1&#45;&gt;Node40</title>
<path fill="none" stroke="midnightblue" d="M1661.46,-241.03C1605.48,-232.75 1531.34,-218.52 1508.59,-199 1493.33,-185.9 1486.31,-163.33 1483.13,-147.26"/>
<polygon fill="midnightblue" stroke="midnightblue" points="1486.58,-146.66 1481.49,-137.37 1479.68,-147.81 1486.58,-146.66"/>
</g>
<!-- Node41 -->
<g id="node34" class="node">
<title>Node41</title>
<g id="a_node34"><a xlink:href="video__capture_8hpp.html" target="_top" xlink:title=" ">
<polygon fill="none" stroke="black" points="1518.09,-179.5 1518.09,-198.5 1613.09,-198.5 1613.09,-179.5 1518.09,-179.5"/>
<text text-anchor="middle" x="1565.59" y="-186.5" font-family="Helvetica,sans-Serif" font-size="10.00">video_capture.hpp</text>
</a>
</g>
</g>
<!-- Node1&#45;&gt;Node41 -->
<g id="edge49" class="edge">
<title>Node1&#45;&gt;Node41</title>
<path fill="none" stroke="midnightblue" d="M1689.97,-235.4C1662.25,-225.28 1625.29,-211.79 1598.88,-202.15"/>
<polygon fill="midnightblue" stroke="midnightblue" points="1599.91,-198.8 1589.31,-198.66 1597.51,-205.37 1599.91,-198.8"/>
</g>
<!-- Node49 -->
<g id="node42" class="node">
<title>Node49</title>
<g id="a_node42"><a xlink:title=" ">
<polygon fill="none" stroke="#bfbfbf" points="1631.09,-179.5 1631.09,-198.5 1722.09,-198.5 1722.09,-179.5 1631.09,-179.5"/>
<text text-anchor="middle" x="1676.59" y="-186.5" font-family="Helvetica,sans-Serif" font-size="10.00">ui_mainwindow.h</text>
</a>
</g>
</g>
<!-- Node1&#45;&gt;Node49 -->
<g id="edge59" class="edge">
<title>Node1&#45;&gt;Node49</title>
<path fill="none" stroke="midnightblue" d="M1716.27,-235.4C1708.64,-226.66 1698.8,-215.41 1690.84,-206.3"/>
<polygon fill="midnightblue" stroke="midnightblue" points="1693.38,-203.88 1684.16,-198.66 1688.11,-208.49 1693.38,-203.88"/>
</g>
<!-- Node50 -->
<g id="node43" class="node">
<title>Node50</title>
<g id="a_node43"><a xlink:title=" ">
<polygon fill="none" stroke="#bfbfbf" points="1740.59,-179.5 1740.59,-198.5 1820.59,-198.5 1820.59,-179.5 1740.59,-179.5"/>
<text text-anchor="middle" x="1780.59" y="-186.5" font-family="Helvetica,sans-Serif" font-size="10.00">QMainWindow</text>
</a>
</g>
</g>
<!-- Node1&#45;&gt;Node50 -->
<g id="edge60" class="edge">
<title>Node1&#45;&gt;Node50</title>
<path fill="none" stroke="midnightblue" d="M1740.92,-235.4C1748.55,-226.66 1758.38,-215.41 1766.35,-206.3"/>
<polygon fill="midnightblue" stroke="midnightblue" points="1769.08,-208.49 1773.03,-198.66 1763.81,-203.88 1769.08,-208.49"/>
</g>
<!-- Node51 -->
<g id="node44" class="node">
<title>Node51</title>
<g id="a_node44"><a xlink:title=" ">
<polygon fill="none" stroke="#bfbfbf" points="1838.59,-179.5 1838.59,-198.5 1910.59,-198.5 1910.59,-179.5 1838.59,-179.5"/>
<text text-anchor="middle" x="1874.59" y="-186.5" font-family="Helvetica,sans-Serif" font-size="10.00">QApplication</text>
</a>
</g>
</g>
<!-- Node1&#45;&gt;Node51 -->
<g id="edge61" class="edge">
<title>Node1&#45;&gt;Node51</title>
<path fill="none" stroke="midnightblue" d="M1763.19,-235.4C1787.69,-225.42 1820.25,-212.15 1843.84,-202.53"/>
<polygon fill="midnightblue" stroke="midnightblue" points="1845.41,-205.67 1853.35,-198.66 1842.77,-199.19 1845.41,-205.67"/>
</g>
<!-- Node52 -->
<g id="node45" class="node">
<title>Node52</title>
<g id="a_node45"><a xlink:title=" ">
<polygon fill="none" stroke="#bfbfbf" points="1929.09,-179.5 1929.09,-198.5 2038.09,-198.5 2038.09,-179.5 1929.09,-179.5"/>
<text text-anchor="middle" x="1983.59" y="-186.5" font-family="Helvetica,sans-Serif" font-size="10.00">QStandardItemModel</text>
</a>
</g>
</g>
<!-- Node1&#45;&gt;Node52 -->
<g id="edge62" class="edge">
<title>Node1&#45;&gt;Node52</title>
<path fill="none" stroke="midnightblue" d="M1788.7,-235.47C1834.14,-224.87 1895.59,-210.53 1937.26,-200.81"/>
<polygon fill="midnightblue" stroke="midnightblue" points="1938.2,-204.19 1947.14,-198.51 1936.6,-197.37 1938.2,-204.19"/>
</g>
<!-- Node53 -->
<g id="node46" class="node">
<title>Node53</title>
<g id="a_node46"><a xlink:title=" ">
<polygon fill="none" stroke="#bfbfbf" points="2056.59,-179.5 2056.59,-198.5 2126.59,-198.5 2126.59,-179.5 2056.59,-179.5"/>
<text text-anchor="middle" x="2091.59" y="-186.5" font-family="Helvetica,sans-Serif" font-size="10.00">QTableView</text>
</a>
</g>
</g>
<!-- Node1&#45;&gt;Node53 -->
<g id="edge63" class="edge">
<title>Node1&#45;&gt;Node53</title>
<path fill="none" stroke="midnightblue" d="M1795.65,-239.78C1858.03,-230.53 1953.81,-215.81 2046.45,-199.14"/>
<polygon fill="midnightblue" stroke="midnightblue" points="2047.34,-202.54 2056.56,-197.31 2046.09,-195.65 2047.34,-202.54"/>
</g>
<!-- Node54 -->
<g id="node47" class="node">
<title>Node54</title>
<g id="a_node47"><a xlink:title=" ">
<polygon fill="none" stroke="#bfbfbf" points="2145.09,-179.5 2145.09,-198.5 2222.09,-198.5 2222.09,-179.5 2145.09,-179.5"/>
<text text-anchor="middle" x="2183.59" y="-186.5" font-family="Helvetica,sans-Serif" font-size="10.00">QHeaderView</text>
</a>
</g>
</g>
<!-- Node1&#45;&gt;Node54 -->
<g id="edge64" class="edge">
<title>Node1&#45;&gt;Node54</title>
<path fill="none" stroke="midnightblue" d="M1795.75,-242.46C1874.45,-233.91 2009.01,-218.4 2134.67,-199.06"/>
<polygon fill="midnightblue" stroke="midnightblue" points="2135.51,-202.47 2144.86,-197.48 2134.44,-195.55 2135.51,-202.47"/>
</g>
<!-- Node55 -->
<g id="node48" class="node">
<title>Node55</title>
<g id="a_node48"><a xlink:title=" ">
<polygon fill="none" stroke="#bfbfbf" points="2240.59,-179.5 2240.59,-198.5 2290.59,-198.5 2290.59,-179.5 2240.59,-179.5"/>
<text text-anchor="middle" x="2265.59" y="-186.5" font-family="Helvetica,sans-Serif" font-size="10.00">QString</text>
</a>
</g>
</g>
<!-- Node1&#45;&gt;Node55 -->
<g id="edge65" class="edge">
<title>Node1&#45;&gt;Node55</title>
<path fill="none" stroke="midnightblue" d="M1795.78,-246.15C1890.7,-240.67 2069.49,-227.59 2230.36,-198.95"/>
<polygon fill="midnightblue" stroke="midnightblue" points="2231.22,-202.35 2240.44,-197.13 2229.98,-195.47 2231.22,-202.35"/>
</g>
<!-- Node56 -->
<g id="node49" class="node">
<title>Node56</title>
<g id="a_node49"><a xlink:title=" ">
<polygon fill="none" stroke="#bfbfbf" points="2308.59,-179.5 2308.59,-198.5 2382.59,-198.5 2382.59,-179.5 2308.59,-179.5"/>
<text text-anchor="middle" x="2345.59" y="-186.5" font-family="Helvetica,sans-Serif" font-size="10.00">QTextStream</text>
</a>
</g>
</g>
<!-- Node1&#45;&gt;Node56 -->
<g id="edge66" class="edge">
<title>Node1&#45;&gt;Node56</title>
<path fill="none" stroke="midnightblue" d="M1795.66,-245.86C1900.75,-239.65 2110.74,-225.2 2298.44,-199.02"/>
<polygon fill="midnightblue" stroke="midnightblue" points="2299.08,-202.47 2308.49,-197.61 2298.1,-195.54 2299.08,-202.47"/>
</g>
<!-- Node57 -->
<g id="node50" class="node">
<title>Node57</title>
<g id="a_node50"><a xlink:title=" ">
<polygon fill="none" stroke="#bfbfbf" points="2401.09,-179.5 2401.09,-198.5 2450.09,-198.5 2450.09,-179.5 2401.09,-179.5"/>
<text text-anchor="middle" x="2425.59" y="-186.5" font-family="Helvetica,sans-Serif" font-size="10.00">QTimer</text>
</a>
</g>
</g>
<!-- Node1&#45;&gt;Node57 -->
<g id="edge67" class="edge">
<title>Node1&#45;&gt;Node57</title>
<path fill="none" stroke="midnightblue" d="M1795.9,-248.43C1914.48,-245.65 2168.32,-235.74 2390.92,-198.78"/>
<polygon fill="midnightblue" stroke="midnightblue" points="2391.55,-202.23 2400.83,-197.12 2390.38,-195.32 2391.55,-202.23"/>
</g>
<!-- Node6&#45;&gt;Node2 -->
<g id="edge29" class="edge">
<title>Node6&#45;&gt;Node2</title>
<path fill="none" stroke="midnightblue" d="M831.92,-187.48C942.8,-185.56 1264.44,-177.08 1295.59,-143 1324.86,-110.98 1297.14,-56.22 1279.56,-28.37"/>
<polygon fill="midnightblue" stroke="midnightblue" points="1282.29,-26.16 1273.87,-19.72 1276.44,-30 1282.29,-26.16"/>
</g>
<!-- Node6&#45;&gt;Node3 -->
<g id="edge30" class="edge">
<title>Node6&#45;&gt;Node3</title>
<path fill="none" stroke="midnightblue" d="M757.39,-186.05C622.85,-178.91 168.88,-154.03 158.59,-143 124.05,-105.93 184.19,-51.6 217.98,-25.74"/>
<polygon fill="midnightblue" stroke="midnightblue" points="220.4,-28.3 226.32,-19.52 216.22,-22.69 220.4,-28.3"/>
</g>
<!-- Node6&#45;&gt;Node5 -->
<g id="edge6" class="edge">
<title>Node6&#45;&gt;Node5</title>
<path fill="none" stroke="midnightblue" d="M757.36,-187.76C655.56,-186.61 364.28,-180.07 125.59,-143 119.58,-142.07 113.29,-140.82 107.14,-139.44"/>
<polygon fill="midnightblue" stroke="midnightblue" points="107.55,-135.94 97.01,-137.05 105.94,-142.76 107.55,-135.94"/>
</g>
<!-- Node7 -->
<g id="node7" class="node">
<title>Node7</title>
<g id="a_node7"><a xlink:title=" ">
<polygon fill="none" stroke="#bfbfbf" points="1012.59,-118 1012.59,-137 1142.59,-137 1142.59,-118 1012.59,-118"/>
<text text-anchor="middle" x="1077.59" y="-125" font-family="Helvetica,sans-Serif" font-size="10.00">sensor_msgs/msg/joy.hpp</text>
</a>
</g>
</g>
<!-- Node6&#45;&gt;Node7 -->
<g id="edge7" class="edge">
<title>Node6&#45;&gt;Node7</title>
<path fill="none" stroke="midnightblue" d="M831.88,-180.16C881.9,-169.64 970.91,-150.93 1026.95,-139.15"/>
<polygon fill="midnightblue" stroke="midnightblue" points="1027.95,-142.51 1037.02,-137.03 1026.51,-135.66 1027.95,-142.51"/>
</g>
<!-- Node8 -->
<g id="node8" class="node">
<title>Node8</title>
<g id="a_node8"><a xlink:title=" ">
<polygon fill="none" stroke="#bfbfbf" points="1160.59,-112.5 1160.59,-142.5 1268.59,-142.5 1268.59,-112.5 1160.59,-112.5"/>
<text text-anchor="start" x="1168.59" y="-130.5" font-family="Helvetica,sans-Serif" font-size="10.00">ecat_msgs/msg/data</text>
<text text-anchor="middle" x="1214.59" y="-119.5" font-family="Helvetica,sans-Serif" font-size="10.00">_received.hpp</text>
</a>
</g>
</g>
<!-- Node6&#45;&gt;Node8 -->
<g id="edge8" class="edge">
<title>Node6&#45;&gt;Node8</title>
<path fill="none" stroke="midnightblue" d="M831.78,-184.56C895.18,-178.43 1028.39,-164.36 1150.48,-143.09"/>
<polygon fill="midnightblue" stroke="midnightblue" points="1151.13,-146.53 1160.37,-141.35 1149.91,-139.64 1151.13,-146.53"/>
</g>
<!-- Node9 -->
<g id="node9" class="node">
<title>Node9</title>
<g id="a_node9"><a xlink:title=" ">
<polygon fill="none" stroke="#bfbfbf" points="167.59,-112.5 167.59,-142.5 275.59,-142.5 275.59,-112.5 167.59,-112.5"/>
<text text-anchor="start" x="175.59" y="-130.5" font-family="Helvetica,sans-Serif" font-size="10.00">ecat_msgs/msg/data</text>
<text text-anchor="middle" x="221.59" y="-119.5" font-family="Helvetica,sans-Serif" font-size="10.00">_sent.hpp</text>
</a>
</g>
</g>
<!-- Node6&#45;&gt;Node9 -->
<g id="edge9" class="edge">
<title>Node6&#45;&gt;Node9</title>
<path fill="none" stroke="midnightblue" d="M757.35,-186.23C673.46,-181.9 463.46,-169.18 289.59,-143 288.32,-142.81 287.03,-142.61 285.73,-142.4"/>
<polygon fill="midnightblue" stroke="midnightblue" points="286.13,-138.91 275.68,-140.65 284.93,-145.81 286.13,-138.91"/>
</g>
<!-- Node10 -->
<g id="node10" class="node">
<title>Node10</title>
<g id="a_node10"><a xlink:title=" ">
<polygon fill="none" stroke="#bfbfbf" points="407.59,-112.5 407.59,-142.5 541.59,-142.5 541.59,-112.5 407.59,-112.5"/>
<text text-anchor="start" x="415.59" y="-130.5" font-family="Helvetica,sans-Serif" font-size="10.00">ecat_msgs/msg/gui_button</text>
<text text-anchor="middle" x="474.59" y="-119.5" font-family="Helvetica,sans-Serif" font-size="10.00">_data.hpp</text>
</a>
</g>
</g>
<!-- Node6&#45;&gt;Node10 -->
<g id="edge10" class="edge">
<title>Node6&#45;&gt;Node10</title>
<path fill="none" stroke="midnightblue" d="M757.38,-181.21C711.48,-172.82 630.8,-158.02 551.85,-143.23"/>
<polygon fill="midnightblue" stroke="midnightblue" points="552.2,-139.73 541.73,-141.33 550.91,-146.61 552.2,-139.73"/>
</g>
<!-- Node11 -->
<g id="node11" class="node">
<title>Node11</title>
<g id="a_node11"><a xlink:title=" ">
<polygon fill="none" stroke="#bfbfbf" points="559.59,-118 559.59,-137 693.59,-137 693.59,-118 559.59,-118"/>
<text text-anchor="middle" x="626.59" y="-125" font-family="Helvetica,sans-Serif" font-size="10.00">std_msgs/msg/u_int16.hpp</text>
</a>
</g>
</g>
<!-- Node6&#45;&gt;Node11 -->
<g id="edge11" class="edge">
<title>Node6&#45;&gt;Node11</title>
<path fill="none" stroke="midnightblue" d="M770.52,-179.48C741.58,-169.22 692.83,-151.96 660.19,-140.4"/>
<polygon fill="midnightblue" stroke="midnightblue" points="661.21,-137.05 650.62,-137.01 658.88,-143.65 661.21,-137.05"/>
</g>
<!-- Node12 -->
<g id="node12" class="node">
<title>Node12</title>
<g id="a_node12"><a xlink:href="ecat__globals_8hpp.html" target="_top" xlink:title=" ">
<polygon fill="none" stroke="black" points="750.09,-118 750.09,-137 839.09,-137 839.09,-118 750.09,-118"/>
<text text-anchor="middle" x="794.59" y="-125" font-family="Helvetica,sans-Serif" font-size="10.00">ecat_globals.hpp</text>
</a>
</g>
</g>
<!-- Node6&#45;&gt;Node12 -->
<g id="edge12" class="edge">
<title>Node6&#45;&gt;Node12</title>
<path fill="none" stroke="midnightblue" d="M794.59,-179.48C794.59,-171.08 794.59,-157.98 794.59,-147.16"/>
<polygon fill="midnightblue" stroke="midnightblue" points="798.09,-147.01 794.59,-137.01 791.09,-147.01 798.09,-147.01"/>
</g>
<!-- Node32 -->
<g id="node25" class="node">
<title>Node32</title>
<g id="a_node25"><a xlink:title=" ">
<polygon fill="none" stroke="#bfbfbf" points="1143.59,-56.5 1143.59,-75.5 1187.59,-75.5 1187.59,-56.5 1143.59,-56.5"/>
<text text-anchor="middle" x="1165.59" y="-63.5" font-family="Helvetica,sans-Serif" font-size="10.00">vector</text>
</a>
</g>
</g>
<!-- Node6&#45;&gt;Node32 -->
<g id="edge28" class="edge">
<title>Node6&#45;&gt;Node32</title>
<path fill="none" stroke="midnightblue" d="M831.73,-187.35C939.69,-185.09 1247.71,-175.8 1277.59,-143 1286.87,-132.82 1285.31,-123.41 1277.59,-112 1259.88,-85.79 1224.11,-74.84 1197.74,-70.27"/>
<polygon fill="midnightblue" stroke="midnightblue" points="1198.21,-66.81 1187.8,-68.77 1197.16,-73.73 1198.21,-66.81"/>
</g>
<!-- Node33 -->
<g id="node26" class="node">
<title>Node33</title>
<g id="a_node26"><a xlink:title=" ">
<polygon fill="none" stroke="#bfbfbf" points="295.09,-56.5 295.09,-75.5 354.09,-75.5 354.09,-56.5 295.09,-56.5"/>
<text text-anchor="middle" x="324.59" y="-63.5" font-family="Helvetica,sans-Serif" font-size="10.00">functional</text>
</a>
</g>
</g>
<!-- Node6&#45;&gt;Node33 -->
<g id="edge31" class="edge">
<title>Node6&#45;&gt;Node33</title>
<path fill="none" stroke="midnightblue" d="M757.44,-187.91C667.43,-187.08 440.41,-181.17 376.59,-143 354.57,-129.83 339.72,-103.3 331.71,-85.34"/>
<polygon fill="midnightblue" stroke="midnightblue" points="334.86,-83.8 327.78,-75.92 328.4,-86.5 334.86,-83.8"/>
</g>
<!-- Node34 -->
<g id="node27" class="node">
<title>Node34</title>
<g id="a_node27"><a xlink:title=" ">
<polygon fill="none" stroke="#bfbfbf" points="394.09,-56.5 394.09,-75.5 435.09,-75.5 435.09,-56.5 394.09,-56.5"/>
<text text-anchor="middle" x="414.59" y="-63.5" font-family="Helvetica,sans-Serif" font-size="10.00">string</text>
</a>
</g>
</g>
<!-- Node6&#45;&gt;Node34 -->
<g id="edge32" class="edge">
<title>Node6&#45;&gt;Node34</title>
<path fill="none" stroke="midnightblue" d="M757.48,-186.68C661.56,-182.88 411.14,-170.4 386.59,-143 371.41,-126.05 386.61,-100.17 399.84,-83.42"/>
<polygon fill="midnightblue" stroke="midnightblue" points="402.67,-85.49 406.42,-75.58 397.31,-80.99 402.67,-85.49"/>
</g>
<!-- Node35 -->
<g id="node28" class="node">
<title>Node35</title>
<g id="a_node28"><a xlink:title=" ">
<polygon fill="none" stroke="#bfbfbf" points="538.59,-56.5 538.59,-75.5 584.59,-75.5 584.59,-56.5 538.59,-56.5"/>
<text text-anchor="middle" x="561.59" y="-63.5" font-family="Helvetica,sans-Serif" font-size="10.00">cstdint</text>
</a>
</g>
</g>
<!-- Node6&#45;&gt;Node35 -->
<g id="edge33" class="edge">
<title>Node6&#45;&gt;Node35</title>
<path fill="none" stroke="midnightblue" d="M757.55,-186.55C663.7,-182.49 422.3,-169.55 398.59,-143 358.76,-98.38 469.83,-77.98 528.25,-70.54"/>
<polygon fill="midnightblue" stroke="midnightblue" points="528.99,-73.98 538.5,-69.3 528.15,-67.03 528.99,-73.98"/>
</g>
<!-- Node36 -->
<g id="node29" class="node">
<title>Node36</title>
<g id="a_node29"><a xlink:title=" ">
<polygon fill="none" stroke="#bfbfbf" points="646.09,-56.5 646.09,-75.5 687.09,-75.5 687.09,-56.5 646.09,-56.5"/>
<text text-anchor="middle" x="666.59" y="-63.5" font-family="Helvetica,sans-Serif" font-size="10.00">ctime</text>
</a>
</g>
</g>
<!-- Node6&#45;&gt;Node36 -->
<g id="edge34" class="edge">
<title>Node6&#45;&gt;Node36</title>
<path fill="none" stroke="midnightblue" d="M783.55,-179.36C772.44,-170.53 754.92,-156.26 740.59,-143 719.19,-123.19 695.94,-98.8 681.33,-83.08"/>
<polygon fill="midnightblue" stroke="midnightblue" points="683.89,-80.69 674.53,-75.72 678.74,-85.44 683.89,-80.69"/>
</g>
<!-- Node37 -->
<g id="node30" class="node">
<title>Node37</title>
<g id="a_node30"><a xlink:title=" ">
<polygon fill="none" stroke="#bfbfbf" points="940.09,-56.5 940.09,-75.5 975.09,-75.5 975.09,-56.5 940.09,-56.5"/>
<text text-anchor="middle" x="957.59" y="-63.5" font-family="Helvetica,sans-Serif" font-size="10.00">ratio</text>
</a>
</g>
</g>
<!-- Node6&#45;&gt;Node37 -->
<g id="edge35" class="edge">
<title>Node6&#45;&gt;Node37</title>
<path fill="none" stroke="midnightblue" d="M831.63,-183.8C860.75,-178.71 900.61,-167.5 926.59,-143 942.84,-127.68 950.81,-102.65 954.55,-85.53"/>
<polygon fill="midnightblue" stroke="midnightblue" points="958.01,-86.08 956.44,-75.6 951.13,-84.77 958.01,-86.08"/>
</g>
<!-- Node38 -->
<g id="node31" class="node">
<title>Node38</title>
<g id="a_node31"><a xlink:title=" ">
<polygon fill="none" stroke="#bfbfbf" points="993.59,-56.5 993.59,-75.5 1043.59,-75.5 1043.59,-56.5 993.59,-56.5"/>
<text text-anchor="middle" x="1018.59" y="-63.5" font-family="Helvetica,sans-Serif" font-size="10.00">fstream</text>
</a>
</g>
</g>
<!-- Node6&#45;&gt;Node38 -->
<g id="edge36" class="edge">
<title>Node6&#45;&gt;Node38</title>
<path fill="none" stroke="midnightblue" d="M831.65,-183.26C864.85,-177.68 913.84,-166.09 950.59,-143 974.76,-127.82 995.44,-101.64 1007.46,-84.32"/>
<polygon fill="midnightblue" stroke="midnightblue" points="1010.55,-85.99 1013.21,-75.73 1004.73,-82.09 1010.55,-85.99"/>
</g>
<!-- Node39 -->
<g id="node32" class="node">
<title>Node39</title>
<g id="a_node32"><a xlink:href="gui__pkg_2include_2gui__pkg_2timing_8hpp.html" target="_top" xlink:title=" ">
<polygon fill="none" stroke="black" points="857.09,-118 857.09,-137 918.09,-137 918.09,-118 857.09,-118"/>
<text text-anchor="middle" x="887.59" y="-125" font-family="Helvetica,sans-Serif" font-size="10.00">timing.hpp</text>
</a>
</g>
</g>
<!-- Node6&#45;&gt;Node39 -->
<g id="edge37" class="edge">
<title>Node6&#45;&gt;Node39</title>
<path fill="none" stroke="midnightblue" d="M807.92,-179.48C822.97,-169.84 847.71,-154.02 865.63,-142.55"/>
<polygon fill="midnightblue" stroke="midnightblue" points="867.76,-145.35 874.29,-137.01 863.98,-139.45 867.76,-145.35"/>
</g>
<!-- Node6&#45;&gt;Node40 -->
<g id="edge48" class="edge">
<title>Node6&#45;&gt;Node40</title>
<path fill="none" stroke="midnightblue" d="M831.91,-185.34C921.23,-178.88 1154.31,-161.56 1348.59,-143 1375.1,-140.47 1404.56,-137.27 1428.91,-134.52"/>
<polygon fill="midnightblue" stroke="midnightblue" points="1429.47,-137.98 1439.01,-133.37 1428.68,-131.02 1429.47,-137.98"/>
</g>
<!-- Node13 -->
<g id="node13" class="node">
<title>Node13</title>
<g id="a_node13"><a xlink:href="ecat__definitions_8hpp.html" target="_top" xlink:title="Writes desired operational mode, to slave in specified index via SDO.">
<polygon fill="none" stroke="red" points="743.59,-56.5 743.59,-75.5 845.59,-75.5 845.59,-56.5 743.59,-56.5"/>
<text text-anchor="middle" x="794.59" y="-63.5" font-family="Helvetica,sans-Serif" font-size="10.00">ecat_definitions.hpp</text>
</a>
</g>
</g>
<!-- Node12&#45;&gt;Node13 -->
<g id="edge13" class="edge">
<title>Node12&#45;&gt;Node13</title>
<path fill="none" stroke="midnightblue" d="M794.59,-117.98C794.59,-109.58 794.59,-96.48 794.59,-85.66"/>
<polygon fill="midnightblue" stroke="midnightblue" points="798.09,-85.51 794.59,-75.51 791.09,-85.51 798.09,-85.51"/>
</g>
<!-- Node13&#45;&gt;Node2 -->
<g id="edge26" class="edge">
<title>Node13&#45;&gt;Node2</title>
<path fill="none" stroke="midnightblue" d="M845.72,-59.77C922.89,-51.78 1073.71,-35.79 1201.59,-20 1212.27,-18.68 1223.9,-17.13 1234.38,-15.7"/>
<polygon fill="midnightblue" stroke="midnightblue" points="1234.97,-19.15 1244.4,-14.31 1234.01,-12.21 1234.97,-19.15"/>
</g>
<!-- Node13&#45;&gt;Node3 -->
<g id="edge27" class="edge">
<title>Node13&#45;&gt;Node3</title>
<path fill="none" stroke="midnightblue" d="M743.53,-57.7C738.82,-57.1 734.12,-56.52 729.59,-56 718.27,-54.7 385.49,-24.37 274.34,-14.25"/>
<polygon fill="midnightblue" stroke="midnightblue" points="274.57,-10.76 264.3,-13.34 273.94,-17.73 274.57,-10.76"/>
</g>
<!-- Node13&#45;&gt;Node4 -->
<g id="edge14" class="edge">
<title>Node13&#45;&gt;Node4</title>
<path fill="none" stroke="midnightblue" d="M845.69,-57.9C850.39,-57.26 855.08,-56.61 859.59,-56 976.39,-40.13 1008.98,-42.57 1128.62,-20"/>
<polygon fill="midnightblue" stroke="midnightblue" points="1129.37,-23.42 1138.54,-18.11 1128.06,-16.54 1129.37,-23.42"/>
</g>
<!-- Node14 -->
<g id="node14" class="node">
<title>Node14</title>
<g id="a_node14"><a xlink:title=" ">
<polygon fill="none" stroke="#bfbfbf" points="805.59,-0.5 805.59,-19.5 851.59,-19.5 851.59,-0.5 805.59,-0.5"/>
<text text-anchor="middle" x="828.59" y="-7.5" font-family="Helvetica,sans-Serif" font-size="10.00">cstring</text>
</a>
</g>
</g>
<!-- Node13&#45;&gt;Node14 -->
<g id="edge15" class="edge">
<title>Node13&#45;&gt;Node14</title>
<path fill="none" stroke="midnightblue" d="M800.21,-56.08C804.96,-48.53 811.91,-37.49 817.75,-28.23"/>
<polygon fill="midnightblue" stroke="midnightblue" points="820.72,-30.08 823.08,-19.75 814.79,-26.35 820.72,-30.08"/>
</g>
<!-- Node15 -->
<g id="node15" class="node">
<title>Node15</title>
<g id="a_node15"><a xlink:title=" ">
<polygon fill="none" stroke="#bfbfbf" points="870.09,-0.5 870.09,-19.5 917.09,-19.5 917.09,-0.5 870.09,-0.5"/>
<text text-anchor="middle" x="893.59" y="-7.5" font-family="Helvetica,sans-Serif" font-size="10.00">limits.h</text>
</a>
</g>
</g>
<!-- Node13&#45;&gt;Node15 -->
<g id="edge16" class="edge">
<title>Node13&#45;&gt;Node15</title>
<path fill="none" stroke="midnightblue" d="M810.5,-56.32C826.23,-47.74 850.54,-34.49 868.8,-24.52"/>
<polygon fill="midnightblue" stroke="midnightblue" points="870.62,-27.52 877.73,-19.65 867.27,-21.37 870.62,-27.52"/>
</g>
<!-- Node16 -->
<g id="node16" class="node">
<title>Node16</title>
<g id="a_node16"><a xlink:title=" ">
<polygon fill="none" stroke="#bfbfbf" points="935.09,-0.5 935.09,-19.5 982.09,-19.5 982.09,-0.5 935.09,-0.5"/>
<text text-anchor="middle" x="958.59" y="-7.5" font-family="Helvetica,sans-Serif" font-size="10.00">stdlib.h</text>
</a>
</g>
</g>
<!-- Node13&#45;&gt;Node16 -->
<g id="edge17" class="edge">
<title>Node13&#45;&gt;Node16</title>
<path fill="none" stroke="midnightblue" d="M820.58,-56.44C848.82,-47.15 894.04,-32.26 924.96,-22.07"/>
<polygon fill="midnightblue" stroke="midnightblue" points="926.46,-25.27 934.86,-18.82 924.27,-18.62 926.46,-25.27"/>
</g>
<!-- Node17 -->
<g id="node17" class="node">
<title>Node17</title>
<g id="a_node17"><a xlink:title=" ">
<polygon fill="none" stroke="#bfbfbf" points="1000.59,-0.5 1000.59,-19.5 1056.59,-19.5 1056.59,-0.5 1000.59,-0.5"/>
<text text-anchor="middle" x="1028.59" y="-7.5" font-family="Helvetica,sans-Serif" font-size="10.00">pthread.h</text>
</a>
</g>
</g>
<!-- Node13&#45;&gt;Node17 -->
<g id="edge18" class="edge">
<title>Node13&#45;&gt;Node17</title>
<path fill="none" stroke="midnightblue" d="M832.19,-56.45C871.66,-47.45 935.51,-32.85 990.59,-20 990.69,-19.98 990.79,-19.95 990.89,-19.93"/>
<polygon fill="midnightblue" stroke="midnightblue" points="991.44,-23.4 1000.38,-17.71 989.84,-16.58 991.44,-23.4"/>
</g>
<!-- Node18 -->
<g id="node18" class="node">
<title>Node18</title>
<g id="a_node18"><a xlink:title=" ">
<polygon fill="none" stroke="#bfbfbf" points="1074.59,-0.5 1074.59,-19.5 1120.59,-19.5 1120.59,-0.5 1074.59,-0.5"/>
<text text-anchor="middle" x="1097.59" y="-7.5" font-family="Helvetica,sans-Serif" font-size="10.00">errno.h</text>
</a>
</g>
</g>
<!-- Node13&#45;&gt;Node18 -->
<g id="edge19" class="edge">
<title>Node13&#45;&gt;Node18</title>
<path fill="none" stroke="midnightblue" d="M845.73,-57.19C908.07,-47.57 1010.81,-31.32 1064.25,-20.06"/>
<polygon fill="midnightblue" stroke="midnightblue" points="1065.22,-23.43 1074.25,-17.88 1063.73,-16.59 1065.22,-23.43"/>
</g>
<!-- Node19 -->
<g id="node19" class="node">
<title>Node19</title>
<g id="a_node19"><a xlink:title=" ">
<polygon fill="none" stroke="#bfbfbf" points="346.59,-0.5 346.59,-19.5 396.59,-19.5 396.59,-0.5 346.59,-0.5"/>
<text text-anchor="middle" x="371.59" y="-7.5" font-family="Helvetica,sans-Serif" font-size="10.00">signal.h</text>
</a>
</g>
</g>
<!-- Node13&#45;&gt;Node19 -->
<g id="edge20" class="edge">
<title>Node13&#45;&gt;Node19</title>
<path fill="none" stroke="midnightblue" d="M743.52,-57.8C738.81,-57.17 734.12,-56.56 729.59,-56 589.05,-38.47 549.77,-46.24 406.77,-19.97"/>
<polygon fill="midnightblue" stroke="midnightblue" points="407.22,-16.49 396.75,-18.1 405.94,-23.37 407.22,-16.49"/>
</g>
<!-- Node20 -->
<g id="node20" class="node">
<title>Node20</title>
<g id="a_node20"><a xlink:title=" ">
<polygon fill="none" stroke="#bfbfbf" points="415.09,-0.5 415.09,-19.5 460.09,-19.5 460.09,-0.5 415.09,-0.5"/>
<text text-anchor="middle" x="437.59" y="-7.5" font-family="Helvetica,sans-Serif" font-size="10.00">stdio.h</text>
</a>
</g>
</g>
<!-- Node13&#45;&gt;Node20 -->
<g id="edge21" class="edge">
<title>Node13&#45;&gt;Node20</title>
<path fill="none" stroke="midnightblue" d="M743.49,-57.93C662.75,-46.75 511.27,-25.78 470.28,-19.46"/>
<polygon fill="midnightblue" stroke="midnightblue" points="470.67,-15.98 460.23,-17.78 469.51,-22.88 470.67,-15.98"/>
</g>
<!-- Node21 -->
<g id="node21" class="node">
<title>Node21</title>
<g id="a_node21"><a xlink:title=" ">
<polygon fill="none" stroke="#bfbfbf" points="478.59,-0.5 478.59,-19.5 526.59,-19.5 526.59,-0.5 478.59,-0.5"/>
<text text-anchor="middle" x="502.59" y="-7.5" font-family="Helvetica,sans-Serif" font-size="10.00">string.h</text>
</a>
</g>
</g>
<!-- Node13&#45;&gt;Node21 -->
<g id="edge22" class="edge">
<title>Node13&#45;&gt;Node21</title>
<path fill="none" stroke="midnightblue" d="M743.21,-57.53C692.9,-49.9 613.9,-37.03 536.59,-20.05"/>
<polygon fill="midnightblue" stroke="midnightblue" points="537.2,-16.6 526.68,-17.85 535.68,-23.44 537.2,-16.6"/>
</g>
<!-- Node22 -->
<g id="node22" class="node">
<title>Node22</title>
<g id="a_node22"><a xlink:title=" ">
<polygon fill="none" stroke="#bfbfbf" points="544.59,-0.5 544.59,-19.5 624.59,-19.5 624.59,-0.5 544.59,-0.5"/>
<text text-anchor="middle" x="584.59" y="-7.5" font-family="Helvetica,sans-Serif" font-size="10.00">sys/resource.h</text>
</a>
</g>
</g>
<!-- Node13&#45;&gt;Node22 -->
<g id="edge23" class="edge">
<title>Node13&#45;&gt;Node22</title>
<path fill="none" stroke="midnightblue" d="M761.32,-56.44C725.15,-47.14 667.22,-32.25 627.61,-22.06"/>
<polygon fill="midnightblue" stroke="midnightblue" points="628.27,-18.62 617.71,-19.52 626.53,-25.4 628.27,-18.62"/>
</g>
<!-- Node23 -->
<g id="node23" class="node">
<title>Node23</title>
<g id="a_node23"><a xlink:title=" ">
<polygon fill="none" stroke="#bfbfbf" points="643.09,-0.5 643.09,-19.5 704.09,-19.5 704.09,-0.5 643.09,-0.5"/>
<text text-anchor="middle" x="673.59" y="-7.5" font-family="Helvetica,sans-Serif" font-size="10.00">sys/time.h</text>
</a>
</g>
</g>
<!-- Node13&#45;&gt;Node23 -->
<g id="edge24" class="edge">
<title>Node13&#45;&gt;Node23</title>
<path fill="none" stroke="midnightblue" d="M775.42,-56.44C755.68,-47.64 724.71,-33.81 702.1,-23.72"/>
<polygon fill="midnightblue" stroke="midnightblue" points="703.24,-20.4 692.68,-19.52 700.38,-26.79 703.24,-20.4"/>
</g>
<!-- Node24 -->
<g id="node24" class="node">
<title>Node24</title>
<g id="a_node24"><a xlink:title=" ">
<polygon fill="none" stroke="#bfbfbf" points="722.09,-0.5 722.09,-19.5 787.09,-19.5 787.09,-0.5 722.09,-0.5"/>
<text text-anchor="middle" x="754.59" y="-7.5" font-family="Helvetica,sans-Serif" font-size="10.00">sys/types.h</text>
</a>
</g>
</g>
<!-- Node13&#45;&gt;Node24 -->
<g id="edge25" class="edge">
<title>Node13&#45;&gt;Node24</title>
<path fill="none" stroke="midnightblue" d="M787.99,-56.08C782.34,-48.46 774.05,-37.26 767.14,-27.94"/>
<polygon fill="midnightblue" stroke="midnightblue" points="769.84,-25.7 761.08,-19.75 764.22,-29.87 769.84,-25.7"/>
</g>
<!-- Node39&#45;&gt;Node2 -->
<g id="edge39" class="edge">
<title>Node39&#45;&gt;Node2</title>
<path fill="none" stroke="midnightblue" d="M890.14,-117.82C895.14,-102.5 907.77,-70.87 930.59,-56 981.49,-22.83 1141.39,-28.1 1201.59,-20 1212.25,-18.57 1223.88,-16.99 1234.36,-15.55"/>
<polygon fill="midnightblue" stroke="midnightblue" points="1234.95,-19.01 1244.38,-14.19 1234,-12.07 1234.95,-19.01"/>
</g>
<!-- Node39&#45;&gt;Node3 -->
<g id="edge40" class="edge">
<title>Node39&#45;&gt;Node3</title>
<path fill="none" stroke="midnightblue" d="M864.38,-117.91C858.89,-115.93 853.05,-113.86 847.59,-112 797.7,-95.02 783.32,-96.09 734.59,-76 716.59,-68.57 714.28,-61.5 695.59,-56 685.48,-53.03 380.19,-24.25 274.32,-14.34"/>
<polygon fill="midnightblue" stroke="midnightblue" points="274.42,-10.83 264.14,-13.39 273.77,-17.8 274.42,-10.83"/>
</g>
<!-- Node39&#45;&gt;Node4 -->
<g id="edge47" class="edge">
<title>Node39&#45;&gt;Node4</title>
<path fill="none" stroke="midnightblue" d="M885.88,-117.72C883.53,-102.81 881.27,-72.54 897.59,-56 932.31,-20.83 1063.55,-29.26 1128.35,-19.8"/>
<polygon fill="midnightblue" stroke="midnightblue" points="1129.27,-23.2 1138.53,-18.05 1128.08,-16.3 1129.27,-23.2"/>
</g>
<!-- Node39&#45;&gt;Node32 -->
<g id="edge38" class="edge">
<title>Node39&#45;&gt;Node32</title>
<path fill="none" stroke="midnightblue" d="M918.14,-119.96C971.03,-108.64 1079.19,-85.49 1133.28,-73.92"/>
<polygon fill="midnightblue" stroke="midnightblue" points="1134.3,-77.28 1143.35,-71.76 1132.84,-70.43 1134.3,-77.28"/>
</g>
<!-- Node39&#45;&gt;Node33 -->
<g id="edge41" class="edge">
<title>Node39&#45;&gt;Node33</title>
<path fill="none" stroke="midnightblue" d="M867.15,-117.89C860.97,-115.61 854.09,-113.4 847.59,-112 645.85,-68.43 589.67,-99.32 384.59,-76 378.07,-75.26 371.16,-74.34 364.45,-73.38"/>
<polygon fill="midnightblue" stroke="midnightblue" points="364.55,-69.86 354.14,-71.86 363.52,-76.79 364.55,-69.86"/>
</g>
<!-- Node39&#45;&gt;Node34 -->
<g id="edge42" class="edge">
<title>Node39&#45;&gt;Node34</title>
<path fill="none" stroke="midnightblue" d="M867.12,-117.99C860.94,-115.72 854.07,-113.49 847.59,-112 808.58,-103.04 537.58,-78.09 445.29,-69.75"/>
<polygon fill="midnightblue" stroke="midnightblue" points="445.47,-66.26 435.2,-68.84 444.84,-73.23 445.47,-66.26"/>
</g>
<!-- Node39&#45;&gt;Node35 -->
<g id="edge43" class="edge">
<title>Node39&#45;&gt;Node35</title>
<path fill="none" stroke="midnightblue" d="M866.24,-117.9C860.28,-115.74 853.75,-113.58 847.59,-112 800.22,-99.81 659.52,-80.14 594.82,-71.41"/>
<polygon fill="midnightblue" stroke="midnightblue" points="595.13,-67.92 584.75,-70.06 594.2,-74.86 595.13,-67.92"/>
</g>
<!-- Node39&#45;&gt;Node36 -->
<g id="edge44" class="edge">
<title>Node39&#45;&gt;Node36</title>
<path fill="none" stroke="midnightblue" d="M865.31,-117.95C859.58,-115.88 853.39,-113.76 847.59,-112 783.64,-92.58 766.4,-92.32 701.59,-76 700.15,-75.64 698.67,-75.26 697.18,-74.88"/>
<polygon fill="midnightblue" stroke="midnightblue" points="697.87,-71.45 687.31,-72.36 696.14,-78.23 697.87,-71.45"/>
</g>
<!-- Node39&#45;&gt;Node37 -->
<g id="edge45" class="edge">
<title>Node39&#45;&gt;Node37</title>
<path fill="none" stroke="midnightblue" d="M897.62,-117.98C908.64,-108.61 926.55,-93.38 939.94,-82.01"/>
<polygon fill="midnightblue" stroke="midnightblue" points="942.23,-84.65 947.58,-75.51 937.7,-79.32 942.23,-84.65"/>
</g>
<!-- Node39&#45;&gt;Node38 -->
<g id="edge46" class="edge">
<title>Node39&#45;&gt;Node38</title>
<path fill="none" stroke="midnightblue" d="M906.36,-117.98C928.45,-107.95 965.31,-91.2 990.73,-79.65"/>
<polygon fill="midnightblue" stroke="midnightblue" points="992.2,-82.83 999.86,-75.51 989.31,-76.46 992.2,-82.83"/>
</g>
<!-- Node41&#45;&gt;Node40 -->
<g id="edge57" class="edge">
<title>Node41&#45;&gt;Node40</title>
<path fill="none" stroke="midnightblue" d="M1553.42,-179.48C1539.78,-169.93 1517.46,-154.31 1501.12,-142.87"/>
<polygon fill="midnightblue" stroke="midnightblue" points="1502.95,-139.88 1492.75,-137.01 1498.94,-145.61 1502.95,-139.88"/>
</g>
<!-- Node42 -->
<g id="node35" class="node">
<title>Node42</title>
<g id="a_node35"><a xlink:title=" ">
<polygon fill="none" stroke="#bfbfbf" points="1540.59,-118 1540.59,-137 1596.59,-137 1596.59,-118 1540.59,-118"/>
<text text-anchor="middle" x="1568.59" y="-125" font-family="Helvetica,sans-Serif" font-size="10.00">QPixmap</text>
</a>
</g>
</g>
<!-- Node41&#45;&gt;Node42 -->
<g id="edge50" class="edge">
<title>Node41&#45;&gt;Node42</title>
<path fill="none" stroke="midnightblue" d="M1566.02,-179.48C1566.45,-171.08 1567.11,-157.98 1567.65,-147.16"/>
<polygon fill="midnightblue" stroke="midnightblue" points="1571.16,-147.17 1568.16,-137.01 1564.17,-146.82 1571.16,-147.17"/>
</g>
<!-- Node43 -->
<g id="node36" class="node">
<title>Node43</title>
<g id="a_node36"><a xlink:title=" ">
<polygon fill="none" stroke="#bfbfbf" points="1615.09,-118 1615.09,-137 1666.09,-137 1666.09,-118 1615.09,-118"/>
<text text-anchor="middle" x="1640.59" y="-125" font-family="Helvetica,sans-Serif" font-size="10.00">QImage</text>
</a>
</g>
</g>
<!-- Node41&#45;&gt;Node43 -->
<g id="edge51" class="edge">
<title>Node41&#45;&gt;Node43</title>
<path fill="none" stroke="midnightblue" d="M1576.34,-179.48C1588.15,-170.11 1607.34,-154.88 1621.68,-143.51"/>
<polygon fill="midnightblue" stroke="midnightblue" points="1624.21,-145.97 1629.87,-137.01 1619.86,-140.48 1624.21,-145.97"/>
</g>
<!-- Node44 -->
<g id="node37" class="node">
<title>Node44</title>
<g id="a_node37"><a xlink:title=" ">
<polygon fill="none" stroke="#bfbfbf" points="1684.59,-118 1684.59,-137 1738.59,-137 1738.59,-118 1684.59,-118"/>
<text text-anchor="middle" x="1711.59" y="-125" font-family="Helvetica,sans-Serif" font-size="10.00">QThread</text>
</a>
</g>
</g>
<!-- Node41&#45;&gt;Node44 -->
<g id="edge52" class="edge">
<title>Node41&#45;&gt;Node44</title>
<path fill="none" stroke="midnightblue" d="M1586.51,-179.48C1611.34,-169.36 1652.94,-152.4 1681.29,-140.85"/>
<polygon fill="midnightblue" stroke="midnightblue" points="1682.77,-144.02 1690.71,-137.01 1680.13,-137.54 1682.77,-144.02"/>
</g>
<!-- Node45 -->
<g id="node38" class="node">
<title>Node45</title>
<g id="a_node38"><a xlink:title=" ">
<polygon fill="none" stroke="#bfbfbf" points="1756.59,-118 1756.59,-137 1862.59,-137 1862.59,-118 1756.59,-118"/>
<text text-anchor="middle" x="1809.59" y="-125" font-family="Helvetica,sans-Serif" font-size="10.00">opencv2/opencv.hpp</text>
</a>
</g>
</g>
<!-- Node41&#45;&gt;Node45 -->
<g id="edge53" class="edge">
<title>Node41&#45;&gt;Node45</title>
<path fill="none" stroke="midnightblue" d="M1600.55,-179.48C1643.77,-168.94 1717.38,-150.99 1764.72,-139.44"/>
<polygon fill="midnightblue" stroke="midnightblue" points="1765.81,-142.78 1774.7,-137.01 1764.16,-135.98 1765.81,-142.78"/>
</g>
<!-- Node46 -->
<g id="node39" class="node">
<title>Node46</title>
<g id="a_node39"><a xlink:title=" ">
<polygon fill="none" stroke="#bfbfbf" points="1881.09,-118 1881.09,-137 2020.09,-137 2020.09,-118 1881.09,-118"/>
<text text-anchor="middle" x="1950.59" y="-125" font-family="Helvetica,sans-Serif" font-size="10.00">opencv2/highgui/highgui.hpp</text>
</a>
</g>
</g>
<!-- Node41&#45;&gt;Node46 -->
<g id="edge54" class="edge">
<title>Node41&#45;&gt;Node46</title>
<path fill="none" stroke="midnightblue" d="M1613.17,-180.44C1616.36,-179.95 1619.52,-179.46 1622.59,-179 1733.15,-162.28 1761.25,-161.1 1871.59,-143 1879.52,-141.7 1887.87,-140.25 1896.07,-138.79"/>
<polygon fill="midnightblue" stroke="midnightblue" points="1896.72,-142.23 1905.94,-137 1895.48,-135.34 1896.72,-142.23"/>
</g>
<!-- Node47 -->
<g id="node40" class="node">
<title>Node47</title>
<g id="a_node40"><a xlink:title=" ">
<polygon fill="none" stroke="#bfbfbf" points="2038.09,-118 2038.09,-137 2147.09,-137 2147.09,-118 2038.09,-118"/>
<text text-anchor="middle" x="2092.59" y="-125" font-family="Helvetica,sans-Serif" font-size="10.00">opencv2/imgproc.hpp</text>
</a>
</g>
</g>
<!-- Node41&#45;&gt;Node47 -->
<g id="edge55" class="edge">
<title>Node41&#45;&gt;Node47</title>
<path fill="none" stroke="midnightblue" d="M1613.15,-180.24C1616.34,-179.8 1619.51,-179.38 1622.59,-179 1802.83,-156.83 1850.24,-171.43 2029.59,-143 2036,-141.99 2042.71,-140.69 2049.28,-139.29"/>
<polygon fill="midnightblue" stroke="midnightblue" points="2050.41,-142.63 2059.41,-137.04 2048.89,-135.8 2050.41,-142.63"/>
</g>
<!-- Node48 -->
<g id="node41" class="node">
<title>Node48</title>
<g id="a_node41"><a xlink:title=" ">
<polygon fill="none" stroke="#bfbfbf" points="2165.09,-118 2165.09,-137 2280.09,-137 2280.09,-118 2165.09,-118"/>
<text text-anchor="middle" x="2222.59" y="-125" font-family="Helvetica,sans-Serif" font-size="10.00">opencv2/core/core.hpp</text>
</a>
</g>
</g>
<!-- Node41&#45;&gt;Node48 -->
<g id="edge56" class="edge">
<title>Node41&#45;&gt;Node48</title>
<path fill="none" stroke="midnightblue" d="M1613.14,-180.17C1616.33,-179.74 1619.51,-179.35 1622.59,-179 1858.98,-152.42 1921.11,-176.61 2156.59,-143 2163.78,-141.97 2171.35,-140.6 2178.69,-139.1"/>
<polygon fill="midnightblue" stroke="midnightblue" points="2179.47,-142.51 2188.52,-137 2178,-135.67 2179.47,-142.51"/>
</g>
</g>
</svg>
        <g id="navigator" transform="translate(0 0)" fill="#404254">
                <rect fill="#f2f5e9" fill-opacity="0.5" stroke="#606060" stroke-width=".5" x="0" y="0" width="60" height="60"/>
                <use id="zoomplus" xlink:href="#zoomPlus" x="17" y="9" onmousedown="handleZoom(evt,'in')"/>
                <use id="zoomminus" xlink:href="#zoomMin" x="42" y="9" onmousedown="handleZoom(evt,'out')"/>
                <use id="reset" xlink:href="#resetDef" x="30" y="36" onmousedown="handleReset()"/>
                <g id="arrowUp" xlink:href="#dirArrow" transform="translate(30 24)" onmousedown="handlePan(0,-1)">
                  <use xlink:href="#rim" fill="#404040">
                        <set attributeName="fill" to="#808080" begin="arrowUp.mouseover" end="arrowUp.mouseout"/>
                  </use>
                  <path fill="none" stroke="white" stroke-width="1.5" d="M0,-3.0v7 M-2.5,-0.5L0,-3.0L2.5,-0.5"/>
                </g>
                <g id="arrowRight" xlink:href="#dirArrow" transform="rotate(90) translate(36 -43)" onmousedown="handlePan(1,0)">
                  <use xlink:href="#rim" fill="#404040">
                        <set attributeName="fill" to="#808080" begin="arrowRight.mouseover" end="arrowRight.mouseout"/>
                  </use>
                  <path fill="none" stroke="white" stroke-width="1.5" d="M0,-3.0v7 M-2.5,-0.5L0,-3.0L2.5,-0.5"/>
                </g>
                <g id="arrowDown" xlink:href="#dirArrow" transform="rotate(180) translate(-30 -48)" onmousedown="handlePan(0,1)">
                  <use xlink:href="#rim" fill="#404040">
                        <set attributeName="fill" to="#808080" begin="arrowDown.mouseover" end="arrowDown.mouseout"/>
                  </use>
                  <path fill="none" stroke="white" stroke-width="1.5" d="M0,-3.0v7 M-2.5,-0.5L0,-3.0L2.5,-0.5"/>
                </g>
                <g id="arrowLeft" xlink:href="#dirArrow" transform="rotate(270) translate(-36 17)" onmousedown="handlePan(-1,0)">
                  <use xlink:href="#rim" fill="#404040">
                        <set attributeName="fill" to="#808080" begin="arrowLeft.mouseover" end="arrowLeft.mouseout"/>
                  </use>
                  <path fill="none" stroke="white" stroke-width="1.5" d="M0,-3.0v7 M-2.5,-0.5L0,-3.0L2.5,-0.5"/>
                </g>
        </g>
        <svg viewBox="0 0 15 15" width="100%" height="30px" preserveAspectRatio="xMaxYMin meet">
         <g id="arrow_out" transform="scale(0.3 0.3)">
          <a xlink:href="main__window_8hpp__incl_org.svg" target="_base">
           <rect id="button" ry="5" rx="5" y="6" x="6" height="38" width="38"
                fill="#f2f5e9" fill-opacity="0.5" stroke="#606060" stroke-width="1.0"/>
           <path id="arrow"
             d="M 11.500037,31.436501 C 11.940474,20.09759 22.043105,11.32322 32.158766,21.979434 L 37.068811,17.246167 C 37.068811,17.246167 37.088388,32 37.088388,32 L 22.160133,31.978069 C 22.160133,31.978069 26.997745,27.140456 26.997745,27.140456 C 18.528582,18.264221 13.291696,25.230495 11.500037,31.436501 z"
             style="fill:#404040;"/>
          </a>
         </g>
        </svg>
</svg>
