<?xml version="1.0" encoding="UTF-8" standalone="no"?>
<!DOCTYPE svg PUBLIC "-//W3C//DTD SVG 1.1//EN"
 "http://www.w3.org/Graphics/SVG/1.1/DTD/svg11.dtd">
<!-- Generated by graphviz version 2.49.3 (20211027.1534)
 -->
<!-- Title: src/ecat_pkg/include/ecat_pkg/object_dictionary.hpp Pages: 1 -->
<svg width="779pt" height="441pt"
 viewBox="0.00 0.00 779.00 441.00" xmlns="http://www.w3.org/2000/svg" xmlns:xlink="http://www.w3.org/1999/xlink">
<g id="graph0" class="graph" transform="scale(1 1) rotate(0) translate(4 437)">
<title>src/ecat_pkg/include/ecat_pkg/object_dictionary.hpp</title>
<!-- Node1 -->
<g id="node1" class="node">
<title>Node1</title>
<g id="a_node1"><a xlink:title=" ">
<polygon fill="#bfbfbf" stroke="black" points="324,-402.5 324,-432.5 477,-432.5 477,-402.5 324,-402.5"/>
<text text-anchor="start" x="332" y="-420.5" font-family="Helvetica,sans-Serif" font-size="10.00">src/ecat_pkg/include</text>
<text text-anchor="middle" x="400.5" y="-409.5" font-family="Helvetica,sans-Serif" font-size="10.00">/ecat_pkg/object_dictionary.hpp</text>
</a>
</g>
</g>
<!-- Node2 -->
<g id="node2" class="node">
<title>Node2</title>
<g id="a_node2"><a xlink:href="ecat__definitions_8hpp.html" target="_top" xlink:title="Writes desired operational mode, to slave in specified index via SDO.">
<polygon fill="none" stroke="black" points="326.5,-335.5 326.5,-365.5 474.5,-365.5 474.5,-335.5 326.5,-335.5"/>
<text text-anchor="start" x="334.5" y="-353.5" font-family="Helvetica,sans-Serif" font-size="10.00">src/ecat_pkg/include</text>
<text text-anchor="middle" x="400.5" y="-342.5" font-family="Helvetica,sans-Serif" font-size="10.00">/ecat_pkg/ecat_definitions.hpp</text>
</a>
</g>
</g>
<!-- Node1&#45;&gt;Node2 -->
<g id="edge1" class="edge">
<title>Node1&#45;&gt;Node2</title>
<path fill="none" stroke="midnightblue" d="M400.5,-392.11C400.5,-383.15 400.5,-373.32 400.5,-365.58"/>
<polygon fill="midnightblue" stroke="midnightblue" points="397,-392.4 400.5,-402.4 404,-392.4 397,-392.4"/>
</g>
<!-- Node3 -->
<g id="node3" class="node">
<title>Node3</title>
<g id="a_node3"><a xlink:href="ecat__globals_8hpp.html" target="_top" xlink:title=" ">
<polygon fill="none" stroke="black" points="333,-268.5 333,-298.5 468,-298.5 468,-268.5 333,-268.5"/>
<text text-anchor="start" x="341" y="-286.5" font-family="Helvetica,sans-Serif" font-size="10.00">src/ecat_pkg/include</text>
<text text-anchor="middle" x="400.5" y="-275.5" font-family="Helvetica,sans-Serif" font-size="10.00">/ecat_pkg/ecat_globals.hpp</text>
</a>
</g>
</g>
<!-- Node2&#45;&gt;Node3 -->
<g id="edge2" class="edge">
<title>Node2&#45;&gt;Node3</title>
<path fill="none" stroke="midnightblue" d="M400.5,-325.11C400.5,-316.15 400.5,-306.32 400.5,-298.58"/>
<polygon fill="midnightblue" stroke="midnightblue" points="397,-325.4 400.5,-335.4 404,-325.4 397,-325.4"/>
</g>
<!-- Node4 -->
<g id="node4" class="node">
<title>Node4</title>
<g id="a_node4"><a xlink:href="ecat__node_8hpp.html" target="_top" xlink:title=" ">
<polygon fill="none" stroke="black" points="132,-134.5 132,-164.5 257,-164.5 257,-134.5 132,-134.5"/>
<text text-anchor="start" x="140" y="-152.5" font-family="Helvetica,sans-Serif" font-size="10.00">src/ecat_pkg/include</text>
<text text-anchor="middle" x="194.5" y="-141.5" font-family="Helvetica,sans-Serif" font-size="10.00">/ecat_pkg/ecat_node.hpp</text>
</a>
</g>
</g>
<!-- Node3&#45;&gt;Node4 -->
<g id="edge3" class="edge">
<title>Node3&#45;&gt;Node4</title>
<path fill="none" stroke="midnightblue" d="M326.92,-265.39C303.34,-257.67 278.03,-246.85 257.5,-232 232.28,-213.77 212.24,-182.67 201.99,-164.62"/>
<polygon fill="midnightblue" stroke="midnightblue" points="325.97,-268.76 336.56,-268.41 328.06,-262.08 325.97,-268.76"/>
</g>
<!-- Node9 -->
<g id="node9" class="node">
<title>Node9</title>
<g id="a_node9"><a xlink:href="ecat__slave_8hpp.html" target="_top" xlink:title=" ">
<polygon fill="none" stroke="black" points="266.5,-201.5 266.5,-231.5 394.5,-231.5 394.5,-201.5 266.5,-201.5"/>
<text text-anchor="start" x="274.5" y="-219.5" font-family="Helvetica,sans-Serif" font-size="10.00">src/ecat_pkg/include</text>
<text text-anchor="middle" x="330.5" y="-208.5" font-family="Helvetica,sans-Serif" font-size="10.00">/ecat_pkg/ecat_slave.hpp</text>
</a>
</g>
</g>
<!-- Node3&#45;&gt;Node9 -->
<g id="edge9" class="edge">
<title>Node3&#45;&gt;Node9</title>
<path fill="none" stroke="midnightblue" d="M377.68,-261.31C367.18,-251.56 355.01,-240.26 345.66,-231.58"/>
<polygon fill="midnightblue" stroke="midnightblue" points="375.6,-264.16 385.31,-268.4 380.36,-259.03 375.6,-264.16"/>
</g>
<!-- Node11 -->
<g id="node11" class="node">
<title>Node11</title>
<g id="a_node11"><a xlink:href="gui__node_8hpp.html" target="_top" xlink:title=" ">
<polygon fill="none" stroke="black" points="415,-201.5 415,-231.5 528,-231.5 528,-201.5 415,-201.5"/>
<text text-anchor="start" x="423" y="-219.5" font-family="Helvetica,sans-Serif" font-size="10.00">src/gui_pkg/include</text>
<text text-anchor="middle" x="471.5" y="-208.5" font-family="Helvetica,sans-Serif" font-size="10.00">/gui_pkg/gui_node.hpp</text>
</a>
</g>
</g>
<!-- Node3&#45;&gt;Node11 -->
<g id="edge12" class="edge">
<title>Node3&#45;&gt;Node11</title>
<path fill="none" stroke="midnightblue" d="M423.33,-261.6C434.05,-251.78 446.55,-240.34 456.12,-231.58"/>
<polygon fill="midnightblue" stroke="midnightblue" points="420.92,-259.06 415.91,-268.4 425.65,-264.22 420.92,-259.06"/>
</g>
<!-- Node16 -->
<g id="node16" class="node">
<title>Node16</title>
<g id="a_node16"><a xlink:href="safety__node_8hpp.html" target="_top" xlink:title=" ">
<polygon fill="none" stroke="black" points="599.5,-201.5 599.5,-231.5 739.5,-231.5 739.5,-201.5 599.5,-201.5"/>
<text text-anchor="start" x="607.5" y="-219.5" font-family="Helvetica,sans-Serif" font-size="10.00">src/safety_pkg/include</text>
<text text-anchor="middle" x="669.5" y="-208.5" font-family="Helvetica,sans-Serif" font-size="10.00">/safety_pkg/safety_node.hpp</text>
</a>
</g>
</g>
<!-- Node3&#45;&gt;Node16 -->
<g id="edge17" class="edge">
<title>Node3&#45;&gt;Node16</title>
<path fill="none" stroke="midnightblue" d="M468.29,-266.12C512.31,-255.48 569.09,-241.76 611.1,-231.61"/>
<polygon fill="midnightblue" stroke="midnightblue" points="467.44,-262.73 458.54,-268.48 469.08,-269.53 467.44,-262.73"/>
</g>
<!-- Node5 -->
<g id="node5" class="node">
<title>Node5</title>
<g id="a_node5"><a xlink:href="ecat__lifecycle_8hpp.html" target="_top" xlink:title=" ">
<polygon fill="none" stroke="black" points="26.5,-67.5 26.5,-97.5 166.5,-97.5 166.5,-67.5 26.5,-67.5"/>
<text text-anchor="start" x="34.5" y="-85.5" font-family="Helvetica,sans-Serif" font-size="10.00">src/ecat_pkg/include</text>
<text text-anchor="middle" x="96.5" y="-74.5" font-family="Helvetica,sans-Serif" font-size="10.00">/ecat_pkg/ecat_lifecycle.hpp</text>
</a>
</g>
</g>
<!-- Node4&#45;&gt;Node5 -->
<g id="edge4" class="edge">
<title>Node4&#45;&gt;Node5</title>
<path fill="none" stroke="midnightblue" d="M164.7,-128.73C149.53,-118.68 131.46,-106.68 117.72,-97.58"/>
<polygon fill="midnightblue" stroke="midnightblue" points="162.97,-131.79 173.24,-134.4 166.84,-125.95 162.97,-131.79"/>
</g>
<!-- Node7 -->
<g id="node7" class="node">
<title>Node7</title>
<g id="a_node7"><a xlink:href="ecat__pkg_2src_2main_8cpp.html" target="_top" xlink:title=" ">
<polygon fill="none" stroke="black" points="129,-6 129,-25 260,-25 260,-6 129,-6"/>
<text text-anchor="middle" x="194.5" y="-13" font-family="Helvetica,sans-Serif" font-size="10.00">src/ecat_pkg/src/main.cpp</text>
</a>
</g>
</g>
<!-- Node4&#45;&gt;Node7 -->
<g id="edge8" class="edge">
<title>Node4&#45;&gt;Node7</title>
<path fill="none" stroke="midnightblue" d="M194.5,-124.32C194.5,-94.38 194.5,-44.91 194.5,-25.1"/>
<polygon fill="midnightblue" stroke="midnightblue" points="191,-124.37 194.5,-134.37 198,-124.37 191,-124.37"/>
</g>
<!-- Node8 -->
<g id="node8" class="node">
<title>Node8</title>
<g id="a_node8"><a xlink:href="ecat__node_8cpp.html" target="_top" xlink:title=" ">
<polygon fill="none" stroke="black" points="223,-67.5 223,-97.5 334,-97.5 334,-67.5 223,-67.5"/>
<text text-anchor="start" x="231" y="-85.5" font-family="Helvetica,sans-Serif" font-size="10.00">src/ecat_pkg/src/ecat</text>
<text text-anchor="middle" x="278.5" y="-74.5" font-family="Helvetica,sans-Serif" font-size="10.00">_node.cpp</text>
</a>
</g>
</g>
<!-- Node4&#45;&gt;Node8 -->
<g id="edge7" class="edge">
<title>Node4&#45;&gt;Node8</title>
<path fill="none" stroke="midnightblue" d="M220.78,-128.17C233.62,-118.23 248.76,-106.51 260.31,-97.58"/>
<polygon fill="midnightblue" stroke="midnightblue" points="218.49,-125.51 212.73,-134.4 222.78,-131.04 218.49,-125.51"/>
</g>
<!-- Node6 -->
<g id="node6" class="node">
<title>Node6</title>
<g id="a_node6"><a xlink:href="ecat__lifecycle_8cpp.html" target="_top" xlink:title=" ">
<polygon fill="none" stroke="black" points="0,-0.5 0,-30.5 111,-30.5 111,-0.5 0,-0.5"/>
<text text-anchor="start" x="8" y="-18.5" font-family="Helvetica,sans-Serif" font-size="10.00">src/ecat_pkg/src/ecat</text>
<text text-anchor="middle" x="55.5" y="-7.5" font-family="Helvetica,sans-Serif" font-size="10.00">_lifecycle.cpp</text>
</a>
</g>
</g>
<!-- Node5&#45;&gt;Node6 -->
<g id="edge5" class="edge">
<title>Node5&#45;&gt;Node6</title>
<path fill="none" stroke="midnightblue" d="M82.22,-58.87C76.29,-49.46 69.59,-38.83 64.38,-30.58"/>
<polygon fill="midnightblue" stroke="midnightblue" points="79.31,-60.81 87.6,-67.4 85.23,-57.07 79.31,-60.81"/>
</g>
<!-- Node5&#45;&gt;Node7 -->
<g id="edge6" class="edge">
<title>Node5&#45;&gt;Node7</title>
<path fill="none" stroke="midnightblue" d="M126.19,-61.81C144.73,-49.51 167.66,-34.3 181.67,-25.01"/>
<polygon fill="midnightblue" stroke="midnightblue" points="124.16,-58.95 117.76,-67.4 128.03,-64.79 124.16,-58.95"/>
</g>
<!-- Node9&#45;&gt;Node4 -->
<g id="edge10" class="edge">
<title>Node9&#45;&gt;Node4</title>
<path fill="none" stroke="midnightblue" d="M291.78,-196.99C270.22,-186.69 243.81,-174.07 223.95,-164.58"/>
<polygon fill="midnightblue" stroke="midnightblue" points="290.46,-200.24 300.99,-201.4 293.48,-193.93 290.46,-200.24"/>
</g>
<!-- Node10 -->
<g id="node10" class="node">
<title>Node10</title>
<g id="a_node10"><a xlink:href="ecat__slave_8cpp.html" target="_top" xlink:title=" ">
<polygon fill="none" stroke="black" points="275,-134.5 275,-164.5 386,-164.5 386,-134.5 275,-134.5"/>
<text text-anchor="start" x="283" y="-152.5" font-family="Helvetica,sans-Serif" font-size="10.00">src/ecat_pkg/src/ecat</text>
<text text-anchor="middle" x="330.5" y="-141.5" font-family="Helvetica,sans-Serif" font-size="10.00">_slave.cpp</text>
</a>
</g>
</g>
<!-- Node9&#45;&gt;Node10 -->
<g id="edge11" class="edge">
<title>Node9&#45;&gt;Node10</title>
<path fill="none" stroke="midnightblue" d="M330.5,-191.11C330.5,-182.15 330.5,-172.32 330.5,-164.58"/>
<polygon fill="midnightblue" stroke="midnightblue" points="327,-191.4 330.5,-201.4 334,-191.4 327,-191.4"/>
</g>
<!-- Node12 -->
<g id="node12" class="node">
<title>Node12</title>
<g id="a_node12"><a xlink:href="main__window_8hpp.html" target="_top" xlink:title=" ">
<polygon fill="none" stroke="black" points="404.5,-134.5 404.5,-164.5 538.5,-164.5 538.5,-134.5 404.5,-134.5"/>
<text text-anchor="start" x="412.5" y="-152.5" font-family="Helvetica,sans-Serif" font-size="10.00">src/gui_pkg/include</text>
<text text-anchor="middle" x="471.5" y="-141.5" font-family="Helvetica,sans-Serif" font-size="10.00">/gui_pkg/main_window.hpp</text>
</a>
</g>
</g>
<!-- Node11&#45;&gt;Node12 -->
<g id="edge13" class="edge">
<title>Node11&#45;&gt;Node12</title>
<path fill="none" stroke="midnightblue" d="M471.5,-191.11C471.5,-182.15 471.5,-172.32 471.5,-164.58"/>
<polygon fill="midnightblue" stroke="midnightblue" points="468,-191.4 471.5,-201.4 475,-191.4 468,-191.4"/>
</g>
<!-- Node15 -->
<g id="node15" class="node">
<title>Node15</title>
<g id="a_node15"><a xlink:href="gui__node_8cpp.html" target="_top" xlink:title=" ">
<polygon fill="none" stroke="black" points="557,-134.5 557,-164.5 656,-164.5 656,-134.5 557,-134.5"/>
<text text-anchor="start" x="565" y="-152.5" font-family="Helvetica,sans-Serif" font-size="10.00">src/gui_pkg/src/gui</text>
<text text-anchor="middle" x="606.5" y="-141.5" font-family="Helvetica,sans-Serif" font-size="10.00">_node.cpp</text>
</a>
</g>
</g>
<!-- Node11&#45;&gt;Node15 -->
<g id="edge16" class="edge">
<title>Node11&#45;&gt;Node15</title>
<path fill="none" stroke="midnightblue" d="M509.94,-196.99C531.34,-186.69 557.55,-174.07 577.26,-164.58"/>
<polygon fill="midnightblue" stroke="midnightblue" points="508.28,-193.9 500.79,-201.4 511.32,-200.21 508.28,-193.9"/>
</g>
<!-- Node13 -->
<g id="node13" class="node">
<title>Node13</title>
<g id="a_node13"><a xlink:href="gui__pkg_2src_2main_8cpp.html" target="_top" xlink:title=" ">
<polygon fill="none" stroke="black" points="381,-73 381,-92 506,-92 506,-73 381,-73"/>
<text text-anchor="middle" x="443.5" y="-80" font-family="Helvetica,sans-Serif" font-size="10.00">src/gui_pkg/src/main.cpp</text>
</a>
</g>
</g>
<!-- Node12&#45;&gt;Node13 -->
<g id="edge14" class="edge">
<title>Node12&#45;&gt;Node13</title>
<path fill="none" stroke="midnightblue" d="M461.35,-124.94C456.44,-113.54 450.84,-100.55 447.25,-92.19"/>
<polygon fill="midnightblue" stroke="midnightblue" points="458.25,-126.6 465.42,-134.4 464.68,-123.83 458.25,-126.6"/>
</g>
<!-- Node14 -->
<g id="node14" class="node">
<title>Node14</title>
<g id="a_node14"><a xlink:href="main__window_8cpp.html" target="_top" xlink:title=" ">
<polygon fill="none" stroke="black" points="524,-67.5 524,-97.5 631,-97.5 631,-67.5 524,-67.5"/>
<text text-anchor="start" x="532" y="-85.5" font-family="Helvetica,sans-Serif" font-size="10.00">src/gui_pkg/src/main</text>
<text text-anchor="middle" x="577.5" y="-74.5" font-family="Helvetica,sans-Serif" font-size="10.00">_window.cpp</text>
</a>
</g>
</g>
<!-- Node12&#45;&gt;Node14 -->
<g id="edge15" class="edge">
<title>Node12&#45;&gt;Node14</title>
<path fill="none" stroke="midnightblue" d="M503.28,-129.02C519.77,-118.9 539.55,-106.77 554.54,-97.58"/>
<polygon fill="midnightblue" stroke="midnightblue" points="501.2,-126.18 494.5,-134.4 504.85,-132.15 501.2,-126.18"/>
</g>
<!-- Node17 -->
<g id="node17" class="node">
<title>Node17</title>
<g id="a_node17"><a xlink:href="safety__node_8cpp.html" target="_top" xlink:title=" ">
<polygon fill="none" stroke="black" points="674,-134.5 674,-164.5 771,-164.5 771,-134.5 674,-134.5"/>
<text text-anchor="start" x="682" y="-152.5" font-family="Helvetica,sans-Serif" font-size="10.00">src/safety_pkg/src</text>
<text text-anchor="middle" x="722.5" y="-141.5" font-family="Helvetica,sans-Serif" font-size="10.00">/safety_node.cpp</text>
</a>
</g>
</g>
<!-- Node16&#45;&gt;Node17 -->
<g id="edge18" class="edge">
<title>Node16&#45;&gt;Node17</title>
<path fill="none" stroke="midnightblue" d="M687.48,-193.45C695.27,-183.9 704.15,-173 711.02,-164.58"/>
<polygon fill="midnightblue" stroke="midnightblue" points="684.61,-191.43 681,-201.4 690.03,-195.86 684.61,-191.43"/>
</g>
</g>
</svg>
