<?xml version="1.0" encoding="UTF-8" standalone="no"?>
<!DOCTYPE svg PUBLIC "-//W3C//DTD SVG 1.1//EN"
 "http://www.w3.org/Graphics/SVG/1.1/DTD/svg11.dtd">
<!-- Generated by graphviz version 2.49.3 (20211027.1534)
 -->
<!-- Title: src/safety_pkg/include/safety_pkg/safety_node.hpp Pages: 1 -->
<!--zoomable 218 -->
<svg id="main" version="1.1" xmlns="http://www.w3.org/2000/svg" xmlns:xlink="http://www.w3.org/1999/xlink" xml:space="preserve" onload="init(evt)">
<style type="text/css"><![CDATA[
.edge:hover path { stroke: red; }
.edge:hover polygon { stroke: red; fill: red; }
]]></style>
<script type="text/javascript"><![CDATA[
var edges = document.getElementsByTagName('g');
if (edges && edges.length) {
  for (var i=0;i<edges.length;i++) {
    if (edges[i].id.substr(0,4)=='edge') {
      edges[i].setAttribute('class','edge');
    }
  }
}
]]></script>
        <defs>
                <circle id="rim" cx="0" cy="0" r="7"/>
                <circle id="rim2" cx="0" cy="0" r="3.5"/>
                <g id="zoomPlus">
                        <use xlink:href="#rim" fill="#404040">
                                <set attributeName="fill" to="#808080" begin="zoomplus.mouseover" end="zoomplus.mouseout"/>
                        </use>
                        <path d="M-4,0h8M0,-4v8" fill="none" stroke="white" stroke-width="1.5" pointer-events="none"/>
                </g>
                <g id="zoomMin">
                        <use xlink:href="#rim" fill="#404040">
                                <set attributeName="fill" to="#808080" begin="zoomminus.mouseover" end="zoomminus.mouseout"/>
                        </use>
                        <path d="M-4,0h8" fill="none" stroke="white" stroke-width="1.5" pointer-events="none"/>
                </g>
                <g id="dirArrow">
                        <path fill="none" stroke="white" stroke-width="1.5" d="M0,-3.0v7 M-2.5,-0.5L0,-3.0L2.5,-0.5"/>
                </g>
               <g id="resetDef">
                       <use xlink:href="#rim2" fill="#404040">
                               <set attributeName="fill" to="#808080" begin="reset.mouseover" end="reset.mouseout"/>
                       </use>
               </g>
        </defs>

<script type="text/javascript">
var viewWidth = 1776;
var viewHeight = 218;
var sectionId = 'dynsection-0';
</script>
<script xlink:href="svgpan.js"/>
<svg id="graph" class="graph">
<g id="viewport">
<title>src/safety_pkg/include/safety_pkg/safety_node.hpp</title>
<!-- Node1 -->
<g id="node1" class="node">
<title>Node1</title>
<g id="a_node1"><a xlink:title=" ">
<polygon fill="#bfbfbf" stroke="black" points="627,-179.5 627,-209.5 767,-209.5 767,-179.5 627,-179.5"/>
<text text-anchor="start" x="635" y="-197.5" font-family="Helvetica,sans-Serif" font-size="10.00">src/safety_pkg/include</text>
<text text-anchor="middle" x="697" y="-186.5" font-family="Helvetica,sans-Serif" font-size="10.00">/safety_pkg/safety_node.hpp</text>
</a>
</g>
</g>
<!-- Node2 -->
<g id="node2" class="node">
<title>Node2</title>
<g id="a_node2"><a xlink:title=" ">
<polygon fill="none" stroke="#bfbfbf" points="0,-0.5 0,-19.5 46,-19.5 46,-0.5 0,-0.5"/>
<text text-anchor="middle" x="23" y="-7.5" font-family="Helvetica,sans-Serif" font-size="10.00">chrono</text>
</a>
</g>
</g>
<!-- Node1&#45;&gt;Node2 -->
<g id="edge1" class="edge">
<title>Node1&#45;&gt;Node2</title>
<path fill="none" stroke="midnightblue" d="M626.8,-191.57C475.88,-186.86 130.66,-172.93 87,-143 48.07,-116.31 31.97,-59.09 26.04,-29.53"/>
<polygon fill="midnightblue" stroke="midnightblue" points="29.48,-28.88 24.24,-19.67 22.59,-30.14 29.48,-28.88"/>
</g>
<!-- Node3 -->
<g id="node3" class="node">
<title>Node3</title>
<g id="a_node3"><a xlink:title=" ">
<polygon fill="none" stroke="#bfbfbf" points="64.5,-0.5 64.5,-19.5 115.5,-19.5 115.5,-0.5 64.5,-0.5"/>
<text text-anchor="middle" x="90" y="-7.5" font-family="Helvetica,sans-Serif" font-size="10.00">memory</text>
</a>
</g>
</g>
<!-- Node1&#45;&gt;Node3 -->
<g id="edge2" class="edge">
<title>Node1&#45;&gt;Node3</title>
<path fill="none" stroke="midnightblue" d="M626.79,-192.25C479.14,-188.94 147.01,-177.69 110,-143 78.95,-113.89 82.15,-58.63 86.45,-29.71"/>
<polygon fill="midnightblue" stroke="midnightblue" points="89.92,-30.15 88.14,-19.7 83.02,-28.98 89.92,-30.15"/>
</g>
<!-- Node4 -->
<g id="node4" class="node">
<title>Node4</title>
<g id="a_node4"><a xlink:title=" ">
<polygon fill="none" stroke="#bfbfbf" points="225.5,-118 225.5,-137 266.5,-137 266.5,-118 225.5,-118"/>
<text text-anchor="middle" x="246" y="-125" font-family="Helvetica,sans-Serif" font-size="10.00">string</text>
</a>
</g>
</g>
<!-- Node1&#45;&gt;Node4 -->
<g id="edge3" class="edge">
<title>Node1&#45;&gt;Node4</title>
<path fill="none" stroke="midnightblue" d="M626.68,-192.12C541.92,-188.86 395.93,-178.11 276,-143 274.13,-142.45 272.23,-141.8 270.34,-141.07"/>
<polygon fill="midnightblue" stroke="midnightblue" points="271.74,-137.87 261.18,-137.04 268.92,-144.27 271.74,-137.87"/>
</g>
<!-- Node5 -->
<g id="node5" class="node">
<title>Node5</title>
<g id="a_node5"><a xlink:title=" ">
<polygon fill="none" stroke="#bfbfbf" points="285,-118 285,-137 329,-137 329,-118 285,-118"/>
<text text-anchor="middle" x="307" y="-125" font-family="Helvetica,sans-Serif" font-size="10.00">thread</text>
</a>
</g>
</g>
<!-- Node1&#45;&gt;Node5 -->
<g id="edge4" class="edge">
<title>Node1&#45;&gt;Node5</title>
<path fill="none" stroke="midnightblue" d="M626.8,-189.53C553.71,-184.02 436.49,-171.33 339,-143 337.07,-142.44 335.1,-141.78 333.14,-141.06"/>
<polygon fill="midnightblue" stroke="midnightblue" points="334.17,-137.7 323.6,-137.1 331.49,-144.17 334.17,-137.7"/>
</g>
<!-- Node6 -->
<g id="node6" class="node">
<title>Node6</title>
<g id="a_node6"><a xlink:title=" ">
<polygon fill="none" stroke="#bfbfbf" points="347.5,-112.5 347.5,-142.5 450.5,-142.5 450.5,-112.5 347.5,-112.5"/>
<text text-anchor="start" x="355.5" y="-130.5" font-family="Helvetica,sans-Serif" font-size="10.00">lifecycle_msgs/msg</text>
<text text-anchor="middle" x="399" y="-119.5" font-family="Helvetica,sans-Serif" font-size="10.00">/state.hpp</text>
</a>
</g>
</g>
<!-- Node1&#45;&gt;Node6 -->
<g id="edge5" class="edge">
<title>Node1&#45;&gt;Node6</title>
<path fill="none" stroke="midnightblue" d="M629.23,-179.5C584.19,-170.09 523.48,-157.22 460.66,-143.12"/>
<polygon fill="midnightblue" stroke="midnightblue" points="461.09,-139.63 450.56,-140.85 459.55,-146.46 461.09,-139.63"/>
</g>
<!-- Node7 -->
<g id="node7" class="node">
<title>Node7</title>
<g id="a_node7"><a xlink:title=" ">
<polygon fill="none" stroke="#bfbfbf" points="468.5,-112.5 468.5,-142.5 571.5,-142.5 571.5,-112.5 468.5,-112.5"/>
<text text-anchor="start" x="476.5" y="-130.5" font-family="Helvetica,sans-Serif" font-size="10.00">lifecycle_msgs/msg</text>
<text text-anchor="middle" x="520" y="-119.5" font-family="Helvetica,sans-Serif" font-size="10.00">/transition.hpp</text>
</a>
</g>
</g>
<!-- Node1&#45;&gt;Node7 -->
<g id="edge6" class="edge">
<title>Node1&#45;&gt;Node7</title>
<path fill="none" stroke="midnightblue" d="M658.59,-179.4C632.04,-169.64 596.5,-156.59 568.07,-146.15"/>
<polygon fill="midnightblue" stroke="midnightblue" points="568.93,-142.74 558.33,-142.58 566.51,-149.31 568.93,-142.74"/>
</g>
<!-- Node8 -->
<g id="node8" class="node">
<title>Node8</title>
<g id="a_node8"><a xlink:title=" ">
<polygon fill="none" stroke="#bfbfbf" points="590,-112.5 590,-142.5 688,-142.5 688,-112.5 590,-112.5"/>
<text text-anchor="start" x="598" y="-130.5" font-family="Helvetica,sans-Serif" font-size="10.00">lifecycle_msgs/srv</text>
<text text-anchor="middle" x="639" y="-119.5" font-family="Helvetica,sans-Serif" font-size="10.00">/change_state.hpp</text>
</a>
</g>
</g>
<!-- Node1&#45;&gt;Node8 -->
<g id="edge7" class="edge">
<title>Node1&#45;&gt;Node8</title>
<path fill="none" stroke="midnightblue" d="M684.41,-179.4C676.81,-170.88 666.97,-159.85 658.39,-150.23"/>
<polygon fill="midnightblue" stroke="midnightblue" points="660.83,-147.71 651.56,-142.58 655.61,-152.37 660.83,-147.71"/>
</g>
<!-- Node9 -->
<g id="node9" class="node">
<title>Node9</title>
<g id="a_node9"><a xlink:title=" ">
<polygon fill="none" stroke="#bfbfbf" points="706,-112.5 706,-142.5 804,-142.5 804,-112.5 706,-112.5"/>
<text text-anchor="start" x="714" y="-130.5" font-family="Helvetica,sans-Serif" font-size="10.00">lifecycle_msgs/srv</text>
<text text-anchor="middle" x="755" y="-119.5" font-family="Helvetica,sans-Serif" font-size="10.00">/get_state.hpp</text>
</a>
</g>
</g>
<!-- Node1&#45;&gt;Node9 -->
<g id="edge8" class="edge">
<title>Node1&#45;&gt;Node9</title>
<path fill="none" stroke="midnightblue" d="M709.59,-179.4C717.19,-170.88 727.03,-159.85 735.61,-150.23"/>
<polygon fill="midnightblue" stroke="midnightblue" points="738.39,-152.37 742.44,-142.58 733.17,-147.71 738.39,-152.37"/>
</g>
<!-- Node10 -->
<g id="node10" class="node">
<title>Node10</title>
<g id="a_node10"><a xlink:title=" ">
<polygon fill="none" stroke="#bfbfbf" points="822,-118 822,-137 952,-137 952,-118 822,-118"/>
<text text-anchor="middle" x="887" y="-125" font-family="Helvetica,sans-Serif" font-size="10.00">sensor_msgs/msg/joy.hpp</text>
</a>
</g>
</g>
<!-- Node1&#45;&gt;Node10 -->
<g id="edge9" class="edge">
<title>Node1&#45;&gt;Node10</title>
<path fill="none" stroke="midnightblue" d="M738.23,-179.4C772.3,-167.74 820.14,-151.37 852.29,-140.38"/>
<polygon fill="midnightblue" stroke="midnightblue" points="853.8,-143.56 862.13,-137.01 851.54,-136.93 853.8,-143.56"/>
</g>
<!-- Node11 -->
<g id="node11" class="node">
<title>Node11</title>
<g id="a_node11"><a xlink:title=" ">
<polygon fill="none" stroke="#bfbfbf" points="970,-112.5 970,-142.5 1104,-142.5 1104,-112.5 970,-112.5"/>
<text text-anchor="start" x="978" y="-130.5" font-family="Helvetica,sans-Serif" font-size="10.00">ecat_msgs/msg/gui_button</text>
<text text-anchor="middle" x="1037" y="-119.5" font-family="Helvetica,sans-Serif" font-size="10.00">_data.hpp</text>
</a>
</g>
</g>
<!-- Node1&#45;&gt;Node11 -->
<g id="edge10" class="edge">
<title>Node1&#45;&gt;Node11</title>
<path fill="none" stroke="midnightblue" d="M767.04,-180.11C823.27,-169.36 902.13,-154.28 960.11,-143.2"/>
<polygon fill="midnightblue" stroke="midnightblue" points="960.78,-146.63 969.95,-141.32 959.47,-139.76 960.78,-146.63"/>
</g>
<!-- Node12 -->
<g id="node12" class="node">
<title>Node12</title>
<g id="a_node12"><a xlink:title=" ">
<polygon fill="none" stroke="#bfbfbf" points="1122,-112.5 1122,-142.5 1230,-142.5 1230,-112.5 1122,-112.5"/>
<text text-anchor="start" x="1130" y="-130.5" font-family="Helvetica,sans-Serif" font-size="10.00">ecat_msgs/msg/data</text>
<text text-anchor="middle" x="1176" y="-119.5" font-family="Helvetica,sans-Serif" font-size="10.00">_received.hpp</text>
</a>
</g>
</g>
<!-- Node1&#45;&gt;Node12 -->
<g id="edge11" class="edge">
<title>Node1&#45;&gt;Node12</title>
<path fill="none" stroke="midnightblue" d="M767.26,-187.25C848.13,-179.55 985.08,-164.93 1111.89,-143.08"/>
<polygon fill="midnightblue" stroke="midnightblue" points="1112.53,-146.53 1121.78,-141.36 1111.33,-139.63 1112.53,-146.53"/>
</g>
<!-- Node13 -->
<g id="node13" class="node">
<title>Node13</title>
<g id="a_node13"><a xlink:title=" ">
<polygon fill="none" stroke="#bfbfbf" points="1248,-118 1248,-137 1338,-137 1338,-118 1248,-118"/>
<text text-anchor="middle" x="1293" y="-125" font-family="Helvetica,sans-Serif" font-size="10.00">rclcpp/rclcpp.hpp</text>
</a>
</g>
</g>
<!-- Node1&#45;&gt;Node13 -->
<g id="edge12" class="edge">
<title>Node1&#45;&gt;Node13</title>
<path fill="none" stroke="midnightblue" d="M767.24,-190.76C871.08,-185.85 1071.34,-173.1 1239,-143 1244.18,-142.07 1249.59,-140.88 1254.9,-139.59"/>
<polygon fill="midnightblue" stroke="midnightblue" points="1256.09,-142.9 1264.9,-137.01 1254.34,-136.12 1256.09,-142.9"/>
</g>
<!-- Node14 -->
<g id="node14" class="node">
<title>Node14</title>
<g id="a_node14"><a xlink:title=" ">
<polygon fill="none" stroke="#bfbfbf" points="1356.5,-118 1356.5,-137 1475.5,-137 1475.5,-118 1356.5,-118"/>
<text text-anchor="middle" x="1416" y="-125" font-family="Helvetica,sans-Serif" font-size="10.00">std_srvs/srv/trigger.hpp</text>
</a>
</g>
</g>
<!-- Node1&#45;&gt;Node14 -->
<g id="edge13" class="edge">
<title>Node1&#45;&gt;Node14</title>
<path fill="none" stroke="midnightblue" d="M767.06,-191.03C886.56,-186.17 1137.2,-173.06 1347,-143 1354.41,-141.94 1362.23,-140.55 1369.82,-139.07"/>
<polygon fill="midnightblue" stroke="midnightblue" points="1370.53,-142.49 1379.63,-137.06 1369.13,-135.63 1370.53,-142.49"/>
</g>
<!-- Node15 -->
<g id="node15" class="node">
<title>Node15</title>
<g id="a_node15"><a xlink:title=" ">
<polygon fill="none" stroke="#bfbfbf" points="1494,-118 1494,-137 1628,-137 1628,-118 1494,-118"/>
<text text-anchor="middle" x="1561" y="-125" font-family="Helvetica,sans-Serif" font-size="10.00">std_msgs/msg/u_int16.hpp</text>
</a>
</g>
</g>
<!-- Node1&#45;&gt;Node15 -->
<g id="edge14" class="edge">
<title>Node1&#45;&gt;Node15</title>
<path fill="none" stroke="midnightblue" d="M767.11,-191.93C905.08,-188.21 1221.34,-176.47 1485,-143 1493.52,-141.92 1502.53,-140.47 1511.25,-138.91"/>
<polygon fill="midnightblue" stroke="midnightblue" points="1512.12,-142.31 1521.31,-137.04 1510.84,-135.43 1512.12,-142.31"/>
</g>
<!-- Node16 -->
<g id="node16" class="node">
<title>Node16</title>
<g id="a_node16"><a xlink:title=" ">
<polygon fill="none" stroke="#bfbfbf" points="1646,-118 1646,-137 1768,-137 1768,-118 1646,-118"/>
<text text-anchor="middle" x="1707" y="-125" font-family="Helvetica,sans-Serif" font-size="10.00">rcutils/logging_macros.h</text>
</a>
</g>
</g>
<!-- Node1&#45;&gt;Node16 -->
<g id="edge15" class="edge">
<title>Node1&#45;&gt;Node16</title>
<path fill="none" stroke="midnightblue" d="M767.2,-193.33C923.9,-192.17 1313.87,-184.9 1637,-143 1644.79,-141.99 1653,-140.59 1660.96,-139.06"/>
<polygon fill="midnightblue" stroke="midnightblue" points="1661.73,-142.48 1670.84,-137.07 1660.35,-135.62 1661.73,-142.48"/>
</g>
<!-- Node17 -->
<g id="node17" class="node">
<title>Node17</title>
<g id="a_node17"><a xlink:href="ecat__globals_8hpp.html" target="_top" xlink:title=" ">
<polygon fill="none" stroke="black" points="118.5,-118 118.5,-137 207.5,-137 207.5,-118 118.5,-118"/>
<text text-anchor="middle" x="163" y="-125" font-family="Helvetica,sans-Serif" font-size="10.00">ecat_globals.hpp</text>
</a>
</g>
</g>
<!-- Node1&#45;&gt;Node17 -->
<g id="edge16" class="edge">
<title>Node1&#45;&gt;Node17</title>
<path fill="none" stroke="midnightblue" d="M626.95,-189.6C533.03,-183.58 361.38,-169.81 217,-143 211.88,-142.05 206.54,-140.86 201.29,-139.58"/>
<polygon fill="midnightblue" stroke="midnightblue" points="201.95,-136.13 191.39,-137.02 200.2,-142.91 201.95,-136.13"/>
</g>
<!-- Node18 -->
<g id="node18" class="node">
<title>Node18</title>
<g id="a_node18"><a xlink:href="ecat__definitions_8hpp.html" target="_top" xlink:title="Writes desired operational mode, to slave in specified index via SDO.">
<polygon fill="none" stroke="black" points="669,-56.5 669,-75.5 771,-75.5 771,-56.5 669,-56.5"/>
<text text-anchor="middle" x="720" y="-63.5" font-family="Helvetica,sans-Serif" font-size="10.00">ecat_definitions.hpp</text>
</a>
</g>
</g>
<!-- Node17&#45;&gt;Node18 -->
<g id="edge17" class="edge">
<title>Node17&#45;&gt;Node18</title>
<path fill="none" stroke="midnightblue" d="M191.1,-117.97C199.38,-115.72 208.49,-113.51 217,-112 374.83,-83.97 563.79,-73.02 658.91,-69.06"/>
<polygon fill="midnightblue" stroke="midnightblue" points="659.07,-72.55 668.92,-68.65 658.79,-65.56 659.07,-72.55"/>
</g>
<!-- Node18&#45;&gt;Node2 -->
<g id="edge35" class="edge">
<title>Node18&#45;&gt;Node2</title>
<path fill="none" stroke="midnightblue" d="M668.68,-65.12C558.09,-64.61 289.11,-59.21 56.3,-19.87"/>
<polygon fill="midnightblue" stroke="midnightblue" points="56.74,-16.39 46.29,-18.15 55.56,-23.29 56.74,-16.39"/>
</g>
<!-- Node18&#45;&gt;Node3 -->
<g id="edge36" class="edge">
<title>Node18&#45;&gt;Node3</title>
<path fill="none" stroke="midnightblue" d="M668.7,-64.16C566.88,-61.83 332.04,-53.18 125.62,-19.77"/>
<polygon fill="midnightblue" stroke="midnightblue" points="125.94,-16.28 115.5,-18.11 124.8,-23.19 125.94,-16.28"/>
</g>
<!-- Node19 -->
<g id="node19" class="node">
<title>Node19</title>
<g id="a_node19"><a xlink:title=" ">
<polygon fill="none" stroke="#bfbfbf" points="1134,-0.5 1134,-19.5 1188,-19.5 1188,-0.5 1134,-0.5"/>
<text text-anchor="middle" x="1161" y="-7.5" font-family="Helvetica,sans-Serif" font-size="10.00">iostream</text>
</a>
</g>
</g>
<!-- Node18&#45;&gt;Node19 -->
<g id="edge18" class="edge">
<title>Node18&#45;&gt;Node19</title>
<path fill="none" stroke="midnightblue" d="M771.14,-61.53C846.4,-55.94 991.49,-43.32 1124.03,-19.95"/>
<polygon fill="midnightblue" stroke="midnightblue" points="1124.73,-23.38 1133.96,-18.17 1123.5,-16.49 1124.73,-23.38"/>
</g>
<!-- Node20 -->
<g id="node20" class="node">
<title>Node20</title>
<g id="a_node20"><a xlink:title=" ">
<polygon fill="none" stroke="#bfbfbf" points="1206,-0.5 1206,-19.5 1252,-19.5 1252,-0.5 1206,-0.5"/>
<text text-anchor="middle" x="1229" y="-7.5" font-family="Helvetica,sans-Serif" font-size="10.00">cstring</text>
</a>
</g>
</g>
<!-- Node18&#45;&gt;Node20 -->
<g id="edge19" class="edge">
<title>Node18&#45;&gt;Node20</title>
<path fill="none" stroke="midnightblue" d="M771.25,-63.19C857.26,-59.5 1036.14,-49 1195.7,-19.93"/>
<polygon fill="midnightblue" stroke="midnightblue" points="1196.5,-23.34 1205.7,-18.08 1195.23,-16.46 1196.5,-23.34"/>
</g>
<!-- Node21 -->
<g id="node21" class="node">
<title>Node21</title>
<g id="a_node21"><a xlink:title=" ">
<polygon fill="none" stroke="#bfbfbf" points="1270.5,-0.5 1270.5,-19.5 1317.5,-19.5 1317.5,-0.5 1270.5,-0.5"/>
<text text-anchor="middle" x="1294" y="-7.5" font-family="Helvetica,sans-Serif" font-size="10.00">limits.h</text>
</a>
</g>
</g>
<!-- Node18&#45;&gt;Node21 -->
<g id="edge20" class="edge">
<title>Node18&#45;&gt;Node21</title>
<path fill="none" stroke="midnightblue" d="M771.12,-63.86C865.89,-61.08 1075.27,-51.77 1260.41,-19.76"/>
<polygon fill="midnightblue" stroke="midnightblue" points="1261.08,-23.19 1270.32,-18.01 1259.87,-16.3 1261.08,-23.19"/>
</g>
<!-- Node22 -->
<g id="node22" class="node">
<title>Node22</title>
<g id="a_node22"><a xlink:title=" ">
<polygon fill="none" stroke="#bfbfbf" points="1335.5,-0.5 1335.5,-19.5 1382.5,-19.5 1382.5,-0.5 1335.5,-0.5"/>
<text text-anchor="middle" x="1359" y="-7.5" font-family="Helvetica,sans-Serif" font-size="10.00">stdlib.h</text>
</a>
</g>
</g>
<!-- Node18&#45;&gt;Node22 -->
<g id="edge21" class="edge">
<title>Node18&#45;&gt;Node22</title>
<path fill="none" stroke="midnightblue" d="M771.19,-64.65C874.56,-63.2 1115.59,-56.06 1325.39,-19.96"/>
<polygon fill="midnightblue" stroke="midnightblue" points="1326.11,-23.39 1335.36,-18.22 1324.9,-16.49 1326.11,-23.39"/>
</g>
<!-- Node23 -->
<g id="node23" class="node">
<title>Node23</title>
<g id="a_node23"><a xlink:title=" ">
<polygon fill="none" stroke="#bfbfbf" points="1401,-0.5 1401,-19.5 1457,-19.5 1457,-0.5 1401,-0.5"/>
<text text-anchor="middle" x="1429" y="-7.5" font-family="Helvetica,sans-Serif" font-size="10.00">pthread.h</text>
</a>
</g>
</g>
<!-- Node18&#45;&gt;Node23 -->
<g id="edge22" class="edge">
<title>Node18&#45;&gt;Node23</title>
<path fill="none" stroke="midnightblue" d="M771.33,-64.56C882.62,-62.96 1154.47,-55.57 1390.66,-19.94"/>
<polygon fill="midnightblue" stroke="midnightblue" points="1391.46,-23.35 1400.82,-18.38 1390.4,-16.44 1391.46,-23.35"/>
</g>
<!-- Node24 -->
<g id="node24" class="node">
<title>Node24</title>
<g id="a_node24"><a xlink:title=" ">
<polygon fill="none" stroke="#bfbfbf" points="1475,-0.5 1475,-19.5 1521,-19.5 1521,-0.5 1475,-0.5"/>
<text text-anchor="middle" x="1498" y="-7.5" font-family="Helvetica,sans-Serif" font-size="10.00">errno.h</text>
</a>
</g>
</g>
<!-- Node18&#45;&gt;Node24 -->
<g id="edge23" class="edge">
<title>Node18&#45;&gt;Node24</title>
<path fill="none" stroke="midnightblue" d="M771.08,-65.66C890.96,-66.41 1199.59,-63.69 1464.52,-19.88"/>
<polygon fill="midnightblue" stroke="midnightblue" points="1465.43,-23.28 1474.71,-18.17 1464.27,-16.37 1465.43,-23.28"/>
</g>
<!-- Node25 -->
<g id="node25" class="node">
<title>Node25</title>
<g id="a_node25"><a xlink:title=" ">
<polygon fill="none" stroke="#bfbfbf" points="134,-0.5 134,-19.5 184,-19.5 184,-0.5 134,-0.5"/>
<text text-anchor="middle" x="159" y="-7.5" font-family="Helvetica,sans-Serif" font-size="10.00">signal.h</text>
</a>
</g>
</g>
<!-- Node18&#45;&gt;Node25 -->
<g id="edge24" class="edge">
<title>Node18&#45;&gt;Node25</title>
<path fill="none" stroke="midnightblue" d="M668.87,-63.45C574.44,-59.96 366.58,-49.36 194,-20 193.9,-19.98 193.8,-19.97 193.7,-19.95"/>
<polygon fill="midnightblue" stroke="midnightblue" points="194.63,-16.57 184.13,-17.99 193.23,-23.42 194.63,-16.57"/>
</g>
<!-- Node26 -->
<g id="node26" class="node">
<title>Node26</title>
<g id="a_node26"><a xlink:title=" ">
<polygon fill="none" stroke="#bfbfbf" points="202.5,-0.5 202.5,-19.5 247.5,-19.5 247.5,-0.5 202.5,-0.5"/>
<text text-anchor="middle" x="225" y="-7.5" font-family="Helvetica,sans-Serif" font-size="10.00">stdio.h</text>
</a>
</g>
</g>
<!-- Node18&#45;&gt;Node26 -->
<g id="edge25" class="edge">
<title>Node18&#45;&gt;Node26</title>
<path fill="none" stroke="midnightblue" d="M668.89,-62.99C584.95,-59.06 412.64,-48.26 257.78,-19.79"/>
<polygon fill="midnightblue" stroke="midnightblue" points="258.08,-16.29 247.61,-17.89 256.8,-23.17 258.08,-16.29"/>
</g>
<!-- Node27 -->
<g id="node27" class="node">
<title>Node27</title>
<g id="a_node27"><a xlink:title=" ">
<polygon fill="none" stroke="#bfbfbf" points="266,-0.5 266,-19.5 314,-19.5 314,-0.5 266,-0.5"/>
<text text-anchor="middle" x="290" y="-7.5" font-family="Helvetica,sans-Serif" font-size="10.00">string.h</text>
</a>
</g>
</g>
<!-- Node18&#45;&gt;Node27 -->
<g id="edge26" class="edge">
<title>Node18&#45;&gt;Node27</title>
<path fill="none" stroke="midnightblue" d="M668.86,-61.72C594.82,-56.42 453.38,-44.23 324.13,-19.94"/>
<polygon fill="midnightblue" stroke="midnightblue" points="324.53,-16.45 314.05,-18.02 323.22,-23.33 324.53,-16.45"/>
</g>
<!-- Node28 -->
<g id="node28" class="node">
<title>Node28</title>
<g id="a_node28"><a xlink:title=" ">
<polygon fill="none" stroke="#bfbfbf" points="332,-0.5 332,-19.5 412,-19.5 412,-0.5 332,-0.5"/>
<text text-anchor="middle" x="372" y="-7.5" font-family="Helvetica,sans-Serif" font-size="10.00">sys/resource.h</text>
</a>
</g>
</g>
<!-- Node18&#45;&gt;Node28 -->
<g id="edge27" class="edge">
<title>Node18&#45;&gt;Node28</title>
<path fill="none" stroke="midnightblue" d="M668.78,-57.71C609.36,-49.16 508.46,-34.31 422,-20 421.9,-19.98 421.8,-19.97 421.7,-19.95"/>
<polygon fill="midnightblue" stroke="midnightblue" points="422.54,-16.54 412.1,-18.32 421.37,-23.44 422.54,-16.54"/>
</g>
<!-- Node29 -->
<g id="node29" class="node">
<title>Node29</title>
<g id="a_node29"><a xlink:title=" ">
<polygon fill="none" stroke="#bfbfbf" points="430.5,-0.5 430.5,-19.5 491.5,-19.5 491.5,-0.5 430.5,-0.5"/>
<text text-anchor="middle" x="461" y="-7.5" font-family="Helvetica,sans-Serif" font-size="10.00">sys/time.h</text>
</a>
</g>
</g>
<!-- Node18&#45;&gt;Node29 -->
<g id="edge28" class="edge">
<title>Node18&#45;&gt;Node29</title>
<path fill="none" stroke="midnightblue" d="M677.15,-56.44C635.03,-47.97 568.68,-34.49 501.48,-20.07"/>
<polygon fill="midnightblue" stroke="midnightblue" points="502.07,-16.62 491.56,-17.94 500.6,-23.46 502.07,-16.62"/>
</g>
<!-- Node30 -->
<g id="node30" class="node">
<title>Node30</title>
<g id="a_node30"><a xlink:title=" ">
<polygon fill="none" stroke="#bfbfbf" points="509.5,-0.5 509.5,-19.5 574.5,-19.5 574.5,-0.5 509.5,-0.5"/>
<text text-anchor="middle" x="542" y="-7.5" font-family="Helvetica,sans-Serif" font-size="10.00">sys/types.h</text>
</a>
</g>
</g>
<!-- Node18&#45;&gt;Node30 -->
<g id="edge29" class="edge">
<title>Node18&#45;&gt;Node30</title>
<path fill="none" stroke="midnightblue" d="M691.8,-56.44C661.59,-47.28 613.49,-32.69 579.97,-22.52"/>
<polygon fill="midnightblue" stroke="midnightblue" points="580.66,-19.07 570.07,-19.52 578.63,-25.77 580.66,-19.07"/>
</g>
<!-- Node31 -->
<g id="node31" class="node">
<title>Node31</title>
<g id="a_node31"><a xlink:title=" ">
<polygon fill="none" stroke="#bfbfbf" points="593,-0.5 593,-19.5 643,-19.5 643,-0.5 593,-0.5"/>
<text text-anchor="middle" x="618" y="-7.5" font-family="Helvetica,sans-Serif" font-size="10.00">unistd.h</text>
</a>
</g>
</g>
<!-- Node18&#45;&gt;Node31 -->
<g id="edge30" class="edge">
<title>Node18&#45;&gt;Node31</title>
<path fill="none" stroke="midnightblue" d="M703.61,-56.32C687.33,-47.7 662.13,-34.36 643.28,-24.39"/>
<polygon fill="midnightblue" stroke="midnightblue" points="644.82,-21.24 634.35,-19.65 641.55,-27.43 644.82,-21.24"/>
</g>
<!-- Node32 -->
<g id="node32" class="node">
<title>Node32</title>
<g id="a_node32"><a xlink:title=" ">
<polygon fill="none" stroke="#bfbfbf" points="661.5,-0.5 661.5,-19.5 704.5,-19.5 704.5,-0.5 661.5,-0.5"/>
<text text-anchor="middle" x="683" y="-7.5" font-family="Helvetica,sans-Serif" font-size="10.00">time.h</text>
</a>
</g>
</g>
<!-- Node18&#45;&gt;Node32 -->
<g id="edge31" class="edge">
<title>Node18&#45;&gt;Node32</title>
<path fill="none" stroke="midnightblue" d="M713.89,-56.08C708.72,-48.53 701.15,-37.49 694.81,-28.23"/>
<polygon fill="midnightblue" stroke="midnightblue" points="697.54,-26.02 689,-19.75 691.76,-29.98 697.54,-26.02"/>
</g>
<!-- Node33 -->
<g id="node33" class="node">
<title>Node33</title>
<g id="a_node33"><a xlink:title=" ">
<polygon fill="none" stroke="#bfbfbf" points="722.5,-0.5 722.5,-19.5 791.5,-19.5 791.5,-0.5 722.5,-0.5"/>
<text text-anchor="middle" x="757" y="-7.5" font-family="Helvetica,sans-Serif" font-size="10.00">sys/mman.h</text>
</a>
</g>
</g>
<!-- Node18&#45;&gt;Node33 -->
<g id="edge32" class="edge">
<title>Node18&#45;&gt;Node33</title>
<path fill="none" stroke="midnightblue" d="M726.11,-56.08C731.28,-48.53 738.85,-37.49 745.19,-28.23"/>
<polygon fill="midnightblue" stroke="midnightblue" points="748.24,-29.98 751,-19.75 742.46,-26.02 748.24,-29.98"/>
</g>
<!-- Node34 -->
<g id="node34" class="node">
<title>Node34</title>
<g id="a_node34"><a xlink:title=" ">
<polygon fill="none" stroke="#bfbfbf" points="809.5,-0.5 809.5,-19.5 862.5,-19.5 862.5,-0.5 809.5,-0.5"/>
<text text-anchor="middle" x="836" y="-7.5" font-family="Helvetica,sans-Serif" font-size="10.00">malloc.h</text>
</a>
</g>
</g>
<!-- Node18&#45;&gt;Node34 -->
<g id="edge33" class="edge">
<title>Node18&#45;&gt;Node34</title>
<path fill="none" stroke="midnightblue" d="M738.38,-56.44C757.22,-47.68 786.73,-33.94 808.38,-23.86"/>
<polygon fill="midnightblue" stroke="midnightblue" points="810.12,-26.91 817.71,-19.52 807.16,-20.56 810.12,-26.91"/>
</g>
<!-- Node35 -->
<g id="node35" class="node">
<title>Node35</title>
<g id="a_node35"><a xlink:title=" ">
<polygon fill="none" stroke="#bfbfbf" points="881,-0.5 881,-19.5 931,-19.5 931,-0.5 881,-0.5"/>
<text text-anchor="middle" x="906" y="-7.5" font-family="Helvetica,sans-Serif" font-size="10.00">sched.h</text>
</a>
</g>
</g>
<!-- Node18&#45;&gt;Node35 -->
<g id="edge34" class="edge">
<title>Node18&#45;&gt;Node35</title>
<path fill="none" stroke="midnightblue" d="M749.47,-56.44C782.48,-46.86 835.93,-31.34 871.02,-21.15"/>
<polygon fill="midnightblue" stroke="midnightblue" points="872.21,-24.45 880.84,-18.3 870.26,-17.73 872.21,-24.45"/>
</g>
<!-- Node36 -->
<g id="node36" class="node">
<title>Node36</title>
<g id="a_node36"><a xlink:title=" ">
<polygon fill="none" stroke="#bfbfbf" points="949.5,-0.5 949.5,-19.5 990.5,-19.5 990.5,-0.5 949.5,-0.5"/>
<text text-anchor="middle" x="970" y="-7.5" font-family="Helvetica,sans-Serif" font-size="10.00">ecrt.h</text>
</a>
</g>
</g>
<!-- Node18&#45;&gt;Node36 -->
<g id="edge37" class="edge">
<title>Node18&#45;&gt;Node36</title>
<path fill="none" stroke="midnightblue" d="M767.92,-56.48C810.49,-48.63 874.58,-36.1 939.42,-19.96"/>
<polygon fill="midnightblue" stroke="midnightblue" points="940.57,-23.28 949.41,-17.44 938.86,-16.49 940.57,-23.28"/>
</g>
<!-- Node37 -->
<g id="node37" class="node">
<title>Node37</title>
<g id="a_node37"><a xlink:href="object__dictionary_8hpp.html" target="_top" xlink:title=" ">
<polygon fill="none" stroke="black" points="1008.5,-0.5 1008.5,-19.5 1115.5,-19.5 1115.5,-0.5 1008.5,-0.5"/>
<text text-anchor="middle" x="1062" y="-7.5" font-family="Helvetica,sans-Serif" font-size="10.00">object_dictionary.hpp</text>
</a>
</g>
</g>
<!-- Node18&#45;&gt;Node37 -->
<g id="edge38" class="edge">
<title>Node18&#45;&gt;Node37</title>
<path fill="none" stroke="midnightblue" d="M771.2,-56.92C831.78,-47.35 932.68,-31.42 998.26,-21.06"/>
<polygon fill="midnightblue" stroke="midnightblue" points="999.14,-24.47 1008.47,-19.45 998.05,-17.55 999.14,-24.47"/>
</g>
</g>
</svg>
        <g id="navigator" transform="translate(0 0)" fill="#404254">
                <rect fill="#f2f5e9" fill-opacity="0.5" stroke="#606060" stroke-width=".5" x="0" y="0" width="60" height="60"/>
                <use id="zoomplus" xlink:href="#zoomPlus" x="17" y="9" onmousedown="handleZoom(evt,'in')"/>
                <use id="zoomminus" xlink:href="#zoomMin" x="42" y="9" onmousedown="handleZoom(evt,'out')"/>
                <use id="reset" xlink:href="#resetDef" x="30" y="36" onmousedown="handleReset()"/>
                <g id="arrowUp" xlink:href="#dirArrow" transform="translate(30 24)" onmousedown="handlePan(0,-1)">
                  <use xlink:href="#rim" fill="#404040">
                        <set attributeName="fill" to="#808080" begin="arrowUp.mouseover" end="arrowUp.mouseout"/>
                  </use>
                  <path fill="none" stroke="white" stroke-width="1.5" d="M0,-3.0v7 M-2.5,-0.5L0,-3.0L2.5,-0.5"/>
                </g>
                <g id="arrowRight" xlink:href="#dirArrow" transform="rotate(90) translate(36 -43)" onmousedown="handlePan(1,0)">
                  <use xlink:href="#rim" fill="#404040">
                        <set attributeName="fill" to="#808080" begin="arrowRight.mouseover" end="arrowRight.mouseout"/>
                  </use>
                  <path fill="none" stroke="white" stroke-width="1.5" d="M0,-3.0v7 M-2.5,-0.5L0,-3.0L2.5,-0.5"/>
                </g>
                <g id="arrowDown" xlink:href="#dirArrow" transform="rotate(180) translate(-30 -48)" onmousedown="handlePan(0,1)">
                  <use xlink:href="#rim" fill="#404040">
                        <set attributeName="fill" to="#808080" begin="arrowDown.mouseover" end="arrowDown.mouseout"/>
                  </use>
                  <path fill="none" stroke="white" stroke-width="1.5" d="M0,-3.0v7 M-2.5,-0.5L0,-3.0L2.5,-0.5"/>
                </g>
                <g id="arrowLeft" xlink:href="#dirArrow" transform="rotate(270) translate(-36 17)" onmousedown="handlePan(-1,0)">
                  <use xlink:href="#rim" fill="#404040">
                        <set attributeName="fill" to="#808080" begin="arrowLeft.mouseover" end="arrowLeft.mouseout"/>
                  </use>
                  <path fill="none" stroke="white" stroke-width="1.5" d="M0,-3.0v7 M-2.5,-0.5L0,-3.0L2.5,-0.5"/>
                </g>
        </g>
        <svg viewBox="0 0 15 15" width="100%" height="30px" preserveAspectRatio="xMaxYMin meet">
         <g id="arrow_out" transform="scale(0.3 0.3)">
          <a xlink:href="safety__node_8hpp__incl_org.svg" target="_base">
           <rect id="button" ry="5" rx="5" y="6" x="6" height="38" width="38"
                fill="#f2f5e9" fill-opacity="0.5" stroke="#606060" stroke-width="1.0"/>
           <path id="arrow"
             d="M 11.500037,31.436501 C 11.940474,20.09759 22.043105,11.32322 32.158766,21.979434 L 37.068811,17.246167 C 37.068811,17.246167 37.088388,32 37.088388,32 L 22.160133,31.978069 C 22.160133,31.978069 26.997745,27.140456 26.997745,27.140456 C 18.528582,18.264221 13.291696,25.230495 11.500037,31.436501 z"
             style="fill:#404040;"/>
          </a>
         </g>
        </svg>
</svg>
