<?xml version="1.0" encoding="UTF-8" standalone="no"?>
<!DOCTYPE svg PUBLIC "-//W3C//DTD SVG 1.1//EN"
 "http://www.w3.org/Graphics/SVG/1.1/DTD/svg11.dtd">
<!-- Generated by graphviz version 2.49.3 (20211027.1534)
 -->
<!-- Title: src/log_pkg/src/timing_node.cpp Pages: 1 -->
<svg width="364pt" height="162pt"
 viewBox="0.00 0.00 364.00 162.00" xmlns="http://www.w3.org/2000/svg" xmlns:xlink="http://www.w3.org/1999/xlink">
<g id="graph0" class="graph" transform="scale(1 1) rotate(0) translate(4 158)">
<title>src/log_pkg/src/timing_node.cpp</title>
<!-- Node1 -->
<g id="node1" class="node">
<title>Node1</title>
<g id="a_node1"><a xlink:title=" ">
<polygon fill="#bfbfbf" stroke="black" points="105.5,-123.5 105.5,-153.5 218.5,-153.5 218.5,-123.5 105.5,-123.5"/>
<text text-anchor="start" x="113.5" y="-141.5" font-family="Helvetica,sans-Serif" font-size="10.00">src/log_pkg/src/timing</text>
<text text-anchor="middle" x="162" y="-130.5" font-family="Helvetica,sans-Serif" font-size="10.00">_node.cpp</text>
</a>
</g>
</g>
<!-- Node2 -->
<g id="node2" class="node">
<title>Node2</title>
<g id="a_node2"><a xlink:href="timing__node_8hpp.html" target="_top" xlink:title=" ">
<polygon fill="none" stroke="black" points="118.5,-67.5 118.5,-86.5 205.5,-86.5 205.5,-67.5 118.5,-67.5"/>
<text text-anchor="middle" x="162" y="-74.5" font-family="Helvetica,sans-Serif" font-size="10.00">timing_node.hpp</text>
</a>
</g>
</g>
<!-- Node1&#45;&gt;Node2 -->
<g id="edge1" class="edge">
<title>Node1&#45;&gt;Node2</title>
<path fill="none" stroke="midnightblue" d="M162,-123.4C162,-115.47 162,-105.46 162,-96.86"/>
<polygon fill="midnightblue" stroke="midnightblue" points="165.5,-96.66 162,-86.66 158.5,-96.66 165.5,-96.66"/>
</g>
<!-- Node3 -->
<g id="node3" class="node">
<title>Node3</title>
<g id="a_node3"><a xlink:title=" ">
<polygon fill="none" stroke="#bfbfbf" points="0,-6 0,-25 90,-25 90,-6 0,-6"/>
<text text-anchor="middle" x="45" y="-13" font-family="Helvetica,sans-Serif" font-size="10.00">rclcpp/rclcpp.hpp</text>
</a>
</g>
</g>
<!-- Node2&#45;&gt;Node3 -->
<g id="edge2" class="edge">
<title>Node2&#45;&gt;Node3</title>
<path fill="none" stroke="midnightblue" d="M145.24,-67.48C125.78,-57.58 93.45,-41.14 70.79,-29.62"/>
<polygon fill="midnightblue" stroke="midnightblue" points="72.23,-26.42 61.73,-25.01 69.06,-32.66 72.23,-26.42"/>
</g>
<!-- Node4 -->
<g id="node4" class="node">
<title>Node4</title>
<g id="a_node4"><a xlink:title=" ">
<polygon fill="none" stroke="#bfbfbf" points="108,-0.5 108,-30.5 216,-30.5 216,-0.5 108,-0.5"/>
<text text-anchor="start" x="116" y="-18.5" font-family="Helvetica,sans-Serif" font-size="10.00">ecat_msgs/msg/data</text>
<text text-anchor="middle" x="162" y="-7.5" font-family="Helvetica,sans-Serif" font-size="10.00">_received.hpp</text>
</a>
</g>
</g>
<!-- Node2&#45;&gt;Node4 -->
<g id="edge3" class="edge">
<title>Node2&#45;&gt;Node4</title>
<path fill="none" stroke="midnightblue" d="M162,-67.48C162,-60.47 162,-50.19 162,-40.7"/>
<polygon fill="midnightblue" stroke="midnightblue" points="165.5,-40.52 162,-30.52 158.5,-40.52 165.5,-40.52"/>
</g>
<!-- Node5 -->
<g id="node5" class="node">
<title>Node5</title>
<g id="a_node5"><a xlink:title=" ">
<polygon fill="none" stroke="#bfbfbf" points="234,-6 234,-25 356,-25 356,-6 234,-6"/>
<text text-anchor="middle" x="295" y="-13" font-family="Helvetica,sans-Serif" font-size="10.00">rcutils/logging_macros.h</text>
</a>
</g>
</g>
<!-- Node2&#45;&gt;Node5 -->
<g id="edge4" class="edge">
<title>Node2&#45;&gt;Node5</title>
<path fill="none" stroke="midnightblue" d="M181.06,-67.48C203.47,-57.45 240.91,-40.7 266.71,-29.15"/>
<polygon fill="midnightblue" stroke="midnightblue" points="268.28,-32.29 275.98,-25.01 265.42,-25.9 268.28,-32.29"/>
</g>
</g>
</svg>
