<?xml version="1.0" encoding="UTF-8" standalone="no"?>
<!DOCTYPE svg PUBLIC "-//W3C//DTD SVG 1.1//EN"
 "http://www.w3.org/Graphics/SVG/1.1/DTD/svg11.dtd">
<!-- Generated by graphviz version 2.43.0 (0)
 -->
<!-- Title: src/gui_pkg/include/gui_pkg/video_capture.hpp Pages: 1 -->
<svg width="533pt" height="173pt"
 viewBox="0.00 0.00 533.00 173.00" xmlns="http://www.w3.org/2000/svg" xmlns:xlink="http://www.w3.org/1999/xlink">
<g id="graph0" class="graph" transform="scale(1 1) rotate(0) translate(4 169)">
<title>src/gui_pkg/include/gui_pkg/video_capture.hpp</title>
<!-- Node1 -->
<g id="node1" class="node">
<title>Node1</title>
<g id="a_node1"><a xlink:title=" ">
<polygon fill="#bfbfbf" stroke="black" points="238,-134.5 238,-164.5 389,-164.5 389,-134.5 238,-134.5"/>
<text text-anchor="start" x="246" y="-152.5" font-family="Helvetica,sans-Serif" font-size="10.00">src/gui_pkg/include</text>
<text text-anchor="middle" x="313.5" y="-141.5" font-family="Helvetica,sans-Serif" font-size="10.00">/gui_pkg/video_capture.hpp</text>
</a>
</g>
</g>
<!-- Node2 -->
<g id="node2" class="node">
<title>Node2</title>
<g id="a_node2"><a xlink:href="endoscope__viewer_8hpp.html" target="_top" xlink:title=" ">
<polygon fill="none" stroke="black" points="48,-67.5 48,-97.5 221,-97.5 221,-67.5 48,-67.5"/>
<text text-anchor="start" x="56" y="-85.5" font-family="Helvetica,sans-Serif" font-size="10.00">src/gui_pkg/include</text>
<text text-anchor="middle" x="134.5" y="-74.5" font-family="Helvetica,sans-Serif" font-size="10.00">/gui_pkg/endoscope_viewer.hpp</text>
</a>
</g>
</g>
<!-- Node1&#45;&gt;Node2 -->
<g id="edge1" class="edge">
<title>Node1&#45;&gt;Node2</title>
<path fill="none" stroke="midnightblue" d="M265.18,-130.96C236.35,-120.48 200.22,-107.37 173.26,-97.58"/>
<polygon fill="midnightblue" stroke="midnightblue" points="264.07,-134.27 274.66,-134.4 266.45,-127.69 264.07,-134.27"/>
</g>
<!-- Node5 -->
<g id="node5" class="node">
<title>Node5</title>
<g id="a_node5"><a xlink:href="main__window_8hpp.html" target="_top" xlink:title=" ">
<polygon fill="none" stroke="black" points="239,-67.5 239,-97.5 388,-97.5 388,-67.5 239,-67.5"/>
<text text-anchor="start" x="247" y="-85.5" font-family="Helvetica,sans-Serif" font-size="10.00">src/gui_pkg/include</text>
<text text-anchor="middle" x="313.5" y="-74.5" font-family="Helvetica,sans-Serif" font-size="10.00">/gui_pkg/main_window.hpp</text>
</a>
</g>
</g>
<!-- Node1&#45;&gt;Node5 -->
<g id="edge4" class="edge">
<title>Node1&#45;&gt;Node5</title>
<path fill="none" stroke="midnightblue" d="M313.5,-124.11C313.5,-115.15 313.5,-105.32 313.5,-97.58"/>
<polygon fill="midnightblue" stroke="midnightblue" points="310,-124.4 313.5,-134.4 317,-124.4 310,-124.4"/>
</g>
<!-- Node7 -->
<g id="node7" class="node">
<title>Node7</title>
<g id="a_node7"><a xlink:href="video__capture_8cpp.html" target="_top" xlink:title=" ">
<polygon fill="none" stroke="black" points="406,-67.5 406,-97.5 525,-97.5 525,-67.5 406,-67.5"/>
<text text-anchor="start" x="414" y="-85.5" font-family="Helvetica,sans-Serif" font-size="10.00">src/gui_pkg/src/video</text>
<text text-anchor="middle" x="465.5" y="-74.5" font-family="Helvetica,sans-Serif" font-size="10.00">_capture.cpp</text>
</a>
</g>
</g>
<!-- Node1&#45;&gt;Node7 -->
<g id="edge7" class="edge">
<title>Node1&#45;&gt;Node7</title>
<path fill="none" stroke="midnightblue" d="M355.81,-130.41C380.08,-120.03 410.09,-107.2 432.58,-97.58"/>
<polygon fill="midnightblue" stroke="midnightblue" points="354.3,-127.25 346.48,-134.4 357.05,-133.68 354.3,-127.25"/>
</g>
<!-- Node3 -->
<g id="node3" class="node">
<title>Node3</title>
<g id="a_node3"><a xlink:href="endoscope__viewer_8cpp.html" target="_top" xlink:title=" ">
<polygon fill="none" stroke="black" points="0,-0.5 0,-30.5 145,-30.5 145,-0.5 0,-0.5"/>
<text text-anchor="start" x="8" y="-18.5" font-family="Helvetica,sans-Serif" font-size="10.00">src/gui_pkg/src/endoscope</text>
<text text-anchor="middle" x="72.5" y="-7.5" font-family="Helvetica,sans-Serif" font-size="10.00">_viewer.cpp</text>
</a>
</g>
</g>
<!-- Node2&#45;&gt;Node3 -->
<g id="edge2" class="edge">
<title>Node2&#45;&gt;Node3</title>
<path fill="none" stroke="midnightblue" d="M114.02,-60.02C104.78,-50.34 94.13,-39.17 85.93,-30.58"/>
<polygon fill="midnightblue" stroke="midnightblue" points="111.61,-62.58 121.05,-67.4 116.68,-57.74 111.61,-62.58"/>
</g>
<!-- Node4 -->
<g id="node4" class="node">
<title>Node4</title>
<g id="a_node4"><a xlink:href="gui__pkg_2src_2main_8cpp.html" target="_top" xlink:title=" ">
<polygon fill="none" stroke="black" points="163,-6 163,-25 300,-25 300,-6 163,-6"/>
<text text-anchor="middle" x="231.5" y="-13" font-family="Helvetica,sans-Serif" font-size="10.00">src/gui_pkg/src/main.cpp</text>
</a>
</g>
</g>
<!-- Node2&#45;&gt;Node4 -->
<g id="edge3" class="edge">
<title>Node2&#45;&gt;Node4</title>
<path fill="none" stroke="midnightblue" d="M164.14,-61.64C182.44,-49.37 204.99,-34.26 218.8,-25.01"/>
<polygon fill="midnightblue" stroke="midnightblue" points="161.91,-58.92 155.55,-67.4 165.8,-64.74 161.91,-58.92"/>
</g>
<!-- Node5&#45;&gt;Node4 -->
<g id="edge5" class="edge">
<title>Node5&#45;&gt;Node4</title>
<path fill="none" stroke="midnightblue" d="M287.65,-61.01C272.43,-48.94 253.96,-34.3 242.47,-25.19"/>
<polygon fill="midnightblue" stroke="midnightblue" points="285.7,-63.93 295.71,-67.4 290.04,-58.44 285.7,-63.93"/>
</g>
<!-- Node6 -->
<g id="node6" class="node">
<title>Node6</title>
<g id="a_node6"><a xlink:href="main__window_8cpp.html" target="_top" xlink:title=" ">
<polygon fill="none" stroke="black" points="318,-0.5 318,-30.5 435,-30.5 435,-0.5 318,-0.5"/>
<text text-anchor="start" x="326" y="-18.5" font-family="Helvetica,sans-Serif" font-size="10.00">src/gui_pkg/src/main</text>
<text text-anchor="middle" x="376.5" y="-7.5" font-family="Helvetica,sans-Serif" font-size="10.00">_window.cpp</text>
</a>
</g>
</g>
<!-- Node5&#45;&gt;Node6 -->
<g id="edge6" class="edge">
<title>Node5&#45;&gt;Node6</title>
<path fill="none" stroke="midnightblue" d="M334.31,-60.02C343.7,-50.34 354.52,-39.17 362.86,-30.58"/>
<polygon fill="midnightblue" stroke="midnightblue" points="331.62,-57.78 327.17,-67.4 336.64,-62.65 331.62,-57.78"/>
</g>
</g>
</svg>
