<?xml version="1.0" encoding="UTF-8" standalone="no"?>
<!DOCTYPE svg PUBLIC "-//W3C//DTD SVG 1.1//EN"
 "http://www.w3.org/Graphics/SVG/1.1/DTD/svg11.dtd">
<!-- Generated by graphviz version 2.43.0 (0)
 -->
<!-- Title: src/gui_pkg/src/video_capture.cpp Pages: 1 -->
<svg width="925pt" height="162pt"
 viewBox="0.00 0.00 925.00 162.00" xmlns="http://www.w3.org/2000/svg" xmlns:xlink="http://www.w3.org/1999/xlink">
<g id="graph0" class="graph" transform="scale(1 1) rotate(0) translate(4 158)">
<title>src/gui_pkg/src/video_capture.cpp</title>
<!-- Node1 -->
<g id="node1" class="node">
<title>Node1</title>
<g id="a_node1"><a xlink:title=" ">
<polygon fill="#bfbfbf" stroke="black" points="354,-123.5 354,-153.5 473,-153.5 473,-123.5 354,-123.5"/>
<text text-anchor="start" x="362" y="-141.5" font-family="Helvetica,sans-Serif" font-size="10.00">src/gui_pkg/src/video</text>
<text text-anchor="middle" x="413.5" y="-130.5" font-family="Helvetica,sans-Serif" font-size="10.00">_capture.cpp</text>
</a>
</g>
</g>
<!-- Node2 -->
<g id="node2" class="node">
<title>Node2</title>
<g id="a_node2"><a xlink:href="video__capture_8hpp.html" target="_top" xlink:title=" ">
<polygon fill="none" stroke="black" points="308.5,-56.5 308.5,-86.5 418.5,-86.5 418.5,-56.5 308.5,-56.5"/>
<text text-anchor="start" x="316.5" y="-74.5" font-family="Helvetica,sans-Serif" font-size="10.00">../include/gui_pkg</text>
<text text-anchor="middle" x="363.5" y="-63.5" font-family="Helvetica,sans-Serif" font-size="10.00">/video_capture.hpp</text>
</a>
</g>
</g>
<!-- Node1&#45;&gt;Node2 -->
<g id="edge1" class="edge">
<title>Node1&#45;&gt;Node2</title>
<path fill="none" stroke="midnightblue" d="M402.65,-123.4C396.16,-114.96 387.78,-104.07 380.44,-94.52"/>
<polygon fill="midnightblue" stroke="midnightblue" points="383.2,-92.37 374.33,-86.58 377.65,-96.64 383.2,-92.37"/>
</g>
<!-- Node11 -->
<g id="node11" class="node">
<title>Node11</title>
<g id="a_node11"><a xlink:title=" ">
<polygon fill="none" stroke="#bfbfbf" points="436.5,-62 436.5,-81 492.5,-81 492.5,-62 436.5,-62"/>
<text text-anchor="middle" x="464.5" y="-69" font-family="Helvetica,sans-Serif" font-size="10.00">QDebug</text>
</a>
</g>
</g>
<!-- Node1&#45;&gt;Node11 -->
<g id="edge10" class="edge">
<title>Node1&#45;&gt;Node11</title>
<path fill="none" stroke="midnightblue" d="M424.57,-123.4C432.44,-113.36 443.05,-99.84 451.35,-89.25"/>
<polygon fill="midnightblue" stroke="midnightblue" points="454.26,-91.22 457.68,-81.19 448.75,-86.9 454.26,-91.22"/>
</g>
<!-- Node3 -->
<g id="node3" class="node">
<title>Node3</title>
<g id="a_node3"><a xlink:title=" ">
<polygon fill="none" stroke="#bfbfbf" points="0,-0.5 0,-19.5 61,-19.5 61,-0.5 0,-0.5"/>
<text text-anchor="middle" x="30.5" y="-7.5" font-family="Helvetica,sans-Serif" font-size="10.00">QPixmap</text>
</a>
</g>
</g>
<!-- Node2&#45;&gt;Node3 -->
<g id="edge2" class="edge">
<title>Node2&#45;&gt;Node3</title>
<path fill="none" stroke="midnightblue" d="M308.33,-61.98C251.26,-52.95 159.33,-37.81 71.03,-20.23"/>
<polygon fill="midnightblue" stroke="midnightblue" points="71.61,-16.77 61.12,-18.24 70.24,-23.64 71.61,-16.77"/>
</g>
<!-- Node4 -->
<g id="node4" class="node">
<title>Node4</title>
<g id="a_node4"><a xlink:title=" ">
<polygon fill="none" stroke="#bfbfbf" points="79,-0.5 79,-19.5 134,-19.5 134,-0.5 79,-0.5"/>
<text text-anchor="middle" x="106.5" y="-7.5" font-family="Helvetica,sans-Serif" font-size="10.00">QImage</text>
</a>
</g>
</g>
<!-- Node2&#45;&gt;Node4 -->
<g id="edge3" class="edge">
<title>Node2&#45;&gt;Node4</title>
<path fill="none" stroke="midnightblue" d="M308.3,-58.04C266.04,-48.45 206.03,-34.73 144.29,-20.17"/>
<polygon fill="midnightblue" stroke="midnightblue" points="144.91,-16.71 134.37,-17.82 143.3,-23.53 144.91,-16.71"/>
</g>
<!-- Node5 -->
<g id="node5" class="node">
<title>Node5</title>
<g id="a_node5"><a xlink:title=" ">
<polygon fill="none" stroke="#bfbfbf" points="152.5,-0.5 152.5,-19.5 210.5,-19.5 210.5,-0.5 152.5,-0.5"/>
<text text-anchor="middle" x="181.5" y="-7.5" font-family="Helvetica,sans-Serif" font-size="10.00">QThread</text>
</a>
</g>
</g>
<!-- Node2&#45;&gt;Node5 -->
<g id="edge4" class="edge">
<title>Node2&#45;&gt;Node5</title>
<path fill="none" stroke="midnightblue" d="M320.37,-56.4C288.92,-46.12 246.81,-32.35 217.23,-22.68"/>
<polygon fill="midnightblue" stroke="midnightblue" points="218.31,-19.35 207.72,-19.57 216.13,-26.01 218.31,-19.35"/>
</g>
<!-- Node6 -->
<g id="node6" class="node">
<title>Node6</title>
<g id="a_node6"><a xlink:title=" ">
<polygon fill="none" stroke="#bfbfbf" points="228.5,-0.5 228.5,-19.5 344.5,-19.5 344.5,-0.5 228.5,-0.5"/>
<text text-anchor="middle" x="286.5" y="-7.5" font-family="Helvetica,sans-Serif" font-size="10.00">opencv2/opencv.hpp</text>
</a>
</g>
</g>
<!-- Node2&#45;&gt;Node6 -->
<g id="edge5" class="edge">
<title>Node2&#45;&gt;Node6</title>
<path fill="none" stroke="midnightblue" d="M345.25,-56.4C333.37,-47.22 317.89,-35.26 305.81,-25.92"/>
<polygon fill="midnightblue" stroke="midnightblue" points="307.76,-23 297.7,-19.66 303.48,-28.54 307.76,-23"/>
</g>
<!-- Node7 -->
<g id="node7" class="node">
<title>Node7</title>
<g id="a_node7"><a xlink:title=" ">
<polygon fill="none" stroke="#bfbfbf" points="363,-0.5 363,-19.5 520,-19.5 520,-0.5 363,-0.5"/>
<text text-anchor="middle" x="441.5" y="-7.5" font-family="Helvetica,sans-Serif" font-size="10.00">opencv2/highgui/highgui.hpp</text>
</a>
</g>
</g>
<!-- Node2&#45;&gt;Node7 -->
<g id="edge6" class="edge">
<title>Node2&#45;&gt;Node7</title>
<path fill="none" stroke="midnightblue" d="M381.98,-56.4C394.02,-47.22 409.7,-35.26 421.94,-25.92"/>
<polygon fill="midnightblue" stroke="midnightblue" points="424.32,-28.51 430.15,-19.66 420.08,-22.94 424.32,-28.51"/>
</g>
<!-- Node8 -->
<g id="node8" class="node">
<title>Node8</title>
<g id="a_node8"><a xlink:title=" ">
<polygon fill="none" stroke="#bfbfbf" points="538.5,-0.5 538.5,-19.5 660.5,-19.5 660.5,-0.5 538.5,-0.5"/>
<text text-anchor="middle" x="599.5" y="-7.5" font-family="Helvetica,sans-Serif" font-size="10.00">opencv2/imgproc.hpp</text>
</a>
</g>
</g>
<!-- Node2&#45;&gt;Node8 -->
<g id="edge7" class="edge">
<title>Node2&#45;&gt;Node8</title>
<path fill="none" stroke="midnightblue" d="M418.53,-56.62C460.29,-46.1 516.93,-31.82 555.66,-22.05"/>
<polygon fill="midnightblue" stroke="midnightblue" points="556.75,-25.39 565.59,-19.55 555.03,-18.6 556.75,-25.39"/>
</g>
<!-- Node9 -->
<g id="node9" class="node">
<title>Node9</title>
<g id="a_node9"><a xlink:title=" ">
<polygon fill="none" stroke="#bfbfbf" points="679,-0.5 679,-19.5 806,-19.5 806,-0.5 679,-0.5"/>
<text text-anchor="middle" x="742.5" y="-7.5" font-family="Helvetica,sans-Serif" font-size="10.00">opencv2/core/core.hpp</text>
</a>
</g>
</g>
<!-- Node2&#45;&gt;Node9 -->
<g id="edge8" class="edge">
<title>Node2&#45;&gt;Node9</title>
<path fill="none" stroke="midnightblue" d="M418.6,-57.72C421.61,-57.11 424.59,-56.54 427.5,-56 472.34,-47.73 590.35,-31.41 668.5,-20.87"/>
<polygon fill="midnightblue" stroke="midnightblue" points="669.34,-24.29 678.78,-19.48 668.4,-17.35 669.34,-24.29"/>
</g>
<!-- Node10 -->
<g id="node10" class="node">
<title>Node10</title>
<g id="a_node10"><a xlink:href="gui__globals_8hpp.html" target="_top" xlink:title=" ">
<polygon fill="none" stroke="black" points="824,-0.5 824,-19.5 917,-19.5 917,-0.5 824,-0.5"/>
<text text-anchor="middle" x="870.5" y="-7.5" font-family="Helvetica,sans-Serif" font-size="10.00">gui_globals.hpp</text>
</a>
</g>
</g>
<!-- Node2&#45;&gt;Node10 -->
<g id="edge9" class="edge">
<title>Node2&#45;&gt;Node10</title>
<path fill="none" stroke="midnightblue" d="M418.57,-57.54C421.58,-56.99 424.57,-56.47 427.5,-56 595.28,-29.33 641.95,-41.51 813.59,-20.16"/>
<polygon fill="midnightblue" stroke="midnightblue" points="814.24,-23.61 823.72,-18.88 813.36,-16.66 814.24,-23.61"/>
</g>
</g>
</svg>
